<svg width="64" height="64" viewBox="0 0 64 64" fill="none" xmlns="http://www.w3.org/2000/svg">
<path d="M32.3336 24.653C32.0115 23.7823 30.7798 23.7823 30.4576 24.653L29.5426 27.1276L27.1442 26.025C26.3007 25.6372 25.4302 26.5088 25.818 27.3522L26.9205 29.7496L24.4449 30.6656C23.5743 30.9878 23.5743 32.2195 24.4449 32.5416L26.9205 33.4576L25.818 35.8561C25.4305 36.6994 26.3008 37.57 27.1442 37.1823L29.5426 36.0787L30.4576 38.5543C30.7798 39.4249 32.0115 39.4249 32.3336 38.5543L33.2506 36.0787L35.6481 37.1823C36.4913 37.5697 37.3616 36.6993 36.9742 35.8561L35.8727 33.4576L38.3473 32.5416C39.2175 32.2193 39.2176 30.9879 38.3473 30.6656L35.8727 29.7496L36.9742 27.3522C37.362 26.5089 36.4914 25.6376 35.6481 26.025L33.2506 27.1276L32.3336 24.653Z" fill="#1B1B1B"/>
</svg>
