<svg width="64" height="64" viewBox="0 0 64 64" fill="none" xmlns="http://www.w3.org/2000/svg">
<path d="M46.4835 41.4569C46.1561 40.599 44.9418 40.599 44.6144 41.4569L43.5822 44.1649L40.922 42.9794C40.0657 42.5976 39.1818 43.4548 39.5753 44.285L40.799 46.8632L38.1027 47.83C37.22 48.1469 37.2201 49.3957 38.1027 49.7128L40.799 50.6786L39.5753 53.2577C39.1815 54.088 40.0656 54.9451 40.922 54.5634L43.5812 53.3778L44.6144 56.0868C44.9419 56.9444 46.156 56.9444 46.4835 56.0868L47.5177 53.3778L50.1759 54.5634C51.0323 54.9451 51.9164 54.088 51.5226 53.2577L50.2999 50.6786L52.9952 49.7128C53.878 49.3958 53.8781 48.1468 52.9952 47.83L50.2999 46.8632L51.5226 44.285C51.9162 43.4548 51.0322 42.5976 50.1759 42.9794L47.5167 44.1649L46.4835 41.4569Z" fill="#1B1B1B"/>
<path d="M33.0428 25.6436C32.7154 24.7857 31.5011 24.7857 31.1737 25.6436L30.1415 28.3516L27.4813 27.166C26.625 26.7843 25.7411 27.6415 26.1346 28.4717L27.3583 31.0498L24.662 32.0166C23.7793 32.3335 23.7794 33.5824 24.662 33.8994L27.3583 34.8652L26.1346 37.4443C25.7409 38.2746 26.6249 39.1318 27.4813 38.75L30.1405 37.5645L31.1737 40.2734C31.5012 41.1311 32.7153 41.131 33.0428 40.2734L34.077 37.5645L36.7352 38.75C37.5916 39.1318 38.4757 38.2746 38.0819 37.4443L36.8593 34.8652L39.5546 33.8994C40.4373 33.5824 40.4374 32.3334 39.5546 32.0166L36.8593 31.0498L38.0819 28.4717C38.4755 27.6415 37.5916 26.7843 36.7352 27.166L34.076 28.3516L33.0428 25.6436Z" fill="#1B1B1B"/>
<path d="M19.0428 8.64355C18.7154 7.78567 17.5011 7.78567 17.1737 8.64355L16.1415 11.3516L13.4813 10.166C12.625 9.78428 11.7411 10.6415 12.1346 11.4717L13.3583 14.0498L10.662 15.0166C9.7793 15.3335 9.77943 16.5824 10.662 16.8994L13.3583 17.8652L12.1346 20.4443C11.7409 21.2746 12.6249 22.1318 13.4813 21.75L16.1405 20.5645L17.1737 23.2734C17.5012 24.1311 18.7153 24.131 19.0428 23.2734L20.077 20.5645L22.7352 21.75C23.5916 22.1318 24.4757 21.2746 24.0819 20.4443L22.8593 17.8652L25.5546 16.8994C26.4373 16.5824 26.4374 15.3334 25.5546 15.0166L22.8593 14.0498L24.0819 11.4717C24.4755 10.6415 23.5916 9.78427 22.7352 10.166L20.076 11.3516L19.0428 8.64355Z" fill="#1B1B1B"/>
</svg>
