<svg width="64" height="64" viewBox="0 0 64 64" fill="none" xmlns="http://www.w3.org/2000/svg">
<path d="M20.5426 11.653C20.2204 10.7823 18.9888 10.7823 18.6666 11.653L17.7506 14.1276L15.3522 13.025C14.5089 12.6376 13.6382 13.5089 14.026 14.3522L15.1285 16.7496L12.653 17.6656C11.7826 17.9879 11.7827 19.2193 12.653 19.5416L15.1285 20.4576L14.026 22.8561C13.6384 23.6994 14.5089 24.5698 15.3522 24.1823L17.7506 23.0797L18.6666 25.5553C18.9889 26.4256 20.2204 26.4256 20.5426 25.5553L21.4586 23.0797L23.8561 24.1823C24.6994 24.57 25.5707 23.6994 25.1832 22.8561L24.0807 20.4576L26.5553 19.5416C27.4259 19.2195 27.4259 17.9878 26.5553 17.6656L24.0807 16.7496L25.1832 14.3522C25.571 13.5088 24.6995 12.6372 23.8561 13.025L21.4586 14.1276L20.5426 11.653Z" fill="#1B1B1B"/>
<path d="M44.5416 37.6533C44.2195 36.7827 42.9878 36.7827 42.6656 37.6533L41.7506 40.1279L39.3522 39.0254C38.5088 38.6376 37.6382 39.5091 38.026 40.3525L39.1285 42.75L36.653 43.666C35.7823 43.9882 35.7823 45.2198 36.653 45.542L39.1285 46.458L38.026 48.8564C37.6384 49.6998 38.5088 50.5704 39.3522 50.1826L41.7506 49.0791L42.6656 51.5547C42.9878 52.4253 44.2195 52.4253 44.5416 51.5547L45.4586 49.0791L47.8561 50.1826C48.6993 50.57 49.5695 49.6996 49.1823 48.8564L48.0807 46.458L50.5553 45.542C51.4255 45.2197 51.4256 43.9883 50.5553 43.666L48.0807 42.75L49.1823 40.3525C49.57 39.5092 48.6994 38.638 47.8561 39.0254L45.4586 40.1279L44.5416 37.6533Z" fill="#1B1B1B"/>
</svg>
