<svg width="64" height="64" viewBox="0 0 64 64" fill="none" xmlns="http://www.w3.org/2000/svg">
<path d="M18.5419 10.6531C18.2196 9.78277 16.9882 9.7828 16.6659 10.6531L15.7499 13.1277L13.3514 12.0261C12.5082 11.6387 11.6377 12.509 12.0253 13.3523L13.1288 15.7498L10.6532 16.6667C9.78258 16.9889 9.78258 18.2206 10.6532 18.5427L13.1288 19.4578L12.0253 21.8562C11.6375 22.6996 12.5081 23.57 13.3514 23.1824L15.7499 22.0798L16.6659 24.5554C16.9881 25.426 18.2197 25.426 18.5419 24.5554L19.4579 22.0798L21.8553 23.1824C22.6988 23.5702 23.5703 22.6996 23.1825 21.8562L22.08 19.4578L24.5546 18.5427C25.4252 18.2206 25.4252 16.9889 24.5546 16.6667L22.08 15.7498L23.1825 13.3523C23.57 12.509 22.6987 11.6383 21.8553 12.0261L19.4579 13.1277L18.5419 10.6531Z" fill="#1B1B1B"/>
<path d="M18.5417 39.8606C18.2194 38.9903 16.988 38.9903 16.6658 39.8606L15.7507 42.3352L13.3523 41.2336C12.509 40.8459 11.6376 41.7165 12.0251 42.5598L13.1287 44.9573L10.6531 45.8743C9.78246 46.1964 9.78246 47.4281 10.6531 47.7502L13.1287 48.6653L12.0251 51.0637C11.6373 51.9071 12.5089 52.7777 13.3523 52.3899L15.7507 51.2874L16.6658 53.7629C16.9879 54.6336 18.2196 54.6336 18.5417 53.7629L19.4587 51.2874L21.8562 52.3899C22.6996 52.7777 23.5702 51.9071 23.1824 51.0637L22.0808 48.6653L24.5554 47.7502C25.4258 47.428 25.4257 46.1966 24.5554 45.8743L22.0798 44.9573L23.1824 42.5598C23.5701 41.7165 22.6995 40.846 21.8562 41.2336L19.4587 42.3352L18.5417 39.8606Z" fill="#1B1B1B"/>
<path d="M46.75 10.6527C46.4277 9.78245 45.1962 9.78237 44.874 10.6527L43.959 13.1273L41.5605 12.0258C40.7172 11.638 39.8459 12.5086 40.2334 13.3519L41.3369 15.7494L38.8613 16.6664C37.9907 16.9885 37.9907 18.2202 38.8613 18.5424L41.3369 19.4574L40.2334 21.8558C39.8456 22.6993 40.7171 23.5698 41.5605 23.182L43.959 22.0795L44.874 24.5551C45.1962 25.4257 46.4278 25.4257 46.75 24.5551L47.667 22.0795L50.0645 23.182C50.9079 23.5698 51.7784 22.6993 51.3906 21.8558L50.2891 19.4574L52.7637 18.5424C53.634 18.2201 53.6339 16.9887 52.7637 16.6664L50.2881 15.7494L51.3906 13.3519C51.7783 12.5086 50.9078 11.6381 50.0645 12.0258L47.667 13.1273L46.75 10.6527Z" fill="#1B1B1B"/>
<path d="M46.7495 39.861C46.4273 38.9907 45.1958 38.9907 44.8735 39.861L43.9575 42.3356L41.5591 41.234C40.7158 40.8465 39.8453 41.7169 40.2329 42.5602L41.3364 44.9576L38.8608 45.8746C37.9902 46.1968 37.9902 47.4285 38.8608 47.7506L41.3364 48.6656L40.2329 51.0641C39.8452 51.9074 40.7157 52.7778 41.5591 52.3903L43.9575 51.2877L44.8735 53.7633C45.1957 54.6339 46.4274 54.6339 46.7495 53.7633L47.6655 51.2877L50.063 52.3903C50.9064 52.7781 51.7778 51.9075 51.3901 51.0641L50.2876 48.6656L52.7622 47.7506C53.6328 47.4285 53.6328 46.1968 52.7622 45.8746L50.2876 44.9576L51.3901 42.5602C51.7777 41.7168 50.9063 40.8462 50.063 41.234L47.6655 42.3356L46.7495 39.861Z" fill="#1B1B1B"/>
<path d="M32.5408 25.653C32.2186 24.7823 30.987 24.7823 30.6648 25.653L29.7498 28.1276L27.3513 27.025C26.508 26.6372 25.6376 27.5078 26.0251 28.3512L27.1287 30.7496L24.6521 31.6656C23.7815 31.9878 23.7815 33.2195 24.6521 33.5416L27.1277 34.4576L26.0251 36.8551C25.6373 37.6985 26.5079 38.5701 27.3513 38.1823L29.7498 37.0787L30.6648 39.5543C30.987 40.4249 32.2186 40.4249 32.5408 39.5543L33.4578 37.0787L35.8552 38.1823C36.6985 38.5697 37.5692 37.6984 37.1814 36.8551L36.0798 34.4576L38.5544 33.5416C39.4247 33.2193 39.4247 31.9879 38.5544 31.6656L36.0789 30.7496L37.1814 28.3512C37.5687 27.508 36.6984 26.6376 35.8552 27.025L33.4578 28.1276L32.5408 25.653Z" fill="#1B1B1B"/>
</svg>
