<svg width="64" height="64" viewBox="0 0 64 64" fill="none" xmlns="http://www.w3.org/2000/svg">
<path d="M16.5426 41.653C16.2204 40.7823 14.9888 40.7823 14.6666 41.653L13.7506 44.1276L11.3522 43.025C10.509 42.6376 9.63869 43.508 10.026 44.3512L11.1295 46.7496L8.65295 47.6656C7.78257 47.9879 7.78266 49.2193 8.65295 49.5416L11.1285 50.4576L10.026 52.8561C9.63851 53.6993 10.5089 54.5698 11.3522 54.1823L13.7506 53.0787L14.6666 55.5553C14.9889 56.4256 16.2204 56.4257 16.5426 55.5553L17.4586 53.0787L19.8561 54.1823C20.6994 54.57 21.5706 53.6994 21.1832 52.8561L20.0807 50.4576L22.5553 49.5416C23.4259 49.2195 23.4259 47.9878 22.5553 47.6656L20.0807 46.7496L21.1832 44.3512C21.5704 43.508 20.6993 42.6373 19.8561 43.025L17.4586 44.1276L16.5426 41.653Z" fill="#1B1B1B"/>
<path d="M49.5416 41.653C49.2195 40.7823 47.9878 40.7823 47.6656 41.653L46.7506 44.1276L44.3522 43.025C43.5088 42.6372 42.6384 43.5078 43.026 44.3512L44.1295 46.7496L41.653 47.6656C40.7823 47.9878 40.7823 49.2195 41.653 49.5416L44.1285 50.4576L43.026 52.8551C42.6382 53.6985 43.5088 54.5701 44.3522 54.1823L46.7506 53.0787L47.6656 55.5543C47.9878 56.4249 49.2195 56.4249 49.5416 55.5543L50.4586 53.0787L52.8561 54.1823C53.6994 54.5697 54.57 53.6984 54.1823 52.8551L53.0807 50.4576L55.5553 49.5416C56.4255 49.2193 56.4256 47.9879 55.5553 47.6656L53.0797 46.7496L54.1823 44.3512C54.5696 43.508 53.6993 42.6376 52.8561 43.025L50.4586 44.1276L49.5416 41.653Z" fill="#1B1B1B"/>
<path d="M16.5417 7.65271C16.2194 6.78247 14.988 6.78241 14.6658 7.65271L13.7507 10.1273L11.3523 9.02576C10.509 8.63797 9.63761 9.50859 10.0251 10.3519L11.1287 12.7494L8.65308 13.6664C7.78246 13.9885 7.78246 15.2202 8.65308 15.5424L11.1287 16.4574L10.0251 18.8558C9.63733 19.6993 10.5089 20.5698 11.3523 20.182L13.7507 19.0795L14.6658 21.5551C14.9879 22.4257 16.2196 22.4257 16.5417 21.5551L17.4587 19.0795L19.8562 20.182C20.6996 20.5698 21.5702 19.6993 21.1824 18.8558L20.0808 16.4574L22.5554 15.5424C23.4257 15.2201 23.4257 13.9887 22.5554 13.6664L20.0798 12.7494L21.1824 10.3519C21.57 9.50861 20.6995 8.63817 19.8562 9.02576L17.4587 10.1273L16.5417 7.65271Z" fill="#1B1B1B"/>
<path d="M49.5416 7.65271C49.2194 6.78243 47.9879 6.78245 47.6656 7.65271L46.7496 10.1273L44.3512 9.02576C43.5079 8.63829 42.6374 9.50865 43.025 10.3519L44.1285 12.7494L41.653 13.6664C40.7823 13.9885 40.7823 15.2202 41.653 15.5424L44.1285 16.4574L43.025 18.8558C42.6373 19.6992 43.5079 20.5696 44.3512 20.182L46.7496 19.0795L47.6656 21.5551C47.9878 22.4257 49.2195 22.4257 49.5416 21.5551L50.4576 19.0795L52.8551 20.182C53.6985 20.5698 54.57 19.6992 54.1823 18.8558L53.0797 16.4574L55.5543 15.5424C56.4249 15.2202 56.4249 13.9885 55.5543 13.6664L53.0797 12.7494L54.1823 10.3519C54.5698 9.50858 53.6984 8.63797 52.8551 9.02576L50.4576 10.1273L49.5416 7.65271Z" fill="#1B1B1B"/>
<path d="M42.5416 24.6527C42.2194 23.7824 40.9879 23.7825 40.6656 24.6527L39.7496 27.1273L37.3512 26.0258C36.5079 25.6383 35.6374 26.5087 36.025 27.3519L37.1285 29.7494L34.653 30.6664C33.7823 30.9885 33.7823 32.2202 34.653 32.5424L37.1285 33.4574L36.025 35.8558C35.6373 36.6992 36.5079 37.5696 37.3512 37.182L39.7496 36.0795L40.6656 38.5551C40.9878 39.4257 42.2195 39.4257 42.5416 38.5551L43.4576 36.0795L45.8551 37.182C46.6985 37.5698 47.57 36.6992 47.1823 35.8558L46.0797 33.4574L48.5543 32.5424C49.4249 32.2202 49.4249 30.9885 48.5543 30.6664L46.0797 29.7494L47.1823 27.3519C47.5698 26.5086 46.6984 25.638 45.8551 26.0258L43.4576 27.1273L42.5416 24.6527Z" fill="#1B1B1B"/>
<path d="M23.5416 24.653C23.2195 23.7823 21.9878 23.7823 21.6656 24.653L20.7506 27.1276L18.3522 26.025C17.5088 25.6372 16.6384 26.5078 17.026 27.3512L18.1295 29.7496L15.653 30.6656C14.7823 30.9878 14.7823 32.2195 15.653 32.5416L18.1285 33.4576L17.026 35.8551C16.6382 36.6985 17.5088 37.5701 18.3522 37.1823L20.7506 36.0787L21.6656 38.5543C21.9878 39.4249 23.2195 39.4249 23.5416 38.5543L24.4586 36.0787L26.8561 37.1823C27.6994 37.5697 28.57 36.6984 28.1823 35.8551L27.0807 33.4576L29.5553 32.5416C30.4255 32.2193 30.4256 30.9879 29.5553 30.6656L27.0797 29.7496L28.1823 27.3512C28.5696 26.508 27.6993 25.6376 26.8561 26.025L24.4586 27.1276L23.5416 24.653Z" fill="#1B1B1B"/>
</svg>
