<svg width="64" height="64" viewBox="0 0 64 64" fill="none" xmlns="http://www.w3.org/2000/svg">
<path d="M20.5419 12.6533C20.2197 11.7827 18.9881 11.7827 18.6659 12.6533L17.7509 15.1279L15.3524 14.0254C14.509 13.6376 13.6384 14.5091 14.0262 15.3525L15.1288 17.75L12.6532 18.666C11.7826 18.9882 11.7826 20.2198 12.6532 20.542L15.1288 21.458L14.0262 23.8564C13.6387 24.6998 14.5091 25.5704 15.3524 25.1826L17.7509 24.0791L18.6659 26.5547C18.9881 27.4253 20.2197 27.4253 20.5419 26.5547L21.4589 24.0791L23.8563 25.1826C24.6995 25.57 25.5698 24.6996 25.1825 23.8564L24.0809 21.458L26.5555 20.542C27.4258 20.2197 27.4258 18.9883 26.5555 18.666L24.0809 17.75L25.1825 15.3525C25.5703 14.5092 24.6996 13.638 23.8563 14.0254L21.4589 15.1279L20.5419 12.6533Z" fill="#1B1B1B"/>
<path d="M20.5425 37.8608C20.2203 36.9902 18.9887 36.9902 18.6665 37.8608L17.7505 40.3354L15.3521 39.2329C14.5089 38.8455 13.6386 39.7159 14.0259 40.5591L15.1294 42.9575L12.6528 43.8735C11.7825 44.1958 11.7826 45.4272 12.6528 45.7495L15.1284 46.6655L14.0259 49.064C13.6384 49.9072 14.5088 50.7776 15.3521 50.3901L17.7505 49.2866L18.6665 51.7632C18.9888 52.6335 20.2203 52.6335 20.5425 51.7632L21.4585 49.2866L23.856 50.3901C24.6992 50.7779 25.5704 49.9073 25.1831 49.064L24.0806 46.6655L26.5552 45.7495C27.4258 45.4274 27.4258 44.1957 26.5552 43.8735L24.0806 42.9575L25.1831 40.5591C25.5703 39.7158 24.6992 38.8452 23.856 39.2329L21.4585 40.3354L20.5425 37.8608Z" fill="#1B1B1B"/>
<path d="M45.7507 12.653C45.4286 11.7823 44.1969 11.7823 43.8748 12.653L42.9587 15.1276L40.5603 14.025C39.7171 13.6376 38.8468 14.508 39.2341 15.3512L40.3376 17.7496L37.8611 18.6656C36.9907 18.9879 36.9908 20.2193 37.8611 20.5416L40.3367 21.4576L39.2341 23.8561C38.8467 24.6993 39.7171 25.5698 40.5603 25.1823L42.9587 24.0787L43.8748 26.5553C44.1971 27.4256 45.4285 27.4256 45.7507 26.5553L46.6667 24.0787L49.0642 25.1823C49.9075 25.57 50.7787 24.6994 50.3914 23.8561L49.2888 21.4576L51.7634 20.5416C52.634 20.2195 52.634 18.9878 51.7634 18.6656L49.2888 17.7496L50.3914 15.3512C50.7786 14.5079 49.9075 13.6373 49.0642 14.025L46.6667 15.1276L45.7507 12.653Z" fill="#1B1B1B"/>
<path d="M45.7495 37.8612C45.4274 36.9906 44.1957 36.9906 43.8735 37.8612L42.9585 40.3358L40.5601 39.2333C39.7167 38.8455 38.8463 39.7161 39.2339 40.5594L40.3374 42.9579L37.8608 43.8739C36.9902 44.1961 36.9902 45.4277 37.8608 45.7499L40.3364 46.6659L39.2339 49.0634C38.8461 49.9068 39.7166 50.7783 40.5601 50.3905L42.9585 49.287L43.8735 51.7626C44.1957 52.6332 45.4274 52.6332 45.7495 51.7626L46.6665 49.287L49.064 50.3905C49.9073 50.7779 50.7779 49.9067 50.3901 49.0634L49.2886 46.6659L51.7632 45.7499C52.6334 45.4276 52.6334 44.1962 51.7632 43.8739L49.2876 42.9579L50.3901 40.5594C50.7775 39.7163 49.9072 38.8459 49.064 39.2333L46.6665 40.3358L45.7495 37.8612Z" fill="#1B1B1B"/>
</svg>
