<svg width="260" height="49" viewBox="0 0 260 49" fill="none" xmlns="http://www.w3.org/2000/svg">
<path d="M253.749 48.1868V43.5635H260V48.1868H253.749Z" fill="#621B39"/>
<path d="M243.227 48.8378C239.385 48.8378 237.562 46.8192 237.562 42.7819C237.562 38.6144 237.692 33.8609 238.278 30.2795H242.967C240.037 35.8795 238.799 39.9168 238.799 42.0005C238.799 43.8889 240.037 44.4099 243.227 44.4099C245.376 44.4099 245.897 43.1075 245.897 41.4145C245.897 32.819 237.237 17.5816 237.237 8.20475C237.237 2.40933 240.688 0 244.79 0C248.176 0 249.804 2.01863 249.804 6.05589C249.804 8.53034 249.804 13.4792 249.088 17.9072H244.79C247.72 10.8094 248.567 8.46522 248.567 6.70706C248.567 4.9489 247.525 4.42796 244.79 4.42796C242.641 4.42796 242.12 5.7303 242.12 7.42335C242.12 14.7816 250.781 33.2748 250.781 40.8284C250.781 46.4285 247.33 48.8378 243.227 48.8378Z" fill="#621B39"/>
<path d="M233.853 0.650879V5.27419C233.918 11.5906 233.007 13.4138 228.188 13.0231L227.927 9.24634C231.835 9.18122 232.811 7.09747 232.616 5.27419H228.058V0.650879H233.853Z" fill="#621B39"/>
<path d="M218.379 23.8326V43.9538H225.412V48.1864H213.495V0.650879H224.761V4.88349H218.379V22.4H223.002V23.8326H218.379Z" fill="#621B39"/>
<path d="M200.169 0.650879C205.769 0.650879 209.025 2.92998 209.025 8.85564V39.3956C209.025 45.777 204.597 48.1864 199.323 48.1864H199.193H194.309V0.650879H200.169ZM204.142 40.0467V10.4836C204.142 6.25095 202.969 5.07884 199.714 5.07884H199.193V43.7584H200.169C203.36 43.7584 204.142 42.3258 204.142 40.0467Z" fill="#621B39"/>
<path d="M184.07 0.650879V43.9538H191.102V48.1864H179.186V0.650879H184.07Z" fill="#621B39"/>
<path d="M166.967 48.8378C162.474 48.8378 160 46.8192 160 41.2191V8.79081C160 2.40933 163.516 0 167.748 0C172.307 0 174.716 2.01863 174.716 7.6187V40.047C174.716 46.4285 171.2 48.8378 166.967 48.8378ZM167.293 4.42796C165.339 4.42796 164.883 5.86054 164.883 8.13964V39.0051C164.883 43.6936 166.186 44.4099 167.748 44.4099C169.441 44.4099 169.832 42.9773 169.832 40.6982V9.83268C169.832 5.14425 168.595 4.42796 167.293 4.42796Z" fill="#621B39"/>
<path d="M148.827 48.8378C144.985 48.8378 143.162 46.8192 143.162 42.7819C143.162 38.6144 143.292 33.8609 143.878 30.2795H148.566C145.636 35.8795 144.399 39.9168 144.399 42.0005C144.399 43.8889 145.636 44.4099 148.827 44.4099C150.976 44.4099 151.497 43.1075 151.497 41.4145C151.497 32.819 142.836 17.5816 142.836 8.20475C142.836 2.40933 146.287 0 150.39 0C153.776 0 155.404 2.01863 155.404 6.05589C155.404 8.53034 155.404 13.4792 154.687 17.9072H150.39C153.32 10.8094 154.166 8.46522 154.166 6.70706C154.166 4.9489 153.124 4.42796 150.39 4.42796C148.241 4.42796 147.72 5.7303 147.72 7.42335C147.72 14.7816 156.38 33.2748 156.38 40.8284C156.38 46.4285 152.929 48.8378 148.827 48.8378Z" fill="#621B39"/>
<path d="M139.102 0.650879V48.1864H134.218V0.650879H139.102Z" fill="#621B39"/>
<path d="M112.959 48.8378C109.117 48.8378 107.293 46.8192 107.293 42.7819C107.293 38.6144 107.424 33.8609 108.01 30.2795H112.698C109.768 35.8795 108.531 39.9168 108.531 42.0005C108.531 43.8889 109.768 44.4099 112.959 44.4099C115.107 44.4099 115.628 43.1075 115.628 41.4145C115.628 32.819 106.968 17.5816 106.968 8.20475C106.968 2.40933 110.419 0 114.521 0C117.907 0 119.535 2.01863 119.535 6.05589C119.535 8.53034 119.535 13.4792 118.819 17.9072H114.521C117.452 10.8094 118.298 8.46522 118.298 6.70706C118.298 4.9489 117.256 4.42796 114.521 4.42796C112.372 4.42796 111.852 5.7303 111.852 7.42335C111.852 14.7816 120.512 33.2748 120.512 40.8284C120.512 46.4285 117.061 48.8378 112.959 48.8378Z" fill="#621B39"/>
<path d="M103.233 0.650879V48.1864H98.3494V0.650879H103.233Z" fill="#621B39"/>
<path d="M79.8801 0.650879H85.7406L78.9684 35.0327V48.1864H74.0847V34.9676L67.6381 0.650879H73.1079L75.7126 18.6883L76.9498 30.214H77.6661L79.8801 0.650879Z" fill="#621B39"/>
<path d="M59.1093 29.8885L63.0815 29.3675L66.728 48.1864H61.7791L59.3047 32.5583C59.0442 30.9303 57.9372 30.0838 55.9186 30.9955V48.1864H51.0348V0.650879H56.8953C62.4954 0.650879 65.7513 2.92998 65.7513 8.85564V19.8604C65.7513 25.0047 62.821 27.3489 59.0442 29.1071L59.1093 29.8885ZM56.4395 5.07884H55.9186V29.2373L57.1558 28.7164C60.0861 27.4791 60.8675 26.0466 60.8675 23.7675V10.4836C60.8675 6.25095 59.6954 5.07884 56.4395 5.07884Z" fill="#621B39"/>
<path d="M38.8159 48.8378C34.3228 48.8378 31.8484 46.8192 31.8484 41.2191V8.79081C31.8484 2.40933 35.3647 0 39.5973 0C44.1555 0 46.5649 2.01863 46.5649 7.6187V40.047C46.5649 46.4285 43.0485 48.8378 38.8159 48.8378ZM39.1415 4.42796C37.188 4.42796 36.7322 5.86054 36.7322 8.13964V39.0051C36.7322 43.6936 38.0345 44.4099 39.5973 44.4099C41.2904 44.4099 41.6811 42.9773 41.6811 40.6982V9.83268C41.6811 5.14425 40.4438 4.42796 39.1415 4.42796Z" fill="#621B39"/>
<path d="M22.5821 0.650879V43.9538H29.6148V48.1864H17.6984V0.650879H22.5821Z" fill="#621B39"/>
<path d="M6.44659 28.7818V27.4794H14.5211V28.7818H14.456C13.0885 28.7818 12.8281 29.0422 12.8281 30.3446V48.8378H12.1118L10.4187 41.2191H9.76756C8.98616 46.3634 7.35823 48.8378 4.42796 48.8378C1.62793 48.8378 0 46.8192 0 41.2191V8.79081C0 2.40933 3.32097 0 7.29312 0C10.6792 0 12.3071 2.01863 12.3071 6.05589C12.3071 9.37686 12.1769 13.9351 11.0048 20.5119H6.05589C10.6141 10.7443 11.0699 8.20475 11.0699 6.38147C11.0699 4.9489 10.028 4.42796 7.29312 4.42796C5.3396 4.42796 4.88378 5.86054 4.88378 8.13964V39.0051C4.88378 43.6936 5.79542 44.4099 6.77218 44.4099C8.20475 44.4099 8.92104 42.3261 8.92104 37.7679V28.7818H6.44659Z" fill="#621B39"/>
</svg>
