<svg width="221" height="42" viewBox="0 0 221 42" fill="none" xmlns="http://www.w3.org/2000/svg">
<path d="M214.435 41.6667C211.157 41.6667 209.601 39.9444 209.601 36.5C209.601 32.9444 209.712 28.8889 210.212 25.8333H214.212C211.712 30.6111 210.657 34.0556 210.657 35.8333C210.657 37.4444 211.712 37.8889 214.435 37.8889C216.268 37.8889 216.712 36.7778 216.712 35.3333C216.712 28 209.323 15 209.323 7C209.323 2.05556 212.268 0 215.768 0C218.657 0 220.046 1.72222 220.046 5.16667C220.046 7.27778 220.046 11.5 219.435 15.2778H215.768C218.268 9.22222 218.99 7.22222 218.99 5.72222C218.99 4.22222 218.101 3.77778 215.768 3.77778C213.935 3.77778 213.49 4.88889 213.49 6.33333C213.49 12.6111 220.879 28.3889 220.879 34.8333C220.879 39.6111 217.935 41.6667 214.435 41.6667Z" fill="#1B1B1B"/>
<path d="M206.437 0.55542V4.49986C206.492 9.88875 205.715 11.4443 201.604 11.111L201.381 7.88876C204.715 7.8332 205.548 6.05542 205.381 4.49986H201.492V0.55542H206.437Z" fill="#1B1B1B"/>
<path d="M195.028 21.4443L194.639 0.55542H198.639V41.111H194.694L189.361 7.38876H188.694L189.472 20.2221L189.805 41.111H185.861V0.55542H189.805L195.139 34.2776H195.805L195.028 21.4443Z" fill="#1B1B1B"/>
<path d="M183.956 41.111H179.29L177.845 29.7221H173.679L172.956 41.111H167.956L174.067 6.16653L171.679 0.55542H177.179L183.956 41.111ZM175.012 9.44431L173.79 28.611H177.679L176.679 20.5554L175.623 9.44431H175.012Z" fill="#1B1B1B"/>
<path d="M161.915 28.9443L163.804 0.55542H168.804L161.692 41.111H160.137L156.692 13.9443H156.304L153.915 41.111H152.359L145.581 0.55542H150.248L152.47 17.8332L153.026 28.9443H153.637L155.859 0.55542H158.581L160.248 17.8332L161.304 28.9443H161.915Z" fill="#1B1B1B"/>
<path d="M136.823 41.6667C132.99 41.6667 130.879 39.9444 130.879 35.1667V7.5C130.879 2.05556 133.879 0 137.49 0C141.379 0 143.434 1.72222 143.434 6.5V34.1667C143.434 39.6111 140.434 41.6667 136.823 41.6667ZM137.101 3.77778C135.434 3.77778 135.046 5 135.046 6.94444V33.2778C135.046 37.2778 136.157 37.8889 137.49 37.8889C138.934 37.8889 139.268 36.6667 139.268 34.7222V8.38889C139.268 4.38889 138.212 3.77778 137.101 3.77778Z" fill="#1B1B1B"/>
<path d="M121.399 25.4999L124.788 25.0554L127.899 41.111H123.676L121.565 27.7776C121.343 26.3888 120.399 25.6665 118.676 26.4443V41.111H114.51V0.55542H119.51C124.288 0.55542 127.065 2.49987 127.065 7.55542V16.9443C127.065 21.3332 124.565 23.3332 121.343 24.8332L121.399 25.4999ZM119.121 4.3332H118.676V24.9443L119.732 24.4999C122.232 23.4443 122.899 22.2221 122.899 20.2776V8.94431C122.899 5.3332 121.899 4.3332 119.121 4.3332Z" fill="#1B1B1B"/>
<path d="M96.3721 41.6667C93.0943 41.6667 91.5388 39.9444 91.5388 36.5C91.5388 32.9444 91.6499 28.8889 92.1499 25.8333H96.1499C93.6499 30.6111 92.5943 34.0556 92.5943 35.8333C92.5943 37.4444 93.6499 37.8889 96.3721 37.8889C98.2054 37.8889 98.6499 36.7778 98.6499 35.3333C98.6499 28 91.261 15 91.261 7C91.261 2.05556 94.2054 0 97.7054 0C100.594 0 101.983 1.72222 101.983 5.16667C101.983 7.27778 101.983 11.5 101.372 15.2778H97.7054C100.205 9.22222 100.928 7.22222 100.928 5.72222C100.928 4.22222 100.039 3.77778 97.7054 3.77778C95.8721 3.77778 95.4277 4.88889 95.4277 6.33333C95.4277 12.6111 102.817 28.3889 102.817 34.8333C102.817 39.6111 99.8721 41.6667 96.3721 41.6667Z" fill="#1B1B1B"/>
<path d="M88.0749 0.55542V41.111H83.9082V0.55542H88.0749Z" fill="#1B1B1B"/>
<path d="M68.1507 0.55542H73.1507L67.373 29.8888V41.111H63.2063V29.8332L57.7063 0.55542H62.373L64.5952 15.9443L65.6507 25.7776H66.2619L68.1507 0.55542Z" fill="#1B1B1B"/>
<path d="M50.4299 25.4999L53.8188 25.0554L56.9299 41.111H52.7077L50.5966 27.7776C50.3743 26.3888 49.4299 25.6665 47.7077 26.4443V41.111H43.541V0.55542H48.541C53.3188 0.55542 56.0966 2.49987 56.0966 7.55542V16.9443C56.0966 21.3332 53.5966 23.3332 50.3743 24.8332L50.4299 25.4999ZM48.1521 4.3332H47.7077V24.9443L48.7632 24.4999C51.2632 23.4443 51.9299 22.2221 51.9299 20.2776V8.94431C51.9299 5.3332 50.9299 4.3332 48.1521 4.3332Z" fill="#1B1B1B"/>
<path d="M33.1163 41.6667C29.283 41.6667 27.1719 39.9444 27.1719 35.1667V7.5C27.1719 2.05556 30.1719 0 33.783 0C37.6719 0 39.7274 1.72222 39.7274 6.5V34.1667C39.7274 39.6111 36.7274 41.6667 33.1163 41.6667ZM33.3941 3.77778C31.7274 3.77778 31.3385 5 31.3385 6.94444V33.2778C31.3385 37.2778 32.4497 37.8889 33.783 37.8889C35.2274 37.8889 35.5608 36.6667 35.5608 34.7222V8.38889C35.5608 4.38889 34.5052 3.77778 33.3941 3.77778Z" fill="#1B1B1B"/>
<path d="M19.2663 0.55542V37.4999H25.2663V41.111H15.0996V0.55542H19.2663Z" fill="#1B1B1B"/>
<path d="M5.5 24.5556V23.4444H12.3889V24.5556H12.3333C11.1667 24.5556 10.9444 24.7778 10.9444 25.8889V41.6667H10.3333L8.88889 35.1667H8.33333C7.66667 39.5556 6.27778 41.6667 3.77778 41.6667C1.38889 41.6667 0 39.9444 0 35.1667V7.5C0 2.05556 2.83333 0 6.22222 0C9.11111 0 10.5 1.72222 10.5 5.16667C10.5 8 10.3889 11.8889 9.38889 17.5H5.16667C9.05556 9.16667 9.44444 7 9.44444 5.44444C9.44444 4.22222 8.55556 3.77778 6.22222 3.77778C4.55556 3.77778 4.16667 5 4.16667 6.94444V33.2778C4.16667 37.2778 4.94444 37.8889 5.77778 37.8889C7 37.8889 7.61111 36.1111 7.61111 32.2222V24.5556H5.5Z" fill="#1B1B1B"/>
</svg>
