<svg width="211" height="425" viewBox="0 0 211 425" fill="none" xmlns="http://www.w3.org/2000/svg">
<g clip-path="url(#clip0_124_240)">
<g filter="url(#filter0_g_124_240)">
<path d="M5.21079 413.221L78.5003 176.588L159 170.588L138 423.588H12.8527C7.46403 423.588 3.61655 418.368 5.21079 413.221Z" fill="#E64C35"/>
<path d="M5.21079 413.221L78.5003 176.588L159 170.588L138 423.588H12.8527C7.46403 423.588 3.61655 418.368 5.21079 413.221Z" fill="url(#paint0_linear_124_240)" fill-opacity="0.2"/>
<path d="M130.766 35.2424L115.14 55.3056C114.593 56.0079 114.719 57.0205 115.422 57.5675C120.099 61.2105 125.953 63.0076 131.869 62.617L132.874 62.5507C133.813 62.4886 134.543 61.709 134.544 60.7676L134.558 38.7234L130.766 35.2424Z" fill="#E64C35"/>
<path d="M123.882 51.9164C144.621 51.0995 162.797 65.6736 166.509 86.0941L169.413 102.079C169.711 103.718 170.828 105.065 172.257 105.92C178.387 109.587 182.492 116.29 182.492 123.952C182.492 125.806 182.252 127.602 181.801 129.314C181.029 132.241 182.144 135.601 184.518 137.48C189.375 141.326 192.492 147.275 192.492 153.952C192.492 159.385 190.428 164.335 187.043 168.063C186.418 168.751 186.87 170.095 187.781 170.28C192.385 171.214 201.39 174.806 202.5 188.634C202.5 188.634 203 205.884 181.5 207.259C174.021 207.259 101.5 207.259 101.5 207.259L75.6423 167.969L83.5 138.384L74 99.8842C74 99.8842 83.5 44.8844 123.882 51.9164Z" fill="#DBDAD0"/>
<path d="M123.882 51.9164C144.621 51.0995 162.797 65.6736 166.509 86.0941L169.413 102.079C169.711 103.718 170.828 105.065 172.257 105.92C178.387 109.587 182.492 116.29 182.492 123.952C182.492 125.806 182.252 127.602 181.801 129.314C181.029 132.241 182.144 135.601 184.518 137.48C189.375 141.326 192.492 147.275 192.492 153.952C192.492 159.385 190.428 164.335 187.043 168.063C186.418 168.751 186.87 170.095 187.781 170.28C192.385 171.214 201.39 174.806 202.5 188.634C202.5 188.634 203 205.884 181.5 207.259C174.021 207.259 101.5 207.259 101.5 207.259L75.6423 167.969L83.5 138.384L74 99.8842C74 99.8842 83.5 44.8844 123.882 51.9164Z" fill="url(#paint1_linear_124_240)" fill-opacity="0.5"/>
<path d="M147.785 168.062L148.984 253.198" stroke="#778D71" stroke-width="25.9209" stroke-linejoin="round"/>
<path d="M148.3 195.993C148.3 195.993 156.3 189.493 160.8 181.493V170.493L147.119 173.493L148.3 195.993Z" fill="#1B1B1B"/>
<path d="M131.508 221.953C134.59 249.711 133.949 242.673 145.384 242.992L163.167 242.992L163.167 221.953L131.508 221.953Z" fill="#4F4F4F"/>
<path d="M171.527 261.013C171.749 248.753 161.785 238.615 149.252 238.388C136.719 238.162 126.395 247.933 126.173 260.192C125.951 272.452 135.915 282.59 148.448 282.817C160.981 283.043 171.305 273.273 171.527 261.013Z" fill="#778D71" stroke="#778D71" stroke-width="0.925747"/>
<path d="M152.3 219.792H160.3" stroke="#404040" stroke-width="9" stroke-linecap="round"/>
<path d="M152.3 240.331H160.3" stroke="#404040" stroke-width="9" stroke-linecap="round"/>
<path d="M165.991 165.092L128.3 150.307V171.211C128.3 171.211 154.526 182.518 166.809 167.974C167.628 167.003 167.173 165.556 165.991 165.092Z" fill="#4D4C4B"/>
<path d="M89.9921 176.853L99.4923 148.954L122.562 148.954C126.469 148.954 130.329 149.801 133.877 151.439L147.992 157.953L132.992 176.853L89.9921 176.853Z" fill="#4D4C4B"/>
<circle cx="83.9916" cy="109.992" r="12.5" fill="#DBDAD0"/>
<path d="M104.583 267.992L94.6768 226.338L129.177 244.338L153.677 223.338L150.083 267.992L104.583 267.992Z" fill="#4D4C4B"/>
<path d="M99.4921 135.953H126.492V159.453C126.492 166.909 120.448 172.953 112.992 172.953V172.953C105.536 172.953 99.4921 166.909 99.4921 159.453V135.953Z" fill="#A0BD92"/>
<path d="M148.492 163.943V163.943C155.926 176.554 158.732 191.362 156.429 205.819L152.34 231.492C152.34 231.492 142.992 244.953 129.939 249.492C124.931 249.492 82.9921 224.953 82.9921 224.953L88.484 213.891L69.9916 163.943L99.3578 160.749V151.958L113.492 153.953L126.651 150.953V159.519L148.492 163.943Z" fill="#656565"/>
<path d="M148.492 163.943V163.943C155.926 176.554 158.732 191.362 156.429 205.819L152.34 231.492C152.34 231.492 142.992 244.953 129.939 249.492C124.931 249.492 82.9921 224.953 82.9921 224.953L88.484 213.891L69.9916 163.943L99.3578 160.749V151.958L113.492 153.953L126.651 150.953V159.519L148.492 163.943Z" fill="url(#paint2_linear_124_240)" fill-opacity="0.3"/>
<g opacity="0.37">
<path d="M119.992 165.953C143.992 200.453 129.992 244.453 129.992 244.453" stroke="#656565" stroke-width="5" stroke-linecap="round" style="mix-blend-mode:screen"/>
</g>
<path d="M95.4915 159.492H134.491V159.492C134.491 168.329 127.328 175.492 118.491 175.492H111.491C102.655 175.492 95.4915 168.329 95.4915 159.492V159.492Z" fill="#656565"/>
<path d="M66.7993 96.8191C64.9839 96.6344 63.6613 98.2991 64.3764 99.978C68.4961 109.65 81.0236 127.403 89.7243 125.376C99.5996 123.075 106.108 114.786 104.262 106.861C104.262 106.861 82.7413 98.4412 66.7993 96.8191Z" fill="#638659"/>
<path d="M83.4996 115.953L83.4996 149.953" stroke="#E64C35" stroke-width="10"/>
<path d="M79 144.953C79 144.953 83 143.454 88 144.953" stroke="#BF2F1A" stroke-width="3.5" stroke-linecap="round"/>
<path d="M79 139.62C79 139.62 83 138.12 88 139.62" stroke="#BF2F1A" stroke-width="3.5" stroke-linecap="round"/>
<path d="M88.9996 138.953C88.9996 138.953 84 138.453 80 135.587L88.9996 134.453V138.953Z" fill="#1B1B1B"/>
<circle cx="83.5" cy="159.453" r="14.5" fill="#DBDAD0"/>
<circle cx="83.5" cy="159.453" r="14.5" fill="black" fill-opacity="0.2"/>
<path d="M91.5081 129.884C91.5081 135.683 87.5081 138.384 81.0081 136.384C74.0081 138.884 70.0081 133.384 70.0081 125.384C70.0081 117.384 81.0081 114.384 81.0081 114.384C86.807 114.384 91.5081 124.085 91.5081 129.884Z" fill="#DBDAD0"/>
<path d="M91.5081 129.884C91.5081 135.683 87.5081 138.384 81.0081 136.384C74.0081 138.884 70.0081 133.384 70.0081 125.384C70.0081 117.384 81.0081 114.384 81.0081 114.384C86.807 114.384 91.5081 124.085 91.5081 129.884Z" fill="#5C4E5E" fill-opacity="0.15"/>
<ellipse cx="83.5081" cy="105.884" rx="14" ry="14.5" fill="#DBDAD0"/>
<g style="mix-blend-mode:multiply" opacity="0.46">
<path d="M80 131.953L81.3125 134.184" stroke="#DBDAD0" stroke-width="5" stroke-linecap="round"/>
</g>
<path d="M99.9924 151.994L101.085 152.255C109.871 154.351 119.052 154.118 127.72 151.58V151.58" stroke="#4D4C4B" stroke-width="3" stroke-linecap="round" stroke-linejoin="round"/>
<path d="M96.4923 159.953L106.85 162.485C114.537 164.364 122.662 162.702 128.992 157.953V157.953" stroke="#4D4C4B" stroke-width="5" stroke-linecap="round" stroke-linejoin="round"/>
<path d="M99.4919 144.992V154.492C104.5 156.058 109.958 155.059 114.088 151.822L125.991 142.492L107.491 143.992L99.4919 144.992Z" fill="#1B1B1B"/>
<path d="M150.492 105.992C150.492 105.992 150.879 129.633 120.505 144.828C111.572 149.297 100.742 149.536 93.2469 142.933C86.8014 137.254 79.5598 127.504 75.4917 110.992C67.9916 58.4922 114.677 61.6013 114.677 61.6013C139.474 61.6013 150.492 81.4509 150.492 105.992Z" fill="#A0BD92"/>
<path d="M150.492 105.992C150.492 105.992 150.879 129.633 120.505 144.828C111.572 149.297 100.742 149.536 93.2469 142.933C86.8014 137.254 79.5598 127.504 75.4917 110.992C67.9916 58.4922 114.677 61.6013 114.677 61.6013C139.474 61.6013 150.492 81.4509 150.492 105.992Z" fill="url(#paint3_linear_124_240)" fill-opacity="0.3"/>
<path opacity="0.1" d="M126.5 124.884C120.9 118.484 123 107.384 127 103.884L130.352 104.384L135.852 127.384L130.352 139.384L125 142.384C120.5 135.884 123.667 127.718 126.5 124.884Z" fill="#1B1B1B"/>
<path d="M119.537 255.491L97.9569 385.401H97.7948L96.5565 422.581C96.5206 423.659 95.6361 424.514 94.5575 424.514H28.662C24.5391 424.514 22.474 419.529 25.3885 416.613L56.5819 385.401H55.8358L88.4921 250.952L119.537 255.491Z" fill="url(#paint4_linear_124_240)"/>
<path d="M155.767 384.992H155.808L187.413 416.615C190.327 419.531 188.261 424.515 184.138 424.515H115.15C113.986 424.515 113.067 423.525 113.155 422.364L115.445 392.183L122.492 253.168L155.767 248.454V384.992Z" fill="url(#paint5_linear_124_240)"/>
<path d="M148.352 287.886C148.097 286.543 147.397 284.643 145.492 283.452H153.992L160.492 280.952V313.452L149.196 290.861C148.735 289.937 148.544 288.9 148.352 287.886Z" fill="#1B1B1B"/>
<path d="M172.884 94.6787C174.698 94.4481 176.083 96.0758 175.434 97.7856C171.3 108.686 157.645 129.596 147.805 127.58C136.775 125.319 129.324 116.217 131.161 107.249C131.161 107.249 155.183 96.9287 172.884 94.6787Z" fill="#A0BD92"/>
<path d="M172.884 94.6787C174.698 94.4481 176.083 96.0758 175.434 97.7856C171.3 108.686 157.645 129.596 147.805 127.58C136.775 125.319 129.324 116.217 131.161 107.249C131.161 107.249 155.183 96.9287 172.884 94.6787Z" fill="url(#paint6_linear_124_240)" fill-opacity="0.4"/>
<path d="M147.365 115.292L159.5 110.588" stroke="#899D84" stroke-width="5.55448" stroke-linecap="round"/>
<g style="mix-blend-mode:multiply" opacity="0.4" filter="url(#filter1_g_124_240)">
<ellipse cx="119.324" cy="121.822" rx="8.33172" ry="7.86885" fill="#B0C5B1"/>
</g>
<g style="mix-blend-mode:multiply" opacity="0.4" filter="url(#filter2_g_124_240)">
<ellipse cx="82.8262" cy="121.822" rx="8.33172" ry="7.86885" fill="#B0C5B1"/>
</g>
<circle cx="82.4916" cy="116.9" r="2.53713" fill="#1B1B1B" stroke="#1B1B1B" stroke-width="0.925747"/>
<circle cx="105.244" cy="116.901" r="2.53713" fill="#1B1B1B" stroke="#1B1B1B" stroke-width="0.925747"/>
<path d="M106.752 106.588L102 109.203" stroke="#DBDAD0" stroke-width="5.55448" stroke-linecap="round" style="mix-blend-mode:multiply"/>
<path d="M81.5002 106.588L86.2286 109.203" stroke="#DBDAD0" stroke-width="5.55448" stroke-linecap="round" style="mix-blend-mode:multiply"/>
<path d="M103 130.384V130.384C99.2251 132.27 94.7734 132.273 91 130.384V130.384" stroke="#1B1B1B" stroke-width="3" stroke-linecap="round" stroke-linejoin="round"/>
<path d="M79.5 123.588H96C96 125.406 94.347 126.775 92.561 126.437L87 125.385L79.5 123.588Z" fill="#1B1B1B"/>
<path d="M92.0921 116.39C94.2805 116.061 96.25 117.755 96.2503 119.968C96.2503 121.967 94.6298 123.587 92.6312 123.587H71.0003C69.9536 123.587 69.0843 122.781 69.0062 121.737C68.9282 120.693 69.6676 119.766 70.7025 119.61L92.0921 116.39Z" fill="url(#paint7_linear_124_240)"/>
<path d="M81.6859 168.754L37.6437 189.473L67.917 229.987" stroke="#A0BD92" stroke-width="25.9209" stroke-linejoin="round"/>
<mask id="mask0_124_240" style="mask-type:alpha" maskUnits="userSpaceOnUse" x="15" y="174" width="26" height="25">
<ellipse opacity="0.37" cx="28.0002" cy="186.588" rx="12.5" ry="12" fill="#8A10C2"/>
</mask>
<g mask="url(#mask0_124_240)">
<path opacity="0.36" d="M25.0003 193.588C26.1669 195.254 28.5003 198.688 28.5003 199.088L33.5002 206.088L57.5002 196.088L51.0002 169.088L37.5002 175.088C37.1669 175.588 35.1003 177.188 29.5003 179.588C23.9003 181.988 24.1669 189.921 25.0003 193.588Z" fill="#FF4C4F"/>
</g>
<path d="M68.8416 189.138L53.4921 162.953L87.7143 164.453L87.5002 180.088L87.7143 186.088L73.582 190.901C71.7836 191.514 69.8024 190.777 68.8416 189.138Z" fill="url(#paint8_linear_124_240)"/>
<ellipse cx="67.1982" cy="238.375" rx="22.6808" ry="23.1437" transform="rotate(-42.0699 67.1982 238.375)" fill="#A0BD92"/>
<ellipse cx="67.1982" cy="238.375" rx="22.6808" ry="23.1437" transform="rotate(-42.0699 67.1982 238.375)" fill="url(#paint9_linear_124_240)" fill-opacity="0.2"/>
<path d="M55.1436 189.176L59.7328 197.172" stroke="#899D84" stroke-width="5" stroke-linecap="round"/>
<path d="M50.2838 158.692L99.4921 148.953V158.482C99.4921 165.537 95.6515 172.376 88.7946 174.033C71.3925 178.24 56.2936 170.414 48.7738 163.1C47.2089 161.577 48.1422 159.116 50.2838 158.692Z" fill="#4D4C4B"/>
<path d="M44.7152 224.87L32.8877 207.511L46.1332 204.419L62.1841 197.012L69.7299 211.067L44.7152 224.87Z" fill="#656565"/>
<path d="M34.8138 208.646L47.7335 203.027L60.584 198.404" stroke="#4D4C4B" stroke-width="10" stroke-linecap="round" stroke-linejoin="round"/>
<path d="M46.5721 227.004L72.4806 214.767" stroke="#4D4C4B" stroke-width="10" stroke-linecap="round"/>
<path d="M52.773 257.89L81.9921 227.453L115.26 241.453L101.131 284.447C100.195 287.292 96.9862 288.682 94.271 287.419L54.8695 269.084C50.517 267.059 49.4483 261.353 52.773 257.89Z" fill="#656565"/>
<path d="M173.739 264.398L158.117 236.953L141.616 247.493L146.441 284.852C146.948 288.779 151.602 290.587 154.627 288.031L172.173 273.208C174.749 271.032 175.407 267.328 173.739 264.398Z" fill="#656565"/>
<path d="M155 113.885C155 113.885 156 120.385 150.5 124.885L150.998 127.588C149.799 128.307 147.796 128.796 146.476 129.056L146.498 129.088C146.243 129.119 146.029 129.147 145.852 129.171C144.815 129.31 145.048 129.31 145.852 129.171C146.033 129.14 146.244 129.101 146.476 129.056L142.773 123.588C142.106 121.754 140.973 118.088 141.773 118.088C142.573 118.088 147.106 116.088 149.273 115.088L155 113.885Z" fill="#1B1B1B"/>
<path d="M150.5 99.0878C111 112.588 98.9996 80.0878 98.9996 71.588C96.5758 65.0438 101.417 58.088 108.396 58.088H124C139.117 63.4745 149.483 77.4611 150.237 93.4921L150.5 99.0878Z" fill="#DBDAD0" stroke="#DBDAD0"/>
<path d="M73 98.3844C94.5 96.3844 103.501 69.8844 103.501 69.8844C105.796 63.6877 100.76 57.2444 94.1925 57.9741L90.5 58.3844C72.5114 61.7419 63.3186 81.9444 72.6044 97.7126L73 98.3844Z" fill="#DBDAD0" stroke="#DBDAD0"/>
<path d="M140.492 131.493L140.492 165.493" stroke="#E64C35" stroke-width="11"/>
<path d="M135.992 150.954C135.992 150.954 138.992 149.453 143.992 150.953" stroke="#BF2F1A" stroke-width="3.5" stroke-linecap="round"/>
<path d="M135.992 156.953C135.992 156.953 140.229 154.704 145.492 156.953" stroke="#BF2F1A" stroke-width="3.5" stroke-linecap="round"/>
<path d="M145.992 152.627C143.044 151.975 137.992 148.993 136.492 143.993L145.992 144.627V152.627Z" fill="#1B1B1B"/>
<path d="M156.992 174.992C156.992 182.762 148.96 182.735 140.944 182.558C138.642 182.507 136.747 180.683 136.64 178.384L136.572 176.93C136.527 175.975 135.739 175.223 134.783 175.223V175.223C133.793 175.223 132.992 176.025 132.992 177.014V181.918C132.992 182.546 132.555 183.086 131.929 183.13C129.548 183.299 123.992 182.85 123.992 174.992C123.992 165.88 131.379 158.492 140.492 158.492C149.604 158.492 156.992 165.88 156.992 174.992Z" fill="#DBDAD0"/>
<ellipse cx="140.5" cy="111.088" rx="15" ry="15.5" fill="#DBDAD0"/>
<g style="mix-blend-mode:multiply" opacity="0.47">
<path d="M134.992 118.516L138.577 126.921" stroke="#DBDAD0" stroke-width="5" stroke-linecap="round"/>
</g>
<g style="mix-blend-mode:multiply" opacity="0.47">
<path d="M143.992 118.516L140.406 126.921" stroke="#DBDAD0" stroke-width="5" stroke-linecap="round"/>
</g>
<circle cx="135.492" cy="129.993" r="0.5" fill="#D9D9D9"/>
<path d="M152.492 131.992C150.992 140.992 157.992 144.213 146.992 147.992C143.145 148.95 139.849 147.285 136.539 144.213C132.508 144.917 129.484 142.875 127.23 139.716C120.724 130.601 130.895 119.514 141.644 122.654C147.585 124.389 152.492 127.256 152.492 131.992Z" fill="#DBDAD0"/>
<path d="M152.492 131.992C150.992 140.992 157.992 144.213 146.992 147.992C143.145 148.95 139.849 147.285 136.539 144.213C132.508 144.917 129.484 142.875 127.23 139.716C120.724 130.601 130.895 119.514 141.644 122.654C147.585 124.389 152.492 127.256 152.492 131.992Z" fill="white" fill-opacity="0.81"/>
<path d="M145.463 135.41C146.683 137.736 147.503 140.246 144.945 141.588C142.387 142.929 137.42 142.594 136.2 140.269C134.98 137.944 136.065 134.971 138.623 133.629C141.181 132.288 144.243 133.085 145.463 135.41Z" fill="#DBDAD0"/>
<path d="M152.074 131.082C153.114 133.065 151.374 136.535 149.748 137.388C148.121 138.242 147.223 136.155 146.183 134.172C145.143 132.189 145.619 129.891 147.245 129.037C148.872 128.184 151.034 129.1 152.074 131.082Z" fill="#DBDAD0"/>
<g style="mix-blend-mode:multiply" opacity="0.47">
<path d="M150.5 93.088L148.85 99.9924" stroke="#DBDAD0" stroke-width="5" stroke-linecap="round"/>
</g>
<path d="M82.4916 224.953L113.492 244.453" stroke="#424141" stroke-width="9" stroke-linecap="round"/>
<path d="M156.117 236.953L141.894 246.703" stroke="#424141" stroke-width="9" stroke-linecap="round"/>
<mask id="mask1_124_240" style="mask-type:alpha" maskUnits="userSpaceOnUse" x="135" y="132" width="12" height="11">
<path d="M145.463 135.41C146.683 137.736 147.503 140.246 144.945 141.588C142.387 142.929 137.42 142.594 136.2 140.269C134.98 137.944 136.065 134.971 138.623 133.629C141.181 132.288 144.243 133.085 145.463 135.41Z" fill="#DBDAD0"/>
</mask>
<g mask="url(#mask1_124_240)">
<g style="mix-blend-mode:multiply" opacity="0.36">
<path d="M136.492 136.493C136.492 136.493 140.492 130.992 144.992 135.993" stroke="#DBDAD0" stroke-width="3" stroke-linecap="round"/>
</g>
</g>
<mask id="mask2_124_240" style="mask-type:alpha" maskUnits="userSpaceOnUse" x="145" y="128" width="8" height="10">
<path d="M152.074 131.082C153.114 133.065 151.375 136.535 149.748 137.389C148.121 138.242 147.223 136.155 146.183 134.172C145.143 132.19 145.619 129.891 147.245 129.037C148.872 128.184 151.034 129.1 152.074 131.082Z" fill="#DBDAD0"/>
</mask>
<g mask="url(#mask2_124_240)">
<g style="mix-blend-mode:multiply" opacity="0.36">
<path d="M146.498 130.241C146.498 130.241 150.998 128.588 151.998 133.088" stroke="#DBDAD0" stroke-width="3" stroke-linecap="round"/>
</g>
</g>
<path d="M122.5 46.6287C122.5 46.6287 129 46.1287 133.5 48.6287" stroke="#BF2F1A" stroke-width="3.5" stroke-linecap="round"/>
<path d="M134.994 44.4531C128.495 44.9531 122.995 32.9531 122.995 32.9531L131.013 38.9531L134.492 41.9531L134.994 44.4531Z" fill="#1B1B1B"/>
<ellipse cx="133.593" cy="22.1309" rx="15.6432" ry="17.1669" transform="rotate(-60 133.593 22.1309)" fill="#DBDAD0"/>
<circle cx="122.448" cy="30.3444" r="12" transform="rotate(-29.742 122.448 30.3444)" fill="#DBDAD0"/>
<circle cx="140.371" cy="34.5005" r="10.5" transform="rotate(-29.742 140.371 34.5005)" fill="#DBDAD0"/>
<g style="mix-blend-mode:multiply" opacity="0.57">
<path d="M122.492 21.0876C122.492 21.0876 132.492 22.0876 130.994 33.4532" stroke="#DBDAD0" stroke-width="5" stroke-linecap="round"/>
</g>
<path d="M98.1521 71.8984C98.1521 71.8984 103 99.0879 133 100.088" stroke="#DBDAD0" stroke-width="8" stroke-linecap="round"/>
<g style="mix-blend-mode:multiply" opacity="0.45">
<path d="M164.129 147.725C164.13 147.726 164.132 147.726 164.134 147.727C164.136 147.728 164.139 147.729 164.142 147.73C164.144 147.73 164.145 147.731 164.147 147.732L164.15 147.732L164.151 147.732C162.854 147.26 162.186 145.827 162.657 144.53C163.129 143.234 164.56 142.564 165.857 143.033C165.946 143.043 166.036 143.056 166.126 143.076C168.562 143.602 170.312 143.426 171.564 143.006C172.815 142.586 173.728 141.868 174.409 141.071C175.103 140.26 175.553 139.368 175.828 138.659C175.964 138.31 176.052 138.02 176.104 137.828C176.129 137.733 176.147 137.662 176.155 137.624C176.157 137.615 176.159 137.607 176.161 137.602L176.16 137.603C176.411 136.247 177.712 135.351 179.068 135.6C180.426 135.849 181.326 137.151 181.077 138.509L179.014 138.13C181.076 138.509 181.076 138.511 181.076 138.513L181.076 138.515C181.076 138.517 181.075 138.519 181.074 138.522C181.073 138.526 181.072 138.532 181.071 138.538C181.069 138.55 181.066 138.566 181.063 138.583C181.056 138.617 181.046 138.661 181.034 138.713C181.011 138.817 180.977 138.958 180.931 139.128C180.84 139.467 180.699 139.931 180.49 140.47C180.075 141.538 179.369 142.966 178.209 144.322C177.037 145.693 175.395 146.993 173.155 147.745C172.609 147.929 172.036 148.075 171.437 148.183C172.36 149.904 173.007 152.111 173.007 154.885C173.006 156.265 171.886 157.385 170.506 157.385C169.125 157.384 168.007 156.264 168.007 154.884C168.007 151.82 166.91 150.054 165.95 149.05C165.449 148.526 164.951 148.178 164.593 147.966C164.416 147.862 164.277 147.793 164.196 147.755C164.164 147.74 164.141 147.73 164.129 147.725Z" fill="#DBDAD0"/>
</g>
<g style="mix-blend-mode:multiply" opacity="0.27">
<path d="M171.826 182.809C171.826 182.809 169.5 171.884 180.5 171.884" stroke="#DBDAD0" stroke-width="5" stroke-linecap="round"/>
</g>
<g style="mix-blend-mode:multiply" opacity="0.57">
<path d="M137.563 28.9411C139.423 27.9473 144.001 26.8333 147.432 30.3275" stroke="#DBDAD0" stroke-width="5" stroke-linecap="round"/>
</g>
<path d="M85.0002 187.884L80.0003 188.884L83.4845 198.599L85.0002 187.884Z" fill="#1B1B1B"/>
<path d="M85.5332 389.922L57 381.884L55 386.884L51 391.884H85.262C86.4238 391.884 86.6515 390.237 85.5332 389.922Z" fill="#1B1B1B"/>
<path d="M128.977 389.91L157 383.384L165 391.884H129.203C128.014 391.884 127.819 390.18 128.977 389.91Z" fill="#1B1B1B"/>
<path d="M81.5002 282.384L95.5002 288.384L78.5002 294.384L81.5002 282.384Z" fill="#1B1B1B"/>
<path d="M118 243.884L126.433 248.651C128.362 249.741 130.695 249.854 132.72 248.953L138.5 246.384L132.5 253.384L118.5 258.384L106 271.384L112.5 249.884C115.454 250.153 118 247.827 118 244.862V243.884Z" fill="#1B1B1B"/>
<path d="M103.24 171.096C103.563 170.226 104.793 170.226 105.115 171.096L106.62 175.164L110.562 173.352C111.405 172.965 112.275 173.835 111.888 174.678L110.075 178.619L114.144 180.125C115.014 180.447 115.014 181.677 114.144 182L110.075 183.504L111.888 187.446C112.275 188.289 111.405 189.159 110.562 188.772L106.62 186.959L105.115 191.028C104.793 191.898 103.563 191.898 103.24 191.028L101.734 186.959L97.7941 188.772C96.9509 189.159 96.0805 188.289 96.4679 187.446L98.2794 183.504L94.212 182C93.342 181.677 93.342 180.447 94.212 180.125L98.2794 178.619L96.4679 174.678C96.0804 173.835 96.9508 172.965 97.7941 173.352L101.734 175.164L103.24 171.096Z" fill="url(#paint10_linear_124_240)"/>
<path d="M50.0624 69.9189C50.3846 69.0483 51.6159 69.0483 51.9381 69.9189L53.9467 75.3471C54.048 75.6208 54.2638 75.8366 54.5375 75.9379L59.9657 77.9465C60.8364 78.2687 60.8364 79.5001 59.9657 79.8223L54.5375 81.8309C54.2638 81.9322 54.048 82.148 53.9467 82.4217L51.9381 87.8499C51.6159 88.7205 50.3846 88.7205 50.0624 87.8499L48.0538 82.4217C47.9525 82.148 47.7367 81.9322 47.463 81.8309L42.0347 79.8223C41.1641 79.5001 41.1641 78.2687 42.0347 77.9465L47.463 75.9379C47.7367 75.8366 47.9525 75.6208 48.0538 75.3471L50.0624 69.9189Z" fill="#E64C35"/>
<path d="M38.5624 89.9189C38.8846 89.0483 40.1159 89.0483 40.4381 89.9189L41.5014 92.7924C41.6027 93.0662 41.8185 93.282 42.0922 93.3832L44.9657 94.4465C45.8364 94.7687 45.8364 96.0001 44.9657 96.3223L42.0922 97.3856C41.8185 97.4868 41.6027 97.7026 41.5014 97.9764L40.4381 100.85C40.1159 101.721 38.8846 101.721 38.5624 100.85L37.4991 97.9764C37.3978 97.7026 37.182 97.4868 36.9083 97.3856L34.0347 96.3223C33.1641 96.0001 33.1641 94.7687 34.0347 94.4465L36.9083 93.3832C37.182 93.282 37.3978 93.0662 37.4991 92.7924L38.5624 89.9189Z" fill="#E08FB5"/>
<g style="mix-blend-mode:screen" opacity="0.44">
<path d="M32.6508 184.218L34.3497 183.051" stroke="#DBDAD0" stroke-width="5" stroke-linecap="round"/>
</g>
<g opacity="0.59" filter="url(#filter3_g_124_240)">
<path d="M70.8262 119.233C70.3565 119.203 69.9257 119.364 69.6333 119.726C69.3406 120.085 69.2102 120.615 69.2662 121.154C69.3221 121.693 69.5585 122.185 69.9187 122.476C70.2791 122.77 70.7339 122.839 71.1874 122.714C71.1874 122.714 71.1874 122.714 71.1874 122.714C71.3593 122.667 71.5312 122.62 71.7031 122.572C74.7968 121.724 77.8905 120.875 80.9843 120.026C81.1561 119.979 81.328 119.932 81.4999 119.884C81.322 119.874 81.1441 119.863 80.9662 119.852C77.7641 119.656 74.562 119.461 71.3599 119.265C71.182 119.254 71.0041 119.243 70.8262 119.233Z" fill="#B798A3"/>
</g>
<g style="mix-blend-mode:screen" opacity="0.44">
<path d="M40.675 180.552L41.0002 180.552" stroke="#DBDAD0" stroke-width="5" stroke-linecap="round"/>
</g>
<path d="M136 174.384L139.5 181.384" stroke="#CECDC0" stroke-width="5" stroke-linecap="round"/>
<path opacity="0.49" d="M75.8421 249.355L63.9999 263.32" stroke="#7C7C7C" stroke-width="8" stroke-linecap="round"/>
<path opacity="0.49" d="M82.7447 261.546L79.7928 266.293" stroke="#7C7C7C" stroke-width="8" stroke-linecap="round"/>
</g>
</g>
<defs>
<filter id="filter0_g_124_240" x="4.19717" y="5.44106" width="198.954" height="419.724" filterUnits="userSpaceOnUse" color-interpolation-filters="sRGB">
<feFlood flood-opacity="0" result="BackgroundImageFix"/>
<feBlend mode="normal" in="SourceGraphic" in2="BackgroundImageFix" result="shape"/>
<feTurbulence type="fractalNoise" baseFrequency="1.1627906560897827 1.1627906560897827" numOctaves="3" seed="6603" />
<feDisplacementMap in="shape" scale="1.2999999523162842" xChannelSelector="R" yChannelSelector="G" result="displacedImage" width="100%" height="100%" />
<feMerge result="effect1_texture_124_240">
<feMergeNode in="displacedImage"/>
</feMerge>
</filter>
<filter id="filter1_g_124_240" x="100.837" y="103.798" width="36.9743" height="36.0486" filterUnits="userSpaceOnUse" color-interpolation-filters="sRGB">
<feFlood flood-opacity="0" result="BackgroundImageFix"/>
<feBlend mode="normal" in="SourceGraphic" in2="BackgroundImageFix" result="shape"/>
<feTurbulence type="fractalNoise" baseFrequency="2.1604177951812744 2.1604177951812744" numOctaves="3" seed="1626" />
<feDisplacementMap in="shape" scale="20.310886383056641" xChannelSelector="R" yChannelSelector="G" result="displacedImage" width="100%" height="100%" />
<feMerge result="effect1_texture_124_240">
<feMergeNode in="displacedImage"/>
</feMerge>
</filter>
<filter id="filter2_g_124_240" x="64.3391" y="103.798" width="36.9743" height="36.0486" filterUnits="userSpaceOnUse" color-interpolation-filters="sRGB">
<feFlood flood-opacity="0" result="BackgroundImageFix"/>
<feBlend mode="normal" in="SourceGraphic" in2="BackgroundImageFix" result="shape"/>
<feTurbulence type="fractalNoise" baseFrequency="2.1604177951812744 2.1604177951812744" numOctaves="3" seed="1626" />
<feDisplacementMap in="shape" scale="20.310886383056641" xChannelSelector="R" yChannelSelector="G" result="displacedImage" width="100%" height="100%" />
<feMerge result="effect1_texture_124_240">
<feMergeNode in="displacedImage"/>
</feMerge>
</filter>
<filter id="filter3_g_124_240" x="65.6135" y="115.589" width="19.5264" height="10.8244" filterUnits="userSpaceOnUse" color-interpolation-filters="sRGB">
<feFlood flood-opacity="0" result="BackgroundImageFix"/>
<feBlend mode="normal" in="SourceGraphic" in2="BackgroundImageFix" result="shape"/>
<feTurbulence type="fractalNoise" baseFrequency="9.0909090042114258 9.0909090042114258" numOctaves="3" seed="3497" />
<feDisplacementMap in="shape" scale="7.2800002098083496" xChannelSelector="R" yChannelSelector="G" result="displacedImage" width="100%" height="100%" />
<feMerge result="effect1_texture_124_240">
<feMergeNode in="displacedImage"/>
</feMerge>
</filter>
<linearGradient id="paint0_linear_124_240" x1="80.5002" y1="170.588" x2="80.5002" y2="423.588" gradientUnits="userSpaceOnUse">
<stop/>
<stop offset="1" stop-opacity="0"/>
</linearGradient>
<linearGradient id="paint1_linear_124_240" x1="124.498" y1="74.5878" x2="176.498" y2="199.588" gradientUnits="userSpaceOnUse">
<stop stop-color="white" stop-opacity="0"/>
<stop offset="1" stop-color="white"/>
</linearGradient>
<linearGradient id="paint2_linear_124_240" x1="122" y1="154.588" x2="125" y2="249.088" gradientUnits="userSpaceOnUse">
<stop stop-opacity="0"/>
<stop offset="0.432613" stop-color="white" stop-opacity="0.432613"/>
<stop offset="1"/>
</linearGradient>
<linearGradient id="paint3_linear_124_240" x1="109.5" y1="66.0881" x2="98.0002" y2="148.088" gradientUnits="userSpaceOnUse">
<stop stop-color="#FF236C"/>
<stop offset="0.95048" stop-color="#A0BD92"/>
</linearGradient>
<linearGradient id="paint4_linear_124_240" x1="71.7805" y1="250.952" x2="71.7805" y2="424.514" gradientUnits="userSpaceOnUse">
<stop stop-color="#4D4C4B"/>
<stop offset="0.427885" stop-color="#686868"/>
<stop offset="1" stop-color="#3A3A3A"/>
</linearGradient>
<linearGradient id="paint5_linear_124_240" x1="150.963" y1="248.454" x2="150.963" y2="424.515" gradientUnits="userSpaceOnUse">
<stop stop-color="#4D4C4B"/>
<stop offset="0.427885" stop-color="#686868"/>
<stop offset="1" stop-color="#3A3A3A"/>
</linearGradient>
<linearGradient id="paint6_linear_124_240" x1="175" y1="95.088" x2="132" y2="135.088" gradientUnits="userSpaceOnUse">
<stop stop-color="#FF60DC"/>
<stop offset="0.489881" stop-opacity="0"/>
</linearGradient>
<linearGradient id="paint7_linear_124_240" x1="69.5989" y1="122.579" x2="96.1047" y2="118.916" gradientUnits="userSpaceOnUse">
<stop stop-color="#A0BD92"/>
<stop offset="1" stop-color="#A8B18F"/>
</linearGradient>
<linearGradient id="paint8_linear_124_240" x1="65.5002" y1="177.588" x2="91.5002" y2="185.088" gradientUnits="userSpaceOnUse">
<stop stop-color="#656565"/>
<stop offset="1" stop-color="#707070"/>
</linearGradient>
<linearGradient id="paint9_linear_124_240" x1="69.0951" y1="227.96" x2="64.7324" y2="251.254" gradientUnits="userSpaceOnUse">
<stop stop-opacity="0"/>
<stop offset="1"/>
</linearGradient>
<linearGradient id="paint10_linear_124_240" x1="119" y1="161.385" x2="94.0005" y2="208.884" gradientUnits="userSpaceOnUse">
<stop stop-color="#3A342E"/>
<stop offset="1" stop-color="#7A7A7A"/>
</linearGradient>
<clipPath id="clip0_124_240">
<rect width="211" height="425" fill="white"/>
</clipPath>
</defs>
</svg>
