<svg width="202" height="431" viewBox="0 0 202 431" fill="none" xmlns="http://www.w3.org/2000/svg">
<g filter="url(#filter0_g_38_901)">
<path d="M3.21079 418.837L76.5003 182.204L157 176.204L136 429.204H10.8527C5.46403 429.204 1.61655 423.984 3.21079 418.837Z" fill="#E64C35"/>
<path d="M3.21079 418.837L76.5003 182.204L157 176.204L136 429.204H10.8527C5.46403 429.204 1.61655 423.984 3.21079 418.837Z" fill="url(#paint0_linear_38_901)" fill-opacity="0.2"/>
<path d="M128.766 40.858L113.14 60.9212C112.593 61.6235 112.719 62.6361 113.422 63.1831C118.099 66.8261 123.953 68.6232 129.869 68.2326L130.874 68.1663C131.813 68.1042 132.543 67.3246 132.544 66.3832L132.558 44.339L128.766 40.858Z" fill="#E64C35"/>
<path d="M121.882 57.532C142.621 56.7151 160.797 71.2892 164.509 91.7097L167.413 107.695C167.711 109.333 168.828 110.68 170.257 111.535C176.387 115.202 180.492 121.905 180.492 129.568C180.492 131.421 180.252 133.218 179.801 134.929C179.029 137.857 180.144 141.216 182.518 143.096C187.375 146.942 190.492 152.891 190.492 159.568C190.492 165 188.428 169.95 185.043 173.678C184.418 174.367 184.87 175.711 185.781 175.896C190.385 176.829 199.39 180.422 200.5 194.25C200.5 194.25 201 211.5 179.5 212.875C172.021 212.875 99.5 212.875 99.5 212.875L73.6423 173.585L81.5 144L72 105.5C72 105.5 81.5 50.5 121.882 57.532Z" fill="#DBDAD0"/>
<path d="M121.882 57.532C142.621 56.7151 160.797 71.2892 164.509 91.7097L167.413 107.695C167.711 109.333 168.828 110.68 170.257 111.535C176.387 115.202 180.492 121.905 180.492 129.568C180.492 131.421 180.252 133.218 179.801 134.929C179.029 137.857 180.144 141.216 182.518 143.096C187.375 146.942 190.492 152.891 190.492 159.568C190.492 165 188.428 169.95 185.043 173.678C184.418 174.367 184.87 175.711 185.781 175.896C190.385 176.829 199.39 180.422 200.5 194.25C200.5 194.25 201 211.5 179.5 212.875C172.021 212.875 99.5 212.875 99.5 212.875L73.6423 173.585L81.5 144L72 105.5C72 105.5 81.5 50.5 121.882 57.532Z" fill="url(#paint1_linear_38_901)" fill-opacity="0.5"/>
<path d="M145.785 173.678L146.984 258.813" stroke="#778D71" stroke-width="25.9209" stroke-linejoin="round"/>
<path d="M146.3 201.608C146.3 201.608 154.3 195.108 158.8 187.108V176.108L145.119 179.108L146.3 201.608Z" fill="#1B1B1B"/>
<path d="M129.508 227.569C132.59 255.326 131.949 248.289 143.384 248.608L161.167 248.608L161.167 227.569L129.508 227.569Z" fill="#4F4F4F"/>
<path d="M169.527 266.628C169.749 254.369 159.785 244.231 147.252 244.004C134.719 243.777 124.395 253.548 124.173 265.808C123.951 278.068 133.915 288.206 146.448 288.432C158.981 288.659 169.305 278.888 169.527 266.628Z" fill="#778D71" stroke="#778D71" stroke-width="0.925747"/>
<path d="M150.3 225.407H158.3" stroke="#404040" stroke-width="9" stroke-linecap="round"/>
<path d="M150.3 245.947H158.3" stroke="#404040" stroke-width="9" stroke-linecap="round"/>
<path d="M163.991 170.708L126.3 155.922V176.826C126.3 176.826 152.526 188.134 164.809 173.59C165.628 172.619 165.173 171.172 163.991 170.708Z" fill="#4D4C4B"/>
<path d="M87.9921 182.469L97.4923 154.569L120.562 154.569C124.469 154.569 128.329 155.417 131.877 157.054L145.992 163.569L130.992 182.469L87.9921 182.469Z" fill="#4D4C4B"/>
<circle cx="81.9916" cy="115.608" r="12.5" fill="#DBDAD0"/>
<path d="M102.583 273.608L92.6768 231.954L127.177 249.954L151.677 228.954L148.083 273.608L102.583 273.608Z" fill="#4D4C4B"/>
<path d="M97.4921 141.569H124.492V165.069C124.492 172.525 118.448 178.569 110.992 178.569C103.536 178.569 97.4921 172.525 97.4921 165.069V141.569Z" fill="#A0BD92"/>
<path d="M146.492 169.558C153.926 182.17 156.732 196.978 154.429 211.435L150.34 237.108C150.34 237.108 140.992 250.569 127.939 255.108C122.931 255.108 80.9921 230.569 80.9921 230.569L86.484 219.506L67.9916 169.558L97.3578 166.365V157.574L111.492 159.569L124.651 156.569V165.135L146.492 169.558Z" fill="#656565"/>
<path d="M146.492 169.558C153.926 182.17 156.732 196.978 154.429 211.435L150.34 237.108C150.34 237.108 140.992 250.569 127.939 255.108C122.931 255.108 80.9921 230.569 80.9921 230.569L86.484 219.506L67.9916 169.558L97.3578 166.365V157.574L111.492 159.569L124.651 156.569V165.135L146.492 169.558Z" fill="url(#paint2_linear_38_901)" fill-opacity="0.3"/>
<g opacity="0.37">
<path d="M117.992 171.569C141.992 206.069 127.992 250.069 127.992 250.069" stroke="#656565" stroke-width="5" stroke-linecap="round" style="mix-blend-mode:screen"/>
</g>
<path d="M93.4915 165.108H132.491C132.491 173.945 125.328 181.108 116.491 181.108H109.491C100.655 181.108 93.4915 173.945 93.4915 165.108Z" fill="#656565"/>
<path d="M64.7993 102.435C62.9839 102.25 61.6613 103.915 62.3764 105.594C66.4961 115.266 79.0236 133.019 87.7243 130.992C97.5996 128.691 104.108 120.401 102.262 112.476C102.262 112.476 80.7413 104.057 64.7993 102.435Z" fill="#638659"/>
<path d="M81.4996 121.569L81.4996 155.569" stroke="#E64C35" stroke-width="10"/>
<path d="M77 150.569C77 150.569 81 149.069 86 150.569" stroke="#BF2F1A" stroke-width="3.5" stroke-linecap="round"/>
<path d="M77 145.235C77 145.235 81 143.736 86 145.235" stroke="#BF2F1A" stroke-width="3.5" stroke-linecap="round"/>
<path d="M86.9996 144.569C86.9996 144.569 82 144.069 78 141.203L86.9996 140.069V144.569Z" fill="#1B1B1B"/>
<circle cx="81.5" cy="165.069" r="14.5" fill="#DBDAD0"/>
<circle cx="81.5" cy="165.069" r="14.5" fill="black" fill-opacity="0.2"/>
<path d="M89.5081 135.5C89.5081 141.299 85.5081 144 79.0081 142C72.0081 144.5 68.0081 139 68.0081 131C68.0081 123 79.0081 120 79.0081 120C84.807 120 89.5081 129.701 89.5081 135.5Z" fill="#DBDAD0"/>
<path d="M89.5081 135.5C89.5081 141.299 85.5081 144 79.0081 142C72.0081 144.5 68.0081 139 68.0081 131C68.0081 123 79.0081 120 79.0081 120C84.807 120 89.5081 129.701 89.5081 135.5Z" fill="#5C4E5E" fill-opacity="0.15"/>
<ellipse cx="81.5081" cy="111.5" rx="14" ry="14.5" fill="#DBDAD0"/>
<g style="mix-blend-mode:multiply" opacity="0.46">
<path d="M78 137.569L79.3125 139.8" stroke="#DBDAD0" stroke-width="5" stroke-linecap="round"/>
</g>
<path d="M97.9924 157.61L99.0852 157.87C107.871 159.967 117.052 159.734 125.72 157.195V157.195" stroke="#4D4C4B" stroke-width="3" stroke-linecap="round" stroke-linejoin="round"/>
<path d="M94.4923 165.569L104.85 168.101C112.537 169.98 120.662 168.317 126.992 163.569V163.569" stroke="#4D4C4B" stroke-width="5" stroke-linecap="round" stroke-linejoin="round"/>
<path d="M97.4919 150.608V160.108C102.5 161.673 107.958 160.675 112.088 157.438L123.991 148.108L105.491 149.608L97.4919 150.608Z" fill="#1B1B1B"/>
<path d="M148.492 111.608C148.492 111.608 148.879 135.248 118.505 150.444C109.572 154.913 98.7416 155.151 91.2469 148.548C84.8014 142.87 77.5598 133.12 73.4917 116.608C65.9916 64.1077 112.677 67.2168 112.677 67.2168C137.474 67.2168 148.492 87.0664 148.492 111.608Z" fill="#A0BD92"/>
<path d="M148.492 111.608C148.492 111.608 148.879 135.248 118.505 150.444C109.572 154.913 98.7416 155.151 91.2469 148.548C84.8014 142.87 77.5598 133.12 73.4917 116.608C65.9916 64.1077 112.677 67.2168 112.677 67.2168C137.474 67.2168 148.492 87.0664 148.492 111.608Z" fill="url(#paint3_linear_38_901)" fill-opacity="0.3"/>
<path opacity="0.1" d="M124.5 130.5C118.9 124.1 121 113 125 109.5L128.352 110L133.852 133L128.352 145L123 148C118.5 141.5 121.667 133.333 124.5 130.5Z" fill="#1B1B1B"/>
<path d="M117.537 261.106L95.9569 391.017H95.7948L94.5565 428.196C94.5206 429.274 93.6361 430.13 92.5575 430.13H26.662C22.5391 430.13 20.474 425.145 23.3885 422.229L54.5819 391.017H53.8358L86.4921 256.567L117.537 261.106Z" fill="url(#paint4_linear_38_901)"/>
<path d="M153.767 390.608H153.808L185.413 422.231C188.327 425.147 186.261 430.131 182.138 430.131H113.15C111.986 430.131 111.067 429.141 111.155 427.98L113.445 397.799L120.492 258.783L153.767 254.07V390.608Z" fill="url(#paint5_linear_38_901)"/>
<path d="M146.352 293.501C146.097 292.159 145.397 290.258 143.492 289.067H151.992L158.492 286.567V319.067L147.196 296.477C146.735 295.553 146.544 294.516 146.352 293.501Z" fill="#1B1B1B"/>
<path d="M170.884 100.294C172.698 100.064 174.083 101.691 173.434 103.401C169.3 114.302 155.645 135.212 145.805 133.195C134.775 130.935 127.324 121.833 129.161 112.865C129.161 112.865 153.183 102.544 170.884 100.294Z" fill="#A0BD92"/>
<path d="M170.884 100.294C172.698 100.064 174.083 101.691 173.434 103.401C169.3 114.302 155.645 135.212 145.805 133.195C134.775 130.935 127.324 121.833 129.161 112.865C129.161 112.865 153.183 102.544 170.884 100.294Z" fill="url(#paint6_linear_38_901)" fill-opacity="0.4"/>
<path d="M145.365 120.908L157.5 116.203" stroke="#899D84" stroke-width="5.55448" stroke-linecap="round"/>
<g style="mix-blend-mode:multiply" opacity="0.4" filter="url(#filter1_g_38_901)">
<ellipse cx="117.324" cy="127.437" rx="8.33172" ry="7.86885" fill="#B0C5B1"/>
</g>
<g style="mix-blend-mode:multiply" opacity="0.4" filter="url(#filter2_g_38_901)">
<ellipse cx="80.8262" cy="127.437" rx="8.33172" ry="7.86885" fill="#B0C5B1"/>
</g>
<circle cx="80.4916" cy="122.516" r="2.53713" fill="#1B1B1B" stroke="#1B1B1B" stroke-width="0.925747"/>
<circle cx="103.244" cy="122.516" r="2.53713" fill="#1B1B1B" stroke="#1B1B1B" stroke-width="0.925747"/>
<path d="M104.752 112.204L100 114.818" stroke="#DBDAD0" stroke-width="5.55448" stroke-linecap="round" style="mix-blend-mode:multiply"/>
<path d="M79.5002 112.204L84.2286 114.818" stroke="#DBDAD0" stroke-width="5.55448" stroke-linecap="round" style="mix-blend-mode:multiply"/>
<path d="M101 136V136C97.2251 137.886 92.7734 137.889 89 136V136" stroke="#1B1B1B" stroke-width="3" stroke-linecap="round" stroke-linejoin="round"/>
<path d="M77.5 129.203H94C94 131.021 92.347 132.391 90.561 132.053L85 131L77.5 129.203Z" fill="#1B1B1B"/>
<path d="M90.0922 122.006C92.2806 121.677 94.2501 123.371 94.2504 125.584C94.2504 127.583 92.6298 129.203 90.6312 129.203H69.0004C67.9537 129.203 67.0844 128.396 67.0062 127.353C66.9283 126.309 67.6677 125.381 68.7025 125.226L90.0922 122.006Z" fill="url(#paint7_linear_38_901)"/>
<path d="M79.6859 174.37L35.6437 195.088L65.917 235.603" stroke="#A0BD92" stroke-width="25.9209" stroke-linejoin="round"/>
<mask id="mask0_38_901" style="mask-type:alpha" maskUnits="userSpaceOnUse" x="13" y="180" width="26" height="25">
<ellipse opacity="0.37" cx="26.0002" cy="192.204" rx="12.5" ry="12" fill="#8A10C2"/>
</mask>
<g mask="url(#mask0_38_901)">
<path opacity="0.36" d="M23.0003 199.203C24.1669 200.87 26.5003 204.303 26.5003 204.704L31.5002 211.704L55.5002 201.704L49.0002 174.704L35.5002 180.704C35.1669 181.204 33.1003 182.804 27.5003 185.204C21.9003 187.604 22.1669 195.537 23.0003 199.203Z" fill="#FF4C4F"/>
</g>
<path d="M66.8416 194.753L51.4921 168.569L85.7143 170.069L85.5002 185.704L85.7143 191.704L71.582 196.517C69.7836 197.129 67.8024 196.392 66.8416 194.753Z" fill="url(#paint8_linear_38_901)"/>
<ellipse cx="65.1982" cy="243.99" rx="22.6808" ry="23.1437" transform="rotate(-42.0699 65.1982 243.99)" fill="#A0BD92"/>
<ellipse cx="65.1982" cy="243.99" rx="22.6808" ry="23.1437" transform="rotate(-42.0699 65.1982 243.99)" fill="url(#paint9_linear_38_901)" fill-opacity="0.2"/>
<path d="M53.1436 194.792L57.7328 202.788" stroke="#899D84" stroke-width="5" stroke-linecap="round"/>
<path d="M48.2838 164.307L97.4921 154.569V164.098C97.4921 171.152 93.6515 177.991 86.7946 179.649C69.3925 183.855 54.2936 176.03 46.7738 168.715C45.2089 167.193 46.1422 164.731 48.2838 164.307Z" fill="#4D4C4B"/>
<path d="M42.7152 230.486L30.8877 213.126L44.1332 210.035L60.1841 202.628L67.7299 216.683L42.7152 230.486Z" fill="#656565"/>
<path d="M32.8138 214.262L45.7335 208.642L58.584 204.02" stroke="#4D4C4B" stroke-width="10" stroke-linecap="round" stroke-linejoin="round"/>
<path d="M44.5721 232.619L70.4806 220.382" stroke="#4D4C4B" stroke-width="10" stroke-linecap="round"/>
<path d="M50.773 263.506L79.9921 233.069L113.26 247.069L99.1305 290.062C98.1955 292.907 94.9862 294.298 92.271 293.034L52.8695 274.7C48.517 272.675 47.4483 266.969 50.773 263.506Z" fill="#656565"/>
<path d="M171.739 270.013L156.117 242.569L139.616 253.108L144.441 290.468C144.948 294.395 149.602 296.202 152.627 293.647L170.173 278.823C172.749 276.647 173.407 272.944 171.739 270.013Z" fill="#656565"/>
<path d="M153 119.5C153 119.5 154 126 148.5 130.5L148.998 133.203C147.799 133.922 145.796 134.412 144.476 134.671L144.498 134.703C144.243 134.735 144.029 134.763 143.852 134.786C142.815 134.925 143.048 134.925 143.852 134.786C144.033 134.755 144.244 134.717 144.476 134.671L140.773 129.203C140.106 127.37 138.973 123.703 139.773 123.703C140.573 123.703 145.106 121.703 147.273 120.703L153 119.5Z" fill="#1B1B1B"/>
<path d="M148.5 104.703C109 118.203 96.9996 85.7034 96.9996 77.2036C94.5758 70.6594 99.4171 63.7036 106.396 63.7036H122C137.117 69.0901 147.483 83.0767 148.237 99.1077L148.5 104.703Z" fill="#DBDAD0" stroke="#DBDAD0"/>
<path d="M71 104C92.5 102 101.501 75.5 101.501 75.5C103.796 69.3033 98.7602 62.86 92.1925 63.5897L88.5 64C70.5114 67.3575 61.3186 87.56 70.6044 103.328L71 104Z" fill="#DBDAD0" stroke="#DBDAD0"/>
<path d="M138.492 137.108L138.492 171.108" stroke="#E64C35" stroke-width="11"/>
<path d="M133.992 156.569C133.992 156.569 136.992 155.069 141.992 156.569" stroke="#BF2F1A" stroke-width="3.5" stroke-linecap="round"/>
<path d="M133.992 162.569C133.992 162.569 138.229 160.32 143.492 162.569" stroke="#BF2F1A" stroke-width="3.5" stroke-linecap="round"/>
<path d="M143.992 158.242C141.044 157.591 135.992 154.608 134.492 149.608L143.992 150.242V158.242Z" fill="#1B1B1B"/>
<path d="M154.992 180.608C154.992 188.378 146.96 188.351 138.944 188.174C136.642 188.123 134.747 186.299 134.639 183.999L134.572 182.546C134.527 181.59 133.739 180.839 132.783 180.839C131.793 180.839 130.992 181.64 130.992 182.63V187.534C130.992 188.162 130.555 188.702 129.929 188.746C127.548 188.914 121.992 188.465 121.992 180.608C121.992 171.495 129.379 164.108 138.492 164.108C147.604 164.108 154.992 171.495 154.992 180.608Z" fill="#DBDAD0"/>
<ellipse cx="138.5" cy="116.704" rx="15" ry="15.5" fill="#DBDAD0"/>
<g style="mix-blend-mode:multiply" opacity="0.47">
<path d="M132.992 124.131L136.577 132.536" stroke="#DBDAD0" stroke-width="5" stroke-linecap="round"/>
</g>
<g style="mix-blend-mode:multiply" opacity="0.47">
<path d="M141.992 124.132L138.406 132.536" stroke="#DBDAD0" stroke-width="5" stroke-linecap="round"/>
</g>
<circle cx="133.492" cy="135.608" r="0.5" fill="#D9D9D9"/>
<path d="M150.492 137.608C148.992 146.608 155.992 149.828 144.992 153.608C141.145 154.566 137.849 152.901 134.539 149.828C130.508 150.533 127.484 148.49 125.23 145.331C118.724 136.217 128.895 125.129 139.644 128.269C145.585 130.005 150.492 132.872 150.492 137.608Z" fill="#DBDAD0"/>
<path d="M150.492 137.608C148.992 146.608 155.992 149.828 144.992 153.608C141.145 154.566 137.849 152.901 134.539 149.828C130.508 150.533 127.484 148.49 125.23 145.331C118.724 136.217 128.895 125.129 139.644 128.269C145.585 130.005 150.492 132.872 150.492 137.608Z" fill="white" fill-opacity="0.81"/>
<path d="M143.463 141.026C144.683 143.352 145.503 145.862 142.945 147.203C140.387 148.545 135.42 148.21 134.2 145.885C132.98 143.559 134.065 140.587 136.623 139.245C139.181 137.903 142.243 138.701 143.463 141.026Z" fill="#DBDAD0"/>
<path d="M150.074 136.698C151.114 138.681 149.374 142.151 147.748 143.004C146.121 143.857 145.223 141.77 144.183 139.788C143.143 137.805 143.619 135.506 145.245 134.653C146.872 133.8 149.034 134.715 150.074 136.698Z" fill="#DBDAD0"/>
<g style="mix-blend-mode:multiply" opacity="0.47">
<path d="M148.5 98.7036L146.85 105.608" stroke="#DBDAD0" stroke-width="5" stroke-linecap="round"/>
</g>
<path d="M80.4916 230.569L111.492 250.069" stroke="#424141" stroke-width="9" stroke-linecap="round"/>
<path d="M154.117 242.569L139.894 252.319" stroke="#424141" stroke-width="9" stroke-linecap="round"/>
<mask id="mask1_38_901" style="mask-type:alpha" maskUnits="userSpaceOnUse" x="133" y="138" width="12" height="10">
<path d="M143.463 141.026C144.683 143.352 145.503 145.862 142.945 147.203C140.387 148.545 135.42 148.21 134.2 145.885C132.98 143.559 134.065 140.587 136.623 139.245C139.181 137.903 142.243 138.701 143.463 141.026Z" fill="#DBDAD0"/>
</mask>
<g mask="url(#mask1_38_901)">
<g style="mix-blend-mode:multiply" opacity="0.36">
<path d="M134.492 142.108C134.492 142.108 138.492 136.608 142.992 141.609" stroke="#DBDAD0" stroke-width="3" stroke-linecap="round"/>
</g>
</g>
<mask id="mask2_38_901" style="mask-type:alpha" maskUnits="userSpaceOnUse" x="143" y="134" width="8" height="10">
<path d="M150.074 136.698C151.114 138.681 149.375 142.151 147.748 143.004C146.121 143.857 145.223 141.77 144.183 139.788C143.143 137.805 143.619 135.506 145.245 134.653C146.872 133.8 149.034 134.715 150.074 136.698Z" fill="#DBDAD0"/>
</mask>
<g mask="url(#mask2_38_901)">
<g style="mix-blend-mode:multiply" opacity="0.36">
<path d="M144.498 135.856C144.498 135.856 148.998 134.203 149.998 138.703" stroke="#DBDAD0" stroke-width="3" stroke-linecap="round"/>
</g>
</g>
<path d="M120.5 52.2441C120.5 52.2441 127 51.7441 131.5 54.2442" stroke="#BF2F1A" stroke-width="3.5" stroke-linecap="round"/>
<path d="M132.994 50.0686C126.495 50.5686 120.995 38.5686 120.995 38.5686L129.013 44.5686L132.492 47.5686L132.994 50.0686Z" fill="#1B1B1B"/>
<ellipse cx="131.593" cy="27.7462" rx="15.6432" ry="17.1669" transform="rotate(-60 131.593 27.7462)" fill="#DBDAD0"/>
<circle cx="120.448" cy="35.96" r="12" transform="rotate(-29.742 120.448 35.96)" fill="#DBDAD0"/>
<circle cx="138.371" cy="40.1158" r="10.5" transform="rotate(-29.742 138.371 40.1158)" fill="#DBDAD0"/>
<g style="mix-blend-mode:multiply" opacity="0.57">
<path d="M120.492 26.7031C120.492 26.7031 130.492 27.7031 128.994 39.0687" stroke="#DBDAD0" stroke-width="5" stroke-linecap="round"/>
</g>
<path d="M96.1521 77.5139C96.1521 77.5139 101 104.703 131 105.704" stroke="#DBDAD0" stroke-width="8" stroke-linecap="round"/>
<g style="mix-blend-mode:multiply" opacity="0.45">
<path d="M162.129 153.34C162.13 153.341 162.132 153.342 162.134 153.342C162.136 153.343 162.139 153.344 162.142 153.345C162.144 153.346 162.145 153.347 162.147 153.347L162.15 153.348L162.151 153.348C160.854 152.875 160.186 151.442 160.657 150.146C161.129 148.849 162.56 148.18 163.857 148.649C163.946 148.658 164.036 148.672 164.126 148.691C166.562 149.218 168.312 149.041 169.564 148.621C170.815 148.201 171.728 147.484 172.409 146.687C173.103 145.875 173.553 144.984 173.828 144.275C173.964 143.926 174.052 143.636 174.104 143.444C174.129 143.348 174.147 143.278 174.155 143.239C174.157 143.23 174.159 143.223 174.161 143.217L174.16 143.218C174.411 141.863 175.712 140.966 177.068 141.215C178.426 141.464 179.326 142.767 179.077 144.125L177.014 143.746C179.076 144.125 179.076 144.127 179.076 144.128L179.076 144.131C179.076 144.133 179.075 144.135 179.074 144.137C179.073 144.142 179.072 144.148 179.071 144.153C179.069 144.166 179.066 144.181 179.063 144.198C179.056 144.233 179.046 144.276 179.034 144.328C179.011 144.433 178.977 144.574 178.931 144.744C178.84 145.083 178.699 145.546 178.49 146.085C178.075 147.153 177.369 148.581 176.209 149.937C175.037 151.309 173.395 152.609 171.155 153.361C170.609 153.544 170.036 153.69 169.437 153.799C170.36 155.52 171.007 157.726 171.007 160.5C171.006 161.88 169.886 163 168.506 163C167.125 163 166.007 161.879 166.007 160.499C166.007 157.436 164.91 155.669 163.95 154.665C163.449 154.142 162.951 153.793 162.593 153.582C162.416 153.477 162.277 153.408 162.196 153.371C162.164 153.356 162.141 153.346 162.129 153.34Z" fill="#DBDAD0"/>
</g>
<g style="mix-blend-mode:multiply" opacity="0.27">
<path d="M169.826 188.425C169.826 188.425 167.5 177.5 178.5 177.5" stroke="#DBDAD0" stroke-width="5" stroke-linecap="round"/>
</g>
<g style="mix-blend-mode:multiply" opacity="0.57">
<path d="M135.563 34.5565C137.423 33.5627 142.001 32.4487 145.432 35.9429" stroke="#DBDAD0" stroke-width="5" stroke-linecap="round"/>
</g>
<path d="M83.0002 193.5L78.0003 194.5L81.4845 204.215L83.0002 193.5Z" fill="#1B1B1B"/>
<path d="M83.5332 395.537L55 387.5L53 392.5L49 397.5H83.262C84.4238 397.5 84.6515 395.852 83.5332 395.537Z" fill="#1B1B1B"/>
<path d="M126.977 395.526L155 389L163 397.5H127.203C126.014 397.5 125.819 395.796 126.977 395.526Z" fill="#1B1B1B"/>
<path d="M79.5002 288L93.5002 294L76.5002 300L79.5002 288Z" fill="#1B1B1B"/>
<path d="M116 249.5L124.433 254.266C126.362 255.357 128.695 255.469 130.72 254.569L136.5 252L130.5 259L116.5 264L104 277L110.5 255.5C113.454 255.768 116 253.443 116 250.477V249.5Z" fill="#1B1B1B"/>
<path d="M101.24 176.712C101.563 175.842 102.793 175.842 103.115 176.712L104.62 180.779L108.562 178.968C109.405 178.58 110.275 179.45 109.888 180.294L108.075 184.234L112.144 185.74C113.014 186.062 113.014 187.293 112.144 187.615L108.075 189.12L109.888 193.061C110.275 193.904 109.405 194.775 108.562 194.387L104.62 192.575L103.115 196.643C102.793 197.513 101.563 197.513 101.24 196.643L99.7345 192.575L95.7941 194.387C94.9509 194.775 94.0805 193.904 94.4679 193.061L96.2794 189.12L92.212 187.615C91.342 187.293 91.342 186.062 92.212 185.74L96.2794 184.234L94.4679 180.294C94.0804 179.45 94.9508 178.58 95.7941 178.968L99.7345 180.779L101.24 176.712Z" fill="url(#paint10_linear_38_901)"/>
<path d="M48.0624 75.5345C48.3846 74.6639 49.6159 74.6639 49.9381 75.5345L51.9467 80.9627C52.048 81.2364 52.2638 81.4522 52.5375 81.5535L57.9657 83.5621C58.8364 83.8843 58.8364 85.1157 57.9657 85.4379L52.5375 87.4465C52.2638 87.5478 52.048 87.7636 51.9467 88.0373L49.9381 93.4655C49.6159 94.3361 48.3846 94.3361 48.0624 93.4655L46.0538 88.0373C45.9525 87.7636 45.7367 87.5478 45.463 87.4465L40.0347 85.4379C39.1641 85.1157 39.1641 83.8843 40.0347 83.5621L45.463 81.5535C45.7367 81.4522 45.9525 81.2364 46.0538 80.9627L48.0624 75.5345Z" fill="#E64C35"/>
<path d="M36.5624 95.5345C36.8846 94.6639 38.1159 94.6639 38.4381 95.5345L39.5014 98.408C39.6027 98.6818 39.8185 98.8976 40.0922 98.9988L42.9657 100.062C43.8364 100.384 43.8364 101.616 42.9657 101.938L40.0922 103.001C39.8185 103.102 39.6027 103.318 39.5014 103.592L38.4381 106.465C38.1159 107.336 36.8846 107.336 36.5624 106.465L35.4991 103.592C35.3978 103.318 35.182 103.102 34.9083 103.001L32.0347 101.938C31.1641 101.616 31.1641 100.384 32.0347 100.062L34.9083 98.9988C35.182 98.8976 35.3978 98.6818 35.4991 98.408L36.5624 95.5345Z" fill="#E08FB5"/>
<g style="mix-blend-mode:screen" opacity="0.44">
<path d="M30.6508 189.834L32.3497 188.666" stroke="#DBDAD0" stroke-width="5" stroke-linecap="round"/>
</g>
<g opacity="0.59" filter="url(#filter3_g_38_901)">
<path d="M68.8263 124.848C68.3566 124.818 67.9259 124.98 67.6334 125.341C67.3407 125.7 67.2103 126.23 67.2663 126.769C67.3223 127.309 67.5586 127.8 67.9188 128.092C68.2793 128.386 68.734 128.455 69.1876 128.329C69.3594 128.282 69.5313 128.235 69.7032 128.188C72.7969 127.339 75.8907 126.49 78.9844 125.641C79.1563 125.594 79.3281 125.547 79.5 125.5C79.3221 125.489 79.1442 125.478 78.9663 125.467C75.7642 125.272 72.5621 125.076 69.36 124.881C69.1821 124.87 69.0042 124.859 68.8263 124.848Z" fill="#B798A3"/>
</g>
<g style="mix-blend-mode:screen" opacity="0.44">
<path d="M38.675 186.168L39.0002 186.168" stroke="#DBDAD0" stroke-width="5" stroke-linecap="round"/>
</g>
<path d="M134 180L137.5 187" stroke="#CECDC0" stroke-width="5" stroke-linecap="round"/>
<path d="M73.8422 254.971L62.0001 268.936" stroke="#7C7C7C" stroke-width="8" stroke-linecap="round"/>
<path d="M80.7447 267.161L77.7928 271.909" stroke="#7C7C7C" stroke-width="8" stroke-linecap="round"/>
</g>
<defs>
<filter id="filter0_g_38_901" x="2.27717" y="11.1365" width="198.794" height="419.565" filterUnits="userSpaceOnUse" color-interpolation-filters="sRGB">
<feFlood flood-opacity="0" result="BackgroundImageFix"/>
<feBlend mode="normal" in="SourceGraphic" in2="BackgroundImageFix" result="shape"/>
<feTurbulence type="fractalNoise" baseFrequency="1.25 1.25" numOctaves="3" seed="1492" />
<feDisplacementMap in="shape" scale="1.1399999856948853" xChannelSelector="R" yChannelSelector="G" result="displacedImage" width="100%" height="100%" />
<feMerge result="effect1_texture_38_901">
<feMergeNode in="displacedImage"/>
</feMerge>
</filter>
<filter id="filter1_g_38_901" x="98.8369" y="109.413" width="36.9743" height="36.0487" filterUnits="userSpaceOnUse" color-interpolation-filters="sRGB">
<feFlood flood-opacity="0" result="BackgroundImageFix"/>
<feBlend mode="normal" in="SourceGraphic" in2="BackgroundImageFix" result="shape"/>
<feTurbulence type="fractalNoise" baseFrequency="2.1604177951812744 2.1604177951812744" numOctaves="3" seed="1626" />
<feDisplacementMap in="shape" scale="20.310886383056641" xChannelSelector="R" yChannelSelector="G" result="displacedImage" width="100%" height="100%" />
<feMerge result="effect1_texture_38_901">
<feMergeNode in="displacedImage"/>
</feMerge>
</filter>
<filter id="filter2_g_38_901" x="62.3391" y="109.413" width="36.9743" height="36.0487" filterUnits="userSpaceOnUse" color-interpolation-filters="sRGB">
<feFlood flood-opacity="0" result="BackgroundImageFix"/>
<feBlend mode="normal" in="SourceGraphic" in2="BackgroundImageFix" result="shape"/>
<feTurbulence type="fractalNoise" baseFrequency="2.1604177951812744 2.1604177951812744" numOctaves="3" seed="1626" />
<feDisplacementMap in="shape" scale="20.310886383056641" xChannelSelector="R" yChannelSelector="G" result="displacedImage" width="100%" height="100%" />
<feMerge result="effect1_texture_38_901">
<feMergeNode in="displacedImage"/>
</feMerge>
</filter>
<filter id="filter3_g_38_901" x="63.6137" y="121.205" width="19.5263" height="10.8244" filterUnits="userSpaceOnUse" color-interpolation-filters="sRGB">
<feFlood flood-opacity="0" result="BackgroundImageFix"/>
<feBlend mode="normal" in="SourceGraphic" in2="BackgroundImageFix" result="shape"/>
<feTurbulence type="fractalNoise" baseFrequency="9.0909090042114258 9.0909090042114258" numOctaves="3" seed="3497" />
<feDisplacementMap in="shape" scale="7.2800002098083496" xChannelSelector="R" yChannelSelector="G" result="displacedImage" width="100%" height="100%" />
<feMerge result="effect1_texture_38_901">
<feMergeNode in="displacedImage"/>
</feMerge>
</filter>
<linearGradient id="paint0_linear_38_901" x1="78.5002" y1="176.204" x2="78.5002" y2="429.204" gradientUnits="userSpaceOnUse">
<stop/>
<stop offset="1" stop-opacity="0"/>
</linearGradient>
<linearGradient id="paint1_linear_38_901" x1="122.498" y1="80.2034" x2="174.498" y2="205.203" gradientUnits="userSpaceOnUse">
<stop stop-color="white" stop-opacity="0"/>
<stop offset="1" stop-color="white"/>
</linearGradient>
<linearGradient id="paint2_linear_38_901" x1="120" y1="160.204" x2="123" y2="254.704" gradientUnits="userSpaceOnUse">
<stop stop-opacity="0"/>
<stop offset="0.432613" stop-color="white" stop-opacity="0.432613"/>
<stop offset="1"/>
</linearGradient>
<linearGradient id="paint3_linear_38_901" x1="107.5" y1="71.7036" x2="96.0002" y2="153.704" gradientUnits="userSpaceOnUse">
<stop stop-color="#FF236C"/>
<stop offset="0.95048" stop-color="#A0BD92"/>
</linearGradient>
<linearGradient id="paint4_linear_38_901" x1="69.7805" y1="256.567" x2="69.7805" y2="430.13" gradientUnits="userSpaceOnUse">
<stop stop-color="#4D4C4B"/>
<stop offset="0.427885" stop-color="#686868"/>
<stop offset="1" stop-color="#3A3A3A"/>
</linearGradient>
<linearGradient id="paint5_linear_38_901" x1="148.963" y1="254.07" x2="148.963" y2="430.131" gradientUnits="userSpaceOnUse">
<stop stop-color="#4D4C4B"/>
<stop offset="0.427885" stop-color="#686868"/>
<stop offset="1" stop-color="#3A3A3A"/>
</linearGradient>
<linearGradient id="paint6_linear_38_901" x1="173" y1="100.704" x2="130" y2="140.704" gradientUnits="userSpaceOnUse">
<stop stop-color="#FF60DC"/>
<stop offset="0.489881" stop-opacity="0"/>
</linearGradient>
<linearGradient id="paint7_linear_38_901" x1="67.599" y1="128.195" x2="94.1048" y2="124.532" gradientUnits="userSpaceOnUse">
<stop stop-color="#A0BD92"/>
<stop offset="1" stop-color="#A8B18F"/>
</linearGradient>
<linearGradient id="paint8_linear_38_901" x1="63.5002" y1="183.204" x2="89.5002" y2="190.704" gradientUnits="userSpaceOnUse">
<stop stop-color="#656565"/>
<stop offset="1" stop-color="#707070"/>
</linearGradient>
<linearGradient id="paint9_linear_38_901" x1="67.0951" y1="233.576" x2="62.7324" y2="256.87" gradientUnits="userSpaceOnUse">
<stop stop-opacity="0"/>
<stop offset="1"/>
</linearGradient>
<linearGradient id="paint10_linear_38_901" x1="117" y1="167" x2="92.0005" y2="214.5" gradientUnits="userSpaceOnUse">
<stop stop-color="#3A342E"/>
<stop offset="1" stop-color="#7A7A7A"/>
</linearGradient>
</defs>
</svg>
