<svg width="211" height="425" viewBox="0 0 211 425" fill="none" xmlns="http://www.w3.org/2000/svg">
<g clip-path="url(#clip0_129_1020)">
<g filter="url(#filter0_g_129_1020)">
<path d="M107.002 39.9572L119.179 62.2821C119.605 63.0636 119.317 64.0426 118.535 64.4688C113.33 67.3079 107.263 68.1352 101.488 66.7935L100.507 66.5656C99.5903 66.3525 98.9956 65.4651 99.1472 64.536L102.696 42.7793L107.002 39.9572Z" fill="#E64C35"/>
<path d="M113.318 52.5296C113.318 52.5296 106.984 50.9855 102.139 52.7254" stroke="#BF2F1A" stroke-width="3.5" stroke-linecap="round"/>
<path d="M101.34 48.3631C107.673 49.9072 115.041 38.954 115.041 38.954L106.158 43.579L102.239 45.9772L101.34 48.3631Z" fill="#1B1B1B"/>
<ellipse cx="15.6432" cy="17.1669" rx="15.6432" ry="17.1669" transform="matrix(-0.353445 -0.935455 -0.935455 0.353445 127.918 35.127)" fill="#DBDAD0"/>
<circle cx="12" cy="12" r="12" transform="matrix(-0.776664 -0.629915 -0.629915 0.776664 132.881 34.7069)" fill="#DBDAD0"/>
<circle cx="10.5" cy="10.5" r="10.5" transform="matrix(-0.776664 -0.629915 -0.629915 0.776664 112.412 36.1316)" fill="#DBDAD0"/>
<g style="mix-blend-mode:multiply" opacity="0.57">
<path d="M117.454 27.3259C117.454 27.3259 107.424 26.6964 107.065 38.1546" stroke="#DBDAD0" stroke-width="5" stroke-linecap="round"/>
</g>
<g style="mix-blend-mode:multiply" opacity="0.57">
<path d="M101.312 32.6401C99.6372 31.3586 95.2991 29.5193 91.3486 32.413" stroke="#DBDAD0" stroke-width="5" stroke-linecap="round"/>
</g>
<path d="M115.382 52.3684C136.121 51.5515 153.297 66.1256 157.009 86.5462L158.166 102.147C158.304 103.996 159.48 105.575 161.055 106.553C167.02 110.258 170.992 116.867 170.992 124.405C170.992 126.258 170.752 128.054 170.301 129.766C169.529 132.693 170.644 136.053 173.018 137.932C177.875 141.778 180.992 147.728 180.992 154.405C180.992 159.837 178.928 164.787 175.543 168.515C174.918 169.203 175.37 170.547 176.281 170.732C180.885 171.666 189.89 175.258 191 189.086C191 189.086 191.5 206.336 170 207.711C163.384 207.711 83.5795 207.711 65.2402 207.711C62.7663 207.711 60.3942 206.999 58.3148 205.658V205.658C46.8109 198.243 45.4835 181.929 55.6373 172.751L61.5 167.452L57.7228 159.898C54.2341 152.92 55.1207 144.551 59.994 138.46L64.4 132.952C65.4021 131.699 65.7262 130.035 65.2674 128.498V128.498C59.2499 108.339 58.7499 85.6374 72.6139 69.8142C82.3865 58.6606 96.5621 49.0912 115.382 52.3684Z" fill="#DBDAD0"/>
<path d="M115.382 52.3684C136.121 51.5515 153.297 66.1256 157.009 86.5462L158.166 102.147C158.304 103.996 159.48 105.575 161.055 106.553C167.02 110.258 170.992 116.867 170.992 124.405C170.992 126.258 170.752 128.054 170.301 129.766C169.529 132.693 170.644 136.053 173.018 137.932C177.875 141.778 180.992 147.728 180.992 154.405C180.992 159.837 178.928 164.787 175.543 168.515C174.918 169.203 175.37 170.547 176.281 170.732C180.885 171.666 189.89 175.258 191 189.086C191 189.086 191.5 206.336 170 207.711C163.384 207.711 83.5795 207.711 65.2402 207.711C62.7663 207.711 60.3942 206.999 58.3148 205.658V205.658C46.8109 198.243 45.4835 181.929 55.6373 172.751L61.5 167.452L57.7228 159.898C54.2341 152.92 55.1207 144.551 59.994 138.46L64.4 132.952C65.4021 131.699 65.7262 130.035 65.2674 128.498V128.498C59.2499 108.339 58.7499 85.6374 72.6139 69.8142C82.3865 58.6606 96.5621 49.0912 115.382 52.3684Z" fill="url(#paint0_linear_129_1020)" fill-opacity="0.5"/>
<path opacity="0.1" d="M148.266 88C142.666 81.6 140.914 66.5 144.914 63L148.266 63.5L158.5 84L162 99.5L149.5 100.5L148.266 88Z" fill="#1B1B1B"/>
<path d="M141.5 166.452V166.452C164.442 146.338 176.419 116.491 173.745 86.0977L172.5 71.952" stroke="#A0BD92" stroke-width="25.9209" stroke-linejoin="round"/>
<ellipse cx="170.338" cy="66.4672" rx="22.6808" ry="23.1437" transform="rotate(-105.41 170.338 66.4672)" fill="#A0BD92"/>
<ellipse cx="170.338" cy="66.4672" rx="22.6808" ry="23.1437" transform="rotate(-105.41 170.338 66.4672)" fill="url(#paint1_radial_129_1020)" fill-opacity="0.4"/>
<path d="M5.21079 413.673L78.5003 177.04L155 171.952L138 424.04H12.8527C7.46403 424.04 3.61655 418.82 5.21079 413.673Z" fill="#E64C35"/>
<path d="M5.21079 413.673L78.5003 177.04L155 171.952L138 424.04H12.8527C7.46403 424.04 3.61655 418.82 5.21079 413.673Z" fill="url(#paint2_linear_129_1020)" fill-opacity="0.2"/>
<path d="M161.784 107.777L156.967 87.3311L170.44 89.1942L179.26 88.6139L188.5 87.3312L188.5 107.777L161.784 107.777Z" fill="#656565"/>
<path d="M158.358 89.0819L186.5 87" stroke="#4D4C4B" stroke-width="10" stroke-linecap="round" stroke-linejoin="round"/>
<path d="M163 107.018L186.747 107.018" stroke="#4D4C4B" stroke-width="10" stroke-linecap="round"/>
<path d="M151.286 138.62L126 148L128.3 171.663C128.3 171.663 142.358 157.226 153.553 141.525C154.674 139.953 153.097 137.948 151.286 138.62Z" fill="#4D4C4B"/>
<path d="M89.9921 177.305L99.4923 149.405L122.562 149.406C126.469 149.406 130.329 150.253 133.877 151.891L147.992 158.405L132.992 177.305L89.9921 177.305Z" fill="#4D4C4B"/>
<circle cx="83.9916" cy="110.444" r="12.5" fill="#DBDAD0"/>
<path d="M104.583 268.444L94.6768 226.79L129.177 244.79L153.677 223.79L150.083 268.444L104.583 268.444Z" fill="#4D4C4B"/>
<path d="M59.6113 92.3709C57.7965 92.1473 56.4095 93.7785 57.058 95.4882C61.1923 106.389 74.8466 127.299 84.6873 125.282C95.7169 123.022 93.9957 111.92 92.1581 102.952C92.1581 102.952 76.2237 94.418 59.6113 92.3709Z" fill="#A0BD92"/>
<path d="M59.6113 92.3709C57.7965 92.1473 56.4095 93.7785 57.058 95.4882C61.1923 106.389 74.8466 127.299 84.6873 125.282C95.7169 123.022 93.9957 111.92 92.1581 102.952C92.1581 102.952 76.2237 94.418 59.6113 92.3709Z" fill="url(#paint3_linear_129_1020)" fill-opacity="0.4"/>
<path d="M99.4921 136.406H126.492V159.906C126.492 167.361 120.448 173.406 112.992 173.406C105.536 173.406 99.4921 167.361 99.4921 159.906V136.406Z" fill="#A0BD92"/>
<path d="M148.492 164.395C155.926 177.006 158.732 191.814 156.429 206.271L152.34 231.945C152.34 231.945 142.992 245.406 129.939 249.945C124.931 249.945 82.9921 225.406 82.9921 225.406L88.484 214.343L69.9916 164.395L99.3578 161.201V152.41L113.492 154.406L126.651 151.406V159.971L148.492 164.395Z" fill="#656565"/>
<path d="M148.492 164.395C155.926 177.006 158.732 191.814 156.429 206.271L152.34 231.945C152.34 231.945 142.992 245.406 129.939 249.945C124.931 249.945 82.9921 225.406 82.9921 225.406L88.484 214.343L69.9916 164.395L99.3578 161.201V152.41L113.492 154.406L126.651 151.406V159.971L148.492 164.395Z" fill="url(#paint4_linear_129_1020)" fill-opacity="0.3"/>
<g opacity="0.37">
<path d="M119.992 166.406C143.992 200.906 129.992 244.906 129.992 244.906" stroke="#656565" stroke-width="5" stroke-linecap="round" style="mix-blend-mode:screen"/>
</g>
<path d="M95.4915 159.944H134.491C134.491 168.781 127.328 175.944 118.491 175.944H111.491C102.655 175.944 95.4915 168.781 95.4915 159.944Z" fill="#656565"/>
<path d="M99.9924 152.446L101.085 152.707C109.871 154.803 119.052 154.57 127.72 152.032V152.032" stroke="#4D4C4B" stroke-width="3" stroke-linecap="round" stroke-linejoin="round"/>
<path d="M96.4923 160.406L106.85 162.937C114.537 164.816 122.662 163.154 128.992 158.406V158.406" stroke="#4D4C4B" stroke-width="5" stroke-linecap="round" stroke-linejoin="round"/>
<path d="M100 141L99.5 144.5L105.196 148.668C112.462 153.984 122.8 150.589 125.5 142L112.791 143.03C108.974 143.34 105.134 142.834 101.527 141.546L100 141Z" fill="#1B1B1B"/>
<path d="M150.492 106.444C150.492 106.444 146.338 125.005 128.553 139.854C119.081 147.763 105.313 148.904 96.0665 140.733C89.3365 134.786 82.2573 125.202 78.5 109.952C70.9999 57.4517 114.677 62.0532 114.677 62.0532C139.474 62.0532 150.492 81.9028 150.492 106.444Z" fill="#A0BD92"/>
<path d="M150.492 106.444C150.492 106.444 146.338 125.005 128.553 139.854C119.081 147.763 105.313 148.904 96.0665 140.733C89.3365 134.786 82.2573 125.202 78.5 109.952C70.9999 57.4517 114.677 62.0532 114.677 62.0532C139.474 62.0532 150.492 81.9028 150.492 106.444Z" fill="url(#paint5_linear_129_1020)" fill-opacity="0.3"/>
<path opacity="0.1" d="M135.752 125.336C130.152 118.936 132.252 107.836 136.252 104.336L139.604 104.836L145.104 127.836L138 135.452V137.5C133.5 131 132.919 128.17 135.752 125.336Z" fill="#1B1B1B"/>
<path opacity="0.1" d="M86.3517 120C91.9517 113.6 89.8517 102.5 85.8517 99L82.5 99.5L77 122.5L84.1041 130.116V132.164C88.604 125.664 89.185 122.833 86.3517 120Z" fill="#1B1B1B"/>
<path d="M78.4996 116.405L78.4996 150.405" stroke="#E64C35" stroke-width="10"/>
<path d="M74 145.405C74 145.405 78 143.905 83 145.405" stroke="#BF2F1A" stroke-width="3.5" stroke-linecap="round"/>
<path d="M74 140.072C74 140.072 78 138.572 83 140.072" stroke="#BF2F1A" stroke-width="3.5" stroke-linecap="round"/>
<path d="M83.9996 139.405C83.9996 139.405 79 138.905 75 136.039L83.9996 134.905V139.405Z" fill="#1B1B1B"/>
<circle cx="78.5" cy="159.905" r="14.5" fill="#DBDAD0"/>
<circle cx="78.5" cy="159.905" r="14.5" fill="#DBDAD0"/>
<path d="M86.5081 130.336C86.5081 136.135 82.5081 138.836 76.0081 136.836C69.0081 139.336 65.0081 133.836 65.0081 125.836C65.0081 117.836 76.0081 114.836 76.0081 114.836C81.807 114.836 86.5081 124.537 86.5081 130.336Z" fill="#DBDAD0"/>
<path d="M86.5081 130.336C86.5081 136.135 82.5081 138.836 76.0081 136.836C69.0081 139.336 65.0081 133.836 65.0081 125.836C65.0081 117.836 76.0081 114.836 76.0081 114.836C81.807 114.836 86.5081 124.537 86.5081 130.336Z" fill="#DBDAD0"/>
<ellipse cx="74" cy="106.336" rx="14" ry="14.5" fill="#DBDAD0"/>
<g style="mix-blend-mode:multiply" opacity="0.46">
<path d="M75 132.405L76.3125 134.636" stroke="#DBDAD0" stroke-width="5" stroke-linecap="round"/>
</g>
<path d="M119.537 255.943L97.9569 385.853H97.7948L96.5565 423.033C96.5206 424.111 95.6361 424.966 94.5575 424.966H28.662C24.5391 424.966 22.474 419.981 25.3885 417.065L56.5819 385.853H55.8358L88.4921 251.404L119.537 255.943Z" fill="url(#paint6_linear_129_1020)"/>
<path d="M155.767 385.444H155.808L187.413 417.067C190.327 419.983 188.261 424.967 184.138 424.967H115.15C113.986 424.967 113.067 423.977 113.155 422.816L115.445 392.635L122.492 253.62L155.767 248.906V385.444Z" fill="url(#paint7_linear_129_1020)"/>
<path d="M148.352 288.338C148.097 286.995 147.397 285.095 145.492 283.904H153.992L160.492 281.404V313.904L149.196 291.313C148.735 290.389 148.544 289.352 148.352 288.338Z" fill="#1B1B1B"/>
<path d="M168.635 92.3626C170.451 92.1461 171.854 93.7827 171.252 95.5095C167.586 106.03 156.311 124.962 146.5 122.952C135.47 120.692 137.162 110.92 139 101.952C139 101.952 152.382 94.3001 168.635 92.3626Z" fill="#A0BD92"/>
<path d="M168.635 92.3626C170.451 92.1461 171.854 93.7827 171.252 95.5095C167.586 106.03 156.311 124.962 146.5 122.952C135.47 120.692 137.162 110.92 139 101.952C139 101.952 152.382 94.3001 168.635 92.3626Z" fill="url(#paint8_linear_129_1020)" fill-opacity="0.4"/>
<path d="M147.365 115.744L159.5 111.04" stroke="#899D84" stroke-width="5.55448" stroke-linecap="round"/>
<g style="mix-blend-mode:multiply" opacity="0.4" filter="url(#filter1_g_129_1020)">
<ellipse cx="132.5" cy="122" rx="9.5" ry="8" fill="#B0C5B1"/>
</g>
<g style="mix-blend-mode:multiply" opacity="0.4" filter="url(#filter2_g_129_1020)">
<ellipse cx="92.3317" cy="122.274" rx="8.33172" ry="7.86885" fill="#B0C5B1"/>
</g>
<circle cx="97" cy="117.352" r="2.53713" fill="#1B1B1B" stroke="#1B1B1B" stroke-width="0.925747"/>
<circle cx="124.252" cy="117.352" r="2.53713" fill="#1B1B1B" stroke="#1B1B1B" stroke-width="0.925747"/>
<path d="M124.752 107.338L120 109.953" stroke="#DBDAD0" stroke-width="5.55448" stroke-linecap="round" style="mix-blend-mode:multiply"/>
<path d="M95 107.338L99.7284 109.953" stroke="#DBDAD0" stroke-width="5.55448" stroke-linecap="round" style="mix-blend-mode:multiply"/>
<path d="M117 129.452V129.452C113.225 131.338 108.773 131.34 105 129.452V129.452" stroke="#1B1B1B" stroke-width="3" stroke-linecap="round" stroke-linejoin="round"/>
<path d="M113 121.952L112.169 125.554C111.841 126.972 110.213 127.645 108.98 126.872L107.267 125.797C105.455 124.661 104.891 122.28 106 120.452L113 121.952Z" fill="#1B1B1B"/>
<path d="M107.589 121.491L109.629 119.629C110.316 119.001 111.422 119.489 111.422 120.42C111.422 121.012 110.943 121.491 110.351 121.491H107.589Z" fill="#A0BD92" stroke="#A0BD92" stroke-width="4" stroke-linecap="round" stroke-linejoin="round"/>
<path d="M71.622 163.452L70.3761 212.108L84 204.452" stroke="#759966" stroke-width="25.9209" stroke-linejoin="round"/>
<path d="M68.8416 189.59L53.4921 163.406L87.7143 164.906L87.5002 180.54L87.7143 186.54L73.582 191.353C71.7836 191.966 69.8024 191.229 68.8416 189.59Z" fill="url(#paint9_linear_129_1020)"/>
<path d="M50.2838 159.144L99.4921 149.406V158.934C99.4921 165.989 95.6515 172.828 88.7946 174.485C71.3925 178.692 56.2936 170.866 48.7738 163.552C47.2089 162.03 48.1422 159.568 50.2838 159.144Z" fill="#4D4C4B"/>
<path d="M52.773 258.342L81.9921 227.906L115.26 241.906L101.131 284.899C100.195 287.744 96.9862 289.134 94.271 287.871L54.8695 269.536C50.517 267.511 49.4483 261.805 52.773 258.342Z" fill="#656565"/>
<path d="M173.739 264.85L158.117 237.406L141.616 247.945L146.441 285.304C146.948 289.231 151.602 291.039 154.627 288.483L172.173 273.66C174.749 271.484 175.407 267.78 173.739 264.85Z" fill="#656565"/>
<path d="M155 114.336C155 114.336 156 120.836 150.5 125.336L150.998 128.04C149.799 128.759 147.796 129.248 146.476 129.507L146.498 129.54C146.243 129.571 146.029 129.599 145.852 129.623C144.815 129.762 145.048 129.762 145.852 129.623C146.033 129.592 146.244 129.553 146.476 129.507L142.773 124.04C142.106 122.206 140.973 118.54 141.773 118.54C142.573 118.54 147.106 116.54 149.273 115.54L155 114.336Z" fill="#1B1B1B"/>
<path d="M150.5 99.5397C111 113.04 98.9996 80.5397 98.9996 72.0399C96.5758 65.4957 101.417 58.5399 108.396 58.5399H124C139.117 63.9264 149.483 77.913 150.237 93.944L150.5 99.5397Z" fill="#DBDAD0" stroke="#DBDAD0"/>
<path d="M73 98.8363C94.5 96.8363 103.501 70.3363 103.501 70.3363C105.796 64.1396 100.76 57.6963 94.1925 58.426L90.5 58.8363C72.5114 62.1938 63.3186 82.3963 72.6044 98.1645L73 98.8363Z" fill="#DBDAD0" stroke="#DBDAD0"/>
<path d="M82.4916 225.405L113.492 244.905" stroke="#424141" stroke-width="9" stroke-linecap="round"/>
<path d="M156.117 237.406L141.894 247.155" stroke="#424141" stroke-width="9" stroke-linecap="round"/>
<path d="M98.1521 72.3503C98.1521 72.3503 103 99.5398 133 100.54" stroke="#DBDAD0" stroke-width="8" stroke-linecap="round"/>
<g style="mix-blend-mode:multiply" opacity="0.27">
<path d="M164.17 181.675C164.17 181.675 161.844 170.75 172.844 170.75" stroke="#DBDAD0" stroke-width="5" stroke-linecap="round"/>
</g>
<path d="M85.0002 188.336L80.0003 189.336L83.4845 199.051L85.0002 188.336Z" fill="#1B1B1B"/>
<path d="M85.5332 390.374L57 382.336L55 387.336L51 392.336H85.262C86.4238 392.336 86.6515 390.689 85.5332 390.374Z" fill="#1B1B1B"/>
<path d="M128.977 390.362L157 383.836L165 392.336H129.203C128.014 392.336 127.819 390.632 128.977 390.362Z" fill="#1B1B1B"/>
<path d="M81.5002 282.836L95.5002 288.836L78.5002 294.836L81.5002 282.836Z" fill="#1B1B1B"/>
<path d="M118 244.336L126.433 249.103C128.362 250.193 130.695 250.306 132.72 249.405L138.5 246.836L132.5 253.836L118.5 258.836L106 271.836L112.5 250.336C115.454 250.605 118 248.279 118 245.314V244.336Z" fill="#1B1B1B"/>
<path d="M103.24 171.548C103.563 170.678 104.793 170.678 105.115 171.548L106.62 175.616L110.562 173.804C111.405 173.417 112.275 174.287 111.888 175.13L110.075 179.071L114.144 180.577C115.014 180.899 115.014 182.129 114.144 182.452L110.075 183.956L111.888 187.898C112.275 188.741 111.405 189.611 110.562 189.224L106.62 187.411L105.115 191.48C104.793 192.35 103.563 192.35 103.24 191.48L101.734 187.411L97.7941 189.224C96.9509 189.611 96.0805 188.741 96.4679 187.898L98.2794 183.956L94.212 182.452C93.342 182.129 93.342 180.899 94.212 180.577L98.2794 179.071L96.4679 175.13C96.0804 174.287 96.9508 173.417 97.7941 173.804L101.734 175.616L103.24 171.548Z" fill="url(#paint10_linear_129_1020)"/>
<path d="M46.5621 114.535C46.8843 113.664 48.1157 113.664 48.4379 114.535L50.4465 119.963C50.5478 120.236 50.7636 120.452 51.0373 120.554L56.4655 122.562C57.3361 122.884 57.3361 124.116 56.4655 124.438L51.0373 126.446C50.7636 126.548 50.5478 126.764 50.4465 127.037L48.4379 132.465C48.1157 133.336 46.8843 133.336 46.5621 132.465L44.5535 127.037C44.4522 126.764 44.2364 126.548 43.9627 126.446L38.5345 124.438C37.6639 124.116 37.6639 122.884 38.5345 122.562L43.9627 120.554C44.2364 120.452 44.4522 120.236 44.5535 119.963L46.5621 114.535Z" fill="#E64C35"/>
<path d="M35.0621 134.535C35.3843 133.664 36.6157 133.664 36.9379 134.535L38.0012 137.408C38.1024 137.682 38.3182 137.898 38.592 137.999L41.4655 139.062C42.3361 139.384 42.3361 140.616 41.4655 140.938L38.592 142.001C38.3182 142.102 38.1024 142.318 38.0012 142.592L36.9379 145.465C36.6157 146.336 35.3843 146.336 35.0621 145.465L33.9988 142.592C33.8976 142.318 33.6818 142.102 33.408 142.001L30.5345 140.938C29.6639 140.616 29.6639 139.384 30.5345 139.062L33.408 137.999C33.6818 137.898 33.8976 137.682 33.9988 137.408L35.0621 134.535Z" fill="#E08FB5"/>
<g opacity="0.59" filter="url(#filter3_g_129_1020)">
<path d="M106.186 119.998C105.588 119.864 105.116 119.926 104.985 120.376C104.848 120.815 105.062 121.604 105.471 122.367C105.879 123.13 106.418 123.746 106.86 123.874C107.307 124.014 107.62 123.657 107.84 123.083C107.84 123.083 107.84 123.083 107.84 123.083C107.856 123.041 107.872 123 107.889 122.958C108.183 122.204 108.477 121.451 108.771 120.698C108.788 120.656 108.804 120.614 108.82 120.572C108.777 120.563 108.733 120.553 108.689 120.544C107.899 120.371 107.108 120.199 106.318 120.027C106.274 120.017 106.23 120.008 106.186 119.998Z" fill="#B798A3"/>
</g>
<mask id="mask0_129_1020" style="mask-type:alpha" maskUnits="userSpaceOnUse" x="53" y="218" width="26" height="26">
<ellipse opacity="0.37" cx="66.0187" cy="231.25" rx="12.5" ry="12" transform="rotate(-63.3396 66.0187 231.25)" fill="#8A10C2"/>
</mask>
<g mask="url(#mask0_129_1020)">
<path opacity="0.36" d="M67.0987 225.49C69.1117 225.195 73.227 224.65 73.5846 224.83L82.0839 223.502L83.9159 197.567L56.8699 191.261L56.1746 206.018C56.4718 206.54 56.9744 209.105 56.6065 215.186C56.2386 221.268 63.448 224.589 67.0987 225.49Z" fill="#FF4C4F"/>
</g>
<path d="M84 220.249L82.3329 221.072C78.8879 222.773 74.7307 221.961 72.1781 219.09C67.3253 213.63 65.2185 206.26 66.4527 199.061L67.5 192.952L84 220.249Z" fill="#1B1B1B"/>
<path d="M168.5 112L187.416 112C188.272 112 188.948 112.726 188.887 113.58C188.692 116.311 185.955 118.109 183.371 117.205L168.5 112Z" fill="#1B1B1B"/>
<ellipse cx="88.4366" cy="197.885" rx="22.6808" ry="23.1437" transform="rotate(-105.41 88.4366 197.885)" fill="#A0BD92"/>
<ellipse cx="88.4366" cy="197.885" rx="22.6808" ry="23.1437" transform="rotate(-105.41 88.4366 197.885)" fill="url(#paint11_radial_129_1020)" fill-opacity="0.4"/>
<path d="M151.045 131.944L151.045 165.944" stroke="#E64C35" stroke-width="11"/>
<path d="M146.545 151.405C146.545 151.405 149.545 149.905 154.545 151.405" stroke="#BF2F1A" stroke-width="3.5" stroke-linecap="round"/>
<path d="M146.545 157.405C146.545 157.405 150.782 155.156 156.045 157.406" stroke="#BF2F1A" stroke-width="3.5" stroke-linecap="round"/>
<path d="M156.545 153.078C153.597 152.427 148.545 149.444 147.045 144.444L156.545 145.078V153.078Z" fill="#1B1B1B"/>
<path d="M167.545 175.444C167.545 183.214 159.513 183.187 151.497 183.01C149.196 182.959 147.3 181.135 147.193 178.835L147.125 177.382C147.08 176.427 146.292 175.675 145.336 175.675C144.347 175.675 143.545 176.477 143.545 177.466V182.37C143.545 182.998 143.108 183.538 142.482 183.582C140.101 183.75 134.545 183.301 134.545 175.444C134.545 166.332 141.932 158.944 151.045 158.944C160.157 158.944 167.545 166.332 167.545 175.444Z" fill="#DBDAD0"/>
<ellipse cx="151.053" cy="111.54" rx="15" ry="15.5" fill="#DBDAD0"/>
<g style="mix-blend-mode:multiply" opacity="0.47">
<path d="M145.545 118.968L149.13 127.372" stroke="#DBDAD0" stroke-width="5" stroke-linecap="round"/>
</g>
<g style="mix-blend-mode:multiply" opacity="0.47">
<path d="M154.545 118.968L150.96 127.372" stroke="#DBDAD0" stroke-width="5" stroke-linecap="round"/>
</g>
<circle cx="146.045" cy="130.444" r="0.5" fill="#D9D9D9"/>
<path d="M163.045 132.444C161.545 141.444 168.545 144.665 157.545 148.444C153.698 149.402 150.402 147.737 147.092 144.665C143.062 145.369 140.038 143.327 137.783 140.168C131.277 131.053 141.448 119.966 152.197 123.106C158.138 124.841 163.045 127.708 163.045 132.444Z" fill="#DBDAD0"/>
<path d="M163.045 132.444C161.545 141.444 168.545 144.665 157.545 148.444C153.698 149.402 150.402 147.737 147.092 144.665C143.062 145.369 140.038 143.327 137.783 140.168C131.277 131.053 141.448 119.966 152.197 123.106C158.138 124.841 163.045 127.708 163.045 132.444Z" fill="white" fill-opacity="0.81"/>
<path d="M156.016 135.862C157.236 138.188 158.056 140.698 155.498 142.04C152.94 143.381 147.973 143.046 146.753 140.721C145.533 138.396 146.618 135.423 149.176 134.081C151.734 132.74 154.796 133.537 156.016 135.862Z" fill="#DBDAD0"/>
<path d="M162.627 131.534C163.667 133.517 161.928 136.987 160.301 137.84C158.674 138.694 157.776 136.607 156.736 134.624C155.696 132.641 156.172 130.342 157.798 129.489C159.425 128.636 161.587 129.552 162.627 131.534Z" fill="#DBDAD0"/>
<g style="mix-blend-mode:multiply" opacity="0.47">
<path d="M142.609 97.4675L138.237 103.06" stroke="#DBDAD0" stroke-width="5" stroke-linecap="round"/>
</g>
<mask id="mask1_129_1020" style="mask-type:alpha" maskUnits="userSpaceOnUse" x="146" y="133" width="12" height="10">
<path d="M156.016 135.862C157.236 138.188 158.056 140.698 155.498 142.04C152.94 143.381 147.973 143.046 146.753 140.721C145.534 138.396 146.618 135.423 149.176 134.081C151.734 132.74 154.796 133.537 156.016 135.862Z" fill="#DBDAD0"/>
</mask>
<g mask="url(#mask1_129_1020)">
<g style="mix-blend-mode:multiply" opacity="0.36">
<path d="M147.045 136.945C147.045 136.945 151.045 131.444 155.545 136.445" stroke="#DBDAD0" stroke-width="3" stroke-linecap="round"/>
</g>
</g>
<mask id="mask2_129_1020" style="mask-type:alpha" maskUnits="userSpaceOnUse" x="156" y="129" width="7" height="10">
<path d="M162.627 131.534C163.667 133.517 161.928 136.987 160.301 137.84C158.674 138.694 157.776 136.607 156.736 134.624C155.696 132.641 156.172 130.343 157.799 129.489C159.425 128.636 161.587 129.552 162.627 131.534Z" fill="#DBDAD0"/>
</mask>
<g mask="url(#mask2_129_1020)">
<g style="mix-blend-mode:multiply" opacity="0.36">
<path d="M157.051 130.693C157.051 130.693 161.551 129.04 162.551 133.54" stroke="#DBDAD0" stroke-width="3" stroke-linecap="round"/>
</g>
</g>
<path d="M146.553 174.836L150.053 181.836" stroke="#CECDC0" stroke-width="5" stroke-linecap="round"/>
<path opacity="0.49" d="M75.8421 249.807L63.9999 263.772" stroke="#7C7C7C" stroke-width="8" stroke-linecap="round"/>
<path opacity="0.49" d="M82.7447 261.998L79.7928 266.745" stroke="#7C7C7C" stroke-width="8" stroke-linecap="round"/>
</g>
</g>
<defs>
<filter id="filter0_g_129_1020" x="4.19717" y="10.0652" width="189.908" height="415.552" filterUnits="userSpaceOnUse" color-interpolation-filters="sRGB">
<feFlood flood-opacity="0" result="BackgroundImageFix"/>
<feBlend mode="normal" in="SourceGraphic" in2="BackgroundImageFix" result="shape"/>
<feTurbulence type="fractalNoise" baseFrequency="1.1627906560897827 1.1627906560897827" numOctaves="3" seed="6603" />
<feDisplacementMap in="shape" scale="1.2999999523162842" xChannelSelector="R" yChannelSelector="G" result="displacedImage" width="100%" height="100%" />
<feMerge result="effect1_texture_129_1020">
<feMergeNode in="displacedImage"/>
</feMerge>
</filter>
<filter id="filter1_g_129_1020" x="112.845" y="103.845" width="39.3109" height="36.3109" filterUnits="userSpaceOnUse" color-interpolation-filters="sRGB">
<feFlood flood-opacity="0" result="BackgroundImageFix"/>
<feBlend mode="normal" in="SourceGraphic" in2="BackgroundImageFix" result="shape"/>
<feTurbulence type="fractalNoise" baseFrequency="2.1604177951812744 2.1604177951812744" numOctaves="3" seed="1626" />
<feDisplacementMap in="shape" scale="20.310886383056641" xChannelSelector="R" yChannelSelector="G" result="displacedImage" width="100%" height="100%" />
<feMerge result="effect1_texture_129_1020">
<feMergeNode in="displacedImage"/>
</feMerge>
</filter>
<filter id="filter2_g_129_1020" x="73.8446" y="104.249" width="36.9743" height="36.0486" filterUnits="userSpaceOnUse" color-interpolation-filters="sRGB">
<feFlood flood-opacity="0" result="BackgroundImageFix"/>
<feBlend mode="normal" in="SourceGraphic" in2="BackgroundImageFix" result="shape"/>
<feTurbulence type="fractalNoise" baseFrequency="2.1604177951812744 2.1604177951812744" numOctaves="3" seed="1626" />
<feDisplacementMap in="shape" scale="20.310886383056641" xChannelSelector="R" yChannelSelector="G" result="displacedImage" width="100%" height="100%" />
<feMerge result="effect1_texture_129_1020">
<feMergeNode in="displacedImage"/>
</feMerge>
</filter>
<filter id="filter3_g_129_1020" x="101.304" y="116.295" width="11.1568" height="11.2492" filterUnits="userSpaceOnUse" color-interpolation-filters="sRGB">
<feFlood flood-opacity="0" result="BackgroundImageFix"/>
<feBlend mode="normal" in="SourceGraphic" in2="BackgroundImageFix" result="shape"/>
<feTurbulence type="fractalNoise" baseFrequency="9.0909090042114258 9.0909090042114258" numOctaves="3" seed="3497" />
<feDisplacementMap in="shape" scale="7.2800002098083496" xChannelSelector="R" yChannelSelector="G" result="displacedImage" width="100%" height="100%" />
<feMerge result="effect1_texture_129_1020">
<feMergeNode in="displacedImage"/>
</feMerge>
</filter>
<linearGradient id="paint0_linear_129_1020" x1="122.498" y1="75.0397" x2="122" y2="153.952" gradientUnits="userSpaceOnUse">
<stop stop-color="white" stop-opacity="0"/>
<stop offset="1" stop-color="white"/>
</linearGradient>
<radialGradient id="paint1_radial_129_1020" cx="0" cy="0" r="1" gradientUnits="userSpaceOnUse" gradientTransform="translate(181.217 70.1521) rotate(128.76) scale(26.5786 26.047)">
<stop stop-color="white"/>
<stop offset="1" stop-color="#A0BD92"/>
</radialGradient>
<linearGradient id="paint2_linear_129_1020" x1="80.5002" y1="171.04" x2="80.5002" y2="424.04" gradientUnits="userSpaceOnUse">
<stop/>
<stop offset="1" stop-opacity="0"/>
</linearGradient>
<linearGradient id="paint3_linear_129_1020" x1="60.2946" y1="93.6025" x2="103.295" y2="133.603" gradientUnits="userSpaceOnUse">
<stop stop-color="#FF60DC"/>
<stop offset="0.489881" stop-opacity="0"/>
</linearGradient>
<linearGradient id="paint4_linear_129_1020" x1="122" y1="155.04" x2="125" y2="249.54" gradientUnits="userSpaceOnUse">
<stop stop-opacity="0"/>
<stop offset="0.432613" stop-color="white" stop-opacity="0.432613"/>
<stop offset="1"/>
</linearGradient>
<linearGradient id="paint5_linear_129_1020" x1="109.5" y1="66.54" x2="98.0002" y2="148.54" gradientUnits="userSpaceOnUse">
<stop stop-color="#FF236C"/>
<stop offset="0.95048" stop-color="#A0BD92"/>
</linearGradient>
<linearGradient id="paint6_linear_129_1020" x1="71.7805" y1="251.404" x2="71.7805" y2="424.966" gradientUnits="userSpaceOnUse">
<stop stop-color="#4D4C4B"/>
<stop offset="0.427885" stop-color="#686868"/>
<stop offset="1" stop-color="#3A3A3A"/>
</linearGradient>
<linearGradient id="paint7_linear_129_1020" x1="150.963" y1="248.906" x2="150.963" y2="424.967" gradientUnits="userSpaceOnUse">
<stop stop-color="#4D4C4B"/>
<stop offset="0.427885" stop-color="#686868"/>
<stop offset="1" stop-color="#3A3A3A"/>
</linearGradient>
<linearGradient id="paint8_linear_129_1020" x1="167.954" y1="93.6025" x2="124.954" y2="133.603" gradientUnits="userSpaceOnUse">
<stop stop-color="#FF60DC"/>
<stop offset="0.489881" stop-opacity="0"/>
</linearGradient>
<linearGradient id="paint9_linear_129_1020" x1="65.5002" y1="178.04" x2="91.5002" y2="185.54" gradientUnits="userSpaceOnUse">
<stop stop-color="#656565"/>
<stop offset="1" stop-color="#707070"/>
</linearGradient>
<linearGradient id="paint10_linear_129_1020" x1="119" y1="161.837" x2="94.0005" y2="209.336" gradientUnits="userSpaceOnUse">
<stop stop-color="#3A342E"/>
<stop offset="1" stop-color="#7A7A7A"/>
</linearGradient>
<radialGradient id="paint11_radial_129_1020" cx="0" cy="0" r="1" gradientUnits="userSpaceOnUse" gradientTransform="translate(91.4851 207.089) rotate(120.085) scale(17.5733 17.2218)">
<stop stop-color="white"/>
<stop offset="1" stop-color="#A0BD92"/>
</radialGradient>
<clipPath id="clip0_129_1020">
<rect width="211" height="425" fill="white"/>
</clipPath>
</defs>
</svg>
