<svg width="352" height="521" viewBox="0 0 352 521" fill="none" xmlns="http://www.w3.org/2000/svg">
<g clip-path="url(#clip0_170_288)">
<g filter="url(#filter0_g_170_288)">
<path d="M6.11384 724.347L134.233 310.683L274.957 300.194L238.247 742.47H19.4728C10.0528 742.47 3.3269 733.346 6.11384 724.347Z" fill="#E64C35"/>
<path d="M6.11384 724.347L134.233 310.683L274.957 300.194L238.247 742.47H19.4728C10.0528 742.47 3.3269 733.346 6.11384 724.347Z" fill="url(#paint0_linear_170_288)" fill-opacity="0.2"/>
<path d="M225.6 63.5931L198.285 98.666C197.329 99.8937 197.549 101.664 198.776 102.62C206.954 108.989 217.186 112.13 227.528 111.447L229.285 111.331C230.927 111.223 232.204 109.86 232.205 108.214L232.229 69.6782L225.6 63.5931Z" fill="#E64C35"/>
<path d="M213.565 92.7413C249.82 91.3132 281.595 116.791 288.083 152.488L293.16 180.432C293.68 183.296 295.633 185.651 298.132 187.146C308.848 193.556 316.023 205.274 316.024 218.669C316.024 221.909 315.603 225.05 314.815 228.042C313.466 233.16 315.416 239.032 319.565 242.317C328.057 249.041 333.505 259.441 333.505 271.113C333.505 280.61 329.897 289.262 323.98 295.78C322.887 296.984 323.676 299.333 325.27 299.656C333.318 301.288 349.059 307.568 351 331.741C351 331.741 351.874 361.897 314.29 364.3C301.215 364.3 174.439 364.3 174.439 364.3L129.237 295.616L142.973 243.898L126.366 176.595C126.366 176.595 142.973 80.4485 213.565 92.7413Z" fill="#DBDAD0"/>
<path d="M213.565 92.7413C249.82 91.3132 281.595 116.791 288.083 152.488L293.16 180.432C293.68 183.296 295.633 185.651 298.132 187.146C308.848 193.556 316.023 205.274 316.024 218.669C316.024 221.909 315.603 225.05 314.815 228.042C313.466 233.16 315.416 239.032 319.565 242.317C328.057 249.041 333.505 259.441 333.505 271.113C333.505 280.61 329.897 289.262 323.98 295.78C322.887 296.984 323.676 299.333 325.27 299.656C333.318 301.288 349.059 307.568 351 331.741C351 331.741 351.874 361.897 314.29 364.3C301.215 364.3 174.439 364.3 174.439 364.3L129.237 295.616L142.973 243.898L126.366 176.595C126.366 176.595 142.973 80.4485 213.565 92.7413Z" fill="url(#paint1_linear_170_288)" fill-opacity="0.5"/>
<path d="M255.352 295.779L257.447 444.606" stroke="#778D71" stroke-width="45.313" stroke-linejoin="round"/>
<path d="M256.252 344.605C256.252 344.605 270.237 333.242 278.103 319.257V300.027L254.187 305.272L256.252 344.605Z" fill="#1B1B1B"/>
<path d="M226.897 389.987C232.286 438.511 231.165 426.209 251.155 426.766L282.241 426.766L282.241 389.987L226.897 389.987Z" fill="#4F4F4F"/>
<path d="M296.856 458.268C297.243 436.836 279.825 419.114 257.916 418.718C236.007 418.321 217.958 435.402 217.571 456.834C217.183 478.266 234.602 495.987 256.511 496.384C278.42 496.78 296.468 479.7 296.856 458.268Z" fill="#778D71" stroke="#778D71" stroke-width="1.61832"/>
<path d="M263.244 386.209H277.229" stroke="#404040" stroke-width="15.7331" stroke-linecap="round"/>
<path d="M263.244 422.114H277.229" stroke="#404040" stroke-width="15.7331" stroke-linecap="round"/>
<path d="M287.178 290.587L221.289 264.74V301.283C221.289 301.283 267.136 321.05 288.607 295.624C290.04 293.928 289.245 291.398 287.178 290.587Z" fill="#4D4C4B"/>
<path d="M154.322 311.147L170.93 262.374L211.259 262.374C218.088 262.374 224.837 263.857 231.038 266.719L255.714 278.107L229.491 311.146L154.322 311.147Z" fill="#4D4C4B"/>
<circle cx="143.833" cy="194.265" r="21.8516" fill="#DBDAD0"/>
<path d="M179.829 470.47L162.512 397.653L222.822 429.119L265.651 392.409L259.369 470.47L179.829 470.47Z" fill="#4D4C4B"/>
<path d="M170.93 239.649H218.129V280.73C218.129 293.763 207.563 304.329 194.529 304.329V304.329C181.496 304.329 170.93 293.763 170.93 280.73V239.649Z" fill="#A0BD92"/>
<path d="M256.588 288.578V288.578C269.583 310.624 274.489 336.51 270.463 361.783L263.314 406.663C263.314 406.663 246.973 430.194 224.155 438.129C215.401 438.129 142.086 395.232 142.086 395.232L151.686 375.893L119.359 288.578L170.695 282.995V267.627L195.404 271.115L218.408 265.871V280.845L256.588 288.578Z" fill="#656565"/>
<path d="M256.588 288.578V288.578C269.583 310.624 274.489 336.51 270.463 361.783L263.314 406.663C263.314 406.663 246.973 430.194 224.155 438.129C215.401 438.129 142.086 395.232 142.086 395.232L151.686 375.893L119.359 288.578L170.695 282.995V267.627L195.404 271.115L218.408 265.871V280.845L256.588 288.578Z" fill="url(#paint2_linear_170_288)" fill-opacity="0.3"/>
<g opacity="0.37">
<path d="M206.766 292.093C248.721 352.403 224.247 429.32 224.247 429.32" stroke="#656565" stroke-width="8.74063" stroke-linecap="round" style="mix-blend-mode:screen"/>
</g>
<path d="M163.936 280.798H232.113V280.798C232.113 296.245 219.59 308.768 204.143 308.768H191.906C176.458 308.768 163.936 296.245 163.936 280.798V280.798Z" fill="#656565"/>
<path d="M113.778 171.237C110.605 170.914 108.293 173.824 109.543 176.759C116.744 193.667 138.644 224.701 153.854 221.158C171.117 217.136 182.495 202.645 179.268 188.791C179.268 188.791 141.647 174.073 113.778 171.237Z" fill="#638659"/>
<path d="M142.972 204.685L142.972 264.122" stroke="#E64C35" stroke-width="17.4813"/>
<path d="M135.107 255.382C135.107 255.382 142.099 252.76 150.84 255.381" stroke="#BF2F1A" stroke-width="6.11844" stroke-linecap="round"/>
<path d="M135.107 246.058C135.107 246.058 142.099 243.436 150.84 246.058" stroke="#BF2F1A" stroke-width="6.11844" stroke-linecap="round"/>
<path d="M152.587 244.892C152.587 244.892 143.847 244.018 136.855 239.008L152.587 237.026V244.892Z" fill="#1B1B1B"/>
<circle cx="142.973" cy="280.729" r="25.3478" fill="#DBDAD0"/>
<circle cx="142.973" cy="280.729" r="25.3478" fill="black" fill-opacity="0.2"/>
<path d="M156.972 229.039C156.972 239.176 149.98 243.898 138.617 240.402C126.38 244.772 119.388 235.158 119.388 221.173C119.388 207.187 138.617 201.943 138.617 201.943C148.754 201.943 156.972 218.902 156.972 229.039Z" fill="#DBDAD0"/>
<path d="M156.972 229.039C156.972 239.176 149.98 243.898 138.617 240.402C126.38 244.772 119.388 235.158 119.388 221.173C119.388 207.187 138.617 201.943 138.617 201.943C148.754 201.943 156.972 218.902 156.972 229.039Z" fill="#5C4E5E" fill-opacity="0.15"/>
<ellipse cx="142.987" cy="187.084" rx="24.4738" ry="25.3478" fill="#DBDAD0"/>
<g style="mix-blend-mode:multiply" opacity="0.46">
<path d="M136.855 232.656L139.149 236.556" stroke="#DBDAD0" stroke-width="8.74063" stroke-linecap="round"/>
</g>
<path d="M171.804 267.689L173.714 268.145C189.073 271.81 205.122 271.403 220.276 266.965V266.965" stroke="#4D4C4B" stroke-width="5.24438" stroke-linecap="round" stroke-linejoin="round"/>
<path d="M165.685 281.604L183.792 286.03C197.23 289.315 211.432 286.408 222.499 278.108V278.108" stroke="#4D4C4B" stroke-width="8.74063" stroke-linecap="round" stroke-linejoin="round"/>
<path d="M170.929 255.45V272.057C179.684 274.793 189.225 273.048 196.445 267.39L217.254 251.08L184.913 253.702L170.929 255.45Z" fill="#1B1B1B"/>
<path d="M260.083 187.272C260.083 187.272 260.76 228.599 207.663 255.162C192.047 262.975 173.113 263.392 160.012 251.849C148.744 241.923 136.085 224.878 128.973 196.013C115.862 104.236 197.474 109.671 197.474 109.671C240.822 109.671 260.083 144.371 260.083 187.272Z" fill="#A0BD92"/>
<path d="M260.083 187.272C260.083 187.272 260.76 228.599 207.663 255.162C192.047 262.975 173.113 263.392 160.012 251.849C148.744 241.923 136.085 224.878 128.973 196.013C115.862 104.236 197.474 109.671 197.474 109.671C240.822 109.671 260.083 144.371 260.083 187.272Z" fill="url(#paint3_linear_170_288)" fill-opacity="0.3"/>
<path opacity="0.1" d="M218.143 220.299C208.353 209.111 212.024 189.706 219.017 183.588L224.876 184.462L234.491 224.669L224.876 245.646L215.521 250.891C207.654 239.528 213.19 225.252 218.143 220.299Z" fill="#1B1B1B"/>
<path d="M205.97 448.614L168.246 675.715H167.962L165.798 740.709C165.735 742.594 164.189 744.089 162.304 744.089H47.1096C39.9022 744.089 36.2921 735.376 41.387 730.278L95.9153 675.715H94.6125L151.7 440.68L205.97 448.614Z" fill="url(#paint4_linear_170_288)"/>
<path d="M269.305 674.999H269.378L324.625 730.28C329.72 735.378 326.11 744.091 318.902 744.091H198.301C196.265 744.091 194.66 742.36 194.814 740.33L198.82 687.554L211.136 444.554L269.305 436.313V674.999Z" fill="url(#paint5_linear_170_288)"/>
<path d="M256.342 505.245C255.897 502.898 254.674 499.576 251.343 497.494H266.202L277.564 493.124V549.938L257.819 510.447C257.011 508.832 256.678 507.019 256.342 505.245Z" fill="#1B1B1B"/>
<path d="M299.227 167.495C302.398 167.092 304.819 169.937 303.686 172.926C296.458 191.982 272.589 228.535 255.386 225.01C236.105 221.059 223.079 205.147 226.291 189.47C226.291 189.47 268.284 171.428 299.227 167.495Z" fill="#A0BD92"/>
<path d="M299.227 167.495C302.398 167.092 304.819 169.937 303.686 172.926C296.458 191.982 272.589 228.535 255.386 225.01C236.105 221.059 223.079 205.147 226.291 189.47C226.291 189.47 268.284 171.428 299.227 167.495Z" fill="url(#paint6_linear_170_288)" fill-opacity="0.4"/>
<path d="M254.617 203.53L275.831 195.306" stroke="#899D84" stroke-width="9.70993" stroke-linecap="round"/>
<g style="mix-blend-mode:multiply" opacity="0.4" filter="url(#filter1_g_170_288)">
<ellipse cx="205.598" cy="214.945" rx="14.5649" ry="13.7557" fill="#B0C5B1"/>
</g>
<g style="mix-blend-mode:multiply" opacity="0.4" filter="url(#filter2_g_170_288)">
<ellipse cx="141.796" cy="214.945" rx="14.5649" ry="13.7557" fill="#B0C5B1"/>
</g>
<circle cx="141.211" cy="206.342" r="4.43522" fill="#1B1B1B" stroke="#1B1B1B" stroke-width="1.61832"/>
<circle cx="180.984" cy="206.342" r="4.43522" fill="#1B1B1B" stroke="#1B1B1B" stroke-width="1.61832"/>
<path d="M183.621 188.314L175.313 192.885" stroke="#DBDAD0" stroke-width="9.70993" stroke-linecap="round" style="mix-blend-mode:multiply"/>
<path d="M139.477 188.314L147.743 192.885" stroke="#DBDAD0" stroke-width="9.70993" stroke-linecap="round" style="mix-blend-mode:multiply"/>
<path d="M177.062 229.913V229.913C170.463 233.209 162.681 233.215 156.084 229.913V229.913" stroke="#1B1B1B" stroke-width="5.24438" stroke-linecap="round" stroke-linejoin="round"/>
<path d="M135.981 218.032H164.825C164.825 221.209 161.935 223.603 158.813 223.012L149.092 221.172L135.981 218.032Z" fill="#1B1B1B"/>
<path d="M158.351 205.406C162.031 205.06 165.262 207.958 165.262 211.706C165.262 215.199 162.429 218.033 158.935 218.033H121.122C119.292 218.033 117.772 216.622 117.635 214.797C117.499 212.973 118.792 211.351 120.601 211.079L157.994 205.45L158.351 205.406Z" fill="url(#paint7_linear_170_288)"/>
<path d="M139.802 296.988L62.8107 333.207L115.732 404.032" stroke="#A0BD92" stroke-width="45.313" stroke-linejoin="round"/>
<mask id="mask0_170_288" style="mask-type:alpha" maskUnits="userSpaceOnUse" x="24" y="307" width="44" height="43">
<ellipse opacity="0.37" cx="45.9526" cy="328.164" rx="21.8516" ry="20.9775" fill="#8A10C2"/>
</mask>
<g mask="url(#mask0_170_288)">
<path opacity="0.36" d="M40.7084 340.401C42.7479 343.314 46.8269 349.316 46.8269 350.016L55.5675 362.253L97.5225 344.771L86.1597 297.572L62.56 308.061C61.9773 308.935 58.3645 311.732 48.575 315.927C38.7855 320.123 39.2517 333.991 40.7084 340.401Z" fill="#FF4C4F"/>
</g>
<path d="M117.349 332.621L90.5159 286.848L150.341 289.47L149.966 316.801L150.341 327.29L125.636 335.704C122.492 336.775 119.028 335.486 117.349 332.621Z" fill="url(#paint8_linear_170_288)"/>
<ellipse cx="114.476" cy="418.694" rx="39.6489" ry="40.4581" transform="rotate(-42.0699 114.476 418.694)" fill="#A0BD92"/>
<ellipse cx="114.476" cy="418.694" rx="39.6489" ry="40.4581" transform="rotate(-42.0699 114.476 418.694)" fill="url(#paint9_linear_170_288)" fill-opacity="0.2"/>
<path d="M93.4026 332.689L101.425 346.667" stroke="#899D84" stroke-width="8.74063" stroke-linecap="round"/>
<path d="M84.907 279.398L170.929 262.374V279.032C170.929 291.364 164.215 303.319 152.229 306.217C121.808 313.57 95.4129 299.89 82.2673 287.104C79.5316 284.443 81.1632 280.139 84.907 279.398Z" fill="#4D4C4B"/>
<path d="M75.1729 395.087L54.4968 364.74L77.6517 359.336L105.711 346.387L118.902 370.958L75.1729 395.087Z" fill="#656565"/>
<path d="M57.864 366.725L80.4492 356.901L102.914 348.821" stroke="#4D4C4B" stroke-width="17.4813" stroke-linecap="round" stroke-linejoin="round"/>
<path d="M78.4189 398.816L123.71 377.424" stroke="#4D4C4B" stroke-width="17.4813" stroke-linecap="round"/>
<path d="M89.2586 452.809L140.337 399.602L198.494 424.076L173.794 499.233C172.159 504.207 166.549 506.638 161.802 504.429L92.9236 472.378C85.3149 468.838 83.4468 458.863 89.2586 452.809Z" fill="#656565"/>
<path d="M300.722 464.185L273.413 416.209L244.567 434.633L253.002 499.942C253.889 506.807 262.024 509.967 267.312 505.5L297.984 479.587C302.487 475.782 303.638 469.308 300.722 464.185Z" fill="#656565"/>
<path d="M267.964 201.069C267.964 201.069 269.712 212.432 260.098 220.298L260.968 225.024C258.872 226.281 255.37 227.136 253.063 227.59L253.101 227.646C252.656 227.702 252.282 227.75 251.972 227.792C250.16 228.035 250.567 228.035 251.972 227.792C252.289 227.737 252.658 227.67 253.063 227.59L246.589 218.031C245.424 214.826 243.443 208.417 244.841 208.417C246.24 208.417 254.165 204.92 257.952 203.172L267.964 201.069Z" fill="#1B1B1B"/>
<path d="M260.098 175.203C191.048 198.802 170.069 141.988 170.069 127.13C165.831 115.69 174.295 103.53 186.494 103.53H213.772C240.2 112.946 258.319 137.397 259.638 165.421L260.098 175.203Z" fill="#DBDAD0" stroke="#DBDAD0" stroke-width="1.74813"/>
<path d="M124.618 173.973C162.203 170.477 177.937 124.151 177.937 124.151C181.949 113.319 173.146 102.055 161.665 103.331L155.21 104.048C123.764 109.917 107.694 145.234 123.927 172.799L124.618 173.973Z" fill="#DBDAD0" stroke="#DBDAD0" stroke-width="1.74813"/>
<path d="M242.602 231.85L242.602 291.287" stroke="#E64C35" stroke-width="19.2294"/>
<path d="M234.736 265.871C234.736 265.871 239.981 263.248 248.721 265.87" stroke="#BF2F1A" stroke-width="6.11844" stroke-linecap="round"/>
<path d="M234.736 276.358C234.736 276.358 242.143 272.427 251.344 276.359" stroke="#BF2F1A" stroke-width="6.11844" stroke-linecap="round"/>
<path d="M252.217 268.795C247.064 267.657 238.232 262.443 235.609 253.702L252.217 254.81V268.795Z" fill="#1B1B1B"/>
<path d="M271.446 307.894C271.446 321.477 257.405 321.429 243.393 321.119C239.369 321.031 236.056 317.842 235.868 313.822L235.749 311.282C235.671 309.611 234.294 308.297 232.622 308.297V308.297C230.893 308.297 229.491 309.699 229.491 311.428V320.001C229.491 321.098 228.728 322.042 227.633 322.12C223.471 322.414 213.758 321.629 213.758 307.894C213.758 291.964 226.672 279.05 242.602 279.05C258.532 279.05 271.446 291.964 271.446 307.894Z" fill="#DBDAD0"/>
<ellipse cx="242.615" cy="196.181" rx="26.2219" ry="27.096" fill="#DBDAD0"/>
<g style="mix-blend-mode:multiply" opacity="0.47">
<path d="M232.987 209.165L239.255 223.858" stroke="#DBDAD0" stroke-width="8.74063" stroke-linecap="round"/>
</g>
<g style="mix-blend-mode:multiply" opacity="0.47">
<path d="M248.72 209.166L242.453 223.858" stroke="#DBDAD0" stroke-width="8.74063" stroke-linecap="round"/>
</g>
<circle cx="233.861" cy="229.228" r="0.874063" fill="#D9D9D9"/>
<path d="M263.579 232.724C260.957 248.458 273.194 254.087 253.965 260.694C247.239 262.369 241.478 259.458 235.692 254.087C228.646 255.318 223.36 251.748 219.418 246.226C208.046 230.292 225.825 210.91 244.616 216.399C255.001 219.433 263.579 224.444 263.579 232.724Z" fill="#DBDAD0"/>
<path d="M263.579 232.724C260.957 248.458 273.194 254.087 253.965 260.694C247.239 262.369 241.478 259.458 235.692 254.087C228.646 255.318 223.36 251.748 219.418 246.226C208.046 230.292 225.825 210.91 244.616 216.399C255.001 219.433 263.579 224.444 263.579 232.724Z" fill="white" fill-opacity="0.81"/>
<path d="M251.292 238.699C253.424 242.764 254.858 247.153 250.387 249.498C245.915 251.844 237.232 251.258 235.1 247.193C232.967 243.128 234.864 237.931 239.335 235.586C243.807 233.241 249.16 234.635 251.292 238.699Z" fill="#DBDAD0"/>
<path d="M262.848 231.133C264.666 234.599 261.626 240.666 258.783 242.157C255.939 243.649 254.369 240.001 252.551 236.535C250.733 233.069 251.564 229.05 254.408 227.558C257.252 226.067 261.031 227.668 262.848 231.133Z" fill="#DBDAD0"/>
<g style="mix-blend-mode:multiply" opacity="0.47">
<path d="M260.098 164.714L257.213 176.784" stroke="#DBDAD0" stroke-width="8.74063" stroke-linecap="round"/>
</g>
<path d="M141.211 395.232L195.403 429.32" stroke="#424141" stroke-width="15.7331" stroke-linecap="round"/>
<path d="M269.917 416.209L245.053 433.253" stroke="#424141" stroke-width="15.7331" stroke-linecap="round"/>
<mask id="mask1_170_288" style="mask-type:alpha" maskUnits="userSpaceOnUse" x="234" y="234" width="20" height="17">
<path d="M251.292 238.699C253.424 242.764 254.858 247.153 250.387 249.498C245.915 251.844 237.232 251.258 235.1 247.193C232.967 243.128 234.864 237.931 239.335 235.586C243.807 233.241 249.16 234.635 251.292 238.699Z" fill="#DBDAD0"/>
</mask>
<g mask="url(#mask1_170_288)">
<g style="mix-blend-mode:multiply" opacity="0.36">
<path d="M235.609 240.591C235.609 240.591 242.602 230.976 250.468 239.718" stroke="#DBDAD0" stroke-width="5.24438" stroke-linecap="round"/>
</g>
</g>
<mask id="mask2_170_288" style="mask-type:alpha" maskUnits="userSpaceOnUse" x="251" y="227" width="13" height="16">
<path d="M262.849 231.133C264.667 234.599 261.627 240.666 258.783 242.157C255.94 243.649 254.369 240.001 252.551 236.535C250.733 233.069 251.565 229.05 254.409 227.558C257.252 226.067 261.031 227.668 262.849 231.133Z" fill="#DBDAD0"/>
</mask>
<g mask="url(#mask2_170_288)">
<g style="mix-blend-mode:multiply" opacity="0.36">
<path d="M253.101 229.662C253.101 229.662 260.968 226.772 262.716 234.639" stroke="#DBDAD0" stroke-width="5.24438" stroke-linecap="round"/>
</g>
</g>
<path d="M211.15 83.4973C211.15 83.4973 222.513 82.6232 230.38 86.9937" stroke="#BF2F1A" stroke-width="6.11844" stroke-linecap="round"/>
<path d="M232.992 79.6943C221.629 80.5683 212.014 59.5908 212.014 59.5908L226.032 70.0796L232.114 75.324L232.992 79.6943Z" fill="#1B1B1B"/>
<ellipse cx="230.543" cy="40.672" rx="27.3463" ry="30.0099" transform="rotate(-60 230.543 40.672)" fill="#DBDAD0"/>
<circle cx="211.059" cy="55.0306" r="20.9775" transform="rotate(-29.742 211.059 55.0306)" fill="#DBDAD0"/>
<circle cx="242.391" cy="62.2955" r="18.3553" transform="rotate(-29.742 242.391 62.2955)" fill="#DBDAD0"/>
<g style="mix-blend-mode:multiply" opacity="0.57">
<path d="M211.136 38.8484C211.136 38.8484 228.617 40.5967 225.999 60.4651" stroke="#DBDAD0" stroke-width="8.74063" stroke-linecap="round"/>
</g>
<path d="M168.587 127.672C168.587 127.672 177.062 175.203 229.505 176.951" stroke="#DBDAD0" stroke-width="13.985" stroke-linecap="round"/>
<g style="mix-blend-mode:multiply" opacity="0.45">
<path d="M304.954 242.528C305.394 240.159 307.669 238.594 310.039 239.029C312.413 239.465 313.985 241.742 313.549 244.116L309.517 243.376C313.32 244.074 313.535 244.116 313.547 244.121L313.544 244.139C313.543 244.147 313.541 244.157 313.539 244.167C313.535 244.189 313.529 244.215 313.523 244.244C313.511 244.304 313.495 244.38 313.475 244.471C313.434 244.654 313.376 244.9 313.296 245.197C313.137 245.79 312.888 246.6 312.522 247.542C311.797 249.41 310.565 251.906 308.537 254.277C306.487 256.674 303.616 258.948 299.701 260.263C298.746 260.583 297.746 260.839 296.699 261.029C298.311 264.037 299.441 267.893 299.441 272.741C299.441 275.155 297.485 277.112 295.071 277.112C292.658 277.112 290.701 275.155 290.701 272.741C290.701 267.385 288.783 264.296 287.106 262.542C286.23 261.626 285.36 261.018 284.735 260.649C284.425 260.465 284.182 260.345 284.04 260.279C283.969 260.247 283.924 260.228 283.909 260.222C283.902 260.219 283.903 260.219 283.911 260.223C283.916 260.224 283.922 260.226 283.93 260.229C283.935 260.231 283.94 260.234 283.945 260.236L283.958 260.24L283.96 260.239C281.694 259.413 280.526 256.908 281.35 254.641C282.173 252.376 284.674 251.206 286.94 252.024C287.097 252.04 287.256 252.066 287.414 252.1C291.672 253.02 294.73 252.711 296.919 251.977C299.107 251.242 300.703 249.99 301.894 248.597C303.107 247.178 303.893 245.618 304.375 244.379C304.612 243.768 304.765 243.26 304.856 242.924C304.901 242.758 304.93 242.636 304.945 242.568L304.954 242.528ZM304.954 242.524L304.954 242.522C304.955 242.517 304.957 242.514 304.957 242.511L304.954 242.524Z" fill="#DBDAD0"/>
</g>
<g style="mix-blend-mode:multiply" opacity="0.27">
<path d="M297.379 321.559C297.379 321.559 293.312 302.46 312.541 302.46" stroke="#DBDAD0" stroke-width="8.74063" stroke-linecap="round"/>
</g>
<g style="mix-blend-mode:multiply" opacity="0.57">
<path d="M237.482 52.5771C240.734 50.8399 248.737 48.8924 254.735 55.0007" stroke="#DBDAD0" stroke-width="8.74063" stroke-linecap="round"/>
</g>
<path d="M145.596 330.43L136.855 332.178L142.946 349.162L145.596 330.43Z" fill="#1B1B1B"/>
<path d="M139.477 495.628L163.951 506.117L134.233 516.606L139.477 495.628Z" fill="#1B1B1B"/>
<path d="M203.284 428.325L218.025 436.657C221.398 438.564 225.475 438.76 229.016 437.187L239.121 432.696L228.632 444.933L204.158 453.673L182.307 476.399L193.669 438.814C198.832 439.284 203.284 435.218 203.284 430.034V428.325Z" fill="#1B1B1B"/>
<path d="M177.481 301.083C178.044 299.561 180.197 299.561 180.76 301.083L183.391 308.193L190.28 305.026C191.754 304.348 193.276 305.871 192.598 307.345L189.43 314.233L196.542 316.865C198.063 317.428 198.063 319.579 196.542 320.143L189.43 322.774L192.598 329.662C193.276 331.137 191.754 332.659 190.28 331.982L183.391 328.814L180.76 335.925C180.197 337.447 178.045 337.447 177.481 335.925L174.849 328.814L167.962 331.982C166.487 332.66 164.964 331.137 165.642 329.662L168.809 322.774L161.7 320.143C160.178 319.58 160.178 317.428 161.7 316.865L168.809 314.233L165.642 307.345C164.964 305.871 166.487 304.348 167.962 305.026L174.849 308.193L177.481 301.083Z" fill="url(#paint10_linear_170_288)"/>
<path d="M84.5201 124.212C85.0833 122.69 87.2359 122.69 87.7991 124.212L91.3104 133.701C91.4875 134.18 91.8647 134.557 92.3432 134.734L101.832 138.245C103.354 138.808 103.354 140.961 101.832 141.524L92.3432 145.035C91.8647 145.213 91.4875 145.59 91.3104 146.068L87.7991 155.558C87.2359 157.079 85.0833 157.079 84.5201 155.558L81.0088 146.068C80.8317 145.59 80.4545 145.213 79.976 145.036L70.4868 141.524C68.9648 140.961 68.9648 138.808 70.4868 138.245L79.976 134.734C80.4545 134.557 80.8317 134.18 81.0088 133.701L84.5201 124.212Z" fill="#E64C35"/>
<path d="M64.4166 159.174C64.9797 157.652 67.1324 157.652 67.6955 159.174L69.5543 164.198C69.7314 164.676 70.1086 165.053 70.5871 165.23L75.6104 167.089C77.1324 167.652 77.1324 169.805 75.6104 170.368L70.5871 172.227C70.1086 172.404 69.7314 172.781 69.5543 173.26L67.6955 178.283C67.1324 179.805 64.9797 179.805 64.4166 178.283L62.5578 173.26C62.3807 172.781 62.0035 172.404 61.525 172.227L56.5017 170.368C54.9797 169.805 54.9797 167.652 56.5017 167.089L61.525 165.23C62.0035 165.053 62.3807 164.676 62.5578 164.198L64.4166 159.174Z" fill="#E08FB5"/>
<g style="mix-blend-mode:screen" opacity="0.44">
<path d="M54.0827 324.022L57.0527 321.98" stroke="#DBDAD0" stroke-width="8.74063" stroke-linecap="round"/>
</g>
<g opacity="0.59" filter="url(#filter3_g_170_288)">
<path d="M120.818 210.418C119.997 210.366 119.244 210.648 118.733 211.28C118.221 211.908 117.993 212.834 118.091 213.777C118.189 214.72 118.602 215.579 119.232 216.089C119.862 216.602 120.657 216.724 121.45 216.504C121.45 216.504 121.45 216.504 121.45 216.504C121.75 216.422 122.051 216.339 122.351 216.257C127.759 214.773 133.167 213.289 138.576 211.805C138.876 211.723 139.177 211.64 139.477 211.558C139.477 211.558 139.477 211.558 139.477 211.558C139.166 211.539 138.855 211.52 138.544 211.501C132.946 211.159 127.349 210.817 121.751 210.475C121.44 210.456 121.129 210.437 120.818 210.418Z" fill="#B798A3"/>
</g>
<g style="mix-blend-mode:screen" opacity="0.44">
<path d="M68.1099 317.613L68.6783 317.612" stroke="#DBDAD0" stroke-width="8.74063" stroke-linecap="round"/>
</g>
<path d="M234.75 306.831L240.869 319.067" stroke="#CECDC0" stroke-width="8.74063" stroke-linecap="round"/>
<path d="M129.586 437.889L108.885 462.301" stroke="#7C7C7C" stroke-width="13.985" stroke-linecap="round"/>
<path d="M141.653 459.199L136.493 467.498" stroke="#7C7C7C" stroke-width="13.985" stroke-linecap="round"/>
</g>
</g>
<defs>
<filter id="filter0_g_170_288" x="4.48184" y="11.6359" width="347.517" height="733.452" filterUnits="userSpaceOnUse" color-interpolation-filters="sRGB">
<feFlood flood-opacity="0" result="BackgroundImageFix"/>
<feBlend mode="normal" in="SourceGraphic" in2="BackgroundImageFix" result="shape"/>
<feTurbulence type="fractalNoise" baseFrequency="0.71505141258239746 0.71505141258239746" numOctaves="3" seed="1492" />
<feDisplacementMap in="shape" scale="1.992863655090332" xChannelSelector="R" yChannelSelector="G" result="displacedImage" width="100%" height="100%" />
<feMerge result="effect1_texture_170_288">
<feMergeNode in="displacedImage"/>
</feMerge>
</filter>
<filter id="filter1_g_170_288" x="173.28" y="183.436" width="64.6359" height="63.0175" filterUnits="userSpaceOnUse" color-interpolation-filters="sRGB">
<feFlood flood-opacity="0" result="BackgroundImageFix"/>
<feBlend mode="normal" in="SourceGraphic" in2="BackgroundImageFix" result="shape"/>
<feTurbulence type="fractalNoise" baseFrequency="1.2358479499816895 1.2358479499816895" numOctaves="3" seed="1626" />
<feDisplacementMap in="shape" scale="35.505989074707031" xChannelSelector="R" yChannelSelector="G" result="displacedImage" width="100%" height="100%" />
<feMerge result="effect1_texture_170_288">
<feMergeNode in="displacedImage"/>
</feMerge>
</filter>
<filter id="filter2_g_170_288" x="109.478" y="183.436" width="64.6359" height="63.0175" filterUnits="userSpaceOnUse" color-interpolation-filters="sRGB">
<feFlood flood-opacity="0" result="BackgroundImageFix"/>
<feBlend mode="normal" in="SourceGraphic" in2="BackgroundImageFix" result="shape"/>
<feTurbulence type="fractalNoise" baseFrequency="1.2358479499816895 1.2358479499816895" numOctaves="3" seed="1626" />
<feDisplacementMap in="shape" scale="35.505989074707031" xChannelSelector="R" yChannelSelector="G" result="displacedImage" width="100%" height="100%" />
<feMerge result="effect1_texture_170_288">
<feMergeNode in="displacedImage"/>
</feMerge>
</filter>
<filter id="filter3_g_170_288" x="111.706" y="204.049" width="34.1346" height="18.9224" filterUnits="userSpaceOnUse" color-interpolation-filters="sRGB">
<feFlood flood-opacity="0" result="BackgroundImageFix"/>
<feBlend mode="normal" in="SourceGraphic" in2="BackgroundImageFix" result="shape"/>
<feTurbulence type="fractalNoise" baseFrequency="5.200373649597168 5.200373649597168" numOctaves="3" seed="3497" />
<feDisplacementMap in="shape" scale="12.726357460021973" xChannelSelector="R" yChannelSelector="G" result="displacedImage" width="100%" height="100%" />
<feMerge result="effect1_texture_170_288">
<feMergeNode in="displacedImage"/>
</feMerge>
</filter>
<linearGradient id="paint0_linear_170_288" x1="137.729" y1="300.194" x2="137.729" y2="742.47" gradientUnits="userSpaceOnUse">
<stop/>
<stop offset="1" stop-opacity="0"/>
</linearGradient>
<linearGradient id="paint1_linear_170_288" x1="214.642" y1="132.374" x2="305.545" y2="350.889" gradientUnits="userSpaceOnUse">
<stop stop-color="white" stop-opacity="0"/>
<stop offset="1" stop-color="white"/>
</linearGradient>
<linearGradient id="paint2_linear_170_288" x1="210.277" y1="272.224" x2="215.521" y2="437.422" gradientUnits="userSpaceOnUse">
<stop stop-opacity="0"/>
<stop offset="0.432613" stop-color="white" stop-opacity="0.432613"/>
<stop offset="1"/>
</linearGradient>
<linearGradient id="paint3_linear_170_288" x1="188.425" y1="117.515" x2="168.321" y2="260.861" gradientUnits="userSpaceOnUse">
<stop stop-color="#FF236C"/>
<stop offset="0.95048" stop-color="#A0BD92"/>
</linearGradient>
<linearGradient id="paint4_linear_170_288" x1="122.486" y1="440.68" x2="122.486" y2="744.089" gradientUnits="userSpaceOnUse">
<stop stop-color="#4D4C4B"/>
<stop offset="0.427885" stop-color="#686868"/>
<stop offset="1" stop-color="#3A3A3A"/>
</linearGradient>
<linearGradient id="paint5_linear_170_288" x1="260.907" y1="436.313" x2="260.907" y2="744.091" gradientUnits="userSpaceOnUse">
<stop stop-color="#4D4C4B"/>
<stop offset="0.427885" stop-color="#686868"/>
<stop offset="1" stop-color="#3A3A3A"/>
</linearGradient>
<linearGradient id="paint6_linear_170_288" x1="302.927" y1="168.211" x2="227.758" y2="238.136" gradientUnits="userSpaceOnUse">
<stop stop-color="#FF60DC"/>
<stop offset="0.489881" stop-opacity="0"/>
</linearGradient>
<linearGradient id="paint7_linear_170_288" x1="118.672" y1="216.27" x2="165.009" y2="209.867" gradientUnits="userSpaceOnUse">
<stop stop-color="#A0BD92"/>
<stop offset="1" stop-color="#A8B18F"/>
</linearGradient>
<linearGradient id="paint8_linear_170_288" x1="111.508" y1="312.431" x2="156.959" y2="325.542" gradientUnits="userSpaceOnUse">
<stop stop-color="#656565"/>
<stop offset="1" stop-color="#707070"/>
</linearGradient>
<linearGradient id="paint9_linear_170_288" x1="117.792" y1="400.488" x2="110.165" y2="441.209" gradientUnits="userSpaceOnUse">
<stop stop-opacity="0"/>
<stop offset="1"/>
</linearGradient>
<linearGradient id="paint10_linear_170_288" x1="205.032" y1="284.105" x2="161.329" y2="367.141" gradientUnits="userSpaceOnUse">
<stop stop-color="#3A342E"/>
<stop offset="1" stop-color="#7A7A7A"/>
</linearGradient>
<clipPath id="clip0_170_288">
<rect width="351" height="521" fill="white" transform="translate(0.750488)"/>
</clipPath>
</defs>
</svg>
