<svg width="127" height="101" viewBox="0 0 127 101" fill="none" xmlns="http://www.w3.org/2000/svg">
<g filter="url(#filter0_g_140_906)">
<mask id="path-1-outside-1_140_906" maskUnits="userSpaceOnUse" x="0" y="1" width="127" height="99" fill="black">
<rect fill="white" y="1" width="127" height="99"/>
<path d="M106.941 45C106.941 64.8823 87.4656 81 63.4412 81C39.4168 81 19.9412 64.8823 19.9412 45C19.9412 25.1177 39.4168 9 63.4412 9C87.4656 9 106.941 25.1177 106.941 45Z"/>
<path d="M49.9412 71.5C49.9412 81.165 41.4346 89 30.9412 89C20.4478 89 11.9412 81.165 11.9412 71.5C11.9412 61.835 20.4478 54 30.9412 54C41.4346 54 49.9412 61.835 49.9412 71.5Z"/>
<path d="M113.941 71.5C113.941 81.165 105.435 89 94.9412 89C84.4478 89 75.9412 81.165 75.9412 71.5C75.9412 61.835 84.4478 54 94.9412 54C105.435 54 113.941 61.835 113.941 71.5Z"/>
<path d="M27.8397 46.8525C33.0927 25.3314 66.9442 29.4452 66.9442 29.4452C86.3782 29.4453 95.3104 34.9073 98.2655 47.3202C103.683 44.5561 109.513 41.8983 114.903 40.0898C116.588 39.5245 118.259 40.7743 118.002 42.5351C116.544 52.5224 108.583 72.1165 98.6815 72.5263C96.9283 72.5988 95.2178 72.515 93.578 72.2939C90.1779 77.3057 84.8886 82.9447 76.7255 87.6435C68.7651 92.2254 58.969 92.7474 50.9188 88.3251C45.1984 85.1826 38.6521 80.162 33.6093 72.2714C31.9211 72.5089 30.1567 72.6011 28.3466 72.5263C18.4453 72.1165 10.4844 52.5224 9.02626 42.5351C8.76947 40.7743 10.4397 39.5245 12.1249 40.0898C17.2102 41.7961 22.6875 44.2583 27.8397 46.8525Z"/>
<path d="M54.9418 62.9993C54.9418 65.7607 52.7032 67.9993 49.9418 67.9993C47.1804 67.9993 44.9418 65.7607 44.9418 62.9993C44.9418 60.2378 47.1804 57.9993 49.9418 57.9993C52.7032 57.9993 54.9418 60.2378 54.9418 62.9993Z"/>
<path d="M54.016 62.9993C54.016 60.7491 52.192 58.925 49.9418 58.925C47.6917 58.925 45.8676 60.7491 45.8676 62.9993C45.8676 65.2494 47.6917 67.0735 49.9418 67.0735V67.9993C47.1804 67.9993 44.9418 65.7607 44.9418 62.9993C44.9418 60.2378 47.1804 57.9993 49.9418 57.9993C52.7032 57.9993 54.9418 60.2378 54.9418 62.9993C54.9418 65.7607 52.7032 67.9993 49.9418 67.9993V67.0735C52.192 67.0735 54.016 65.2494 54.016 62.9993Z"/>
<path d="M82.9418 62.9993C82.9418 65.7607 80.7032 67.9993 77.9418 67.9993C75.1804 67.9993 72.9418 65.7607 72.9418 62.9993C72.9418 60.2378 75.1804 57.9993 77.9418 57.9993C80.7032 57.9993 82.9418 60.2378 82.9418 62.9993Z"/>
<path d="M82.016 62.9993C82.016 60.7491 80.192 58.925 77.9418 58.925C75.6917 58.925 73.8676 60.7491 73.8676 62.9993C73.8676 65.2494 75.6917 67.0735 77.9418 67.0735V67.9993C75.1804 67.9993 72.9418 65.7607 72.9418 62.9993C72.9418 60.2378 75.1804 57.9993 77.9418 57.9993C80.7032 57.9993 82.9418 60.2378 82.9418 62.9993C82.9418 65.7607 80.7032 67.9993 77.9418 67.9993V67.0735C80.192 67.0735 82.016 65.2494 82.016 62.9993Z"/>
<path d="M69.5087 56.8401C70.2481 58.1838 71.937 58.6737 73.2808 57.9343L78.0329 55.3199C79.3767 54.5805 79.8664 52.8916 79.1271 51.5478C78.3877 50.2039 76.6988 49.7142 75.3549 50.4536L70.6029 53.068C69.2591 53.8074 68.7693 55.4963 69.5087 56.8401Z"/>
<path d="M58.1096 56.8446C57.3674 58.1868 55.678 58.6733 54.3357 57.9312L49.6066 55.3166C48.2646 54.5743 47.7789 52.8847 48.521 51.5426C49.2633 50.2003 50.9526 49.7138 52.2948 50.456L57.023 53.0707C58.3652 53.813 58.8517 55.5023 58.1096 56.8446Z"/>
<path d="M74.7211 75.4143C68.0024 80.3648 58.9034 80.5788 51.9594 75.9494L51.2778 75.4953C49.8992 74.5763 49.5267 72.7138 50.4457 71.3352C51.3648 69.9566 53.2273 69.5841 54.6059 70.5031L55.2875 70.9572C60.1304 74.1858 66.4767 74.0369 71.1625 70.5842C72.4964 69.6015 74.3741 69.8861 75.3569 71.2199C76.3396 72.5538 76.0549 74.4315 74.7211 75.4143Z"/>
<path d="M61.9855 21.8087C66.9313 29.6463 62.1904 41.5218 51.3963 48.3334C40.6021 55.1449 27.8424 54.3131 22.8965 46.4755C17.9506 38.6378 22.6916 26.7623 33.4857 19.9508C44.2798 13.1393 57.0396 13.9711 61.9855 21.8087Z"/>
<path d="M64.896 21.8087C59.9502 29.6463 64.6911 41.5218 75.4852 48.3334C86.2793 55.1449 99.0391 54.3131 103.985 46.4755C108.931 38.6378 104.19 26.7623 93.3958 19.9508C82.6016 13.1393 69.8419 13.9711 64.896 21.8087Z"/>
</mask>
<path d="M106.941 45C106.941 64.8823 87.4656 81 63.4412 81C39.4168 81 19.9412 64.8823 19.9412 45C19.9412 25.1177 39.4168 9 63.4412 9C87.4656 9 106.941 25.1177 106.941 45Z" fill="#E08FB5"/>
<path d="M49.9412 71.5C49.9412 81.165 41.4346 89 30.9412 89C20.4478 89 11.9412 81.165 11.9412 71.5C11.9412 61.835 20.4478 54 30.9412 54C41.4346 54 49.9412 61.835 49.9412 71.5Z" fill="#E08FB5"/>
<path d="M113.941 71.5C113.941 81.165 105.435 89 94.9412 89C84.4478 89 75.9412 81.165 75.9412 71.5C75.9412 61.835 84.4478 54 94.9412 54C105.435 54 113.941 61.835 113.941 71.5Z" fill="#E08FB5"/>
<path d="M27.8397 46.8525C33.0927 25.3314 66.9442 29.4452 66.9442 29.4452C86.3782 29.4453 95.3104 34.9073 98.2655 47.3202C103.683 44.5561 109.513 41.8983 114.903 40.0898C116.588 39.5245 118.259 40.7743 118.002 42.5351C116.544 52.5224 108.583 72.1165 98.6815 72.5263C96.9283 72.5988 95.2178 72.515 93.578 72.2939C90.1779 77.3057 84.8886 82.9447 76.7255 87.6435C68.7651 92.2254 58.969 92.7474 50.9188 88.3251C45.1984 85.1826 38.6521 80.162 33.6093 72.2714C31.9211 72.5089 30.1567 72.6011 28.3466 72.5263C18.4453 72.1165 10.4844 52.5224 9.02626 42.5351C8.76947 40.7743 10.4397 39.5245 12.1249 40.0898C17.2102 41.7961 22.6875 44.2583 27.8397 46.8525Z" fill="#E08FB5"/>
<path d="M54.9418 62.9993C54.9418 65.7607 52.7032 67.9993 49.9418 67.9993C47.1804 67.9993 44.9418 65.7607 44.9418 62.9993C44.9418 60.2378 47.1804 57.9993 49.9418 57.9993C52.7032 57.9993 54.9418 60.2378 54.9418 62.9993Z" fill="#E08FB5"/>
<path d="M54.016 62.9993C54.016 60.7491 52.192 58.925 49.9418 58.925C47.6917 58.925 45.8676 60.7491 45.8676 62.9993C45.8676 65.2494 47.6917 67.0735 49.9418 67.0735V67.9993C47.1804 67.9993 44.9418 65.7607 44.9418 62.9993C44.9418 60.2378 47.1804 57.9993 49.9418 57.9993C52.7032 57.9993 54.9418 60.2378 54.9418 62.9993C54.9418 65.7607 52.7032 67.9993 49.9418 67.9993V67.0735C52.192 67.0735 54.016 65.2494 54.016 62.9993Z" fill="#E08FB5"/>
<path d="M82.9418 62.9993C82.9418 65.7607 80.7032 67.9993 77.9418 67.9993C75.1804 67.9993 72.9418 65.7607 72.9418 62.9993C72.9418 60.2378 75.1804 57.9993 77.9418 57.9993C80.7032 57.9993 82.9418 60.2378 82.9418 62.9993Z" fill="#E08FB5"/>
<path d="M82.016 62.9993C82.016 60.7491 80.192 58.925 77.9418 58.925C75.6917 58.925 73.8676 60.7491 73.8676 62.9993C73.8676 65.2494 75.6917 67.0735 77.9418 67.0735V67.9993C75.1804 67.9993 72.9418 65.7607 72.9418 62.9993C72.9418 60.2378 75.1804 57.9993 77.9418 57.9993C80.7032 57.9993 82.9418 60.2378 82.9418 62.9993C82.9418 65.7607 80.7032 67.9993 77.9418 67.9993V67.0735C80.192 67.0735 82.016 65.2494 82.016 62.9993Z" fill="#E08FB5"/>
<path d="M69.5087 56.8401C70.2481 58.1838 71.937 58.6737 73.2808 57.9343L78.0329 55.3199C79.3767 54.5805 79.8664 52.8916 79.1271 51.5478C78.3877 50.2039 76.6988 49.7142 75.3549 50.4536L70.6029 53.068C69.2591 53.8074 68.7693 55.4963 69.5087 56.8401Z" fill="#E08FB5"/>
<path d="M58.1096 56.8446C57.3674 58.1868 55.678 58.6733 54.3357 57.9312L49.6066 55.3166C48.2646 54.5743 47.7789 52.8847 48.521 51.5426C49.2633 50.2003 50.9526 49.7138 52.2948 50.456L57.023 53.0707C58.3652 53.813 58.8517 55.5023 58.1096 56.8446Z" fill="#E08FB5"/>
<path d="M74.7211 75.4143C68.0024 80.3648 58.9034 80.5788 51.9594 75.9494L51.2778 75.4953C49.8992 74.5763 49.5267 72.7138 50.4457 71.3352C51.3648 69.9566 53.2273 69.5841 54.6059 70.5031L55.2875 70.9572C60.1304 74.1858 66.4767 74.0369 71.1625 70.5842C72.4964 69.6015 74.3741 69.8861 75.3569 71.2199C76.3396 72.5538 76.0549 74.4315 74.7211 75.4143Z" fill="#E08FB5"/>
<path d="M61.9855 21.8087C66.9313 29.6463 62.1904 41.5218 51.3963 48.3334C40.6021 55.1449 27.8424 54.3131 22.8965 46.4755C17.9506 38.6378 22.6916 26.7623 33.4857 19.9508C44.2798 13.1393 57.0396 13.9711 61.9855 21.8087Z" fill="#E08FB5"/>
<path d="M64.896 21.8087C59.9502 29.6463 64.6911 41.5218 75.4852 48.3334C86.2793 55.1449 99.0391 54.3131 103.985 46.4755C108.931 38.6378 104.19 26.7623 93.3958 19.9508C82.6016 13.1393 69.8419 13.9711 64.896 21.8087Z" fill="#E08FB5"/>
<path d="M54.9418 62.9993H50.9418C50.9418 63.5516 50.4941 63.9993 49.9418 63.9993V67.9993V71.9993C54.9124 71.9993 58.9418 67.9698 58.9418 62.9993H54.9418ZM49.9418 67.9993V63.9993C49.3895 63.9993 48.9418 63.5516 48.9418 62.9993H44.9418H40.9418C40.9418 67.9698 44.9713 71.9993 49.9418 71.9993V67.9993ZM44.9418 62.9993H48.9418C48.9418 62.447 49.3895 61.9993 49.9418 61.9993V57.9993V53.9993C44.9713 53.9993 40.9418 58.0287 40.9418 62.9993H44.9418ZM49.9418 57.9993V61.9993C50.4941 61.9993 50.9418 62.447 50.9418 62.9993H54.9418H58.9418C58.9418 58.0287 54.9124 53.9993 49.9418 53.9993V57.9993ZM49.9418 67.0735H45.9418V67.9993H49.9418H53.9418V67.0735H49.9418ZM82.9418 62.9993H78.9418C78.9418 63.5516 78.4941 63.9993 77.9418 63.9993V67.9993V71.9993C82.9124 71.9993 86.9418 67.9698 86.9418 62.9993H82.9418ZM77.9418 67.9993V63.9993C77.3895 63.9993 76.9418 63.5515 76.9418 62.9993H72.9418H68.9418C68.9418 67.9698 72.9713 71.9993 77.9418 71.9993V67.9993ZM72.9418 62.9993H76.9418C76.9418 62.447 77.3895 61.9993 77.9418 61.9993V57.9993V53.9993C72.9713 53.9993 68.9418 58.0287 68.9418 62.9993H72.9418ZM77.9418 57.9993V61.9993C78.4941 61.9993 78.9418 62.447 78.9418 62.9993H82.9418H86.9418C86.9418 58.0287 82.9124 53.9993 77.9418 53.9993V57.9993ZM77.9418 67.0735H73.9418V67.9993H77.9418H81.9418V67.0735H77.9418ZM27.8397 46.8525L24.2421 53.9979L33.2264 58.5214L35.6116 48.7495L27.8397 46.8525ZM66.9442 29.4452L65.9791 37.3868L66.4599 37.4452L66.9442 37.4452L66.9442 29.4452ZM98.2655 47.3202L90.483 49.173L92.8393 59.0703L101.902 54.4462L98.2655 47.3202ZM114.903 40.0898L112.359 32.505L112.358 32.5053L114.903 40.0898ZM118.002 42.5351L125.918 43.6908L125.918 43.6896L118.002 42.5351ZM98.6815 72.5263L99.012 80.5195L99.0123 80.5194L98.6815 72.5263ZM93.578 72.2939L94.6472 64.3656L89.7385 63.7036L86.9577 67.8026L93.578 72.2939ZM76.7255 87.6435L80.7163 94.5769L80.7164 94.5769L76.7255 87.6435ZM50.9188 88.3251L47.067 95.3368L47.067 95.3368L50.9188 88.3251ZM33.6093 72.2714L40.3502 67.9633L37.583 63.6334L32.4946 64.3494L33.6093 72.2714ZM28.3466 72.5263L28.0158 80.5194L28.0161 80.5195L28.3466 72.5263ZM9.02626 42.5351L1.11 43.6896L1.11019 43.6908L9.02626 42.5351ZM12.1249 40.0898L14.6697 32.5053L14.6689 32.505L12.1249 40.0898ZM69.5087 56.8401L62.4996 60.6966L62.4998 60.697L69.5087 56.8401ZM73.2808 57.9343L69.4246 50.925L69.4243 50.9252L73.2808 57.9343ZM78.0329 55.3199L81.8891 62.3292L81.8894 62.329L78.0329 55.3199ZM79.1271 51.5478L86.1363 47.6915L86.1362 47.6912L79.1271 51.5478ZM75.3549 50.4536L79.2111 57.4628L79.2115 57.4626L75.3549 50.4536ZM70.6029 53.068L66.7467 46.0587L66.7459 46.0591L70.6029 53.068ZM58.1096 56.8446L65.1105 60.716L65.1108 60.7155L58.1096 56.8446ZM54.3357 57.9312L58.2066 50.93L58.2064 50.9299L54.3357 57.9312ZM49.6066 55.3166L45.7345 62.3171L45.7359 62.3179L49.6066 55.3166ZM48.521 51.5426L41.5201 47.6712L41.52 47.6715L48.521 51.5426ZM52.2948 50.456L56.1664 43.4552L56.1662 43.4551L52.2948 50.456ZM57.023 53.0707L53.1515 60.0715L53.1516 60.0716L57.023 53.0707ZM74.7211 75.4143L79.4667 81.8548L79.4667 81.8547L74.7211 75.4143ZM51.9594 75.9494L56.397 69.293L56.3948 69.2916L51.9594 75.9494ZM51.2778 75.4953L46.8402 82.1517L46.8424 82.1532L51.2778 75.4953ZM50.4457 71.3352L43.7893 66.8976L43.7893 66.8976L50.4457 71.3352ZM54.6059 70.5031L50.1683 77.1595L50.1705 77.161L54.6059 70.5031ZM55.2875 70.9572L59.7251 64.3008L59.7229 64.2994L55.2875 70.9572ZM71.1625 70.5842L66.4173 64.1435L66.4169 64.1438L71.1625 70.5842ZM75.3569 71.2199L81.7976 66.4747L81.7973 66.4743L75.3569 71.2199ZM106.941 45H98.9412C98.9412 59.1138 84.5308 73 63.4412 73V81V89C90.4004 89 114.941 70.6507 114.941 45H106.941ZM63.4412 81V73C42.3516 73 27.9412 59.1138 27.9412 45H19.9412H11.9412C11.9412 70.6507 36.4821 89 63.4412 89V81ZM19.9412 45H27.9412C27.9412 30.8862 42.3516 17 63.4412 17V9V1C36.4821 1 11.9412 19.3493 11.9412 45H19.9412ZM63.4412 9V17C84.5308 17 98.9412 30.8862 98.9412 45H106.941H114.941C114.941 19.3493 90.4004 1 63.4412 1V9ZM49.9412 71.5H41.9412C41.9412 76.14 37.6485 81 30.9412 81V89V97C45.2208 97 57.9412 86.1899 57.9412 71.5H49.9412ZM30.9412 89V81C24.234 81 19.9412 76.14 19.9412 71.5H11.9412H3.94123C3.94123 86.1899 16.6617 97 30.9412 97V89ZM11.9412 71.5H19.9412C19.9412 66.86 24.234 62 30.9412 62V54V46C16.6617 46 3.94123 56.8101 3.94123 71.5H11.9412ZM30.9412 54V62C37.6485 62 41.9412 66.86 41.9412 71.5H49.9412H57.9412C57.9412 56.8101 45.2208 46 30.9412 46V54ZM113.941 71.5H105.941C105.941 76.14 101.648 81 94.9412 81V89V97C109.221 97 121.941 86.1899 121.941 71.5H113.941ZM94.9412 89V81C88.234 81 83.9412 76.14 83.9412 71.5H75.9412H67.9412C67.9412 86.1899 80.6617 97 94.9412 97V89ZM75.9412 71.5H83.9412C83.9412 66.86 88.234 62 94.9412 62V54V46C80.6617 46 67.9412 56.8101 67.9412 71.5H75.9412ZM94.9412 54V62C101.648 62 105.941 66.86 105.941 71.5H113.941H121.941C121.941 56.8101 109.221 46 94.9412 46V54ZM27.8397 46.8525L35.6116 48.7495C37.0637 42.8001 42.5115 39.4584 50.7959 37.9489C54.6832 37.2405 58.5255 37.0934 61.4515 37.1378C62.8975 37.1597 64.079 37.2277 64.8789 37.2879C65.2779 37.318 65.5793 37.3459 65.7682 37.3647C65.8625 37.3741 65.9286 37.3813 65.9644 37.3853C65.9823 37.3872 65.9927 37.3884 65.9952 37.3887C65.9965 37.3889 65.9958 37.3888 65.9931 37.3885C65.9918 37.3883 65.9899 37.3881 65.9876 37.3878C65.9865 37.3877 65.9843 37.3874 65.9837 37.3874C65.9815 37.3871 65.9791 37.3868 66.9442 29.4452C67.9093 21.5037 67.9067 21.5033 67.9039 21.503C67.9028 21.5029 67.8999 21.5025 67.8977 21.5023C67.8934 21.5017 67.8884 21.5011 67.883 21.5005C67.8721 21.4992 67.8592 21.4977 67.8441 21.4959C67.8141 21.4924 67.7758 21.4881 67.7295 21.4829C67.6369 21.4726 67.5122 21.4593 67.3574 21.4438C67.0478 21.4129 66.6168 21.3735 66.08 21.3331C65.0081 21.2524 63.5039 21.1671 61.6942 21.1396C58.1089 21.0852 53.16 21.2547 47.9278 22.208C37.9733 24.0219 23.8687 29.3838 20.0679 44.9555L27.8397 46.8525ZM66.9442 29.4452L66.9442 37.4452C76.1238 37.4453 81.5401 38.7752 84.772 40.6489C87.5594 42.2649 89.4131 44.679 90.483 49.173L98.2655 47.3202L106.048 45.4675C104.163 37.5486 100.073 31.0252 92.7969 26.8069C85.9655 22.8464 77.1987 21.4453 66.9443 21.4452L66.9442 29.4452ZM98.2655 47.3202L101.902 54.4462C107.145 51.7706 112.584 49.3064 117.448 47.6742L114.903 40.0898L112.358 32.5053C106.442 34.4903 100.22 37.3416 94.6294 40.1943L98.2655 47.3202ZM114.903 40.0898L117.447 47.6745C115.776 48.2349 113.818 47.9551 112.281 46.764C110.674 45.5186 109.784 43.4491 110.086 41.3806L118.002 42.5351L125.918 43.6896C127.142 35.2945 118.98 30.2843 112.359 32.505L114.903 40.0898ZM118.002 42.5351L110.086 41.3793C109.502 45.3806 107.47 51.8655 104.499 57.2659C103.024 59.9461 101.521 61.9827 100.166 63.268C98.771 64.5918 98.1661 64.5408 98.3508 64.5331L98.6815 72.5263L99.0123 80.5194C104.148 80.3069 108.251 77.653 111.178 74.8755C114.147 72.0596 116.581 68.4966 118.517 64.9786C122.366 57.9828 125.044 49.6769 125.918 43.6908L118.002 42.5351ZM98.6815 72.5263L98.3511 64.5331C97.0654 64.5863 95.8232 64.5242 94.6472 64.3656L93.578 72.2939L92.5088 80.2221C94.6123 80.5058 96.7911 80.6113 99.012 80.5195L98.6815 72.5263ZM93.578 72.2939L86.9577 67.8026C84.174 71.9059 79.7533 76.67 72.7345 80.71L76.7255 87.6435L80.7164 94.5769C90.024 89.2194 96.1819 82.7055 100.198 76.7852L93.578 72.2939ZM76.7255 87.6435L72.7346 80.71C66.9375 84.0468 60.1222 84.2533 54.7707 81.3134L50.9188 88.3251L47.067 95.3368C57.8158 101.242 70.5927 100.404 80.7163 94.5769L76.7255 87.6435ZM50.9188 88.3251L54.7707 81.3135C49.9324 78.6556 44.5112 74.4741 40.3502 67.9633L33.6093 72.2714L26.8683 76.5795C32.793 85.8499 40.4644 91.7097 47.067 95.3368L50.9188 88.3251ZM33.6093 72.2714L32.4946 64.3494C31.2838 64.5198 30.0031 64.5879 28.677 64.5331L28.3466 72.5263L28.0161 80.5195C30.3103 80.6143 32.5584 80.4981 34.724 80.1934L33.6093 72.2714ZM28.3466 72.5263L28.6774 64.5331C28.862 64.5408 28.2571 64.5918 26.8618 63.268C25.507 61.9827 24.004 59.9461 22.5294 57.2659C19.5582 51.8655 17.5265 45.3806 16.9423 41.3793L9.02626 42.5351L1.11019 43.6908C1.98417 49.6769 4.66204 57.9828 8.51109 64.9786C10.4466 68.4966 12.8815 72.0596 15.8497 74.8755C18.7773 77.653 22.8805 80.3069 28.0158 80.5194L28.3466 72.5263ZM9.02626 42.5351L16.9425 41.3806C17.2442 43.4491 16.3546 45.5186 14.7473 46.764C13.2101 47.9551 11.2517 48.2349 9.58091 47.6745L12.1249 40.0898L14.6689 32.505C8.04781 30.2843 -0.114333 35.2945 1.11 43.6896L9.02626 42.5351ZM12.1249 40.0898L9.58004 47.6742C14.1645 49.2125 19.266 51.4925 24.2421 53.9979L27.8397 46.8525L31.4374 39.7071C26.1089 37.0242 20.2559 34.3797 14.6697 32.5053L12.1249 40.0898ZM54.016 62.9993H62.016C62.016 56.3308 56.6102 50.925 49.9418 50.925V58.925V66.925C47.7737 66.925 46.016 65.1674 46.016 62.9993H54.016ZM49.9418 58.925V50.925C43.2734 50.925 37.8676 56.3308 37.8676 62.9993H45.8676H53.8676C53.8676 65.1674 52.11 66.925 49.9418 66.925V58.925ZM45.8676 62.9993H37.8676C37.8676 69.6677 43.2734 75.0735 49.9418 75.0735V67.0735V59.0735C52.11 59.0735 53.8676 60.8311 53.8676 62.9993H45.8676ZM49.9418 67.0735V75.0735C56.6102 75.0735 62.016 69.6677 62.016 62.9993H54.016H46.016C46.016 60.8311 47.7737 59.0735 49.9418 59.0735V67.0735ZM82.016 62.9993H90.016C90.016 56.3308 84.6103 50.925 77.9418 50.925V58.925V66.925C75.7737 66.925 74.016 65.1674 74.016 62.9993H82.016ZM77.9418 58.925V50.925C71.2734 50.925 65.8676 56.3308 65.8676 62.9993H73.8676H81.8676C81.8676 65.1674 80.11 66.925 77.9418 66.925V58.925ZM73.8676 62.9993H65.8676C65.8676 69.6677 71.2734 75.0735 77.9418 75.0735V67.0735V59.0735C80.11 59.0735 81.8676 60.8311 81.8676 62.9993H73.8676ZM77.9418 67.0735V75.0735C84.6103 75.0735 90.016 69.6677 90.016 62.9993H82.016H74.016C74.016 60.8311 75.7737 59.0735 77.9418 59.0735V67.0735ZM69.5087 56.8401L62.4998 60.697C65.3696 65.912 71.9232 67.8123 77.1373 64.9434L73.2808 57.9343L69.4243 50.9252C71.9508 49.5351 75.1266 50.4556 76.5175 52.9832L69.5087 56.8401ZM73.2808 57.9343L77.137 64.9436L81.8891 62.3292L78.0329 55.3199L74.1767 48.3106L69.4246 50.925L73.2808 57.9343ZM78.0329 55.3199L81.8894 62.329C87.1056 59.459 89.0046 52.9048 86.1363 47.6915L79.1271 51.5478L72.1179 55.4041C70.7283 52.8783 71.6478 49.7021 74.1764 48.3108L78.0329 55.3199ZM79.1271 51.5478L86.1362 47.6912C83.2663 42.4753 76.7122 40.5758 71.4984 43.4445L75.3549 50.4536L79.2115 57.4626C76.6854 58.8525 73.5091 57.9326 72.118 55.4043L79.1271 51.5478ZM75.3549 50.4536L71.4988 43.4443L66.7467 46.0587L70.6029 53.068L74.459 60.0772L79.2111 57.4628L75.3549 50.4536ZM70.6029 53.068L66.7459 46.0591C61.5309 48.9289 59.6307 55.4825 62.4996 60.6966L69.5087 56.8401L76.5177 52.9836C77.9079 55.5101 76.9873 58.6859 74.4598 60.0768L70.6029 53.068ZM58.1096 56.8446L51.1087 52.9732C52.5041 50.4498 55.6817 49.534 58.2066 50.93L54.3357 57.9312L50.4649 64.9323C55.6742 67.8125 62.2306 65.9238 65.1105 60.716L58.1096 56.8446ZM54.3357 57.9312L58.2064 50.9299L53.4773 48.3154L49.6066 55.3166L45.7359 62.3179L50.465 64.9324L54.3357 57.9312ZM49.6066 55.3166L53.4788 48.3162C56.0051 49.7135 56.9163 52.8922 55.522 55.4137L48.521 51.5426L41.52 47.6715C38.6415 52.8773 40.5241 59.4351 45.7345 62.3171L49.6066 55.3166ZM48.521 51.5426L55.5219 55.414C54.1268 57.9368 50.949 58.8535 48.4235 57.4569L52.2948 50.456L56.1662 43.4551C50.9561 40.574 44.3997 42.4638 41.5201 47.6712L48.521 51.5426ZM52.2948 50.456L48.4233 57.4568L53.1515 60.0715L57.023 53.0707L60.8945 46.0699L56.1664 43.4552L52.2948 50.456ZM57.023 53.0707L53.1516 60.0716C50.6282 58.6762 49.7124 55.4986 51.1084 52.9737L58.1096 56.8446L65.1108 60.7155C67.9909 55.5061 66.1022 48.9497 60.8944 46.0699L57.023 53.0707ZM74.7211 75.4143L69.9756 68.9738C65.9675 71.9271 60.5395 72.0547 56.397 69.293L51.9594 75.9494L47.5218 82.6058C57.2673 89.1028 70.0373 88.8026 79.4667 81.8548L74.7211 75.4143ZM51.9594 75.9494L56.3948 69.2916L55.7132 68.8375L51.2778 75.4953L46.8424 82.1532L47.524 82.6073L51.9594 75.9494ZM51.2778 75.4953L55.7154 68.8389C58.013 70.3707 58.6339 73.4751 57.1021 75.7728L50.4457 71.3352L43.7893 66.8976C40.4195 71.9524 41.7853 78.7818 46.8402 82.1517L51.2778 75.4953ZM50.4457 71.3352L57.1021 75.7728C55.5704 78.0704 52.4659 78.6913 50.1683 77.1595L54.6059 70.5031L59.0435 63.8467C53.9887 60.4769 47.1592 61.8428 43.7893 66.8976L50.4457 71.3352ZM54.6059 70.5031L50.1705 77.161L50.8521 77.6151L55.2875 70.9572L59.7229 64.2994L59.0413 63.8453L54.6059 70.5031ZM55.2875 70.9572L50.8499 77.6137C58.4941 82.7097 68.5114 82.4748 75.9081 77.0246L71.1625 70.5842L66.4169 64.1438C64.442 65.5989 61.7668 65.662 59.7251 64.3008L55.2875 70.9572ZM71.1625 70.5842L75.9078 77.0249C73.6842 78.6631 70.5541 78.1881 68.9164 75.9655L75.3569 71.2199L81.7973 66.4743C78.194 61.5842 71.3085 60.5398 66.4173 64.1435L71.1625 70.5842ZM75.3569 71.2199L68.9162 75.9652C67.2779 73.7416 67.753 70.6115 69.9755 68.9738L74.7211 75.4143L79.4667 81.8547C84.3569 78.2514 85.4012 71.366 81.7976 66.4747L75.3569 71.2199ZM61.9855 21.8087L55.2199 26.0781C55.9874 27.2942 56.3925 29.4112 55.1635 32.4897C53.9384 35.5585 51.2518 38.9648 47.1269 41.5678L51.3963 48.3334L55.6656 55.0989C62.3348 50.8904 67.4157 44.9532 70.0232 38.422C72.6267 31.9004 72.9294 24.1609 68.751 17.5394L61.9855 21.8087ZM51.3963 48.3334L47.1269 41.5678C43.002 44.1708 38.771 45.1297 35.4737 44.9148C32.166 44.6992 30.4295 43.4223 29.6621 42.2061L22.8965 46.4755L16.1309 50.7448C20.3094 57.3663 27.4257 60.4241 34.4329 60.8809C41.4505 61.3384 48.9964 59.3075 55.6656 55.0989L51.3963 48.3334ZM22.8965 46.4755L29.6621 42.2061C28.8946 40.99 28.4894 38.8729 29.7184 35.7945C30.9435 32.7257 33.6302 29.3193 37.755 26.7164L33.4857 19.9508L29.2164 13.1853C22.5471 17.3938 17.4662 23.3309 14.8588 29.8622C12.2553 36.3838 11.9525 44.1233 16.1309 50.7448L22.8965 46.4755ZM33.4857 19.9508L37.755 26.7164C41.8799 24.1134 46.111 23.1544 49.4083 23.3694C52.716 23.585 54.4525 24.8619 55.2199 26.0781L61.9855 21.8087L68.751 17.5394C64.5726 10.9179 57.4563 7.86008 50.4491 7.40328C43.4315 6.9458 35.8856 8.97671 29.2164 13.1853L33.4857 19.9508ZM64.896 21.8087L58.1305 17.5394C53.952 24.1609 54.2548 31.9004 56.8583 38.422C59.4657 44.9532 64.5467 50.8904 71.2159 55.0989L75.4852 48.3334L79.7546 41.5678C75.6297 38.9648 72.943 35.5585 71.7179 32.4897C70.4889 29.4112 70.8941 27.2942 71.6616 26.0781L64.896 21.8087ZM75.4852 48.3334L71.2159 55.0989C77.8851 59.3075 85.431 61.3384 92.4486 60.8809C99.4558 60.4241 106.572 57.3663 110.751 50.7448L103.985 46.4755L97.2194 42.2061C96.452 43.4223 94.7155 44.6992 91.4078 44.9148C88.1105 45.1297 83.8795 44.1708 79.7546 41.5678L75.4852 48.3334ZM103.985 46.4755L110.751 50.7448C114.929 44.1233 114.626 36.3838 112.023 29.8622C109.415 23.3309 104.334 17.3938 97.6651 13.1853L93.3958 19.9508L89.1264 26.7164C93.2513 29.3193 95.9379 32.7257 97.1631 35.7945C98.392 38.873 97.9869 40.99 97.2194 42.2061L103.985 46.4755ZM93.3958 19.9508L97.6651 13.1853C90.9959 8.97671 83.45 6.9458 76.4324 7.40328C69.4252 7.86008 62.3089 10.9179 58.1305 17.5394L64.896 21.8087L71.6616 26.0781C72.429 24.8619 74.1655 23.585 77.4732 23.3694C80.7705 23.1544 85.0015 24.1134 89.1264 26.7164L93.3958 19.9508Z" fill="#E08FB5" mask="url(#path-1-outside-1_140_906)"/>
<ellipse cx="63.4414" cy="45.3826" rx="43.5" ry="36" fill="#DBDAD0"/>
<ellipse cx="30.9414" cy="71.8826" rx="19" ry="17.5" fill="#DBDAD0"/>
<ellipse cx="94.9414" cy="71.8826" rx="19" ry="17.5" fill="#DBDAD0"/>
<path d="M27.8398 47.2349C33.0928 25.7138 66.9443 29.8276 66.9443 29.8276C86.3784 29.8277 95.3105 35.2897 98.2656 47.7026C103.683 44.9385 109.513 42.2808 114.903 40.4722C116.589 39.9069 118.259 41.1567 118.002 42.9175C116.544 52.9048 108.583 72.4989 98.6816 72.9087C96.9284 72.9812 95.2179 72.8974 93.5781 72.6763C90.178 77.6881 84.8887 83.3271 76.7256 88.0259C68.7652 92.6078 58.9691 93.1298 50.9189 88.7075C45.1985 85.565 38.6523 80.5444 33.6094 72.6538C31.9212 72.8913 30.1568 72.9835 28.3467 72.9087C18.4454 72.4989 10.4846 52.9048 9.02637 42.9175C8.76958 41.1567 10.4398 39.9069 12.125 40.4722C17.2103 42.1785 22.6876 44.6407 27.8398 47.2349Z" fill="#A0BD92"/>
<path d="M27.8398 47.2349C33.0928 25.7138 66.9443 29.8276 66.9443 29.8276C86.3784 29.8277 95.3105 35.2897 98.2656 47.7026C103.683 44.9385 109.513 42.2808 114.903 40.4722C116.589 39.9069 118.259 41.1567 118.002 42.9175C116.544 52.9048 108.583 72.4989 98.6816 72.9087C96.9284 72.9812 95.2179 72.8974 93.5781 72.6763C90.178 77.6881 84.8887 83.3271 76.7256 88.0259C68.7652 92.6078 58.9691 93.1298 50.9189 88.7075C45.1985 85.565 38.6523 80.5444 33.6094 72.6538C31.9212 72.8913 30.1568 72.9835 28.3467 72.9087C18.4454 72.4989 10.4846 52.9048 9.02637 42.9175C8.76958 41.1567 10.4398 39.9069 12.125 40.4722C17.2103 42.1785 22.6876 44.6407 27.8398 47.2349Z" fill="url(#paint0_linear_140_906)" fill-opacity="0.4"/>
<circle cx="49.9419" cy="66.9993" r="4.53713" fill="#1B1B1B" stroke="#1B1B1B" stroke-width="0.925747"/>
<circle cx="77.9419" cy="66.9993" r="4.53713" fill="#1B1B1B" stroke="#1B1B1B" stroke-width="0.925747"/>
<path d="M76.6941 56.8864L71.9419 59.5011" stroke="#DBDAD0" stroke-width="5.55448" stroke-linecap="round" style="mix-blend-mode:multiply"/>
<path d="M50.951 56.8862L55.6794 59.501" stroke="#DBDAD0" stroke-width="5.55448" stroke-linecap="round" style="mix-blend-mode:multiply"/>
<path d="M72.9419 76.9993V76.9993C67.2396 81.201 59.5168 81.3826 53.6234 77.4536L52.9419 76.9993" stroke="#1B1B1B" stroke-width="6" stroke-linecap="round" stroke-linejoin="round"/>
<ellipse cx="42.4412" cy="34.5247" rx="23.1106" ry="16.7806" transform="rotate(-32.2536 42.4412 34.5247)" fill="#DBDAD0"/>
<ellipse cx="23.1106" cy="16.7806" rx="23.1106" ry="16.7806" transform="matrix(-0.845694 -0.533668 -0.533668 0.845694 112.94 32.6667)" fill="#DBDAD0"/>
<path d="M33 48V80" stroke="#DBDAD0" stroke-width="14"/>
<path d="M95 48V80" stroke="#DBDAD0" stroke-width="14"/>
</g>
<defs>
<filter id="filter0_g_140_906" x="0.327061" y="0.34" width="126.374" height="99.6966" filterUnits="userSpaceOnUse" color-interpolation-filters="sRGB">
<feFlood flood-opacity="0" result="BackgroundImageFix"/>
<feBlend mode="normal" in="SourceGraphic" in2="BackgroundImageFix" result="shape"/>
<feTurbulence type="fractalNoise" baseFrequency="0.71942448616027832 0.71942448616027832" numOctaves="3" seed="4468" />
<feDisplacementMap in="shape" scale="1.3200000524520874" xChannelSelector="R" yChannelSelector="G" result="displacedImage" width="100%" height="100%" />
<feMerge result="effect1_texture_140_906">
<feMergeNode in="displacedImage"/>
</feMerge>
</filter>
<linearGradient id="paint0_linear_140_906" x1="63.9427" y1="38.5804" x2="62.9435" y2="92.641" gradientUnits="userSpaceOnUse">
<stop stop-color="#FF60DC"/>
<stop offset="0.489881" stop-opacity="0"/>
</linearGradient>
</defs>
</svg>
