<svg width="150" height="44" viewBox="0 0 150 44" fill="none" xmlns="http://www.w3.org/2000/svg">
<g filter="url(#filter0_g_75_29)">
<path d="M5.03068 1.44447V38.3889H11.0307V42H0.864014V1.44447H5.03068Z" fill="#DBDAD0"/>
<path d="M5.03068 1.44447V38.3889H11.0307V42H0.864014V1.44447H5.03068Z" fill="url(#paint0_linear_75_29)" fill-opacity="0.37"/>
<path d="M28.3927 42H23.726L22.2815 30.6111H18.1149L17.3927 42H12.3927L18.5038 7.05558L16.1149 1.44447H21.6149L28.3927 42ZM19.4482 10.3334L18.226 29.5H22.1149L21.1149 21.4445L20.0593 10.3334H19.4482Z" fill="#DBDAD0"/>
<path d="M28.3927 42H23.726L22.2815 30.6111H18.1149L17.3927 42H12.3927L18.5038 7.05558L16.1149 1.44447H21.6149L28.3927 42ZM19.4482 10.3334L18.226 29.5H22.1149L21.1149 21.4445L20.0593 10.3334H19.4482Z" fill="url(#paint1_linear_75_29)" fill-opacity="0.37"/>
<path d="M35.575 1.44447C40.3527 1.44447 43.1305 3.38892 43.1305 8.44447V34.5C43.1305 39.9445 39.3527 42 34.8527 42H30.575V1.44447H35.575ZM38.9638 35.0556V9.83336C38.9638 6.22225 37.9638 5.22225 35.1861 5.22225H34.7416V38.2222H35.575C38.2972 38.2222 38.9638 37 38.9638 35.0556Z" fill="#DBDAD0"/>
<path d="M35.575 1.44447C40.3527 1.44447 43.1305 3.38892 43.1305 8.44447V34.5C43.1305 39.9445 39.3527 42 34.8527 42H30.575V1.44447H35.575ZM38.9638 35.0556V9.83336C38.9638 6.22225 37.9638 5.22225 35.1861 5.22225H34.7416V38.2222H35.575C38.2972 38.2222 38.9638 37 38.9638 35.0556Z" fill="url(#paint2_linear_75_29)" fill-opacity="0.37"/>
<path d="M55.4289 1.44447H60.4289L54.6511 30.7778V42H50.4845V30.7222L44.9845 1.44447H49.6511L51.8733 16.8334L52.9289 26.6667H53.54L55.4289 1.44447Z" fill="#DBDAD0"/>
<path d="M55.4289 1.44447H60.4289L54.6511 30.7778V42H50.4845V30.7222L44.9845 1.44447H49.6511L51.8733 16.8334L52.9289 26.6667H53.54L55.4289 1.44447Z" fill="url(#paint3_linear_75_29)" fill-opacity="0.37"/>
<path d="M75.3529 1.44447V42H71.1863V1.44447H75.3529Z" fill="#DBDAD0"/>
<path d="M75.3529 1.44447V42H71.1863V1.44447H75.3529Z" fill="url(#paint4_linear_75_29)" fill-opacity="0.37"/>
<path d="M83.6503 42.5556C80.3725 42.5556 78.8169 40.8334 78.8169 37.3889C78.8169 33.8334 78.928 29.7778 79.428 26.7222H83.428C80.928 31.5 79.8725 34.9445 79.8725 36.7222C79.8725 38.3334 80.928 38.7778 83.6503 38.7778C85.4836 38.7778 85.928 37.6667 85.928 36.2222C85.928 28.8889 78.5391 15.8889 78.5391 7.88892C78.5391 2.94447 81.4836 0.888916 84.9836 0.888916C87.8725 0.888916 89.2614 2.61114 89.2614 6.05558C89.2614 8.16669 89.2614 12.3889 88.6503 16.1667H84.9836C87.4836 10.1111 88.2058 8.11114 88.2058 6.61114C88.2058 5.11114 87.3169 4.66669 84.9836 4.66669C83.1503 4.66669 82.7058 5.7778 82.7058 7.22225C82.7058 13.5 90.0947 29.2778 90.0947 35.7222C90.0947 40.5 87.1503 42.5556 83.6503 42.5556Z" fill="#DBDAD0"/>
<path d="M83.6503 42.5556C80.3725 42.5556 78.8169 40.8334 78.8169 37.3889C78.8169 33.8334 78.928 29.7778 79.428 26.7222H83.428C80.928 31.5 79.8725 34.9445 79.8725 36.7222C79.8725 38.3334 80.928 38.7778 83.6503 38.7778C85.4836 38.7778 85.928 37.6667 85.928 36.2222C85.928 28.8889 78.5391 15.8889 78.5391 7.88892C78.5391 2.94447 81.4836 0.888916 84.9836 0.888916C87.8725 0.888916 89.2614 2.61114 89.2614 6.05558C89.2614 8.16669 89.2614 12.3889 88.6503 16.1667H84.9836C87.4836 10.1111 88.2058 8.11114 88.2058 6.61114C88.2058 5.11114 87.3169 4.66669 84.9836 4.66669C83.1503 4.66669 82.7058 5.7778 82.7058 7.22225C82.7058 13.5 90.0947 29.2778 90.0947 35.7222C90.0947 40.5 87.1503 42.5556 83.6503 42.5556Z" fill="url(#paint5_linear_75_29)" fill-opacity="0.37"/>
<path d="M99.1268 42.5556C95.2935 42.5556 93.1824 40.8334 93.1824 36.0556V8.38892C93.1824 2.94447 96.1824 0.888916 99.7935 0.888916C103.682 0.888916 105.738 2.61114 105.738 7.38892V35.0556C105.738 40.5 102.738 42.5556 99.1268 42.5556ZM99.4046 4.66669C97.7379 4.66669 97.349 5.88891 97.349 7.83336V34.1667C97.349 38.1667 98.4602 38.7778 99.7935 38.7778C101.238 38.7778 101.571 37.5556 101.571 35.6111V9.27781C101.571 5.27781 100.516 4.66669 99.4046 4.66669Z" fill="#DBDAD0"/>
<path d="M99.1268 42.5556C95.2935 42.5556 93.1824 40.8334 93.1824 36.0556V8.38892C93.1824 2.94447 96.1824 0.888916 99.7935 0.888916C103.682 0.888916 105.738 2.61114 105.738 7.38892V35.0556C105.738 40.5 102.738 42.5556 99.1268 42.5556ZM99.4046 4.66669C97.7379 4.66669 97.349 5.88891 97.349 7.83336V34.1667C97.349 38.1667 98.4602 38.7778 99.7935 38.7778C101.238 38.7778 101.571 37.5556 101.571 35.6111V9.27781C101.571 5.27781 100.516 4.66669 99.4046 4.66669Z" fill="url(#paint6_linear_75_29)" fill-opacity="0.37"/>
<path d="M113.718 1.44447V38.3889H119.718V42H109.552V1.44447H113.718Z" fill="#DBDAD0"/>
<path d="M113.718 1.44447V38.3889H119.718V42H109.552V1.44447H113.718Z" fill="url(#paint7_linear_75_29)" fill-opacity="0.37"/>
<path d="M127.454 1.44447C132.232 1.44447 135.009 3.38892 135.009 8.44447V34.5C135.009 39.9445 131.232 42 126.732 42H122.454V1.44447H127.454ZM130.843 35.0556V9.83336C130.843 6.22225 129.843 5.22225 127.065 5.22225H126.621V38.2222H127.454C130.176 38.2222 130.843 37 130.843 35.0556Z" fill="#DBDAD0"/>
<path d="M127.454 1.44447C132.232 1.44447 135.009 3.38892 135.009 8.44447V34.5C135.009 39.9445 131.232 42 126.732 42H122.454V1.44447H127.454ZM130.843 35.0556V9.83336C130.843 6.22225 129.843 5.22225 127.065 5.22225H126.621V38.2222H127.454C130.176 38.2222 130.843 37 130.843 35.0556Z" fill="url(#paint8_linear_75_29)" fill-opacity="0.37"/>
<path d="M142.99 21.2222V38.3889H148.99V42H138.823V1.44447H148.434V5.05558H142.99V20H146.934V21.2222H142.99Z" fill="#DBDAD0"/>
<path d="M142.99 21.2222V38.3889H148.99V42H138.823V1.44447H148.434V5.05558H142.99V20H146.934V21.2222H142.99Z" fill="url(#paint9_linear_75_29)" fill-opacity="0.37"/>
</g>
<defs>
<filter id="filter0_g_75_29" x="0.264014" y="0.288916" width="149.326" height="42.8667" filterUnits="userSpaceOnUse" color-interpolation-filters="sRGB">
<feFlood flood-opacity="0" result="BackgroundImageFix"/>
<feBlend mode="normal" in="SourceGraphic" in2="BackgroundImageFix" result="shape"/>
<feTurbulence type="fractalNoise" baseFrequency="1.25 1.25" numOctaves="3" seed="2364" />
<feDisplacementMap in="shape" scale="1.2000000476837158" xChannelSelector="R" yChannelSelector="G" result="displacedImage" width="100%" height="100%" />
<feMerge result="effect1_texture_75_29">
<feMergeNode in="displacedImage"/>
</feMerge>
</filter>
<linearGradient id="paint0_linear_75_29" x1="75" y1="-2" x2="75" y2="45" gradientUnits="userSpaceOnUse">
<stop stop-opacity="0.8"/>
<stop offset="0.476748" stop-color="white" stop-opacity="0"/>
<stop offset="1" stop-opacity="0.8"/>
</linearGradient>
<linearGradient id="paint1_linear_75_29" x1="75" y1="-2" x2="75" y2="45" gradientUnits="userSpaceOnUse">
<stop stop-opacity="0.8"/>
<stop offset="0.476748" stop-color="white" stop-opacity="0"/>
<stop offset="1" stop-opacity="0.8"/>
</linearGradient>
<linearGradient id="paint2_linear_75_29" x1="75" y1="-2" x2="75" y2="45" gradientUnits="userSpaceOnUse">
<stop stop-opacity="0.8"/>
<stop offset="0.476748" stop-color="white" stop-opacity="0"/>
<stop offset="1" stop-opacity="0.8"/>
</linearGradient>
<linearGradient id="paint3_linear_75_29" x1="75" y1="-2" x2="75" y2="45" gradientUnits="userSpaceOnUse">
<stop stop-opacity="0.8"/>
<stop offset="0.476748" stop-color="white" stop-opacity="0"/>
<stop offset="1" stop-opacity="0.8"/>
</linearGradient>
<linearGradient id="paint4_linear_75_29" x1="75" y1="-2" x2="75" y2="45" gradientUnits="userSpaceOnUse">
<stop stop-opacity="0.8"/>
<stop offset="0.476748" stop-color="white" stop-opacity="0"/>
<stop offset="1" stop-opacity="0.8"/>
</linearGradient>
<linearGradient id="paint5_linear_75_29" x1="75" y1="-2" x2="75" y2="45" gradientUnits="userSpaceOnUse">
<stop stop-opacity="0.8"/>
<stop offset="0.476748" stop-color="white" stop-opacity="0"/>
<stop offset="1" stop-opacity="0.8"/>
</linearGradient>
<linearGradient id="paint6_linear_75_29" x1="75" y1="-2" x2="75" y2="45" gradientUnits="userSpaceOnUse">
<stop stop-opacity="0.8"/>
<stop offset="0.476748" stop-color="white" stop-opacity="0"/>
<stop offset="1" stop-opacity="0.8"/>
</linearGradient>
<linearGradient id="paint7_linear_75_29" x1="75" y1="-2" x2="75" y2="45" gradientUnits="userSpaceOnUse">
<stop stop-opacity="0.8"/>
<stop offset="0.476748" stop-color="white" stop-opacity="0"/>
<stop offset="1" stop-opacity="0.8"/>
</linearGradient>
<linearGradient id="paint8_linear_75_29" x1="75" y1="-2" x2="75" y2="45" gradientUnits="userSpaceOnUse">
<stop stop-opacity="0.8"/>
<stop offset="0.476748" stop-color="white" stop-opacity="0"/>
<stop offset="1" stop-opacity="0.8"/>
</linearGradient>
<linearGradient id="paint9_linear_75_29" x1="75" y1="-2" x2="75" y2="45" gradientUnits="userSpaceOnUse">
<stop stop-opacity="0.8"/>
<stop offset="0.476748" stop-color="white" stop-opacity="0"/>
<stop offset="1" stop-opacity="0.8"/>
</linearGradient>
</defs>
</svg>
