<svg width="46" height="231" viewBox="0 0 46 231" fill="none" xmlns="http://www.w3.org/2000/svg">
<path fill-rule="evenodd" clip-rule="evenodd" d="M9.28906 0C11.4981 9.54042e-05 13.2891 1.79092 13.2891 4V12H16.3555V4C16.3555 1.79087 18.1463 1.75024e-05 20.3555 0H25.6445C27.8536 7.78815e-05 29.6445 1.79091 29.6445 4V12H32.7109V4C32.7109 1.79092 34.5019 0.000100995 36.7109 0H42C44.2091 0 46 1.79086 46 4V227C46 229.209 44.2091 231 42 231H4C1.79086 231 0 229.209 0 227V4C0 1.79086 1.79086 0 4 0H9.28906Z" fill="#D9D9D9"/>
<path fill-rule="evenodd" clip-rule="evenodd" d="M9.28906 0C11.4981 9.54042e-05 13.2891 1.79092 13.2891 4V12H16.3555V4C16.3555 1.79087 18.1463 1.75024e-05 20.3555 0H25.6445C27.8536 7.78815e-05 29.6445 1.79091 29.6445 4V12H32.7109V4C32.7109 1.79092 34.5019 0.000100995 36.7109 0H42C44.2091 0 46 1.79086 46 4V227C46 229.209 44.2091 231 42 231H4C1.79086 231 0 229.209 0 227V4C0 1.79086 1.79086 0 4 0H9.28906Z" fill="url(#paint0_linear_156_1491)" fill-opacity="0.2"/>
<path d="M0 144H46" stroke="#787B85" stroke-width="1.5"/>
<path d="M0 56H46" stroke="#787B85" stroke-width="1.5"/>
<path d="M0 78H46" stroke="#787B85" stroke-width="1.5"/>
<path d="M0 166H46" stroke="#787B85" stroke-width="1.5"/>
<path d="M0 35H46" stroke="#787B85" stroke-width="1.5"/>
<path d="M0 188H46" stroke="#787B85" stroke-width="1.5"/>
<path d="M0 100H46" stroke="#787B85" stroke-width="1.5"/>
<path d="M0 210H46" stroke="#787B85" stroke-width="1.5"/>
<path d="M0 67H46" stroke="#787B85" stroke-width="1.5"/>
<path d="M0 122H46" stroke="#787B85" stroke-width="1.5"/>
<path d="M0 89H46" stroke="#787B85" stroke-width="1.5"/>
<path d="M0 155H46" stroke="#787B85" stroke-width="1.5"/>
<path d="M0 24H46" stroke="#787B85" stroke-width="1.5"/>
<path d="M0 177H46" stroke="#787B85" stroke-width="1.5"/>
<path d="M0 46H46" stroke="#787B85" stroke-width="1.5"/>
<path d="M0 199H46" stroke="#787B85" stroke-width="1.5"/>
<path d="M0 111H46" stroke="#787B85" stroke-width="1.5"/>
<path d="M0 221H46" stroke="#787B85" stroke-width="1.5"/>
<path d="M0 133H46" stroke="#787B85" stroke-width="1.5"/>
<g style="mix-blend-mode:soft-light" opacity="0.64">
<rect x="4" y="28" width="14" height="111" rx="7" fill="#DBDAD0"/>
</g>
<g style="mix-blend-mode:multiply" opacity="0.44">
<path d="M9 3C9 1.89543 9.89543 1 11 1V1C12.1046 1 13 1.89543 13 3V12H9V3Z" fill="#AFB1C1"/>
</g>
<g style="mix-blend-mode:multiply" opacity="0.44">
<path d="M26 3C26 1.89543 26.8954 1 28 1V1C29.1046 1 30 1.89543 30 3V12H26V3Z" fill="#AFB1C1"/>
</g>
<g style="mix-blend-mode:multiply" opacity="0.44">
<path d="M42 3C42 1.89543 42.8954 1 44 1V1C45.1046 1 46 1.89543 46 3V12H42V3Z" fill="#AFB1C1"/>
</g>
<g style="mix-blend-mode:soft-light" opacity="0.54">
<rect x="4" y="142" width="14" height="12" rx="6" fill="#DBDAD0"/>
</g>
<g style="mix-blend-mode:soft-light" opacity="0.34">
<rect x="4" y="179" width="14" height="44" rx="7" fill="#DBDAD0"/>
</g>
<defs>
<linearGradient id="paint0_linear_156_1491" x1="38" y1="-0.5" x2="23" y2="231" gradientUnits="userSpaceOnUse">
<stop stop-color="white" stop-opacity="0"/>
<stop offset="0.274038" stop-color="#68D4F8" stop-opacity="0.3"/>
<stop offset="0.997613" stop-color="#010458"/>
</linearGradient>
</defs>
</svg>
