<svg width="356" height="510" viewBox="0 0 356 510" fill="none" xmlns="http://www.w3.org/2000/svg">
<g clip-path="url(#clip0_170_305)">
<g filter="url(#filter0_g_170_305)">
<path d="M53.0254 241.04V245.052L156.587 234.715L254.837 250.22L255.494 248.728C259.262 240.173 254.205 230.319 245.059 228.39L156.587 209.736L61.7327 230.248C56.6517 231.347 53.0254 235.842 53.0254 241.04Z" fill="#F57B35"/>
<path d="M53.0254 241.04V245.052L156.587 234.715L254.837 250.22L255.494 248.728C259.262 240.173 254.205 230.319 245.059 228.39L156.587 209.736L61.7327 230.248C56.6517 231.347 53.0254 235.842 53.0254 241.04Z" fill="black" fill-opacity="0.2"/>
<path d="M358.049 690.156L214.424 272.794L72.0422 262.182L34.0136 709.667H344.129C354.238 709.667 361.339 699.714 358.049 690.156Z" fill="#F57B35"/>
<path d="M358.049 690.156L214.424 272.794L72.0422 262.182L34.0136 709.667H344.129C354.238 709.667 361.339 699.714 358.049 690.156Z" fill="url(#paint0_linear_170_305)" fill-opacity="0.48"/>
<path d="M79.4978 257.714L77.3774 408.294" stroke="#484848" stroke-width="47.6986" stroke-linejoin="round"/>
<path d="M86.7386 331.348L58.1598 352.88C56.769 353.928 54.8056 353.848 53.5447 352.647C29.6989 329.933 47.1624 312.564 53.6302 307.415C54.875 306.424 56.6034 306.531 57.8316 307.543L86.7386 331.348Z" fill="#383838"/>
<path d="M90.9682 307.115C90.9682 307.115 76.8185 295.618 68.8592 281.468V262.012L93.0571 267.318L90.9682 307.115Z" fill="#1B1B1B"/>
<path d="M49.9184 422.116C49.5266 400.451 67.135 382.535 89.2847 382.134C111.434 381.733 129.679 399.001 130.071 420.666C130.463 442.332 112.855 460.249 90.705 460.649C68.5551 461.05 50.3103 443.781 49.9184 422.116Z" fill="#778D71" stroke="#778D71" stroke-width="1.70352"/>
<path d="M211.77 434.462L204.695 349.373L124.792 392.625L81.4581 355.482L87.8147 434.462L211.77 434.462Z" fill="#4D4C4B"/>
<path d="M177.296 200.923H129.54V242.488C129.54 255.676 140.231 266.366 153.418 266.366V266.366C166.605 266.366 177.296 255.676 177.296 242.488V200.923Z" fill="#A0BD92"/>
<path d="M200.011 228.025L113.524 225.265L113.758 230.986C114.671 253.265 132.997 270.856 155.295 270.856V270.856C172.756 270.856 188.356 259.945 194.345 243.543L200.011 228.025Z" fill="#656565"/>
<path d="M177.296 216.91V233.713C168.438 236.481 158.785 234.715 151.48 228.99L130.426 212.488L163.147 215.141L177.296 216.91Z" fill="#1B1B1B"/>
<path d="M141.842 412.35L180.01 642.125H180.298L182.483 707.746C182.549 709.73 184.176 711.305 186.161 711.305H301.776C309.363 711.305 313.164 702.132 307.801 696.766L253.192 642.125H254.512L205.579 401.55L141.842 412.35Z" fill="url(#paint1_linear_170_305)"/>
<path d="M79.7646 501.365V604.558L77.9951 641.402H77.6875L22.3535 696.769C16.9906 702.136 20.7911 711.307 28.3779 711.307H149.447C151.59 711.307 153.279 709.485 153.117 707.348L151.103 680.805L149.083 604.558L146.327 505.02L143.674 405.971L81.7686 356.447L79.7646 501.365Z" fill="url(#paint2_linear_170_305)"/>
<circle cx="243.607" cy="381.21" r="43.3336" fill="#555555"/>
<path d="M185.862 485.862L168.238 503.855C166.151 505.986 165.226 508.997 165.758 511.932L168.386 526.453C168.905 529.319 170.75 531.77 173.36 533.061L196.298 544.409C199.895 546.188 204.231 545.431 207.012 542.537L225.129 523.685C227.174 521.557 228.074 518.576 227.548 515.671L224.945 501.29C224.406 498.316 222.442 495.796 219.689 494.548L196.233 483.919C192.711 482.323 188.567 483.1 185.862 485.862Z" fill="#575757"/>
<path d="M108.617 482.79L88.2291 484.153C83.3965 484.476 79.6417 488.49 79.6417 493.333L79.6416 521.479C79.6416 524.184 80.8324 526.753 82.8972 528.501L102.706 545.272C105.769 547.865 110.159 548.174 113.555 546.034L135.678 532.099C138.175 530.525 139.767 527.849 139.955 524.903L140.891 510.318C141.084 507.302 139.784 504.383 137.413 502.509L114.934 484.751C113.144 483.337 110.893 482.638 108.617 482.79Z" fill="#575757"/>
<path d="M105.243 518.77L101.472 518.071C89.2606 515.81 80.4006 505.159 80.4006 492.74V477.604H107.415L105.243 518.77Z" fill="#1B1B1B"/>
<g style="mix-blend-mode:multiply" opacity="0.4" filter="url(#filter1_g_170_305)">
<ellipse cx="14.7365" cy="13.9178" rx="14.7365" ry="13.9178" transform="matrix(-1 0 0 1 156.955 162.01)" fill="#B0C5B1"/>
</g>
<path d="M98.353 609.279L113.28 388.904C113.607 384.075 117.619 380.325 122.459 380.325H164.971C169.705 380.325 173.666 383.917 174.128 388.628L195.745 609.003C196.276 614.413 192.025 619.102 186.588 619.102H107.533C102.207 619.102 97.9931 614.593 98.353 609.279Z" fill="#DBDAD0"/>
<path d="M147.373 402.815H202.94L230.542 520.723L186.378 519.803L183.189 499.074C182.931 497.395 181.237 496.342 179.616 496.853C169.431 500.066 158.9 492.98 158.039 482.335L153.325 424.039C152.727 416.647 150.706 409.44 147.373 402.815Z" fill="#1B1B1B"/>
<path d="M43.3827 464.499C41.8883 406.276 63.4527 375.975 75.5445 368.809L124.456 391.181C125.852 391.82 126.705 393.257 126.597 394.788L120.85 475.898C120.356 482.874 114.387 488.181 107.402 487.855L65.2318 485.891C53.4581 485.342 43.6851 476.282 43.3827 464.499Z" fill="#707070"/>
<path d="M43.3827 464.499C41.8883 406.276 63.4527 375.975 75.5445 368.809L124.456 391.181C125.852 391.82 126.705 393.257 126.597 394.788L120.85 475.898C120.356 482.874 114.387 488.181 107.402 487.855L65.2318 485.891C53.4581 485.342 43.6851 476.282 43.3827 464.499Z" fill="url(#paint3_linear_170_305)" fill-opacity="0.2"/>
<path d="M271.632 461.551C276.186 406.563 246.97 378.789 230.269 372.501L160.256 398.454C159.478 398.742 158.989 399.516 159.063 400.342L165.566 473.351C166.183 480.284 172.197 485.473 179.146 485.068L250.581 480.904C261.442 480.27 270.734 472.394 271.632 461.551Z" fill="#707070"/>
<path d="M271.632 461.551C276.186 406.563 246.97 378.789 230.269 372.501L160.256 398.454C159.478 398.742 158.989 399.516 159.063 400.342L165.566 473.351C166.183 480.284 172.197 485.473 179.146 485.068L250.581 480.904C261.442 480.27 270.734 472.394 271.632 461.551Z" fill="url(#paint4_linear_170_305)" fill-opacity="0.2"/>
<g style="mix-blend-mode:multiply" opacity="0.4" filter="url(#filter2_g_170_305)">
<ellipse cx="14.7365" cy="13.9178" rx="14.7365" ry="13.9178" transform="matrix(-1 0 0 1 221.509 162.01)" fill="#B0C5B1"/>
</g>
<path d="M58.3191 288.75L68.2531 288.75C71.6122 288.75 74.5452 286.476 75.3818 283.222L82.2411 256.547L50.9585 255.032L50.9585 281.389C50.9585 285.454 54.254 288.75 58.3191 288.75Z" fill="#5C5B5B"/>
<path d="M67.6881 253.862V253.862C64.048 290.288 68.0682 327.072 79.4904 361.851L82.6533 371.482C82.6533 371.482 102.109 397.129 145.443 401.55C180.817 401.55 235.647 371.482 235.647 371.482L234.469 364.562C228.222 327.89 228.621 290.393 235.647 253.862V253.862L177.533 244.78V213.312L152.533 216.842L122.724 211.535V241.826L67.6881 253.862Z" fill="#656565"/>
<path d="M67.6881 253.862V253.862C64.048 290.288 68.0682 327.072 79.4904 361.851L82.6533 371.482C82.6533 371.482 102.109 397.129 145.443 401.55C180.817 401.55 235.647 371.482 235.647 371.482L234.469 364.562C228.222 327.89 228.621 290.393 235.647 253.862V253.862L177.533 244.78V213.312L152.533 216.842L122.724 211.535V241.826L67.6881 253.862Z" fill="url(#paint5_linear_170_305)" fill-opacity="0.2"/>
<path d="M108.743 252.07C108.743 252.07 148.765 286.676 192.196 259.437" stroke="#777777" stroke-width="18.4016" stroke-linecap="square" stroke-linejoin="round"/>
<circle cx="5.30615" cy="5.30615" r="4.45439" transform="matrix(-1 0 0 1 212.671 161.917)" fill="#1B1B1B" stroke="#1B1B1B" stroke-width="1.70352"/>
<path d="M186.21 227.331L183.092 239.246C181.267 246.221 174.073 250.34 167.134 248.383L164.048 247.512C150.753 243.763 138.386 237.282 127.736 228.484L126.065 227.104C123.949 225.356 122.724 222.755 122.724 220.011L122.724 213.732L155.303 226.68C156.384 227.11 157.537 227.331 158.701 227.331H186.21Z" fill="#1B1B1B"/>
<circle cx="5.30615" cy="5.30615" r="4.45439" transform="matrix(-1 0 0 1 172.429 161.917)" fill="#1B1B1B" stroke="#1B1B1B" stroke-width="1.70352"/>
<path d="M164.455 148.983L172.86 153.608" stroke="#DBDAD0" stroke-width="10.2211" stroke-linecap="round" style="mix-blend-mode:multiply"/>
<path d="M209.118 148.983L200.755 153.608" stroke="#DBDAD0" stroke-width="10.2211" stroke-linecap="round" style="mix-blend-mode:multiply"/>
<path d="M171.091 191.073V191.073C177.768 194.408 185.642 194.413 192.316 191.073V191.073" stroke="#1B1B1B" stroke-width="5.52047" stroke-linecap="round" stroke-linejoin="round"/>
<path d="M249.695 275.869L297.846 303.035C302.678 305.761 304.016 312.111 300.695 316.555L253.412 379.834" stroke="#555555" stroke-width="57.0449" stroke-linejoin="round"/>
<path d="M254.295 333.834L296.619 366.037" stroke="#444443" stroke-width="18.4016" stroke-linecap="round"/>
<path d="M264.416 317.46L315.941 347.823" stroke="#1B1B1B" stroke-width="9.20079"/>
<path d="M251.984 311.833L278.53 265.029C280.774 261.071 278.927 256.045 274.653 254.484L234.974 239.986L231.462 265.861L229.622 305.425L241.162 314.088C244.712 316.753 249.794 315.694 251.984 311.833Z" fill="url(#paint6_linear_170_305)"/>
<path d="M236.983 312.785L230.542 298.064L229.622 310.025L236.983 312.785Z" fill="#1B1B1B"/>
<path d="M73.2061 340.388L60.3276 350.508L74.1288 344.988L73.2061 340.388Z" fill="#1B1B1B"/>
<path d="M265.034 240.664L188.05 223.425V247.54C188.05 255.605 192.826 262.917 200.337 265.856C210.825 269.959 225.16 275.063 231.317 274.947C250.912 274.58 261.378 260.457 268.558 249.049C270.595 245.813 268.764 241.499 265.034 240.664Z" fill="#4D4C4B"/>
<path d="M41.6131 241.859L121.804 225.265V247.635C121.804 255.906 116.782 263.36 109.004 266.173C98.0575 270.131 83.0851 275.059 76.6563 274.947C56.4953 274.598 45.5958 261.353 38.1123 250.437C35.8807 247.182 37.7484 242.659 41.6131 241.859Z" fill="#4D4C4B"/>
<path d="M86.0184 232.94L106.083 257.4H120.233C121.535 249.589 123.792 231.035 125.176 220.938C125.573 218.039 122.485 215.217 119.656 215.965L88.8756 224.102C84.9895 225.129 83.469 229.833 86.0184 232.94Z" fill="#F57B35"/>
<path d="M118.292 252.98L92.53 221.698L115.532 211.577L128.413 217.097L122.893 252.98H118.292Z" fill="#1B1B1B"/>
<path d="M222.979 235.022L203.296 257.4H189.146C187.836 249.537 185.696 231.797 184.387 222.271C184.004 219.481 186.809 216.726 189.574 217.262L218.852 222.935C224.436 224.017 226.735 230.752 222.979 235.022Z" fill="#F57B35"/>
<path d="M141.294 351.429L120.408 371.479C119.102 372.733 117.219 373.18 115.488 372.648L112.236 371.647C100.362 367.994 88.927 363.04 78.14 356.876C75.3275 355.269 71.8281 357.299 71.8281 360.539L71.8281 360.692C71.8281 362.342 72.7515 363.844 74.2489 364.537C106.826 379.615 177.305 398.23 233.128 360.458C233.811 359.996 234.222 359.217 234.222 358.393L234.222 358.24C234.222 356.214 231.894 355.073 230.292 356.313C215.787 367.55 198.405 374.465 180.146 376.264L172.089 377.058C171.226 377.143 170.366 376.867 169.714 376.296L141.294 351.429Z" fill="#464646" stroke="#464646" stroke-width="11.0409" stroke-linecap="round" stroke-linejoin="round"/>
<path d="M72.2883 370.75L73.6774 371.538C124.109 400.115 185.91 399.816 236.062 370.751V370.751" stroke="#383838" stroke-width="18.4016" stroke-linecap="round" stroke-linejoin="round"/>
<path d="M72.2883 370.75L73.6774 371.538C124.109 400.115 185.91 399.816 236.062 370.751V370.751" stroke="black" stroke-opacity="0.2" stroke-width="18.4016" stroke-linecap="round" stroke-linejoin="round"/>
<path d="M108.3 278.204C97.5924 275.394 94.7747 263.316 98.155 255.531C99.6719 252.037 104.136 252.643 106.512 255.62L115.124 266.411L115.068 271.982C115.03 275.8 111.993 279.173 108.3 278.204Z" fill="#1B1B1B"/>
<path d="M191.435 278.35C179.04 275.617 177.191 261.333 183.015 254.271C184.353 252.649 186.62 252.37 188.652 252.912L199.259 255.74L198.21 272.345C197.979 276.007 195.018 279.14 191.435 278.35Z" fill="#1B1B1B"/>
<g opacity="0.37">
<path d="M145.726 292.43C139.454 310.025 139.454 341.307 139.454 341.307" stroke="#656565" stroke-width="18.4016" stroke-linecap="round" style="mix-blend-mode:screen"/>
</g>
<path d="M109.352 287.918C108.759 286.317 106.494 286.317 105.901 287.918L103.306 294.932L96.51 291.808C94.9582 291.095 93.3563 292.696 94.0696 294.248L97.1946 301.042L90.1809 303.638C88.5792 304.231 88.5792 306.496 90.1809 307.089L97.1946 309.684L94.0696 316.479C93.356 318.031 94.958 319.633 96.51 318.919L103.306 315.794L105.901 322.809C106.494 324.411 108.759 324.411 109.352 322.809L111.948 315.795L118.74 318.919C120.293 319.633 121.896 318.031 121.182 316.479L118.058 309.684L125.072 307.089C126.673 306.496 126.673 304.231 125.072 303.638L118.058 301.042L121.182 294.248C121.895 292.696 120.292 291.094 118.74 291.808L111.948 294.932L109.352 287.918Z" fill="url(#paint7_linear_170_305)"/>
<path d="M260.963 318.2L292.661 270.241C294.015 268.191 296.626 267.287 298.941 268.109C351.545 286.775 330.121 328.15 322.227 340.513C320.859 342.655 318.154 343.348 315.827 342.325L260.963 318.2Z" fill="#383838"/>
<path d="M285.861 69.0277C286.454 67.4256 288.72 67.4256 289.313 69.0277L293.009 79.0164C293.195 79.5201 293.593 79.9172 294.096 80.1036L304.085 83.7998C305.687 84.3926 305.687 86.6586 304.085 87.2514L294.096 90.9476C293.593 91.1339 293.195 91.5311 293.009 92.0348L289.313 102.024C288.72 103.626 286.454 103.626 285.861 102.024L282.165 92.0348C281.979 91.5311 281.582 91.1339 281.078 90.9476L271.089 87.2514C269.487 86.6586 269.487 84.3926 271.089 83.7998L281.078 80.1036C281.582 79.9172 281.979 79.5201 282.165 79.0164L285.861 69.0277Z" fill="#DBDAD0"/>
<path d="M264.699 105.831C265.292 104.229 267.558 104.229 268.151 105.831L270.107 111.118C270.294 111.622 270.691 112.019 271.195 112.206L276.482 114.162C278.084 114.755 278.084 117.021 276.482 117.614L271.195 119.57C270.691 119.757 270.294 120.154 270.107 120.658L268.151 125.945C267.558 127.547 265.292 127.547 264.699 125.945L262.742 120.658C262.556 120.154 262.159 119.757 261.655 119.57L256.368 117.614C254.765 117.021 254.765 114.755 256.368 114.162L261.655 112.206C262.159 112.019 262.556 111.622 262.742 111.118L264.699 105.831Z" fill="#E64C35"/>
<circle cx="116.452" cy="265.861" r="13.8012" fill="#DBDAD0"/>
<circle cx="197.419" cy="265.861" r="13.8012" fill="#DBDAD0"/>
<circle cx="116.452" cy="265.861" r="6.44055" fill="#9C9C9C"/>
<circle cx="197.419" cy="265.861" r="6.44055" fill="#9C9C9C"/>
<path d="M203.918 584.106L194.81 612.731L182.698 484.84H194.81L201.099 489.44L203.918 584.106Z" fill="#1B1B1B"/>
<g style="mix-blend-mode:screen" opacity="0.23">
<path d="M52.0466 248.288L59.8851 246.54" stroke="#DBDAD0" stroke-width="11.0409" stroke-linecap="round"/>
</g>
<g style="mix-blend-mode:screen" opacity="0.23">
<path d="M73.4929 244.012L74.0748 244.152" stroke="#DBDAD0" stroke-width="11.0409" stroke-linecap="round"/>
</g>
<path d="M213.981 106.688C207.375 106.385 166.137 82.7655 97.1308 135.655L95.2907 101.167C91.6103 60.6831 130.164 43.1571 213.981 106.688Z" fill="#C1C1C1"/>
<path d="M213.981 106.688C207.375 106.385 166.137 82.7655 97.1308 135.655L95.2907 101.167C91.6103 60.6831 130.164 43.1571 213.981 106.688Z" fill="url(#paint8_linear_170_305)" fill-opacity="0.2"/>
<path d="M213.981 106.688C207.375 106.385 166.137 82.7655 97.1308 135.655L95.2907 101.167C91.6103 60.6831 130.164 43.1571 213.981 106.688Z" fill="url(#paint9_linear_170_305)" fill-opacity="0.2"/>
<path d="M259.336 185.398L201.269 240.099C199.401 241.858 196.861 242.77 194.306 242.528C171.668 240.379 153.343 233.723 139.134 226.049C110.359 210.508 90.0988 179.205 94.1276 146.75C100.094 98.687 150.495 86.4458 150.495 86.4458C212.687 78.0612 231.339 135.058 233.901 144.126C234.134 144.95 234.201 145.759 234.218 146.615C234.333 152.254 236.202 174.868 258.521 182.131C259.915 182.584 260.403 184.393 259.336 185.398Z" fill="#7F7F7F"/>
<g style="mix-blend-mode:screen" opacity="0.23">
<path d="M126.956 120.489L133.165 117.002" stroke="#DBDAD0" stroke-width="14.7213" stroke-linecap="round"/>
</g>
<g style="mix-blend-mode:screen" opacity="0.23">
<path d="M149.958 110.564L150.557 110.564" stroke="#DBDAD0" stroke-width="14.7213" stroke-linecap="round"/>
</g>
<path d="M99.7575 61.7011L103.921 69.568C106.086 73.6594 102.557 78.4385 98.0095 77.5734L89.3089 75.918C87.804 75.6317 86.3433 75.1482 84.9647 74.48L79.6149 71.8871C76.6655 70.4576 73.3802 73.0971 74.1407 76.2852L74.2434 76.7158C76.6359 86.7448 69.4697 96.5282 59.1862 97.2722C56.8458 97.4415 55.2167 99.6706 55.766 101.952L58.1192 111.725C61.253 124.74 52.7411 137.696 39.5517 139.987C30.2305 141.606 20.7496 138.163 14.6397 130.939L13.3762 129.446C0.0889737 113.737 5.26244 89.7063 23.8365 80.857L35.1672 75.4588C39.7973 73.2528 41.458 67.4958 38.7141 63.1628L36.6619 59.922C29.3293 48.3426 31.6276 33.1334 42.0542 24.2377L43.839 22.7149C50.5137 17.0203 59.3571 14.5534 68.0157 15.9708C79.1251 17.7895 88.2641 25.7083 91.6455 36.4458L99.1138 60.1612C99.2813 60.6929 99.4967 61.2083 99.7575 61.7011Z" fill="#E64C35"/>
<g style="mix-blend-mode:multiply" opacity="0.42">
<path d="M28.0175 93.2812C28.0175 93.2812 46.2604 90.2475 49.067 111.155" stroke="#E64C35" stroke-width="9.20079" stroke-linecap="round"/>
</g>
<g style="mix-blend-mode:multiply" opacity="0.42">
<path d="M57.8065 71.7419C60.6327 69.0819 68.2288 64.9011 76.0034 69.4572" stroke="#E64C35" stroke-width="9.20079" stroke-linecap="round"/>
</g>
<path d="M220.529 118.834C195.519 148.727 141.373 150.364 124.405 150.104C122.668 150.077 121.833 152.238 123.198 153.313C159.019 181.53 226.11 180.817 254.464 178.454L245.741 161.009C239.309 148.144 234.346 134.596 230.947 120.621C229.884 116.251 223.415 115.385 220.529 118.834Z" fill="#BFBEB9"/>
<path d="M260.905 182.134C238.823 174.774 233.302 132.45 233.302 132.45" stroke="#9C9C9C" stroke-width="9.20079" stroke-linecap="round" stroke-linejoin="round"/>
<path d="M187.116 237.246C158.276 212.007 137.614 176.614 137.614 176.614L211.22 231.772L205.258 236.942C200.034 241.472 192.319 241.799 187.116 237.246Z" fill="#1B1B1B"/>
<path d="M253.406 181.532C200.615 194.407 131.674 164.955 113.751 147.171C113.751 147.171 169.498 206.076 199.456 227.544C204.097 230.87 210.311 229.967 214.349 225.93L255.383 184.896C256.756 183.522 255.293 181.072 253.406 181.532Z" fill="#9C9C9C" stroke="#9C9C9C" stroke-width="12.8811" stroke-linecap="round" stroke-linejoin="round"/>
<circle cx="116.452" cy="149.931" r="10.1209" fill="#383838"/>
<circle cx="218.268" cy="193.166" r="6.08686" transform="rotate(8.27115 218.268 193.166)" fill="#797979"/>
<circle cx="234.614" cy="197.08" r="6.08686" transform="rotate(8.27115 234.614 197.08)" fill="#797979"/>
<circle cx="220.596" cy="208.882" r="6.08686" transform="rotate(8.27115 220.596 208.882)" fill="#797979"/>
<circle cx="208.085" cy="220.902" r="6.08686" transform="rotate(8.27115 208.085 220.902)" fill="#797979"/>
<circle cx="204.25" cy="204.968" r="6.08686" transform="rotate(8.27115 204.25 204.968)" fill="#797979"/>
<circle cx="200.416" cy="189.033" r="6.08686" transform="rotate(8.27115 200.416 189.033)" fill="#797979"/>
<path d="M248.023 173.854V173.854C242.529 175.075 236.893 175.536 231.273 175.223L206.62 173.854" stroke="#1B1B1B" stroke-width="9.20079" stroke-linecap="round" stroke-linejoin="round"/>
<g style="mix-blend-mode:screen" opacity="0.19">
<path d="M46.5261 40.4415L50.3575 36.0344" stroke="#DBDAD0" stroke-width="14.7213" stroke-linecap="round"/>
</g>
<g style="mix-blend-mode:screen" opacity="0.19">
<path d="M67.1509 29.5964L67.7493 29.5963" stroke="#DBDAD0" stroke-width="14.7213" stroke-linecap="round"/>
</g>
</g>
</g>
<defs>
<filter id="filter0_g_170_305" x="4.84415" y="14.4748" width="355.122" height="697.937" filterUnits="userSpaceOnUse" color-interpolation-filters="sRGB">
<feFlood flood-opacity="0" result="BackgroundImageFix"/>
<feBlend mode="normal" in="SourceGraphic" in2="BackgroundImageFix" result="shape"/>
<feTurbulence type="fractalNoise" baseFrequency="0.67928940057754517 0.67928940057754517" numOctaves="3" seed="7140" />
<feDisplacementMap in="shape" scale="2.2081902027130127" xChannelSelector="R" yChannelSelector="G" result="displacedImage" width="100%" height="100%" />
<feMerge result="effect1_texture_170_305">
<feMergeNode in="displacedImage"/>
</feMerge>
</filter>
<filter id="filter1_g_170_305" x="108.795" y="143.323" width="66.8481" height="65.2107" filterUnits="userSpaceOnUse" color-interpolation-filters="sRGB">
<feFlood flood-opacity="0" result="BackgroundImageFix"/>
<feBlend mode="normal" in="SourceGraphic" in2="BackgroundImageFix" result="shape"/>
<feTurbulence type="fractalNoise" baseFrequency="1.1740390062332153 1.1740390062332153" numOctaves="3" seed="1626" />
<feDisplacementMap in="shape" scale="37.375244140625" xChannelSelector="R" yChannelSelector="G" result="displacedImage" width="100%" height="100%" />
<feMerge result="effect1_texture_170_305">
<feMergeNode in="displacedImage"/>
</feMerge>
</filter>
<filter id="filter2_g_170_305" x="173.349" y="143.323" width="66.8481" height="65.2107" filterUnits="userSpaceOnUse" color-interpolation-filters="sRGB">
<feFlood flood-opacity="0" result="BackgroundImageFix"/>
<feBlend mode="normal" in="SourceGraphic" in2="BackgroundImageFix" result="shape"/>
<feTurbulence type="fractalNoise" baseFrequency="1.1740390062332153 1.1740390062332153" numOctaves="3" seed="1626" />
<feDisplacementMap in="shape" scale="37.375244140625" xChannelSelector="R" yChannelSelector="G" result="displacedImage" width="100%" height="100%" />
<feMerge result="effect1_texture_170_305">
<feMergeNode in="displacedImage"/>
</feMerge>
</filter>
<linearGradient id="paint0_linear_170_305" x1="210.887" y1="357.869" x2="210.887" y2="617.332" gradientUnits="userSpaceOnUse">
<stop stop-color="#FF1111"/>
<stop offset="1" stop-color="#F22020" stop-opacity="0"/>
</linearGradient>
<linearGradient id="paint1_linear_170_305" x1="226.076" y1="401.55" x2="226.076" y2="711.305" gradientUnits="userSpaceOnUse">
<stop stop-color="#4D4C4B"/>
<stop offset="0.427885" stop-color="#686868"/>
<stop offset="1" stop-color="#3A3A3A"/>
</linearGradient>
<linearGradient id="paint2_linear_170_305" x1="86.4858" y1="356.447" x2="86.4858" y2="711.307" gradientUnits="userSpaceOnUse">
<stop stop-color="#4D4C4B"/>
<stop offset="0.427885" stop-color="#686868"/>
<stop offset="1" stop-color="#3A3A3A"/>
</linearGradient>
<linearGradient id="paint3_linear_170_305" x1="114.444" y1="389.039" x2="68.4396" y2="481.967" gradientUnits="userSpaceOnUse">
<stop offset="0.0212735"/>
<stop offset="1" stop-color="white" stop-opacity="0"/>
</linearGradient>
<linearGradient id="paint4_linear_170_305" x1="260.207" y1="402.526" x2="185.05" y2="478.676" gradientUnits="userSpaceOnUse">
<stop stop-color="white" stop-opacity="0"/>
<stop offset="1"/>
</linearGradient>
<linearGradient id="paint5_linear_170_305" x1="149.407" y1="457.125" x2="145.001" y2="239.066" gradientUnits="userSpaceOnUse">
<stop stop-opacity="0.5"/>
<stop offset="0.696681" stop-color="white"/>
<stop offset="1" stop-opacity="0.5"/>
</linearGradient>
<linearGradient id="paint6_linear_170_305" x1="249.41" y1="319.113" x2="245.263" y2="275.982" gradientUnits="userSpaceOnUse">
<stop stop-color="#818181"/>
<stop offset="1" stop-color="#6F6F6F"/>
</linearGradient>
<linearGradient id="paint7_linear_170_305" x1="81.5971" y1="270.808" x2="125.499" y2="354.221" gradientUnits="userSpaceOnUse">
<stop stop-color="#3A342E"/>
<stop offset="1" stop-color="#7A7A7A"/>
</linearGradient>
<linearGradient id="paint8_linear_170_305" x1="160.582" y1="57.5128" x2="103.135" y2="165.404" gradientUnits="userSpaceOnUse">
<stop stop-color="white" stop-opacity="0"/>
<stop offset="0.658834"/>
</linearGradient>
<linearGradient id="paint9_linear_170_305" x1="139.898" y1="66.6959" x2="224.39" y2="132.28" gradientUnits="userSpaceOnUse">
<stop stop-color="white" stop-opacity="0"/>
<stop offset="0.658834"/>
</linearGradient>
<clipPath id="clip0_170_305">
<rect width="355.336" height="510" fill="white" transform="translate(0.664062)"/>
</clipPath>
</defs>
</svg>
