<svg width="211" height="425" viewBox="0 0 211 425" fill="none" xmlns="http://www.w3.org/2000/svg">
<g clip-path="url(#clip0_153_1094)">
<g filter="url(#filter0_g_153_1094)">
<path d="M29.9935 147.675V150.029L90.7656 143.964L148.421 153.062L148.807 152.187C151.018 147.166 148.051 141.384 142.683 140.252L90.7656 129.305L35.1031 141.342C32.1215 141.987 29.9935 144.625 29.9935 147.675Z" fill="#F57B35"/>
<path d="M29.9935 147.675V150.029L90.7656 143.964L148.421 153.062L148.807 152.187C151.018 147.166 148.051 141.384 142.683 140.252L90.7656 129.305L35.1031 141.342C32.1215 141.987 29.9935 144.625 29.9935 147.675Z" fill="black" fill-opacity="0.2"/>
<path d="M208.988 411.226L124.706 166.309L41.1529 160.081L18.8368 422.676H200.82C206.752 422.676 210.919 416.835 208.988 411.226Z" fill="#F57B35"/>
<path d="M208.988 411.226L124.706 166.309L41.1529 160.081L18.8368 422.676H200.82C206.752 422.676 210.919 416.835 208.988 411.226Z" fill="url(#paint0_linear_153_1094)" fill-opacity="0.48"/>
<path d="M52.2592 186.449C52.2592 186.449 43.9558 179.703 39.2851 171.399V159.982L53.485 163.096L52.2592 186.449Z" fill="#1B1B1B"/>
<path d="M28.1707 253.935C27.9407 241.221 38.2736 230.707 51.2716 230.472C64.2696 230.237 74.9759 240.37 75.2059 253.084C75.4359 265.798 65.103 276.311 52.105 276.547C39.107 276.782 28.4006 266.649 28.1707 253.935Z" fill="#778D71" stroke="#778D71" stroke-width="0.999665"/>
<path d="M123.148 261.18L118.997 211.247L72.1074 236.629L46.6782 214.832L50.4084 261.18L123.148 261.18Z" fill="#4D4C4B"/>
<path d="M102.918 124.134H74.894V148.525C74.894 156.263 81.1674 162.537 88.906 162.537V162.537C96.6446 162.537 102.918 156.263 102.918 148.525V124.134Z" fill="#A0BD92"/>
<path d="M116.248 140.038L65.4951 138.418L65.6327 141.775C66.1683 154.849 76.9228 165.172 90.0074 165.172V165.172C100.254 165.172 109.408 158.769 112.923 149.144L116.248 140.038Z" fill="#656565"/>
<path d="M102.918 133.515V143.376C97.7199 145 92.0551 143.964 87.7687 140.604L75.4136 130.921L94.6152 132.477L102.918 133.515Z" fill="#1B1B1B"/>
<path d="M82.1127 248.204L104.511 383.041H104.68L105.962 421.55C106.001 422.714 106.956 423.638 108.12 423.638H175.965C180.418 423.638 182.649 418.255 179.501 415.105L147.455 383.041H148.23L119.515 241.866L82.1127 248.204Z" fill="url(#paint1_linear_153_1094)"/>
<path d="M45.6851 300.44V360.996L44.6461 382.617H44.4664L11.9947 415.107C8.84739 418.256 11.0776 423.638 15.5298 423.639H86.5767C87.8335 423.638 88.8249 422.57 88.73 421.316L87.5484 405.743L86.3629 360.996L84.7447 302.585L83.1881 244.461L46.8609 215.399L45.6851 300.44Z" fill="url(#paint2_linear_153_1094)"/>
<path d="M56.3918 367.52L56.8563 361.946L87.092 366.805V376.524C87.092 376.524 73.8284 376.181 63.1592 375.495C59.0517 375.231 56.05 371.622 56.3918 367.52Z" fill="#1B1B1B"/>
<path d="M112.316 368.757L112.133 361.946L102.75 366.625V375.984C102.75 375.984 104.653 375.831 106.913 375.526C110.242 375.076 112.406 372.115 112.316 368.757Z" fill="#1B1B1B"/>
<path d="M107.945 291.342L97.6026 301.901C96.3778 303.152 95.8352 304.918 96.147 306.641L97.6896 315.162C97.9941 316.844 99.0767 318.282 100.608 319.04L114.069 325.699C116.18 326.743 118.724 326.299 120.356 324.601L130.987 313.538C132.188 312.289 132.716 310.54 132.407 308.835L130.879 300.396C130.563 298.65 129.411 297.172 127.795 296.44L114.031 290.202C111.964 289.266 109.532 289.721 107.945 291.342Z" fill="#575757"/>
<path d="M62.6157 289.54L50.6517 290.339C47.8159 290.529 45.6124 292.884 45.6124 295.727L45.6124 312.243C45.6124 313.831 46.3112 315.338 47.5229 316.364L59.147 326.205C60.9444 327.727 63.5208 327.908 65.5135 326.653L78.4955 318.475C79.9614 317.552 80.8951 315.981 81.006 314.253L81.5549 305.694C81.6684 303.924 80.9054 302.211 79.5137 301.112L66.3226 290.691C65.2723 289.861 63.9512 289.451 62.6157 289.54Z" fill="#575757"/>
<path d="M60.6358 310.653L58.4229 310.244C51.2571 308.917 46.0579 302.666 46.0579 295.379V286.497H61.9107L60.6358 310.653Z" fill="#1B1B1B"/>
<g style="mix-blend-mode:multiply" opacity="0.4" filter="url(#filter1_g_153_1094)">
<ellipse cx="8.6477" cy="8.16727" rx="8.6477" ry="8.16727" transform="matrix(-1 0 0 1 90.9816 101.299)" fill="#B0C5B1"/>
</g>
<path d="M56.5925 363.767L65.3517 234.445C65.5437 231.612 67.8983 229.411 70.7386 229.411H95.6855C98.4632 229.411 100.788 231.519 101.059 234.283L113.745 363.605C114.056 366.78 111.561 369.531 108.371 369.531H61.9794C58.8539 369.531 56.3813 366.885 56.5925 363.767Z" fill="#DBDAD0"/>
<path d="M85.3586 241.609H117.967L134.164 311.8L108.248 311.26L106.377 299.096C106.225 298.11 105.231 297.492 104.28 297.792C98.3027 299.677 92.1233 295.52 91.618 289.272L88.9243 255.967C88.5241 251.019 87.3197 246.169 85.3586 241.609Z" fill="#1B1B1B"/>
<path d="M24.3349 278.806C23.4579 244.639 36.1124 226.858 43.2081 222.653L71.9108 235.781C72.7298 236.156 73.2304 237 73.1667 237.898L69.7945 285.495C69.5045 289.589 66.0018 292.703 61.9027 292.512L37.1564 291.359C30.2474 291.037 24.5123 285.72 24.3349 278.806Z" fill="#707070"/>
<path d="M24.3349 278.806C23.4579 244.639 36.1124 226.858 43.2081 222.653L71.9108 235.781C72.7298 236.156 73.2304 237 73.1667 237.898L69.7945 285.495C69.5045 289.589 66.0018 292.703 61.9027 292.512L37.1564 291.359C30.2474 291.037 24.5123 285.72 24.3349 278.806Z" fill="url(#paint3_linear_153_1094)" fill-opacity="0.2"/>
<path d="M158.277 277.077C160.949 244.808 143.805 228.51 134.004 224.82L92.919 240.049C92.4624 240.219 92.1755 240.673 92.2187 241.158L96.0348 284.001C96.3972 288.069 99.9261 291.114 104.004 290.876L145.923 288.433C152.297 288.061 157.75 283.439 158.277 277.077Z" fill="#707070"/>
<path d="M158.277 277.077C160.949 244.808 143.805 228.51 134.004 224.82L92.919 240.049C92.4624 240.219 92.1755 240.673 92.2187 241.158L96.0348 284.001C96.3972 288.069 99.9261 291.114 104.004 290.876L145.923 288.433C152.297 288.061 157.75 283.439 158.277 277.077Z" fill="url(#paint4_linear_153_1094)" fill-opacity="0.2"/>
<g style="mix-blend-mode:multiply" opacity="0.4" filter="url(#filter2_g_153_1094)">
<ellipse cx="8.6477" cy="8.16727" rx="8.6477" ry="8.16727" transform="matrix(-1 0 0 1 128.864 101.299)" fill="#B0C5B1"/>
</g>
<path d="M38.5978 155.199V155.199C36.4617 176.575 38.8209 198.16 45.5236 218.57L47.3797 224.221C47.3797 224.221 58.7969 239.271 84.226 241.866C104.985 241.866 137.16 224.221 137.16 224.221L136.468 220.16C132.802 198.64 133.037 176.636 137.16 155.199V155.199L103.057 149.869V131.404L88.3867 133.475L70.8943 130.361V148.136L38.5978 155.199Z" fill="#656565"/>
<path d="M38.5978 155.199V155.199C36.4617 176.575 38.8209 198.16 45.5236 218.57L47.3797 224.221C47.3797 224.221 58.7969 239.271 84.226 241.866C104.985 241.866 137.16 224.221 137.16 224.221L136.468 220.16C132.802 198.64 133.037 176.636 137.16 155.199V155.199L103.057 149.869V131.404L88.3867 133.475L70.8943 130.361V148.136L38.5978 155.199Z" fill="url(#paint5_linear_153_1094)" fill-opacity="0.2"/>
<path d="M62.6899 154.148C62.6899 154.148 86.1758 174.455 111.662 158.471" stroke="#777777" stroke-width="10.7985" stroke-linecap="square" stroke-linejoin="round"/>
<circle cx="3.11377" cy="3.11377" r="2.61394" transform="matrix(-1 0 0 1 123.677 101.244)" fill="#1B1B1B" stroke="#1B1B1B" stroke-width="0.999665"/>
<path d="M108.149 148.631L106.32 155.623C105.249 159.716 101.027 162.133 96.955 160.984L95.1437 160.473C87.342 158.273 80.0848 154.47 73.8354 149.307L72.8549 148.498C71.6133 147.472 70.8943 145.945 70.8943 144.335L70.8944 140.65L90.0121 148.249C90.6467 148.501 91.3234 148.631 92.0063 148.631H108.149Z" fill="#1B1B1B"/>
<circle cx="3.11377" cy="3.11377" r="2.61394" transform="matrix(-1 0 0 1 100.062 101.244)" fill="#1B1B1B" stroke="#1B1B1B" stroke-width="0.999665"/>
<path d="M95.3825 93.6543L100.315 96.3682" stroke="#DBDAD0" stroke-width="5.99799" stroke-linecap="round" style="mix-blend-mode:multiply"/>
<path d="M121.592 93.6543L116.684 96.3682" stroke="#DBDAD0" stroke-width="5.99799" stroke-linecap="round" style="mix-blend-mode:multiply"/>
<path d="M99.277 118.353V118.353C103.195 120.31 107.816 120.313 111.732 118.353V118.353" stroke="#1B1B1B" stroke-width="3.23954" stroke-linecap="round" stroke-linejoin="round"/>
<path d="M145.404 168.114L170.251 182.132C174.001 184.248 173.888 189.685 170.054 191.643L139 207.5" stroke="#555555" stroke-width="33.4753" stroke-linejoin="round"/>
<path d="M143.5 193C153.568 199.173 156.993 203.83 161.5 213" stroke="#444443" stroke-width="10.7985" stroke-linecap="round"/>
<path d="M157 190.669L197.5 194.5" stroke="#1B1B1B" stroke-width="5.39923"/>
<path d="M146.747 189.218L162.324 161.752C163.642 159.43 162.557 156.481 160.05 155.564L136.765 147.057L134.704 162.241L133.624 185.458L140.396 190.542C142.479 192.105 145.462 191.484 146.747 189.218Z" fill="url(#paint6_linear_153_1094)"/>
<path d="M137.944 189.777L134.164 181.138L133.624 188.157L137.944 189.777Z" fill="#1B1B1B"/>
<path d="M154.405 147.454L109.229 137.338V151.489C109.229 156.222 112.032 160.513 116.439 162.237C122.594 164.645 131.006 167.64 134.619 167.573C146.118 167.357 152.259 159.069 156.473 152.375C157.668 150.476 156.594 147.945 154.405 147.454Z" fill="#4D4C4B"/>
<path d="M23.2963 148.156L70.3544 138.418V151.545C70.3544 156.399 67.4072 160.773 62.8428 162.424C56.4192 164.746 47.633 167.638 43.8605 167.573C32.0295 167.368 25.6334 159.595 21.242 153.189C19.9324 151.279 21.0284 148.625 23.2963 148.156Z" fill="#4D4C4B"/>
<path d="M49.3544 142.922L61.1287 157.275H69.4321C70.1961 152.692 71.5211 141.804 72.3329 135.879C72.566 134.178 70.7539 132.522 69.0937 132.961L51.031 137.736C48.7506 138.338 47.8583 141.098 49.3544 142.922Z" fill="#F57B35"/>
<path d="M68.2936 154.682L53.1757 136.325L66.6738 130.385L74.2327 133.625L70.9932 154.682H68.2936Z" fill="#1B1B1B"/>
<path d="M129.726 144.144L118.176 157.275H109.872C109.103 152.661 107.848 142.251 107.08 136.661C106.855 135.024 108.501 133.407 110.123 133.722L127.304 137.05C130.581 137.685 131.93 141.638 129.726 144.144Z" fill="#F57B35"/>
<path d="M81.7917 212.454L69.5354 224.22C68.7689 224.956 67.6638 225.218 66.6483 224.906L64.74 224.318C57.7717 222.174 51.0615 219.267 44.7314 215.65C43.081 214.707 41.0275 215.899 41.0275 217.8L41.0275 217.89C41.0275 218.858 41.5693 219.739 42.448 220.146C61.5652 228.994 102.924 239.918 135.682 217.753C136.082 217.481 136.324 217.024 136.324 216.541L136.324 216.451C136.324 215.262 134.958 214.592 134.018 215.32C125.506 221.914 115.306 225.972 104.591 227.028L99.863 227.493C99.3565 227.543 98.852 227.381 98.469 227.046L81.7917 212.454Z" fill="#464646" stroke="#464646" stroke-width="6.47908" stroke-linecap="round" stroke-linejoin="round"/>
<path d="M41.2974 223.792L42.1126 224.254C71.7069 241.024 107.973 240.848 137.404 223.792V223.792" stroke="#383838" stroke-width="10.7985" stroke-linecap="round" stroke-linejoin="round"/>
<path d="M41.2974 223.792L42.1126 224.254C71.7069 241.024 107.973 240.848 137.404 223.792V223.792" stroke="black" stroke-opacity="0.2" stroke-width="10.7985" stroke-linecap="round" stroke-linejoin="round"/>
<path d="M62.4296 169.484C56.1463 167.835 54.4928 160.748 56.4765 156.179C57.3666 154.129 59.9861 154.484 61.3803 156.231L66.4345 162.563L66.4015 165.833C66.3788 168.073 64.5969 170.053 62.4296 169.484Z" fill="#1B1B1B"/>
<path d="M111.215 169.569C103.942 167.966 102.857 159.584 106.275 155.439C107.06 154.488 108.39 154.324 109.582 154.642L115.807 156.302L115.191 166.046C115.056 168.195 113.318 170.033 111.215 169.569Z" fill="#1B1B1B"/>
<g opacity="0.37">
<path d="M86 176C82.3194 186.325 82.7118 202.515 82.7118 202.515" stroke="#656565" stroke-width="10.7985" stroke-linecap="round" style="mix-blend-mode:screen"/>
</g>
<path d="M117.698 387.651L147.022 379.391L149.097 384.581L154.043 389.77H117.991C116.737 389.77 116.491 387.991 117.698 387.651Z" fill="#1B1B1B"/>
<path d="M72.3037 387.734L44.978 381.417L36.6746 390.239L72.0718 389.866C73.3498 389.852 73.5489 388.022 72.3037 387.734Z" fill="#1B1B1B"/>
<path d="M63.0467 175.185C62.6988 174.245 61.3692 174.245 61.0213 175.185L59.4988 179.3L55.5106 177.467C54.5999 177.049 53.6604 177.988 54.0789 178.899L55.9129 182.885L51.7967 184.409C50.8566 184.757 50.8566 186.087 51.7967 186.435L55.9129 187.957L54.0789 191.945C53.6604 192.855 54.5999 193.795 55.5106 193.376L59.4988 191.543L61.0213 195.659C61.3692 196.599 62.6988 196.599 63.0467 195.659L64.5692 191.543L68.5565 193.376C69.4672 193.795 70.4068 192.855 69.9881 191.945L68.1561 187.956L72.2703 186.435C73.2105 186.087 73.2105 184.757 72.2703 184.409L68.1561 182.886L69.9881 178.899C70.4068 177.988 69.4672 177.048 68.5565 177.467L64.5701 179.3L63.0467 175.185Z" fill="url(#paint7_linear_153_1094)"/>
<circle cx="124.429" cy="214.429" r="25.4291" fill="#555555"/>
<path d="M148 192.955L170.471 164.654C171.356 163.541 172.876 163.121 174.161 163.731C188.524 170.546 190.154 184.23 190.148 190.135C190.146 191.755 188.793 192.955 187.173 192.955H148Z" fill="#383838"/>
<path d="M167.044 63.7369C167.392 62.7967 168.722 62.7967 169.07 63.7369L171.239 69.5985C171.348 69.8941 171.581 70.1271 171.877 70.2365L177.738 72.4055C178.679 72.7534 178.679 74.0831 177.738 74.431L171.877 76.6C171.581 76.7093 171.348 76.9424 171.239 77.238L169.07 83.0996C168.722 84.0397 167.392 84.0397 167.044 83.0996L164.875 77.238C164.766 76.9424 164.533 76.7093 164.237 76.6L158.376 74.431C157.436 74.0831 157.436 72.7534 158.376 72.4055L164.237 70.2365C164.533 70.1271 164.766 69.8941 164.875 69.5985L167.044 63.7369Z" fill="#DBDAD0"/>
<path d="M154.626 85.3338C154.974 84.3937 156.304 84.3937 156.652 85.3338L157.8 88.4368C157.909 88.7323 158.142 88.9654 158.438 89.0748L161.541 90.223C162.481 90.5708 162.481 91.9006 161.541 92.2484L158.438 93.3966C158.142 93.506 157.909 93.7391 157.8 94.0346L156.652 97.1376C156.304 98.0777 154.974 98.0777 154.626 97.1376L153.478 94.0346C153.368 93.7391 153.135 93.506 152.84 93.3966L149.737 92.2484C148.797 91.9006 148.797 90.5708 149.737 90.223L152.84 89.0748C153.135 88.9654 153.368 88.7323 153.478 88.4368L154.626 85.3338Z" fill="#E64C35"/>
<circle cx="67.2137" cy="162.241" r="8.09885" fill="#DBDAD0"/>
<circle cx="114.727" cy="162.241" r="8.09885" fill="#DBDAD0"/>
<circle cx="67.2137" cy="162.241" r="3.77946" fill="#9C9C9C"/>
<circle cx="114.727" cy="162.241" r="3.77946" fill="#9C9C9C"/>
<path d="M59.1947 357.134L101.195 357.134" stroke="#E64C35" stroke-width="7.55893" stroke-linecap="round" stroke-linejoin="round"/>
<path d="M60.1947 343.134L100.195 343.134" stroke="#E64C35" stroke-width="7.55893" stroke-linecap="round" stroke-linejoin="round"/>
<path d="M118.541 348.994L113.196 365.792L106.088 290.743H113.196L116.887 293.442L118.541 348.994Z" fill="#1B1B1B"/>
<g style="mix-blend-mode:screen" opacity="0.53">
<path d="M29.419 151.928L34.0188 150.902" stroke="#DBDAD0" stroke-width="5" stroke-linecap="round"/>
</g>
<g style="mix-blend-mode:screen" opacity="0.53">
<path d="M40 150.04L40.3415 150.122" stroke="#DBDAD0" stroke-width="5" stroke-linecap="round"/>
</g>
<path d="M124.446 77.8343C120.569 77.6566 96.3695 63.7964 55.8753 94.8329L54.7954 74.5945C52.6357 50.8379 75.2597 40.5533 124.446 77.8343Z" fill="#C1C1C1"/>
<path d="M124.446 77.8343C120.569 77.6566 96.3695 63.7964 55.8753 94.8329L54.7954 74.5945C52.6357 50.8379 75.2597 40.5533 124.446 77.8343Z" fill="url(#paint8_linear_153_1094)" fill-opacity="0.2"/>
<path d="M124.446 77.8343C120.569 77.6566 96.3695 63.7964 55.8753 94.8329L54.7954 74.5945C52.6357 50.8379 75.2597 40.5533 124.446 77.8343Z" fill="url(#paint9_linear_153_1094)" fill-opacity="0.2"/>
<path d="M151.061 124.024L116.986 156.123C115.89 157.156 114.399 157.691 112.9 157.548C99.6155 156.287 88.8619 152.382 80.5238 147.878C63.6381 138.759 51.7489 120.389 54.1131 101.344C57.6144 73.1393 87.1908 65.9559 87.1908 65.9559C123.687 61.0356 134.632 94.4824 136.135 99.8042C136.272 100.288 136.311 100.762 136.322 101.264C136.389 104.574 137.486 117.844 150.583 122.106C151.401 122.372 151.687 123.434 151.061 124.024Z" fill="#7F7F7F"/>
<path d="M151.061 124.024L116.986 156.123C115.89 157.156 114.399 157.691 112.9 157.548C99.6155 156.287 88.8619 152.382 80.5238 147.878C63.6381 138.759 51.7489 120.389 54.1131 101.344C57.6144 73.1393 87.1908 65.9559 87.1908 65.9559C123.687 61.0356 134.632 94.4824 136.135 99.8042C136.272 100.288 136.311 100.762 136.322 101.264C136.389 104.574 137.486 117.844 150.583 122.106C151.401 122.372 151.687 123.434 151.061 124.024Z" fill="url(#paint10_linear_153_1094)" fill-opacity="0.5"/>
<path d="M151.061 124.024L116.986 156.123C115.89 157.156 114.399 157.691 112.9 157.548C99.6155 156.287 88.8619 152.382 80.5238 147.878C63.6381 138.759 51.7489 120.389 54.1131 101.344C57.6144 73.1393 87.1908 65.9559 87.1908 65.9559C123.687 61.0356 134.632 94.4824 136.135 99.8042C136.272 100.288 136.311 100.762 136.322 101.264C136.389 104.574 137.486 117.844 150.583 122.106C151.401 122.372 151.687 123.434 151.061 124.024Z" stroke="#707070"/>
<g style="mix-blend-mode:screen" opacity="0.23">
<path d="M73.7019 85.587L77.1268 83.1933" stroke="#DBDAD0" stroke-width="8.63877" stroke-linecap="round"/>
</g>
<g style="mix-blend-mode:screen" opacity="0.23">
<path d="M86.5636 78.4669L86.9131 78.4324" stroke="#DBDAD0" stroke-width="8.63877" stroke-linecap="round"/>
</g>
<path d="M57.4171 51.435L59.8602 56.0515C61.1307 58.4524 59.0599 61.2569 56.3913 60.7492L51.2857 59.7778C50.4025 59.6098 49.5454 59.3261 48.7364 58.9339L45.597 57.4124C43.8662 56.5735 41.9383 58.1224 42.3846 59.9933L42.4449 60.246C43.8488 66.1312 39.6436 71.8723 33.609 72.3089C32.2356 72.4083 31.2796 73.7163 31.6019 75.0551L32.9828 80.7902C34.8218 88.4276 29.8269 96.0305 22.087 97.3749C16.6171 98.3249 11.0535 96.3044 7.46804 92.0656L6.72664 91.1891C-1.07063 81.971 1.96525 67.8691 12.865 62.6761L19.5141 59.5083C22.2311 58.2138 23.2057 54.8355 21.5955 52.2927L20.3912 50.391C16.0882 43.5959 17.4369 34.6708 23.5555 29.4506L24.6029 28.557C28.5197 25.2153 33.7093 23.7676 38.7903 24.5994C45.3096 25.6667 50.6726 30.3136 52.6568 36.6146L57.0394 50.5313C57.1377 50.8433 57.2641 51.1458 57.4171 51.435Z" fill="#E64C35"/>
<g style="mix-blend-mode:multiply" opacity="0.42">
<path d="M15.318 69.9672C15.318 69.9672 26.0233 68.187 27.6703 80.4561" stroke="#E64C35" stroke-width="5.39923" stroke-linecap="round"/>
</g>
<g style="mix-blend-mode:multiply" opacity="0.42">
<path d="M32.7991 57.3274C34.4576 55.7665 38.9152 53.3131 43.4775 55.9867" stroke="#E64C35" stroke-width="5.39923" stroke-linecap="round"/>
</g>
<path d="M128.288 84.9621C113.612 102.504 81.8379 103.464 71.881 103.312C70.8613 103.296 70.3714 104.564 71.1725 105.195C92.1931 121.753 131.564 121.335 148.202 119.948L143.084 109.711C139.309 102.162 136.397 94.2116 134.402 86.0106C133.778 83.446 129.982 82.9378 128.288 84.9621Z" fill="#BFBEB9"/>
<path d="M151.982 122.108C139.023 117.789 135.784 92.9518 135.784 92.9518" stroke="#9C9C9C" stroke-width="5.39923" stroke-linecap="round" stroke-linejoin="round"/>
<path d="M108.681 154.448C91.7568 139.638 79.632 118.868 79.632 118.868L122.826 151.236L119.327 154.27C116.262 156.929 111.734 157.12 108.681 154.448Z" fill="#1B1B1B"/>
<path d="M147.581 121.754C116.602 129.31 76.1462 112.027 65.6284 101.591C65.6284 101.591 98.3422 136.158 115.922 148.755C118.646 150.707 122.292 150.177 124.662 147.808L148.741 123.728C149.547 122.922 148.689 121.484 147.581 121.754Z" fill="#9C9C9C" stroke="#9C9C9C" stroke-width="7.55893" stroke-linecap="round" stroke-linejoin="round"/>
<circle cx="67.2137" cy="103.211" r="5.93916" fill="#383838"/>
<circle cx="126.961" cy="128.582" r="3.57191" transform="rotate(8.27115 126.961 128.582)" fill="#797979"/>
<circle cx="136.553" cy="130.878" r="3.57191" transform="rotate(8.27115 136.553 130.878)" fill="#797979"/>
<circle cx="128.328" cy="137.804" r="3.57191" transform="rotate(8.27115 128.328 137.804)" fill="#797979"/>
<circle cx="120.986" cy="144.858" r="3.57191" transform="rotate(8.27115 120.986 144.858)" fill="#797979"/>
<circle cx="118.736" cy="135.507" r="3.57191" transform="rotate(8.27115 118.736 135.507)" fill="#797979"/>
<circle cx="116.486" cy="126.157" r="3.57191" transform="rotate(8.27115 116.486 126.157)" fill="#797979"/>
<path d="M144.423 117.249V117.249C140.18 122.823 132.455 124.373 126.389 120.868L120.126 117.249" stroke="#1B1B1B" stroke-width="5.39923" stroke-linecap="round" stroke-linejoin="round"/>
<g style="mix-blend-mode:screen" opacity="0.19">
<path d="M26.5722 38.4791L28.8205 35.8929" stroke="#DBDAD0" stroke-width="8.63877" stroke-linecap="round"/>
</g>
<g style="mix-blend-mode:screen" opacity="0.19">
<path d="M38.6754 32.115L39.0265 32.1149" stroke="#DBDAD0" stroke-width="8.63877" stroke-linecap="round"/>
</g>
<path d="M141.237 256C143.863 263.353 144.295 268.002 143.903 276.876" stroke="#7C7C7C" stroke-width="8" stroke-linecap="round"/>
<path d="M129.737 263C129.737 263 131.285 268.002 130.893 276.876" stroke="#7C7C7C" stroke-width="8" stroke-linecap="round"/>
<path d="M70.5 151.35L43.4128 158.608L16.3257 165.866" stroke="#5F5F5F" stroke-width="38" stroke-linejoin="round"/>
<path d="M54.2622 175C46.2622 165 49.5 148 49.5 148L59.7746 144L70.5 170.5L54.2622 175Z" fill="#1B1B1B"/>
<path d="M99.8583 151.429C99.8583 165.473 88.4733 176.858 74.4291 176.858C60.385 176.858 49 165.473 49 151.429C49 137.385 60.385 126 74.4291 126C88.4733 126 99.8583 137.385 99.8583 151.429Z" fill="#5F5F5F"/>
<path d="M99.8583 151.429C99.8583 165.473 88.4733 176.858 74.4291 176.858C60.385 176.858 49 165.473 49 151.429C49 137.385 60.385 126 74.4291 126C88.4733 126 99.8583 137.385 99.8583 151.429Z" fill="url(#paint11_linear_153_1094)" fill-opacity="0.2"/>
<g style="mix-blend-mode:screen" opacity="0.23">
<path d="M73.1447 135.145L73.4941 135.11" stroke="#DBDAD0" stroke-width="8.63877" stroke-linecap="round"/>
</g>
<path d="M27.2306 175.233L23.2257 183.443C22.3512 185.235 20.2663 186.118 18.4015 185.41C-11.7803 173.955 2.88347 154.18 9.03708 147.523C10.3116 146.144 12.3772 146.048 13.8957 147.152L21.6393 152.783C28.702 157.919 31.0593 167.384 27.2306 175.233Z" fill="#464646"/>
<path d="M38.8316 143.123C37.1956 155.923 38.6686 163.095 43.6684 175.877" stroke="#505050" stroke-width="10.7985" stroke-linecap="round"/>
</g>
</g>
<defs>
<filter id="filter0_g_153_1094" x="-0.624471" y="23.7215" width="210.738" height="400.565" filterUnits="userSpaceOnUse" color-interpolation-filters="sRGB">
<feFlood flood-opacity="0" result="BackgroundImageFix"/>
<feBlend mode="normal" in="SourceGraphic" in2="BackgroundImageFix" result="shape"/>
<feTurbulence type="fractalNoise" baseFrequency="1.15757155418396 1.15757155418396" numOctaves="3" seed="7140" />
<feDisplacementMap in="shape" scale="1.2958163022994995" xChannelSelector="R" yChannelSelector="G" result="displacedImage" width="100%" height="100%" />
<feMerge result="effect1_texture_153_1094">
<feMergeNode in="displacedImage"/>
</feMerge>
</filter>
<filter id="filter1_g_153_1094" x="62.7198" y="90.3325" width="39.2281" height="38.2672" filterUnits="userSpaceOnUse" color-interpolation-filters="sRGB">
<feFlood flood-opacity="0" result="BackgroundImageFix"/>
<feBlend mode="normal" in="SourceGraphic" in2="BackgroundImageFix" result="shape"/>
<feTurbulence type="fractalNoise" baseFrequency="2.0006704330444336 2.0006704330444336" numOctaves="3" seed="1626" />
<feDisplacementMap in="shape" scale="21.932647705078125" xChannelSelector="R" yChannelSelector="G" result="displacedImage" width="100%" height="100%" />
<feMerge result="effect1_texture_153_1094">
<feMergeNode in="displacedImage"/>
</feMerge>
</filter>
<filter id="filter2_g_153_1094" x="100.602" y="90.3325" width="39.2281" height="38.2672" filterUnits="userSpaceOnUse" color-interpolation-filters="sRGB">
<feFlood flood-opacity="0" result="BackgroundImageFix"/>
<feBlend mode="normal" in="SourceGraphic" in2="BackgroundImageFix" result="shape"/>
<feTurbulence type="fractalNoise" baseFrequency="2.0006704330444336 2.0006704330444336" numOctaves="3" seed="1626" />
<feDisplacementMap in="shape" scale="21.932647705078125" xChannelSelector="R" yChannelSelector="G" result="displacedImage" width="100%" height="100%" />
<feMerge result="effect1_texture_153_1094">
<feMergeNode in="displacedImage"/>
</feMerge>
</filter>
<linearGradient id="paint0_linear_153_1094" x1="122.63" y1="216.233" x2="122.63" y2="368.492" gradientUnits="userSpaceOnUse">
<stop stop-color="#FF1111"/>
<stop offset="1" stop-color="#F22020" stop-opacity="0"/>
</linearGradient>
<linearGradient id="paint1_linear_153_1094" x1="131.543" y1="241.866" x2="131.543" y2="423.638" gradientUnits="userSpaceOnUse">
<stop stop-color="#4D4C4B"/>
<stop offset="0.427885" stop-color="#686868"/>
<stop offset="1" stop-color="#3A3A3A"/>
</linearGradient>
<linearGradient id="paint2_linear_153_1094" x1="49.6291" y1="215.399" x2="49.6291" y2="423.639" gradientUnits="userSpaceOnUse">
<stop stop-color="#4D4C4B"/>
<stop offset="0.427885" stop-color="#686868"/>
<stop offset="1" stop-color="#3A3A3A"/>
</linearGradient>
<linearGradient id="paint3_linear_153_1094" x1="66.035" y1="234.524" x2="39.0388" y2="289.056" gradientUnits="userSpaceOnUse">
<stop offset="0.0212735"/>
<stop offset="1" stop-color="white" stop-opacity="0"/>
</linearGradient>
<linearGradient id="paint4_linear_153_1094" x1="151.572" y1="242.439" x2="107.469" y2="287.125" gradientUnits="userSpaceOnUse">
<stop stop-color="white" stop-opacity="0"/>
<stop offset="1"/>
</linearGradient>
<linearGradient id="paint5_linear_153_1094" x1="86.5521" y1="274.478" x2="83.9665" y2="146.516" gradientUnits="userSpaceOnUse">
<stop stop-opacity="0.5"/>
<stop offset="0.696681" stop-color="white"/>
<stop offset="1" stop-opacity="0.5"/>
</linearGradient>
<linearGradient id="paint6_linear_153_1094" x1="145.236" y1="193.49" x2="142.803" y2="168.18" gradientUnits="userSpaceOnUse">
<stop stop-color="#818181"/>
<stop offset="1" stop-color="#6F6F6F"/>
</linearGradient>
<linearGradient id="paint7_linear_153_1094" x1="46.7592" y1="165.144" x2="72.5212" y2="214.092" gradientUnits="userSpaceOnUse">
<stop stop-color="#3A342E"/>
<stop offset="1" stop-color="#7A7A7A"/>
</linearGradient>
<linearGradient id="paint8_linear_153_1094" x1="93.1097" y1="48.9775" x2="59.3987" y2="112.291" gradientUnits="userSpaceOnUse">
<stop stop-color="white" stop-opacity="0"/>
<stop offset="0.658834"/>
</linearGradient>
<linearGradient id="paint9_linear_153_1094" x1="80.9718" y1="54.3664" x2="130.554" y2="92.8526" gradientUnits="userSpaceOnUse">
<stop stop-color="white" stop-opacity="0"/>
<stop offset="0.658834"/>
</linearGradient>
<linearGradient id="paint10_linear_153_1094" x1="73.5" y1="95" x2="85" y2="148" gradientUnits="userSpaceOnUse">
<stop stop-opacity="0"/>
<stop offset="1"/>
</linearGradient>
<linearGradient id="paint11_linear_153_1094" x1="57" y1="153.5" x2="93" y2="142.5" gradientUnits="userSpaceOnUse">
<stop stop-color="white" stop-opacity="0"/>
<stop offset="1" stop-color="white"/>
</linearGradient>
<clipPath id="clip0_153_1094">
<rect width="211" height="425" fill="white"/>
</clipPath>
</defs>
</svg>
