<svg width="119" height="129" viewBox="0 0 119 129" fill="none" xmlns="http://www.w3.org/2000/svg">
<g filter="url(#filter0_g_144_1092)">
<mask id="path-1-outside-1_144_1092" maskUnits="userSpaceOnUse" x="1" y="1" width="117" height="128" fill="black">
<rect fill="white" x="1" y="1" width="117" height="128"/>
<path d="M60 9C73.8071 9 85 20.1929 85 34C85 34.9986 84.939 35.9832 84.8252 36.9512C102.901 47.9952 104.905 66.0004 104.087 77.2764C107.493 78.1944 110 81.3039 110 85C110 89.4182 106.418 93 102 93C100.85 93 99.757 92.7554 98.7686 92.3184L69.1904 117.13C64.4317 121.122 57.5226 121.197 52.7002 117.282C43.0856 109.477 27.7796 96.9745 21.624 91.5254C20.3181 92.4525 18.7235 93 17 93C12.5818 93 9.00013 89.4182 9 85C9.00012 81.1512 11.7185 77.9382 15.3398 77.1738C12.9391 55.8785 23.6911 43.7427 35.1699 36.9141C35.0589 35.958 35 34.9858 35 34C35 20.1929 46.1929 9 60 9Z"/>
</mask>
<path d="M60 9C73.8071 9 85 20.1929 85 34C85 34.9986 84.939 35.9832 84.8252 36.9512C102.901 47.9952 104.905 66.0004 104.087 77.2764C107.493 78.1944 110 81.3039 110 85C110 89.4182 106.418 93 102 93C100.85 93 99.757 92.7554 98.7686 92.3184L69.1904 117.13C64.4317 121.122 57.5226 121.197 52.7002 117.282C43.0856 109.477 27.7796 96.9745 21.624 91.5254C20.3181 92.4525 18.7235 93 17 93C12.5818 93 9.00013 89.4182 9 85C9.00012 81.1512 11.7185 77.9382 15.3398 77.1738C12.9391 55.8785 23.6911 43.7427 35.1699 36.9141C35.0589 35.958 35 34.9858 35 34C35 20.1929 46.1929 9 60 9Z" fill="#E08FB5"/>
<path d="M84.8252 36.9512L76.88 36.0167L76.2814 41.1061L80.6542 43.7778L84.8252 36.9512ZM104.087 77.2764L96.1079 76.6974L95.6301 83.2824L102.005 85.0007L104.087 77.2764ZM110 85L118 85.0002L118 84.9997L110 85ZM98.7686 92.3184L102.004 85.0018L97.4456 82.9861L93.6272 86.1892L98.7686 92.3184ZM69.1904 117.13L74.3316 123.259L74.3318 123.259L69.1904 117.13ZM52.7002 117.282L47.6582 123.493L47.6583 123.493L52.7002 117.282ZM21.624 91.5254L26.9267 85.5353L22.1716 81.3259L16.9931 85.002L21.624 91.5254ZM9 85L1 84.9997L1 85.0002L9 85ZM15.3398 77.1738L16.9921 85.0013L24.1037 83.5002L23.2895 76.2776L15.3398 77.1738ZM35.1699 36.9141L39.26 43.7895L43.7142 41.1397L43.1165 35.9915L35.1699 36.9141ZM60 9V17C69.3888 17 77 24.6112 77 34H85H93C93 15.7746 78.2254 1 60 1V9ZM85 34H77C77 34.6726 76.959 35.345 76.88 36.0167L84.8252 36.9512L92.7704 37.8856C92.9191 36.6214 93 35.3245 93 34H85ZM84.8252 36.9512L80.6542 43.7778C94.9792 52.5301 96.834 66.6901 96.1079 76.6974L104.087 77.2764L112.066 77.8553C112.976 65.3108 110.823 43.4603 88.9962 30.1245L84.8252 36.9512ZM104.087 77.2764L102.005 85.0007C102.002 84.9998 101.999 84.9987 101.997 84.9977C101.995 84.9968 101.994 84.9964 101.995 84.9969C101.996 84.9975 101.997 84.9987 101.999 85.0006C102.001 85.0025 102.003 85.0044 102.004 85.0059C102.007 85.009 102.005 85.0075 102.002 85.0001C102.001 84.9964 102 84.993 102 84.991C101.999 84.9887 102 84.9912 102 85.0003L110 85L118 84.9997C118 77.5945 112.976 71.3869 106.169 69.5521L104.087 77.2764ZM110 85L102 84.9998L102 85V93V101C110.837 101 118 93.8363 118 85.0002L110 85ZM102 93V85C101.996 85 101.995 84.9998 101.995 84.9999C101.996 84.9999 101.997 85.0001 101.999 85.0005C102.003 85.0014 102.005 85.0023 102.004 85.0018L98.7686 92.3184L95.5332 99.635C97.5123 100.51 99.7048 101 102 101V93ZM98.7686 92.3184L93.6272 86.1892L64.049 111.001L69.1904 117.13L74.3318 123.259L103.91 98.4475L98.7686 92.3184ZM69.1904 117.13L64.0492 111.001C62.2091 112.544 59.5707 112.555 57.7421 111.071L52.7002 117.282L47.6583 123.493C55.4744 129.838 66.6542 129.699 74.3316 123.259L69.1904 117.13ZM52.7002 117.282L57.7422 111.071C48.0688 103.219 32.9232 90.8435 26.9267 85.5353L21.624 91.5254L16.3213 97.5155C22.636 103.105 38.1024 115.736 47.6582 123.493L52.7002 117.282ZM21.624 91.5254L16.9931 85.002C16.987 85.0063 16.9872 85.0049 16.9947 85.0025C16.9984 85.0013 17.002 85.0004 17.0048 85C17.0077 84.9995 17.0066 85 17 85V93V101C20.4464 101 23.6486 99.899 26.2549 98.0488L21.624 91.5254ZM17 93V85L17 84.9998L9 85L1 85.0002C1.00026 93.8363 8.16329 101 17 101V93ZM9 85L17 85.0003C17 84.9952 17.0002 84.9923 17.0003 84.9912C17.0004 84.99 17.0005 84.9901 17.0003 84.9911C16.9999 84.9935 16.999 84.997 16.9976 85.0008C16.9949 85.0081 16.9932 85.0088 16.9964 85.005C16.9979 85.0031 16.9998 85.0012 17.0018 84.9994C17.0039 84.9976 17.0052 84.9968 17.0054 84.9966C17.0055 84.9966 17.0042 84.9974 17.0014 84.9985C16.9983 84.9997 16.995 85.0007 16.9921 85.0013L15.3398 77.1738L13.6876 69.3463C6.44393 70.8753 1.00024 77.2908 1 84.9997L9 85ZM15.3398 77.1738L23.2895 76.2776C22.2691 67.2265 24.0619 60.6156 26.9593 55.6517C29.918 50.5825 34.3339 46.7199 39.26 43.7895L35.1699 36.9141L31.0798 30.0387C24.5271 33.9368 17.8276 39.5564 13.1409 47.5862C8.39265 55.7212 6.00985 65.8259 7.3902 78.07L15.3398 77.1738ZM35.1699 36.9141L43.1165 35.9915C43.0398 35.3307 43 34.6666 43 34H35H27C27 35.305 27.078 36.5854 27.2233 37.8366L35.1699 36.9141ZM35 34H43C43 24.6112 50.6112 17 60 17V9V1C41.7746 1 27 15.7746 27 34H35Z" fill="#E08FB5" mask="url(#path-1-outside-1_144_1092)"/>
<circle cx="60" cy="34" r="25" fill="#E64C35"/>
<path d="M101.905 87.6933L61.4392 104.162C60.12 104.699 58.6421 104.693 57.3273 104.145L17.3798 87.5C3.82514 38.4229 52.3142 29.5432 58.6946 28.594C59.156 28.5253 59.6352 28.5365 60.0964 28.6069C114.458 36.9104 103.898 81.9097 102.514 87.0263C102.429 87.3394 102.205 87.571 101.905 87.6933Z" fill="#7F7F7F"/>
<path d="M59.5366 21.8393C60.0203 21.842 60.505 21.8578 60.9904 21.8866C74.7422 22.7027 74.3853 40.6288 63.9405 49.6113C61.694 51.5432 58.3567 51.4861 56.1775 49.4786L55.9214 49.2426C45.6974 39.8237 45.6355 21.76 59.5366 21.8393Z" fill="#C1C1C1"/>
<path d="M59.5366 21.8393C60.0203 21.842 60.505 21.8578 60.9904 21.8866C74.7422 22.7027 74.3853 40.6288 63.9405 49.6113C61.694 51.5432 58.3567 51.4861 56.1775 49.4786L55.9214 49.2426C45.6974 39.8237 45.6355 21.76 59.5366 21.8393Z" fill="url(#paint0_linear_144_1092)" fill-opacity="0.2"/>
<path d="M59.5366 21.8393C60.0203 21.842 60.505 21.8578 60.9904 21.8866C74.7422 22.7027 74.3853 40.6288 63.9405 49.6113C61.694 51.5432 58.3567 51.4861 56.1775 49.4786L55.9214 49.2426C45.6974 39.8237 45.6355 21.76 59.5366 21.8393Z" fill="url(#paint1_linear_144_1092)" fill-opacity="0.2"/>
<path d="M58.7978 62.0421C59.6808 61.0467 61.2804 61.074 62.1529 62.0786C72.9466 74.5058 94.6281 80.0716 100.705 80.1142C101.77 80.1217 102.417 81.3234 101.692 82.0279C94.1061 89.4016 85.7552 93.3198 77.5997 95.2732L78.0816 96.4032C74.173 96.7854 69.318 97.0917 63.9794 96.9745C59.2757 97.0924 54.8553 96.7857 50.9438 96.4032L51.1916 95.8205C40.7687 94.0929 29.9176 90.146 21.3147 81.9551C20.5903 81.2655 21.2051 80.1073 22.2574 80.1142C29.1401 80.1607 47.3403 74.958 58.7978 62.0421Z" fill="#BFBEB9"/>
<path d="M60.1765 94.2147C60.1766 84.2147 60.1764 62.2147 60.1764 62.2147" stroke="#9C9C9C" stroke-width="5.39923" stroke-linecap="round" stroke-linejoin="round"/>
<path d="M21.7303 81.2139C20.2089 79.8193 17.8501 79.9032 16.4315 81.4023C15.0128 82.9017 15.0592 85.262 16.536 86.7041L16.5379 86.7061C16.5379 86.7061 16.5404 86.7076 16.5418 86.709C16.5451 86.7122 16.5493 86.7176 16.5555 86.7236C16.5679 86.7357 16.5863 86.7531 16.6102 86.7764L16.8211 86.9814L16.8559 87.0152C17.0395 87.1935 17.2996 87.446 17.6287 87.7637C18.3298 88.4402 19.3456 89.4151 20.6063 90.6143C25.8987 95.4398 42.502 109.004 52.7005 117.282C57.5229 121.197 64.4311 121.122 69.1899 117.13L100.848 90.5752C102.084 89.3817 103.079 88.4115 103.767 87.7383C104.11 87.402 104.376 87.1397 104.558 86.961C104.648 86.8716 104.718 86.8023 104.765 86.7559C104.788 86.7328 104.806 86.7152 104.818 86.7032L104.837 86.6846C106.303 85.2315 106.332 82.8706 104.902 81.3819C103.472 79.8933 101.112 79.8271 99.6015 81.2334C96.2883 84.3171 87.4754 88.9753 76.2519 92.2666C65.1351 94.4811 56.7765 95.5289 45.4774 92.2666C34.069 88.9727 25.1036 84.3067 21.7303 81.2139Z" fill="#9C9C9C"/>
<path d="M80.9022 90.6552C65.1543 95.346 56.5253 95.1426 41.4021 90.6552" stroke="#1B1B1B" stroke-width="8" stroke-linecap="round" stroke-linejoin="round"/>
<g opacity="0.69">
<circle cx="67.2434" cy="103.889" r="4.37294" transform="rotate(-5.93582 67.2434 103.889)" fill="#797979"/>
<circle cx="60.684" cy="112.705" r="4.37294" transform="rotate(-5.93582 60.684 112.705)" fill="#797979"/>
<circle cx="54.0817" cy="104.158" r="4.37294" transform="rotate(-5.93582 54.0817 104.158)" fill="#797979"/>
</g>
<circle cx="102" cy="85" r="8" fill="#383838"/>
<circle cx="17" cy="85" r="8" fill="#383838"/>
</g>
<defs>
<filter id="filter0_g_144_1092" x="0.3" y="0.3" width="118.4" height="128.572" filterUnits="userSpaceOnUse" color-interpolation-filters="sRGB">
<feFlood flood-opacity="0" result="BackgroundImageFix"/>
<feBlend mode="normal" in="SourceGraphic" in2="BackgroundImageFix" result="shape"/>
<feTurbulence type="fractalNoise" baseFrequency="0.71428573131561279 0.71428573131561279" numOctaves="3" seed="6672" />
<feDisplacementMap in="shape" scale="1.3999999761581421" xChannelSelector="R" yChannelSelector="G" result="displacedImage" width="100%" height="100%" />
<feMerge result="effect1_texture_144_1092">
<feMergeNode in="displacedImage"/>
</feMerge>
</filter>
<linearGradient id="paint0_linear_144_1092" x1="84.6989" y1="11.5502" x2="63.7304" y2="73.4562" gradientUnits="userSpaceOnUse">
<stop stop-color="white" stop-opacity="0"/>
<stop offset="0.658834"/>
</linearGradient>
<linearGradient id="paint1_linear_144_1092" x1="67.7237" y1="15.8649" x2="111.347" y2="71.5033" gradientUnits="userSpaceOnUse">
<stop stop-color="white" stop-opacity="0"/>
<stop offset="0.658834"/>
</linearGradient>
</defs>
</svg>
