<svg width="211" height="425" viewBox="0 0 211 425" fill="none" xmlns="http://www.w3.org/2000/svg">
<g clip-path="url(#clip0_124_241)">
<g filter="url(#filter0_g_124_241)">
<path d="M29.9935 147.675V150.029L90.7656 143.964L148.421 153.062L148.807 152.187C151.018 147.167 148.051 141.384 142.683 140.252L90.7656 129.306L35.1031 141.343C32.1215 141.987 29.9935 144.625 29.9935 147.675Z" fill="#F57B35"/>
<path d="M29.9935 147.675V150.029L90.7656 143.964L148.421 153.062L148.807 152.187C151.018 147.167 148.051 141.384 142.683 140.252L90.7656 129.306L35.1031 141.343C32.1215 141.987 29.9935 144.625 29.9935 147.675Z" fill="black" fill-opacity="0.2"/>
<path d="M208.988 411.227L124.706 166.309L41.1529 160.082L18.8368 422.676H200.82C206.752 422.676 210.919 416.835 208.988 411.227Z" fill="#F57B35"/>
<path d="M208.988 411.227L124.706 166.309L41.1529 160.082L18.8368 422.676H200.82C206.752 422.676 210.919 416.835 208.988 411.227Z" fill="url(#paint0_linear_124_241)" fill-opacity="0.48"/>
<path d="M45.528 157.46L44.2838 245.824" stroke="#484848" stroke-width="27.9906" stroke-linejoin="round"/>
<path d="M49.7769 200.67L33.0062 213.306C32.19 213.921 31.0379 213.874 30.2979 213.169C16.3047 199.84 26.5527 189.647 30.3481 186.626C31.0786 186.044 32.0929 186.107 32.8136 186.701L49.7769 200.67Z" fill="#383838"/>
<path d="M52.2591 186.449C52.2591 186.449 43.9558 179.703 39.2851 171.4V159.982L53.4849 163.096L52.2591 186.449Z" fill="#1B1B1B"/>
<path d="M28.1707 253.935C27.9407 241.221 38.2736 230.707 51.2716 230.472C64.2696 230.237 74.9759 240.371 75.2059 253.084C75.4359 265.798 65.103 276.312 52.105 276.547C39.107 276.782 28.4006 266.649 28.1707 253.935Z" fill="#778D71" stroke="#778D71" stroke-width="0.999665"/>
<path d="M123.148 261.18L118.997 211.247L72.1074 236.629L46.6782 214.833L50.4084 261.18L123.148 261.18Z" fill="#4D4C4B"/>
<path d="M102.918 124.134H74.894V148.525C74.894 156.264 81.1673 162.537 88.9059 162.537V162.537C96.6445 162.537 102.918 156.264 102.918 148.525V124.134Z" fill="#A0BD92"/>
<path d="M116.248 140.038L65.4951 138.418L65.6326 141.776C66.1682 154.849 76.9227 165.172 90.0074 165.172V165.172C100.254 165.172 109.408 158.769 112.923 149.144L116.248 140.038Z" fill="#656565"/>
<path d="M102.918 133.515V143.376C97.7199 145 92.0551 143.964 87.7687 140.604L75.4136 130.921L94.6152 132.478L102.918 133.515Z" fill="#1B1B1B"/>
<path d="M82.1127 248.204L104.511 383.041H104.68L105.962 421.55C106.001 422.714 106.956 423.638 108.121 423.638H175.965C180.418 423.638 182.649 418.255 179.501 415.105L147.456 383.041H148.23L119.515 241.866L82.1127 248.204Z" fill="url(#paint1_linear_124_241)"/>
<path d="M45.6843 300.44V360.996L44.6462 382.617H44.4655L11.9948 415.107C8.84749 418.257 11.0777 423.639 15.53 423.639H86.5759C87.8329 423.639 88.825 422.57 88.7302 421.316L87.5485 405.737L86.362 360.996L84.7448 302.585L83.1882 244.461L46.861 215.399L45.6843 300.44Z" fill="url(#paint2_linear_124_241)"/>
<path d="M56.3918 367.52L56.8563 361.946L87.092 366.805V376.524C87.092 376.524 73.8284 376.181 63.1592 375.495C59.0517 375.231 56.05 371.622 56.3918 367.52Z" fill="#1B1B1B"/>
<path d="M112.316 368.757L112.133 361.946L102.75 366.625V375.984C102.75 375.984 104.653 375.831 106.913 375.526C110.242 375.076 112.406 372.115 112.316 368.757Z" fill="#1B1B1B"/>
<circle cx="141.831" cy="229.93" r="25.4291" fill="#555555"/>
<path d="M107.945 291.342L97.6026 301.901C96.3778 303.152 95.8352 304.919 96.147 306.641L97.6896 315.162C97.9941 316.844 99.0767 318.282 100.608 319.04L114.069 325.699C116.18 326.743 118.724 326.299 120.356 324.601L130.987 313.538C132.188 312.289 132.716 310.54 132.407 308.835L130.879 300.396C130.563 298.651 129.411 297.172 127.795 296.44L114.031 290.202C111.964 289.266 109.532 289.721 107.945 291.342Z" fill="#575757"/>
<path d="M62.6157 289.54L50.6517 290.34C47.8158 290.529 45.6124 292.885 45.6124 295.727L45.6124 312.243C45.6124 313.831 46.3111 315.338 47.5228 316.364L59.1469 326.206C60.9443 327.727 63.5208 327.908 65.5134 326.653L78.4955 318.476C79.9613 317.552 80.8951 315.982 81.0059 314.253L81.5549 305.694C81.6684 303.924 80.9054 302.211 79.5137 301.112L66.3226 290.691C65.2723 289.861 63.9512 289.451 62.6157 289.54Z" fill="#575757"/>
<path d="M60.6358 310.654L58.4229 310.244C51.2571 308.917 46.0579 302.666 46.0579 295.379V286.497H61.9107L60.6358 310.654Z" fill="#1B1B1B"/>
<g style="mix-blend-mode:multiply" opacity="0.4" filter="url(#filter1_g_124_241)">
<ellipse cx="8.6477" cy="8.16727" rx="8.6477" ry="8.16727" transform="matrix(-1 0 0 1 90.9816 101.299)" fill="#B0C5B1"/>
</g>
<path d="M56.5925 363.767L65.3517 234.446C65.5437 231.612 67.8983 229.411 70.7386 229.411H95.6855C98.4632 229.411 100.788 231.519 101.059 234.283L113.745 363.605C114.056 366.78 111.561 369.531 108.371 369.531H61.9794C58.8539 369.531 56.3813 366.885 56.5925 363.767Z" fill="#DBDAD0"/>
<path d="M85.3586 242.609H117.967L134.164 311.8L108.248 311.26L106.377 299.096C106.225 298.11 105.231 297.492 104.28 297.792C98.3027 299.678 92.1233 295.52 91.618 289.273L88.8512 255.063C88.5003 250.726 87.3144 246.497 85.3586 242.609Z" fill="#1B1B1B"/>
<path d="M24.3349 278.806C23.4579 244.64 36.1124 226.858 43.2081 222.653L71.9108 235.782C72.7298 236.156 73.2304 237 73.1667 237.898L69.7945 285.496C69.5045 289.589 66.0018 292.703 61.9027 292.512L37.1564 291.359C30.2474 291.038 24.5123 285.72 24.3349 278.806Z" fill="#707070"/>
<path d="M24.3349 278.806C23.4579 244.64 36.1124 226.858 43.2081 222.653L71.9108 235.782C72.7298 236.156 73.2304 237 73.1667 237.898L69.7945 285.496C69.5045 289.589 66.0018 292.703 61.9027 292.512L37.1564 291.359C30.2474 291.038 24.5123 285.72 24.3349 278.806Z" fill="url(#paint3_linear_124_241)" fill-opacity="0.2"/>
<path d="M158.277 277.077C160.949 244.808 143.805 228.51 134.004 224.82L92.919 240.05C92.4624 240.219 92.1755 240.673 92.2187 241.158L96.0348 284.001C96.3972 288.07 99.9261 291.114 104.004 290.877L145.923 288.433C152.297 288.061 157.75 283.439 158.277 277.077Z" fill="#707070"/>
<path d="M158.277 277.077C160.949 244.808 143.805 228.51 134.004 224.82L92.919 240.05C92.4624 240.219 92.1755 240.673 92.2187 241.158L96.0348 284.001C96.3972 288.07 99.9261 291.114 104.004 290.877L145.923 288.433C152.297 288.061 157.75 283.439 158.277 277.077Z" fill="url(#paint4_linear_124_241)" fill-opacity="0.2"/>
<g style="mix-blend-mode:multiply" opacity="0.4" filter="url(#filter2_g_124_241)">
<ellipse cx="8.6477" cy="8.16727" rx="8.6477" ry="8.16727" transform="matrix(-1 0 0 1 128.864 101.299)" fill="#B0C5B1"/>
</g>
<path d="M33.0997 175.673L38.9292 175.673C40.9004 175.673 42.6216 174.338 43.1125 172.429L47.1377 156.775L28.7804 155.886L28.7804 171.353C28.7804 173.739 30.7142 175.673 33.0997 175.673Z" fill="#5C5B5B"/>
<path d="M38.5978 155.2V155.2C36.4617 176.575 38.8209 198.161 45.5236 218.57L47.3797 224.221C47.3797 224.221 58.7969 239.271 84.226 241.866C104.985 241.866 137.16 224.221 137.16 224.221L136.468 220.16C132.802 198.64 133.037 176.637 137.16 155.2V155.2L103.057 149.869V131.404L88.3867 133.475L70.8943 130.361V148.136L38.5978 155.2Z" fill="#656565"/>
<path d="M38.5978 155.2V155.2C36.4617 176.575 38.8209 198.161 45.5236 218.57L47.3797 224.221C47.3797 224.221 58.7969 239.271 84.226 241.866C104.985 241.866 137.16 224.221 137.16 224.221L136.468 220.16C132.802 198.64 133.037 176.637 137.16 155.2V155.2L103.057 149.869V131.404L88.3867 133.475L70.8943 130.361V148.136L38.5978 155.2Z" fill="url(#paint5_linear_124_241)" fill-opacity="0.2"/>
<path d="M62.6899 154.148C62.6899 154.148 86.1758 174.456 111.662 158.471" stroke="#777777" stroke-width="10.7985" stroke-linecap="square" stroke-linejoin="round"/>
<circle cx="3.11377" cy="3.11377" r="2.61394" transform="matrix(-1 0 0 1 123.677 101.244)" fill="#1B1B1B" stroke="#1B1B1B" stroke-width="0.999665"/>
<path d="M108.149 139.631L106.32 146.623C105.249 150.716 101.027 153.133 96.9549 151.984L95.1437 151.474C87.342 149.273 80.0848 145.47 73.8353 140.308L72.8549 139.498C71.6132 138.472 70.8943 136.946 70.8943 135.335L70.8943 131.651L90.012 139.249C90.6466 139.501 91.3233 139.631 92.0062 139.631H108.149Z" fill="#1B1B1B"/>
<circle cx="3.11377" cy="3.11377" r="2.61394" transform="matrix(-1 0 0 1 100.062 101.244)" fill="#1B1B1B" stroke="#1B1B1B" stroke-width="0.999665"/>
<path d="M95.3825 93.6544L100.315 96.3683" stroke="#DBDAD0" stroke-width="5.99799" stroke-linecap="round" style="mix-blend-mode:multiply"/>
<path d="M121.592 93.6544L116.684 96.3683" stroke="#DBDAD0" stroke-width="5.99799" stroke-linecap="round" style="mix-blend-mode:multiply"/>
<path d="M99.277 118.354V118.354C103.195 120.311 107.816 120.314 111.732 118.354V118.354" stroke="#1B1B1B" stroke-width="3.23954" stroke-linecap="round" stroke-linejoin="round"/>
<path d="M145.404 168.114L173.66 184.055C176.495 185.655 177.281 189.382 175.332 191.99L147.585 229.123" stroke="#555555" stroke-width="33.4753" stroke-linejoin="round"/>
<path d="M148.103 202.129L172.94 221.026" stroke="#444443" stroke-width="10.7985" stroke-linecap="round"/>
<path d="M154.043 192.52L184.278 210.338" stroke="#1B1B1B" stroke-width="5.39923"/>
<path d="M146.747 189.218L162.324 161.752C163.642 159.43 162.557 156.481 160.05 155.564L136.765 147.057L134.704 162.241L133.624 185.458L140.396 190.542C142.479 192.105 145.462 191.484 146.747 189.218Z" fill="url(#paint6_linear_124_241)"/>
<path d="M137.944 189.777L134.164 181.138L133.624 188.157L137.944 189.777Z" fill="#1B1B1B"/>
<path d="M41.8358 205.975L34.2783 211.914L42.3772 208.675L41.8358 205.975Z" fill="#1B1B1B"/>
<path d="M154.405 147.454L109.229 137.338V151.489C109.229 156.222 112.032 160.513 116.439 162.237C122.594 164.646 131.006 167.64 134.619 167.573C146.118 167.357 152.259 159.069 156.473 152.375C157.668 150.476 156.594 147.945 154.405 147.454Z" fill="#4D4C4B"/>
<path d="M23.2963 148.156L70.3544 138.418V151.545C70.3544 156.399 67.4072 160.773 62.8427 162.424C56.4191 164.747 47.633 167.638 43.8604 167.573C32.0295 167.368 25.6334 159.595 21.2419 153.19C19.9324 151.279 21.0284 148.625 23.2963 148.156Z" fill="#4D4C4B"/>
<path d="M49.3544 142.922L61.1287 157.275H69.4321C70.1961 152.692 71.5211 141.804 72.3329 135.879C72.566 134.178 70.7539 132.522 69.0937 132.961L51.031 137.736C48.7506 138.339 47.8583 141.099 49.3544 142.922Z" fill="#F57B35"/>
<path d="M68.2936 154.682L53.1757 136.325L66.6738 130.385L74.2327 133.625L70.9932 154.682H68.2936Z" fill="#1B1B1B"/>
<path d="M129.726 144.144L118.176 157.275H109.872C109.103 152.661 107.848 142.251 107.08 136.661C106.855 135.024 108.501 133.407 110.123 133.722L127.304 137.051C130.581 137.685 131.93 141.638 129.726 144.144Z" fill="#F57B35"/>
<path d="M81.7917 212.454L69.5354 224.22C68.7689 224.956 67.6638 225.218 66.6483 224.906L64.74 224.319C57.7717 222.175 51.0615 219.267 44.7314 215.65C43.081 214.707 41.0275 215.899 41.0275 217.8L41.0275 217.89C41.0275 218.858 41.5693 219.739 42.448 220.146C61.5652 228.994 102.924 239.918 135.682 217.753C136.082 217.482 136.324 217.024 136.324 216.541L136.324 216.451C136.324 215.262 134.958 214.592 134.018 215.32C125.506 221.914 115.306 225.972 104.591 227.028L99.863 227.494C99.3565 227.543 98.852 227.382 98.469 227.046L81.7917 212.454Z" fill="#464646" stroke="#464646" stroke-width="6.47908" stroke-linecap="round" stroke-linejoin="round"/>
<path d="M41.2974 223.792L42.1125 224.254C71.7068 241.024 107.973 240.848 137.404 223.792V223.792" stroke="#383838" stroke-width="10.7985" stroke-linecap="round" stroke-linejoin="round"/>
<path d="M41.2974 223.792L42.1125 224.254C71.7068 241.024 107.973 240.848 137.404 223.792V223.792" stroke="black" stroke-opacity="0.2" stroke-width="10.7985" stroke-linecap="round" stroke-linejoin="round"/>
<path d="M62.4295 169.484C56.1462 167.835 54.4928 160.748 56.4764 156.179C57.3665 154.129 59.986 154.484 61.3803 156.231L66.4345 162.563L66.4014 165.833C66.3788 168.073 64.5969 170.053 62.4295 169.484Z" fill="#1B1B1B"/>
<path d="M111.215 169.57C103.942 167.966 102.857 159.584 106.275 155.439C107.06 154.488 108.39 154.324 109.582 154.642L115.807 156.302L115.191 166.046C115.056 168.195 113.318 170.033 111.215 169.57Z" fill="#1B1B1B"/>
<g opacity="0.37">
<path d="M86 176C82.3194 186.325 82.7118 202.515 82.7118 202.515" stroke="#656565" stroke-width="10.7985" stroke-linecap="round" style="mix-blend-mode:screen"/>
</g>
<path d="M117.698 387.651L147.022 379.391L149.097 384.581L154.043 389.77H117.991C116.737 389.77 116.491 387.991 117.698 387.651Z" fill="#1B1B1B"/>
<path d="M72.3037 387.734L44.978 381.417L36.6746 390.239L72.0718 389.866C73.3498 389.852 73.5489 388.022 72.3037 387.734Z" fill="#1B1B1B"/>
<path d="M63.0467 175.185C62.6988 174.245 61.3692 174.245 61.0213 175.185L59.4988 179.3L55.5105 177.467C54.5999 177.049 53.6603 177.988 54.0789 178.899L55.9129 182.885L51.7967 184.409C50.8565 184.757 50.8565 186.087 51.7967 186.435L55.9129 187.958L54.0789 191.945C53.6603 192.855 54.5999 193.795 55.5105 193.376L59.4988 191.543L61.0213 195.659C61.3692 196.599 62.6988 196.599 63.0467 195.659L64.5691 191.543L68.5564 193.376C69.4672 193.795 70.4068 192.856 69.9881 191.945L68.156 187.957L72.2703 186.435C73.2104 186.087 73.2104 184.757 72.2703 184.409L68.156 182.886L69.9881 178.899C70.4068 177.988 69.4672 177.049 68.5564 177.467L64.5701 179.3L63.0467 175.185Z" fill="url(#paint7_linear_124_241)"/>
<path d="M152.016 192.955L170.617 164.811C171.412 163.608 172.944 163.078 174.303 163.56C205.172 174.513 192.599 198.794 187.967 206.048C187.164 207.305 185.577 207.712 184.211 207.112L152.016 192.955Z" fill="#383838"/>
<path d="M166.627 46.7344C166.975 45.7943 168.304 45.7943 168.652 46.7344L170.821 52.5961C170.931 52.8916 171.164 53.1247 171.459 53.2341L177.321 55.4031C178.261 55.7509 178.261 57.0807 177.321 57.4285L171.459 59.5975C171.164 59.7069 170.931 59.9399 170.821 60.2355L168.652 66.0972C168.304 67.0373 166.975 67.0373 166.627 66.0972L164.458 60.2355C164.348 59.9399 164.115 59.7069 163.82 59.5975L157.958 57.4285C157.018 57.0807 157.018 55.7509 157.958 55.4031L163.82 53.2341C164.115 53.1247 164.348 52.8916 164.458 52.5961L166.627 46.7344Z" fill="#DBDAD0"/>
<path d="M154.208 68.3315C154.556 67.3913 155.886 67.3913 156.234 68.3315L157.382 71.4345C157.492 71.73 157.725 71.9631 158.02 72.0724L161.123 73.2206C162.063 73.5685 162.063 74.8982 161.123 75.2461L158.02 76.3943C157.725 76.5037 157.492 76.7367 157.382 77.0323L156.234 80.1353C155.886 81.0754 154.556 81.0754 154.208 80.1353L153.06 77.0323C152.951 76.7367 152.718 76.5037 152.422 76.3943L149.319 75.2461C148.379 74.8982 148.379 73.5685 149.319 73.2206L152.422 72.0724C152.718 71.9631 152.951 71.73 153.06 71.4345L154.208 68.3315Z" fill="#E64C35"/>
<circle cx="67.2137" cy="162.241" r="8.09885" fill="#DBDAD0"/>
<circle cx="114.727" cy="162.241" r="8.09885" fill="#DBDAD0"/>
<circle cx="67.2137" cy="162.241" r="3.77946" fill="#9C9C9C"/>
<circle cx="114.727" cy="162.241" r="3.77946" fill="#9C9C9C"/>
<path d="M59.1947 357.134L101.195 357.134" stroke="#E64C35" stroke-width="7.55893" stroke-linecap="round" stroke-linejoin="round"/>
<path d="M60.1947 343.134L100.195 343.134" stroke="#E64C35" stroke-width="7.55893" stroke-linecap="round" stroke-linejoin="round"/>
<path d="M118.541 348.994L113.196 365.792L106.088 290.743H113.196L116.887 293.442L118.541 348.994Z" fill="#1B1B1B"/>
<g style="mix-blend-mode:screen" opacity="0.53">
<path d="M29.419 151.928L34.0188 150.903" stroke="#DBDAD0" stroke-width="5" stroke-linecap="round"/>
</g>
<g style="mix-blend-mode:screen" opacity="0.53">
<path d="M40 150.04L40.3415 150.122" stroke="#DBDAD0" stroke-width="5" stroke-linecap="round"/>
</g>
<path d="M124.446 68.8343C120.569 68.6566 96.3696 54.7964 55.8753 85.8329L54.7955 65.5945C52.6358 41.8379 75.2598 31.5533 124.446 68.8343Z" fill="#C1C1C1"/>
<path d="M124.446 68.8343C120.569 68.6566 96.3696 54.7964 55.8753 85.8329L54.7955 65.5945C52.6358 41.8379 75.2598 31.5533 124.446 68.8343Z" fill="url(#paint8_linear_124_241)" fill-opacity="0.2"/>
<path d="M124.446 68.8343C120.569 68.6566 96.3696 54.7964 55.8753 85.8329L54.7955 65.5945C52.6358 41.8379 75.2598 31.5533 124.446 68.8343Z" fill="url(#paint9_linear_124_241)" fill-opacity="0.2"/>
<path d="M151.061 115.024L116.986 147.123C115.89 148.156 114.399 148.691 112.9 148.548C99.6156 147.287 88.8619 143.382 80.5238 138.878C63.6381 129.759 51.7489 111.389 54.1132 92.3441C57.6145 64.1393 87.1908 56.9559 87.1908 56.9559C123.687 52.0356 134.632 85.4824 136.135 90.8042C136.272 91.2875 136.311 91.7623 136.322 92.2644C136.389 95.5738 137.486 108.844 150.583 113.106C151.401 113.372 151.687 114.434 151.061 115.024Z" fill="#7F7F7F"/>
<g style="mix-blend-mode:screen" opacity="0.23">
<path d="M73.3778 76.9331L77.021 74.8869" stroke="#DBDAD0" stroke-width="8.63877" stroke-linecap="round"/>
</g>
<g style="mix-blend-mode:screen" opacity="0.23">
<path d="M86.8759 71.1089L87.227 71.1088" stroke="#DBDAD0" stroke-width="8.63877" stroke-linecap="round"/>
</g>
<path d="M57.4171 42.435L59.8602 47.0515C61.1307 49.4524 59.0599 52.2569 56.3913 51.7492L51.2857 50.7778C50.4025 50.6098 49.5454 50.3261 48.7364 49.9339L45.597 48.4124C43.8662 47.5735 41.9383 49.1224 42.3846 50.9933L42.4449 51.246C43.8488 57.1312 39.6436 62.8723 33.609 63.3089C32.2356 63.4083 31.2796 64.7163 31.6019 66.0551L32.9828 71.7902C34.8218 79.4276 29.8269 87.0305 22.087 88.3749C16.6171 89.3249 11.0535 87.3044 7.46804 83.0656L6.72664 82.1891C-1.07063 72.971 1.96525 58.8691 12.865 53.6761L19.5141 50.5083C22.2311 49.2138 23.2057 45.8355 21.5955 43.2927L20.3912 41.391C16.0882 34.5959 17.4369 25.6708 23.5555 20.4506L24.6029 19.557C28.5197 16.2153 33.7093 14.7676 38.7903 15.5994C45.3096 16.6667 50.6726 21.3136 52.6568 27.6146L57.0394 41.5313C57.1377 41.8433 57.2641 42.1458 57.4171 42.435Z" fill="#E64C35"/>
<g style="mix-blend-mode:multiply" opacity="0.42">
<path d="M15.318 60.9672C15.318 60.9672 26.0233 59.187 27.6703 71.4561" stroke="#E64C35" stroke-width="5.39923" stroke-linecap="round"/>
</g>
<g style="mix-blend-mode:multiply" opacity="0.42">
<path d="M32.7992 48.3274C34.4576 46.7665 38.9152 44.3131 43.4775 46.9867" stroke="#E64C35" stroke-width="5.39923" stroke-linecap="round"/>
</g>
<path d="M128.288 75.9622C113.612 93.5043 81.8379 94.4644 71.881 94.3121C70.8613 94.2965 70.3714 95.5641 71.1725 96.1951C92.1931 112.753 131.564 112.335 148.202 110.948L143.084 100.711C139.309 93.162 136.397 85.2118 134.402 77.0107C133.778 74.4462 129.982 73.9379 128.288 75.9622Z" fill="#BFBEB9"/>
<path d="M151.982 113.108C139.024 108.789 135.784 83.9519 135.784 83.9519" stroke="#9C9C9C" stroke-width="5.39923" stroke-linecap="round" stroke-linejoin="round"/>
<path d="M108.681 145.448C91.7568 130.638 79.632 109.869 79.632 109.869L122.826 142.237L119.327 145.27C116.262 147.929 111.734 148.121 108.681 145.448Z" fill="#1B1B1B"/>
<path d="M147.581 112.755C116.602 120.31 76.1462 103.027 65.6284 92.5909C65.6284 92.5909 98.3422 127.158 115.922 139.755C118.646 141.707 122.292 141.178 124.662 138.808L148.741 114.729C149.547 113.923 148.689 112.484 147.581 112.755Z" fill="#9C9C9C" stroke="#9C9C9C" stroke-width="7.55893" stroke-linecap="round" stroke-linejoin="round"/>
<circle cx="67.2137" cy="94.2108" r="5.93916" fill="#383838"/>
<circle cx="126.961" cy="119.582" r="3.57191" transform="rotate(8.27115 126.961 119.582)" fill="#797979"/>
<circle cx="136.553" cy="121.879" r="3.57191" transform="rotate(8.27115 136.553 121.879)" fill="#797979"/>
<circle cx="128.328" cy="128.804" r="3.57191" transform="rotate(8.27115 128.328 128.804)" fill="#797979"/>
<circle cx="120.986" cy="135.858" r="3.57191" transform="rotate(8.27115 120.986 135.858)" fill="#797979"/>
<circle cx="118.736" cy="126.507" r="3.57191" transform="rotate(8.27115 118.736 126.507)" fill="#797979"/>
<circle cx="116.485" cy="117.157" r="3.57191" transform="rotate(8.27115 116.485 117.157)" fill="#797979"/>
<path d="M144.423 108.249V108.249C141.199 108.965 137.891 109.236 134.593 109.053L120.126 108.249" stroke="#1B1B1B" stroke-width="5.39923" stroke-linecap="round" stroke-linejoin="round"/>
<g style="mix-blend-mode:screen" opacity="0.19">
<path d="M26.1795 29.9597L28.4278 27.3735" stroke="#DBDAD0" stroke-width="8.63877" stroke-linecap="round"/>
</g>
<g style="mix-blend-mode:screen" opacity="0.19">
<path d="M38.2827 23.5956L38.6339 23.5955" stroke="#DBDAD0" stroke-width="8.63877" stroke-linecap="round"/>
</g>
<path d="M141.237 256C143.863 263.353 144.295 268.002 143.903 276.876" stroke="#7C7C7C" stroke-width="8" stroke-linecap="round"/>
<path d="M129.737 263C129.737 263 131.285 268.002 130.893 276.876" stroke="#7C7C7C" stroke-width="8" stroke-linecap="round"/>
</g>
</g>
<defs>
<filter id="filter0_g_124_241" x="1.71983" y="14.7215" width="208.394" height="409.565" filterUnits="userSpaceOnUse" color-interpolation-filters="sRGB">
<feFlood flood-opacity="0" result="BackgroundImageFix"/>
<feBlend mode="normal" in="SourceGraphic" in2="BackgroundImageFix" result="shape"/>
<feTurbulence type="fractalNoise" baseFrequency="1.15757155418396 1.15757155418396" numOctaves="3" seed="7140" />
<feDisplacementMap in="shape" scale="1.2958163022994995" xChannelSelector="R" yChannelSelector="G" result="displacedImage" width="100%" height="100%" />
<feMerge result="effect1_texture_124_241">
<feMergeNode in="displacedImage"/>
</feMerge>
</filter>
<filter id="filter1_g_124_241" x="62.7198" y="90.3326" width="39.2281" height="38.2672" filterUnits="userSpaceOnUse" color-interpolation-filters="sRGB">
<feFlood flood-opacity="0" result="BackgroundImageFix"/>
<feBlend mode="normal" in="SourceGraphic" in2="BackgroundImageFix" result="shape"/>
<feTurbulence type="fractalNoise" baseFrequency="2.0006704330444336 2.0006704330444336" numOctaves="3" seed="1626" />
<feDisplacementMap in="shape" scale="21.932647705078125" xChannelSelector="R" yChannelSelector="G" result="displacedImage" width="100%" height="100%" />
<feMerge result="effect1_texture_124_241">
<feMergeNode in="displacedImage"/>
</feMerge>
</filter>
<filter id="filter2_g_124_241" x="100.602" y="90.3326" width="39.2281" height="38.2672" filterUnits="userSpaceOnUse" color-interpolation-filters="sRGB">
<feFlood flood-opacity="0" result="BackgroundImageFix"/>
<feBlend mode="normal" in="SourceGraphic" in2="BackgroundImageFix" result="shape"/>
<feTurbulence type="fractalNoise" baseFrequency="2.0006704330444336 2.0006704330444336" numOctaves="3" seed="1626" />
<feDisplacementMap in="shape" scale="21.932647705078125" xChannelSelector="R" yChannelSelector="G" result="displacedImage" width="100%" height="100%" />
<feMerge result="effect1_texture_124_241">
<feMergeNode in="displacedImage"/>
</feMerge>
</filter>
<linearGradient id="paint0_linear_124_241" x1="122.63" y1="216.233" x2="122.63" y2="368.492" gradientUnits="userSpaceOnUse">
<stop stop-color="#FF1111"/>
<stop offset="1" stop-color="#F22020" stop-opacity="0"/>
</linearGradient>
<linearGradient id="paint1_linear_124_241" x1="131.543" y1="241.866" x2="131.543" y2="423.638" gradientUnits="userSpaceOnUse">
<stop stop-color="#4D4C4B"/>
<stop offset="0.427885" stop-color="#686868"/>
<stop offset="1" stop-color="#3A3A3A"/>
</linearGradient>
<linearGradient id="paint2_linear_124_241" x1="49.6288" y1="215.399" x2="49.6288" y2="423.639" gradientUnits="userSpaceOnUse">
<stop stop-color="#4D4C4B"/>
<stop offset="0.427885" stop-color="#686868"/>
<stop offset="1" stop-color="#3A3A3A"/>
</linearGradient>
<linearGradient id="paint3_linear_124_241" x1="66.035" y1="234.524" x2="39.0388" y2="289.057" gradientUnits="userSpaceOnUse">
<stop offset="0.0212735"/>
<stop offset="1" stop-color="white" stop-opacity="0"/>
</linearGradient>
<linearGradient id="paint4_linear_124_241" x1="151.572" y1="242.439" x2="107.469" y2="287.126" gradientUnits="userSpaceOnUse">
<stop stop-color="white" stop-opacity="0"/>
<stop offset="1"/>
</linearGradient>
<linearGradient id="paint5_linear_124_241" x1="86.5521" y1="274.478" x2="83.9665" y2="146.517" gradientUnits="userSpaceOnUse">
<stop stop-opacity="0.5"/>
<stop offset="0.696681" stop-color="white"/>
<stop offset="1" stop-opacity="0.5"/>
</linearGradient>
<linearGradient id="paint6_linear_124_241" x1="145.236" y1="193.49" x2="142.803" y2="168.18" gradientUnits="userSpaceOnUse">
<stop stop-color="#818181"/>
<stop offset="1" stop-color="#6F6F6F"/>
</linearGradient>
<linearGradient id="paint7_linear_124_241" x1="46.7592" y1="165.145" x2="72.5212" y2="214.092" gradientUnits="userSpaceOnUse">
<stop stop-color="#3A342E"/>
<stop offset="1" stop-color="#7A7A7A"/>
</linearGradient>
<linearGradient id="paint8_linear_124_241" x1="93.1098" y1="39.9775" x2="59.3988" y2="103.291" gradientUnits="userSpaceOnUse">
<stop stop-color="white" stop-opacity="0"/>
<stop offset="0.658834"/>
</linearGradient>
<linearGradient id="paint9_linear_124_241" x1="80.9719" y1="45.3664" x2="130.554" y2="83.8526" gradientUnits="userSpaceOnUse">
<stop stop-color="white" stop-opacity="0"/>
<stop offset="0.658834"/>
</linearGradient>
<clipPath id="clip0_124_241">
<rect width="211" height="425" fill="white"/>
</clipPath>
</defs>
</svg>
