<svg width="146" height="158" viewBox="0 0 146 158" fill="none" xmlns="http://www.w3.org/2000/svg">
<g filter="url(#filter0_g_235_172)">
<mask id="path-1-outside-1_235_172" maskUnits="userSpaceOnUse" x="0.666748" y="0.66687" width="144" height="157" fill="black">
<rect fill="white" x="0.666748" y="0.66687" width="144" height="157"/>
<path d="M73.197 10.6669C90.1257 10.6669 103.849 24.3905 103.849 41.3192C103.849 42.5438 103.775 43.7513 103.635 44.9384C125.798 58.4794 128.255 80.5547 127.252 94.3798C131.427 95.5055 134.501 99.3172 134.502 103.849C134.502 109.266 130.11 113.658 124.693 113.658C123.283 113.658 121.944 113.358 120.732 112.822L84.4646 143.244C78.63 148.138 70.1603 148.23 64.2478 143.431C52.4594 133.861 33.6916 118.532 26.1443 111.85C24.5432 112.987 22.5882 113.658 20.4753 113.658C15.0582 113.658 10.6667 109.266 10.6667 103.849C10.6672 99.1293 14.0006 95.1895 18.4412 94.2528C15.4978 68.1433 28.6792 53.263 42.7527 44.8905C42.6167 43.7189 42.5447 42.5273 42.5447 41.3192C42.5447 24.3905 56.2683 10.6669 73.197 10.6669Z"/>
</mask>
<path d="M73.197 10.6669C90.1257 10.6669 103.849 24.3905 103.849 41.3192C103.849 42.5438 103.775 43.7513 103.635 44.9384C125.798 58.4794 128.255 80.5547 127.252 94.3798C131.427 95.5055 134.501 99.3172 134.502 103.849C134.502 109.266 130.11 113.658 124.693 113.658C123.283 113.658 121.944 113.358 120.732 112.822L84.4646 143.244C78.63 148.138 70.1603 148.23 64.2478 143.431C52.4594 133.861 33.6916 118.532 26.1443 111.85C24.5432 112.987 22.5882 113.658 20.4753 113.658C15.0582 113.658 10.6667 109.266 10.6667 103.849C10.6672 99.1293 14.0006 95.1895 18.4412 94.2528C15.4978 68.1433 28.6792 53.263 42.7527 44.8905C42.6167 43.7189 42.5447 42.5273 42.5447 41.3192C42.5447 24.3905 56.2683 10.6669 73.197 10.6669Z" fill="#FFBC2E"/>
<path d="M73.197 10.6669V0.858174H73.197L73.197 10.6669ZM103.849 41.3192L113.658 41.3193V41.3192H103.849ZM103.635 44.9384L93.894 43.7924L93.1599 50.0325L98.5215 53.3084L103.635 44.9384ZM127.252 94.3798L117.469 93.6698L116.883 101.743L124.698 103.85L127.252 94.3798ZM134.502 103.849H144.31V103.848L134.502 103.849ZM124.693 113.658V123.467H124.694L124.693 113.658ZM120.732 112.822L124.698 103.851L119.11 101.381L114.429 105.307L120.732 112.822ZM84.4646 143.244L90.768 150.759L90.7683 150.759L84.4646 143.244ZM64.2478 143.431L58.0659 151.046L58.0661 151.046L64.2478 143.431ZM26.1443 111.85L32.6458 104.506L26.8161 99.3454L20.4671 103.852L26.1443 111.85ZM20.4753 113.658L20.4753 123.467H20.4755L20.4753 113.658ZM10.6667 103.849L0.858052 103.848V103.849H10.6667ZM18.4412 94.2528L20.4656 103.85L29.1865 102.011L28.1881 93.154L18.4412 94.2528ZM42.7527 44.8905L47.7676 53.3203L53.2285 50.0715L52.496 43.7598L42.7527 44.8905ZM42.5447 41.3192H32.736L32.736 41.3193L42.5447 41.3192ZM73.197 10.6669V20.4756C84.7086 20.4756 94.0407 29.8077 94.0407 41.3192H103.849H113.658C113.658 18.9733 95.5429 0.858174 73.197 0.858174V10.6669ZM103.849 41.3192L94.0407 41.3192C94.0407 42.147 93.9905 42.9717 93.894 43.7924L103.635 44.9384L113.377 46.0844C113.56 44.5309 113.658 42.9406 113.658 41.3193L103.849 41.3192ZM103.635 44.9384L98.5215 53.3084C116.085 64.0397 118.359 81.4004 117.469 93.6698L127.252 94.3798L137.035 95.0897C138.151 79.7091 135.511 52.9192 108.75 36.5683L103.635 44.9384ZM127.252 94.3798L124.698 103.85C124.694 103.849 124.691 103.848 124.689 103.847C124.686 103.846 124.686 103.845 124.687 103.846C124.688 103.847 124.69 103.848 124.692 103.851C124.695 103.853 124.697 103.855 124.698 103.857C124.701 103.861 124.699 103.859 124.696 103.85C124.694 103.845 124.693 103.841 124.693 103.838C124.692 103.837 124.693 103.837 124.693 103.839C124.693 103.84 124.693 103.844 124.693 103.849L134.502 103.849L144.31 103.848C144.31 94.7678 138.149 87.1588 129.805 84.9092L127.252 94.3798ZM134.502 103.849H124.693L124.693 103.849L124.693 113.658L124.694 123.467C135.528 123.466 144.31 114.682 144.31 103.849H134.502ZM124.693 113.658V103.849C124.689 103.849 124.688 103.849 124.689 103.849C124.69 103.849 124.692 103.85 124.694 103.85C124.699 103.851 124.701 103.852 124.698 103.851L120.732 112.822L116.767 121.793C119.189 122.864 121.877 123.467 124.693 123.467V113.658ZM120.732 112.822L114.429 105.307L78.1609 135.729L84.4646 143.244L90.7683 150.759L127.036 120.337L120.732 112.822ZM84.4646 143.244L78.1612 135.729C75.9053 137.621 72.6716 137.635 70.4295 135.815L64.2478 143.431L58.0661 151.046C67.6491 158.825 81.3547 158.655 90.768 150.759L84.4646 143.244ZM64.2478 143.431L70.4297 135.815C58.5689 126.187 39.9979 111.014 32.6458 104.506L26.1443 111.85L19.6428 119.195C27.3852 126.049 46.35 141.535 58.0659 151.046L64.2478 143.431ZM26.1443 111.85L20.4671 103.852C20.4597 103.857 20.4598 103.855 20.4689 103.852C20.4733 103.851 20.4777 103.85 20.481 103.849C20.4825 103.849 20.4831 103.849 20.4825 103.849C20.4819 103.849 20.4795 103.849 20.4752 103.849L20.4753 113.658L20.4755 123.467C24.7004 123.467 28.6262 122.117 31.8215 119.849L26.1443 111.85ZM20.4753 113.658L20.4754 103.849L20.4754 103.849H10.6667H0.858052C0.858052 114.682 9.63976 123.467 20.4753 123.467L20.4753 113.658ZM10.6667 103.849L20.4754 103.849C20.4754 103.843 20.4757 103.84 20.4758 103.838C20.476 103.837 20.476 103.837 20.4758 103.838C20.4753 103.841 20.4742 103.845 20.4726 103.85C20.4693 103.859 20.4673 103.859 20.4713 103.855C20.4731 103.852 20.4755 103.85 20.478 103.848C20.4804 103.846 20.4821 103.845 20.4823 103.844C20.4824 103.844 20.4807 103.845 20.4772 103.847C20.4734 103.848 20.4692 103.85 20.4656 103.85L18.4412 94.2528L16.4167 84.6553C7.53356 86.5291 0.858974 94.3961 0.858052 103.848L10.6667 103.849ZM18.4412 94.2528L28.1881 93.154C26.9371 82.0565 29.135 73.9507 32.6871 67.8644C36.3145 61.649 41.7283 56.9131 47.7676 53.3203L42.7527 44.8905L37.7377 36.4608C29.7035 41.2404 21.49 48.1308 15.7441 57.9762C9.92297 67.9504 7.00189 80.3396 8.6942 95.3516L18.4412 94.2528ZM42.7527 44.8905L52.496 43.7598C52.4021 42.9509 52.3534 42.1369 52.3534 41.3192L42.5447 41.3192L32.736 41.3193C32.736 42.9177 32.8313 44.4869 33.0094 46.0212L42.7527 44.8905ZM42.5447 41.3192H52.3534C52.3534 29.8078 61.6855 20.4756 73.1971 20.4756L73.197 10.6669L73.197 0.858174C50.8512 0.858258 32.736 18.9733 32.736 41.3192H42.5447Z" fill="#FFBC2E" mask="url(#path-1-outside-1_235_172)"/>
<circle cx="73.1971" cy="41.319" r="30.6522" fill="#E64C35"/>
<path d="M124.576 107.152L74.9617 127.344C73.3442 128.002 71.5322 127.994 69.9202 127.323L20.941 106.915C4.32185 46.742 63.7737 35.8547 71.5965 34.6909C72.1622 34.6067 72.7499 34.6204 73.3153 34.7067C139.967 44.8875 127.02 100.061 125.323 106.334C125.219 106.718 124.945 107.002 124.576 107.152Z" fill="#7F7F7F"/>
<path d="M72.7157 26.2049C73.7008 26.1673 74.6859 26.1704 75.6683 26.2144C92.7922 26.9827 91.3551 48.999 78.3588 60.1756C75.4422 62.6839 71.0634 62.6492 68.2341 60.0428C55.6776 48.4751 55.6554 26.855 72.7157 26.2049Z" fill="#C1C1C1"/>
<path d="M72.7157 26.2049C73.7008 26.1673 74.6859 26.1704 75.6683 26.2144C92.7922 26.9827 91.3551 48.999 78.3588 60.1756C75.4422 62.6839 71.0634 62.6492 68.2341 60.0428C55.6776 48.4751 55.6554 26.855 72.7157 26.2049Z" fill="url(#paint0_linear_235_172)" fill-opacity="0.2"/>
<path d="M72.7157 26.2049C73.7008 26.1673 74.6859 26.1704 75.6683 26.2144C92.7922 26.9827 91.3551 48.999 78.3588 60.1756C75.4422 62.6839 71.0634 62.6492 68.2341 60.0428C55.6776 48.4751 55.6554 26.855 72.7157 26.2049Z" fill="url(#paint1_linear_235_172)" fill-opacity="0.2"/>
<path d="M71.723 75.7009C72.8057 74.4804 74.7669 74.514 75.8367 75.7457C89.0707 90.9826 115.654 97.8067 123.105 97.8589C124.41 97.868 125.204 99.3415 124.315 100.205C115.014 109.246 104.775 114.05 94.7758 116.445L95.3667 117.831C90.5744 118.299 84.6216 118.675 78.0761 118.531C72.3089 118.676 66.8891 118.3 62.0933 117.831L62.3972 117.116C49.6178 114.998 36.3134 110.159 25.7655 100.116C24.8774 99.2704 25.6311 97.8505 26.9213 97.8589C35.3601 97.9159 57.6752 91.5369 71.723 75.7009Z" fill="#BFBEB9"/>
<path d="M73.4135 115.148C73.4137 102.887 73.4134 75.9127 73.4134 75.9127" stroke="#9C9C9C" stroke-width="6.61993" stroke-linecap="round" stroke-linejoin="round"/>
<path d="M26.2752 99.2074C24.4097 97.4975 21.5177 97.6004 19.7784 99.4384C18.039 101.277 18.0958 104.171 19.9065 105.939L19.9089 105.941C19.9089 105.941 19.9119 105.943 19.9137 105.945C19.9177 105.949 19.9228 105.955 19.9304 105.963C19.9456 105.978 19.9682 105.999 19.9975 106.027C20.0561 106.085 20.1429 106.169 20.2561 106.279L20.2989 106.32C20.524 106.539 20.8428 106.849 21.2463 107.238C22.1058 108.067 23.3513 109.263 24.897 110.733C31.386 116.65 51.7431 133.28 64.2473 143.43C70.16 148.23 78.6301 148.138 84.4648 143.244L123.28 110.685C124.795 109.222 126.016 108.032 126.859 107.207C127.28 106.794 127.606 106.473 127.829 106.254C127.94 106.144 128.025 106.059 128.082 106.002C128.111 105.974 128.133 105.952 128.148 105.938L128.171 105.915C129.968 104.133 130.004 101.239 128.251 99.4134C126.498 97.5882 123.605 97.5071 121.752 99.2314C117.69 103.012 86.0147 99.6314 72.2537 103.667C58.266 99.6283 30.4112 102.999 26.2752 99.2074Z" fill="#9C9C9C"/>
<path d="M99.1841 104.899C99.1841 104.899 79.6127 100.283 50.7536 104.899" stroke="#1B1B1B" stroke-width="9.8087" stroke-linecap="round" stroke-linejoin="round"/>
<g opacity="0.69">
<circle cx="82.0782" cy="127.009" r="5.3616" transform="rotate(-5.93582 82.0782 127.009)" fill="#797979"/>
<circle cx="74.036" cy="137.818" r="5.3616" transform="rotate(-5.93582 74.036 137.818)" fill="#797979"/>
<circle cx="65.9408" cy="127.339" r="5.3616" transform="rotate(-5.93582 65.9408 127.339)" fill="#797979"/>
</g>
<circle cx="124.693" cy="103.849" r="9.8087" fill="#383838"/>
<circle cx="20.4754" cy="103.849" r="9.8087" fill="#383838"/>
<path d="M34.7537 69.6669V91.6669" stroke="#621B39" stroke-width="6" stroke-linecap="round"/>
<path d="M44.7537 69.6669V91.6669" stroke="#621B39" stroke-width="6" stroke-linecap="round"/>
<path d="M54.7537 69.6669V91.6669" stroke="#621B39" stroke-width="6" stroke-linecap="round"/>
</g>
<defs>
<filter id="filter0_g_235_172" x="-0.000106573" y="1.54972e-05" width="145.169" height="157.64" filterUnits="userSpaceOnUse" color-interpolation-filters="sRGB">
<feFlood flood-opacity="0" result="BackgroundImageFix"/>
<feBlend mode="normal" in="SourceGraphic" in2="BackgroundImageFix" result="shape"/>
<feTurbulence type="fractalNoise" baseFrequency="0.58257347345352173 0.58257347345352173" numOctaves="3" seed="6672" />
<feDisplacementMap in="shape" scale="1.7165217399597168" xChannelSelector="R" yChannelSelector="G" result="displacedImage" width="100%" height="100%" />
<feMerge result="effect1_texture_235_172">
<feMergeNode in="displacedImage"/>
</feMerge>
</filter>
<linearGradient id="paint0_linear_235_172" x1="103.48" y1="13.7938" x2="77.7708" y2="89.6959" gradientUnits="userSpaceOnUse">
<stop stop-color="white" stop-opacity="0"/>
<stop offset="0.658834"/>
</linearGradient>
<linearGradient id="paint1_linear_235_172" x1="82.6669" y1="19.084" x2="136.153" y2="87.3015" gradientUnits="userSpaceOnUse">
<stop stop-color="white" stop-opacity="0"/>
<stop offset="0.658834"/>
</linearGradient>
</defs>
</svg>
