<svg width="155" height="123" viewBox="0 0 155 123" fill="none" xmlns="http://www.w3.org/2000/svg">
<g filter="url(#filter0_g_235_214)">
<mask id="path-1-outside-1_235_214" maskUnits="userSpaceOnUse" x="0.634033" y="0.617798" width="154" height="121" fill="black">
<rect fill="white" x="0.634033" y="0.617798" width="154" height="121"/>
<path d="M130.718 54.7569C130.718 79.1343 106.84 98.8961 77.3837 98.8961C47.9277 98.8961 24.0489 79.1343 24.0489 54.7569C24.0489 30.3796 47.9277 10.6178 77.3837 10.6178C106.84 10.6178 130.718 30.3796 130.718 54.7569Z"/>
<path d="M60.8315 87.2482C60.8315 99.0983 50.4017 108.705 37.5359 108.705C24.6701 108.705 14.2402 99.0983 14.2402 87.2482C14.2402 75.3981 24.6701 65.7917 37.5359 65.7917C50.4017 65.7917 60.8315 75.3981 60.8315 87.2482Z"/>
<path d="M139.301 87.2482C139.301 99.0983 128.871 108.705 116.005 108.705C103.14 108.705 92.7098 99.0983 92.7098 87.2482C92.7098 75.3981 103.14 65.7917 116.005 65.7917C128.871 65.7917 139.301 75.3981 139.301 87.2482Z"/>
<path d="M33.7332 57.0282C40.1738 30.6415 81.6787 35.6854 81.6787 35.6854C105.506 35.6855 116.458 42.3824 120.081 57.6017C126.723 54.2127 133.872 50.954 140.481 48.7366C142.547 48.0435 144.595 49.5759 144.28 51.7347C142.492 63.9801 132.731 88.0042 120.591 88.5066C118.442 88.5954 116.345 88.4927 114.334 88.2216C110.165 94.3665 103.68 101.28 93.6714 107.042C83.9112 112.659 71.9004 113.299 62.0302 107.877C55.0164 104.024 46.9901 97.8686 40.8071 88.194C38.7373 88.4853 36.574 88.5983 34.3546 88.5066C22.2148 88.0042 12.4541 63.9801 10.6662 51.7347C10.3514 49.5759 12.3992 48.0435 14.4654 48.7366C20.7005 50.8286 27.4161 53.8476 33.7332 57.0282Z"/>
<path d="M66.9627 76.8256C66.9627 80.2113 64.218 82.956 60.8323 82.956C57.4465 82.956 54.7018 80.2113 54.7018 76.8256C54.7018 73.4399 57.4465 70.6952 60.8323 70.6952C64.218 70.6952 66.9627 73.4399 66.9627 76.8256Z"/>
<path d="M65.8276 76.8256C65.8276 74.0667 63.5911 71.8302 60.8323 71.8302C58.0734 71.8302 55.8369 74.0667 55.8369 76.8256C55.8369 79.5845 58.0734 81.8209 60.8323 81.8209V82.956C57.4465 82.956 54.7018 80.2113 54.7018 76.8256C54.7018 73.4399 57.4465 70.6952 60.8323 70.6952C64.218 70.6952 66.9627 73.4399 66.9627 76.8256C66.9627 80.2113 64.218 82.956 60.8323 82.956V81.8209C63.5911 81.8209 65.8276 79.5845 65.8276 76.8256Z"/>
<path d="M101.293 76.8256C101.293 80.2113 98.5484 82.956 95.1627 82.956C91.777 82.956 89.0323 80.2113 89.0323 76.8256C89.0323 73.4399 91.777 70.6952 95.1627 70.6952C98.5484 70.6952 101.293 73.4399 101.293 76.8256Z"/>
<path d="M100.158 76.8256C100.158 74.0667 97.9216 71.8302 95.1627 71.8302C92.4038 71.8302 90.1674 74.0667 90.1674 76.8256C90.1674 79.5845 92.4038 81.8209 95.1627 81.8209V82.956C91.777 82.956 89.0323 80.2113 89.0323 76.8256C89.0323 73.4399 91.777 70.6952 95.1627 70.6952C98.5484 70.6952 101.293 73.4399 101.293 76.8256C101.293 80.2113 98.5484 82.956 95.1627 82.956V81.8209C97.9216 81.8209 100.158 79.5845 100.158 76.8256Z"/>
<path d="M84.8229 69.2739C85.7295 70.9214 87.8003 71.5221 89.4479 70.6155L95.2744 67.41C96.922 66.5035 97.5224 64.4327 96.6159 62.7851C95.7094 61.1374 93.6386 60.5369 91.991 61.4435L86.1645 64.6489C84.517 65.5556 83.9164 67.6263 84.8229 69.2739Z"/>
<path d="M70.8466 69.2794C69.9366 70.9251 67.8653 71.5215 66.2196 70.6117L60.4213 67.406C58.7758 66.4959 58.1803 64.4243 59.0902 62.7787C60.0003 61.133 62.0715 60.5364 63.7173 61.4465L69.5144 64.6524C71.1601 65.5624 71.7565 67.6337 70.8466 69.2794Z"/>
<path d="M91.2138 92.0475C82.9761 98.1173 71.8199 98.3796 63.306 92.7036L62.4702 92.1469C60.78 91.02 60.3233 88.7364 61.4501 87.0461C62.5769 85.3559 64.8605 84.8992 66.5508 86.026L67.3866 86.5828C73.3244 90.5413 81.1055 90.3587 86.8507 86.1254C88.4861 84.9205 90.7883 85.2695 91.9933 86.9049C93.1982 88.5403 92.8492 90.8425 91.2138 92.0475Z"/>
<path d="M75.5988 26.3224C81.6629 35.932 75.8501 50.4924 62.6155 58.8439C49.381 67.1955 33.7364 66.1756 27.6724 56.566C21.6083 46.9564 27.4211 32.396 40.6556 24.0444C53.8902 15.6929 69.5348 16.7128 75.5988 26.3224Z"/>
<path d="M79.1674 26.3224C73.1033 35.932 78.9162 50.4924 92.1507 58.8439C105.385 67.1955 121.03 66.1756 127.094 56.566C133.158 46.9564 127.345 32.396 114.111 24.0444C100.876 15.6929 85.2315 16.7128 79.1674 26.3224Z"/>
</mask>
<path d="M130.718 54.7569C130.718 79.1343 106.84 98.8961 77.3837 98.8961C47.9277 98.8961 24.0489 79.1343 24.0489 54.7569C24.0489 30.3796 47.9277 10.6178 77.3837 10.6178C106.84 10.6178 130.718 30.3796 130.718 54.7569Z" fill="#E08FB5"/>
<path d="M60.8315 87.2482C60.8315 99.0983 50.4017 108.705 37.5359 108.705C24.6701 108.705 14.2402 99.0983 14.2402 87.2482C14.2402 75.3981 24.6701 65.7917 37.5359 65.7917C50.4017 65.7917 60.8315 75.3981 60.8315 87.2482Z" fill="#E08FB5"/>
<path d="M139.301 87.2482C139.301 99.0983 128.871 108.705 116.005 108.705C103.14 108.705 92.7098 99.0983 92.7098 87.2482C92.7098 75.3981 103.14 65.7917 116.005 65.7917C128.871 65.7917 139.301 75.3981 139.301 87.2482Z" fill="#E08FB5"/>
<path d="M33.7332 57.0282C40.1738 30.6415 81.6787 35.6854 81.6787 35.6854C105.506 35.6855 116.458 42.3824 120.081 57.6017C126.723 54.2127 133.872 50.954 140.481 48.7366C142.547 48.0435 144.595 49.5759 144.28 51.7347C142.492 63.9801 132.731 88.0042 120.591 88.5066C118.442 88.5954 116.345 88.4927 114.334 88.2216C110.165 94.3665 103.68 101.28 93.6714 107.042C83.9112 112.659 71.9004 113.299 62.0302 107.877C55.0164 104.024 46.9901 97.8686 40.8071 88.194C38.7373 88.4853 36.574 88.5983 34.3546 88.5066C22.2148 88.0042 12.4541 63.9801 10.6662 51.7347C10.3514 49.5759 12.3992 48.0435 14.4654 48.7366C20.7005 50.8286 27.4161 53.8476 33.7332 57.0282Z" fill="#E08FB5"/>
<path d="M66.9627 76.8256C66.9627 80.2113 64.218 82.956 60.8323 82.956C57.4465 82.956 54.7018 80.2113 54.7018 76.8256C54.7018 73.4399 57.4465 70.6952 60.8323 70.6952C64.218 70.6952 66.9627 73.4399 66.9627 76.8256Z" fill="#E08FB5"/>
<path d="M65.8276 76.8256C65.8276 74.0667 63.5911 71.8302 60.8323 71.8302C58.0734 71.8302 55.8369 74.0667 55.8369 76.8256C55.8369 79.5845 58.0734 81.8209 60.8323 81.8209V82.956C57.4465 82.956 54.7018 80.2113 54.7018 76.8256C54.7018 73.4399 57.4465 70.6952 60.8323 70.6952C64.218 70.6952 66.9627 73.4399 66.9627 76.8256C66.9627 80.2113 64.218 82.956 60.8323 82.956V81.8209C63.5911 81.8209 65.8276 79.5845 65.8276 76.8256Z" fill="#E08FB5"/>
<path d="M101.293 76.8256C101.293 80.2113 98.5484 82.956 95.1627 82.956C91.777 82.956 89.0323 80.2113 89.0323 76.8256C89.0323 73.4399 91.777 70.6952 95.1627 70.6952C98.5484 70.6952 101.293 73.4399 101.293 76.8256Z" fill="#E08FB5"/>
<path d="M100.158 76.8256C100.158 74.0667 97.9216 71.8302 95.1627 71.8302C92.4038 71.8302 90.1674 74.0667 90.1674 76.8256C90.1674 79.5845 92.4038 81.8209 95.1627 81.8209V82.956C91.777 82.956 89.0323 80.2113 89.0323 76.8256C89.0323 73.4399 91.777 70.6952 95.1627 70.6952C98.5484 70.6952 101.293 73.4399 101.293 76.8256C101.293 80.2113 98.5484 82.956 95.1627 82.956V81.8209C97.9216 81.8209 100.158 79.5845 100.158 76.8256Z" fill="#E08FB5"/>
<path d="M84.8229 69.2739C85.7295 70.9214 87.8003 71.5221 89.4479 70.6155L95.2744 67.41C96.922 66.5035 97.5224 64.4327 96.6159 62.7851C95.7094 61.1374 93.6386 60.5369 91.991 61.4435L86.1645 64.6489C84.517 65.5556 83.9164 67.6263 84.8229 69.2739Z" fill="#E08FB5"/>
<path d="M70.8466 69.2794C69.9366 70.9251 67.8653 71.5215 66.2196 70.6117L60.4213 67.406C58.7758 66.4959 58.1803 64.4243 59.0902 62.7787C60.0003 61.133 62.0715 60.5364 63.7173 61.4465L69.5144 64.6524C71.1601 65.5624 71.7565 67.6337 70.8466 69.2794Z" fill="#E08FB5"/>
<path d="M91.2138 92.0475C82.9761 98.1173 71.8199 98.3796 63.306 92.7036L62.4702 92.1469C60.78 91.02 60.3233 88.7364 61.4501 87.0461C62.5769 85.3559 64.8605 84.8992 66.5508 86.026L67.3866 86.5828C73.3244 90.5413 81.1055 90.3587 86.8507 86.1254C88.4861 84.9205 90.7883 85.2695 91.9933 86.9049C93.1982 88.5403 92.8492 90.8425 91.2138 92.0475Z" fill="#E08FB5"/>
<path d="M75.5988 26.3224C81.6629 35.932 75.8501 50.4924 62.6155 58.8439C49.381 67.1955 33.7364 66.1756 27.6724 56.566C21.6083 46.9564 27.4211 32.396 40.6556 24.0444C53.8902 15.6929 69.5348 16.7128 75.5988 26.3224Z" fill="#E08FB5"/>
<path d="M79.1674 26.3224C73.1033 35.932 78.9162 50.4924 92.1507 58.8439C105.385 67.1955 121.03 66.1756 127.094 56.566C133.158 46.9564 127.345 32.396 114.111 24.0444C100.876 15.6929 85.2315 16.7128 79.1674 26.3224Z" fill="#E08FB5"/>
<path d="M66.9627 76.8256H62.0583C62.0583 77.5027 61.5094 78.0517 60.8323 78.0517V82.956V87.8604C66.9266 87.8604 71.867 82.9199 71.867 76.8256H66.9627ZM60.8323 82.956V78.0517C60.1551 78.0517 59.6062 77.5027 59.6062 76.8256H54.7018H49.7975C49.7975 82.9199 54.7379 87.8604 60.8323 87.8604V82.956ZM54.7018 76.8256H59.6062C59.6062 76.1484 60.1551 75.5995 60.8323 75.5995V70.6952V65.7908C54.7379 65.7908 49.7975 70.7313 49.7975 76.8256H54.7018ZM60.8323 70.6952V75.5995C61.5094 75.5995 62.0583 76.1484 62.0583 76.8256H66.9627H71.867C71.867 70.7313 66.9266 65.7908 60.8323 65.7908V70.6952ZM60.8323 81.8209H55.9279V82.956H60.8323H65.7366V81.8209H60.8323ZM101.293 76.8256H96.3888C96.3888 77.5027 95.8399 78.0517 95.1627 78.0517V82.956V87.8604C101.257 87.8604 106.197 82.9199 106.197 76.8256H101.293ZM95.1627 82.956V78.0517C94.4855 78.0517 93.9366 77.5027 93.9366 76.8256H89.0323H84.1279C84.1279 82.9199 89.0684 87.8604 95.1627 87.8604V82.956ZM89.0323 76.8256H93.9366C93.9366 76.1485 94.4855 75.5995 95.1627 75.5995V70.6952V65.7908C89.0684 65.7908 84.1279 70.7313 84.1279 76.8256H89.0323ZM95.1627 70.6952V75.5995C95.8399 75.5995 96.3888 76.1484 96.3888 76.8256H101.293H106.197C106.197 70.7313 101.257 65.7908 95.1627 65.7908V70.6952ZM95.1627 81.8209H90.2584V82.956H95.1627H100.067V81.8209H95.1627ZM33.7332 57.0282L29.3221 65.7891L40.3377 71.3353L43.2621 59.3541L33.7332 57.0282ZM81.6787 35.6854L80.4954 45.4225L81.0848 45.4941H81.6786L81.6787 35.6854ZM120.081 57.6017L110.539 59.8734L113.428 72.0084L124.539 66.3388L120.081 57.6017ZM140.481 48.7366L137.361 39.437L137.36 39.4374L140.481 48.7366ZM144.28 51.7347L153.986 53.1518L153.986 53.1502L144.28 51.7347ZM120.591 88.5066L120.997 98.3069L120.997 98.3069L120.591 88.5066ZM114.334 88.2216L115.645 78.5009L109.626 77.6892L106.217 82.7149L114.334 88.2216ZM93.6714 107.042L98.5645 115.543L98.5646 115.543L93.6714 107.042ZM62.0302 107.877L57.3075 116.474H57.3075L62.0302 107.877ZM40.8071 88.194L49.0721 82.9119L45.6793 77.6032L39.4404 78.481L40.8071 88.194ZM34.3546 88.5066L33.949 98.3069L33.9495 98.3069L34.3546 88.5066ZM10.6662 51.7347L0.960209 53.1502L0.960437 53.1518L10.6662 51.7347ZM14.4654 48.7366L17.5856 39.4374L17.5846 39.437L14.4654 48.7366ZM84.8229 69.2739L76.2291 74.0024L76.2294 74.0029L84.8229 69.2739ZM89.4479 70.6155L84.7199 62.0215L84.7194 62.0218L89.4479 70.6155ZM95.2744 67.41L100.002 76.004L100.003 76.0038L95.2744 67.41ZM96.6159 62.7851L105.21 58.0569L105.21 58.0566L96.6159 62.7851ZM91.991 61.4435L96.719 70.0374L96.7194 70.0372L91.991 61.4435ZM86.1645 64.6489L81.4365 56.055L81.4355 56.0555L86.1645 64.6489ZM70.8466 69.2794L79.4303 74.0261L79.4307 74.0254L70.8466 69.2794ZM66.2196 70.6117L70.9656 62.0276L70.9654 62.0275L66.2196 70.6117ZM60.4213 67.406L55.6737 75.9892L55.6755 75.9902L60.4213 67.406ZM59.0902 62.7787L50.5065 58.032L50.5063 58.0324L59.0902 62.7787ZM63.7173 61.4465L68.4641 52.8629L68.4639 52.8628L63.7173 61.4465ZM69.5144 64.6524L64.7676 73.2359L64.7677 73.236L69.5144 64.6524ZM91.2138 92.0475L97.0323 99.9441L97.0323 99.944L91.2138 92.0475ZM63.306 92.7036L68.7469 84.5423L68.7442 84.5405L63.306 92.7036ZM62.4702 92.1469L57.0294 100.308L57.0321 100.31L62.4702 92.1469ZM61.4501 87.0461L53.2888 81.6053L53.2888 81.6053L61.4501 87.0461ZM66.5508 86.026L61.1099 94.1873L61.1126 94.1891L66.5508 86.026ZM67.3866 86.5828L72.8274 78.4214L72.8247 78.4196L67.3866 86.5828ZM86.8507 86.1254L81.0326 78.2285L81.0322 78.2288L86.8507 86.1254ZM91.9933 86.9049L99.8902 81.0868L99.8899 81.0863L91.9933 86.9049ZM130.718 54.7569H120.91C120.91 72.0617 103.241 89.0874 77.3837 89.0874V98.8961V108.705C110.438 108.705 140.527 86.2069 140.527 54.7569H130.718ZM77.3837 98.8961V89.0874C51.526 89.0874 33.8576 72.0617 33.8576 54.7569H24.0489H14.2402C14.2402 86.2069 44.3294 108.705 77.3837 108.705V98.8961ZM24.0489 54.7569H33.8576C33.8576 37.4521 51.526 20.4265 77.3837 20.4265V10.6178V0.809102C44.3294 0.809102 14.2402 23.307 14.2402 54.7569H24.0489ZM77.3837 10.6178V20.4265C103.241 20.4265 120.91 37.4521 120.91 54.7569H130.718H140.527C140.527 23.307 110.438 0.809102 77.3837 0.809102V10.6178ZM60.8315 87.2482H51.0228C51.0228 92.9373 45.7596 98.8961 37.5359 98.8961V108.705V118.513C55.0439 118.513 70.6402 105.259 70.6402 87.2482H60.8315ZM37.5359 108.705V98.8961C29.3122 98.8961 24.0489 92.9373 24.0489 87.2482H14.2402H4.43154C4.43154 105.259 20.0279 118.513 37.5359 118.513V108.705ZM14.2402 87.2482H24.0489C24.0489 81.5592 29.3122 75.6004 37.5359 75.6004V65.7917V55.983C20.0279 55.983 4.43154 69.2371 4.43154 87.2482H14.2402ZM37.5359 65.7917V75.6004C45.7596 75.6004 51.0228 81.5592 51.0228 87.2482H60.8315H70.6402C70.6402 69.2371 55.0439 55.983 37.5359 55.983V65.7917ZM139.301 87.2482H129.492C129.492 92.9373 124.229 98.8961 116.005 98.8961V108.705V118.513C133.513 118.513 149.11 105.259 149.11 87.2482H139.301ZM116.005 108.705V98.8961C107.782 98.8961 102.518 92.9373 102.518 87.2482H92.7098H82.9011C82.9011 105.259 98.4975 118.513 116.005 118.513V108.705ZM92.7098 87.2482H102.518C102.518 81.5592 107.782 75.6004 116.005 75.6004V65.7917V55.983C98.4975 55.983 82.9011 69.2371 82.9011 87.2482H92.7098ZM116.005 65.7917V75.6004C124.229 75.6004 129.492 81.5592 129.492 87.2482H139.301H149.11C149.11 69.2371 133.513 55.983 116.005 55.983V65.7917ZM33.7332 57.0282L43.2621 59.3541C45.0426 52.0596 51.722 47.9624 61.8795 46.1116C66.6457 45.2432 71.3566 45.0627 74.9441 45.1172C76.717 45.1441 78.1656 45.2274 79.1464 45.3013C79.6356 45.3381 80.0052 45.3723 80.2368 45.3954C80.3525 45.407 80.4334 45.4157 80.4774 45.4206C80.4993 45.423 80.512 45.4245 80.5151 45.4249C80.5167 45.425 80.5158 45.4249 80.5125 45.4246C80.5109 45.4244 80.5087 45.4241 80.5058 45.4237C80.5044 45.4236 80.5018 45.4233 80.5011 45.4232C80.4983 45.4228 80.4954 45.4225 81.6787 35.6854C82.862 25.9484 82.8588 25.948 82.8554 25.9476C82.854 25.9474 82.8505 25.947 82.8478 25.9467C82.8424 25.946 82.8364 25.9453 82.8297 25.9445C82.8164 25.9429 82.8005 25.941 82.7821 25.9389C82.7452 25.9346 82.6983 25.9292 82.6415 25.9229C82.528 25.9103 82.3751 25.894 82.1852 25.875C81.8057 25.8372 81.2772 25.7888 80.619 25.7392C79.3048 25.6403 77.4606 25.5357 75.2418 25.502C70.8458 25.4353 64.778 25.6431 58.3629 26.812C46.1578 29.0359 28.8644 35.6101 24.2042 54.7023L33.7332 57.0282ZM81.6787 35.6854L81.6786 45.4941C92.9337 45.4942 99.5744 47.1248 103.537 49.4221C106.955 51.4034 109.228 54.3633 110.539 59.8734L120.081 57.6017L129.623 55.3301C127.312 45.6208 122.297 37.6226 113.376 32.4506C105 27.5947 94.2515 25.8768 81.6787 25.8767L81.6787 35.6854ZM120.081 57.6017L124.539 66.3388C130.968 63.0583 137.637 60.0369 143.601 58.0357L140.481 48.7366L137.36 39.4374C130.107 41.8711 122.478 45.3671 115.623 48.8647L120.081 57.6017ZM140.481 48.7366L143.6 58.0361C141.551 58.7232 139.15 58.3801 137.265 56.9197C135.295 55.3927 134.204 52.8554 134.574 50.3192L144.28 51.7347L153.986 53.1502C155.487 42.8571 145.479 36.7142 137.361 39.437L140.481 48.7366ZM144.28 51.7347L134.574 50.3176C133.858 55.2236 131.367 63.1746 127.724 69.796C125.916 73.0822 124.073 75.5792 122.412 77.1551C120.701 78.7782 119.959 78.7156 120.186 78.7062L120.591 88.5066L120.997 98.3069C127.293 98.0463 132.324 94.7923 135.914 91.3869C139.553 87.9344 142.538 83.5658 144.911 79.2525C149.631 70.6749 152.914 60.4912 153.986 53.1518L144.28 51.7347ZM120.591 88.5066L120.186 78.7062C118.61 78.7714 117.087 78.6953 115.645 78.5009L114.334 88.2216L113.023 97.9423C115.602 98.2901 118.274 98.4194 120.997 98.3069L120.591 88.5066ZM114.334 88.2216L106.217 82.7149C102.804 87.7459 97.3837 93.5871 88.7781 98.5405L93.6714 107.042L98.5646 115.543C109.976 108.974 117.527 100.987 122.451 93.7283L114.334 88.2216ZM93.6714 107.042L88.7782 98.5405C81.6704 102.632 73.3142 102.885 66.7528 99.2804L62.0302 107.877L57.3075 116.474C70.4865 123.714 86.1521 122.687 98.5645 115.543L93.6714 107.042ZM62.0302 107.877L66.7529 99.2804C60.8207 96.0216 54.1739 90.8948 49.0721 82.9119L40.8071 88.194L32.5422 93.4762C39.8064 104.843 49.2121 112.027 57.3075 116.474L62.0302 107.877ZM40.8071 88.194L39.4404 78.481C37.9559 78.6899 36.3856 78.7734 34.7598 78.7062L34.3546 88.5066L33.9495 98.3069C36.7623 98.4232 39.5187 98.2807 42.1738 97.9071L40.8071 88.194ZM34.3546 88.5066L34.7602 78.7062C34.9866 78.7156 34.2449 78.7782 32.5342 77.1551C30.873 75.5792 29.0303 73.0822 27.2223 69.796C23.5793 63.1746 21.0883 55.2236 20.372 50.3176L10.6662 51.7347L0.960437 53.1518C2.03202 60.4912 5.31532 70.6749 10.0346 79.2525C12.4077 83.5658 15.3931 87.9344 19.0323 91.3869C22.6219 94.7923 27.6527 98.0463 33.949 98.3069L34.3546 88.5066ZM10.6662 51.7347L20.3722 50.3192C20.7421 52.8554 19.6514 55.3927 17.6807 56.9197C15.7959 58.3801 13.3948 58.7232 11.3463 58.0361L14.4654 48.7366L17.5846 39.437C9.46657 36.7142 -0.540931 42.8571 0.960209 53.1502L10.6662 51.7347ZM14.4654 48.7366L11.3452 58.0357C16.9661 59.9218 23.2211 62.7172 29.3221 65.7891L33.7332 57.0282L38.1442 48.2673C31.6111 44.9779 24.4348 41.7355 17.5856 39.4374L14.4654 48.7366ZM65.8276 76.8256H75.6363C75.6363 68.6495 69.0083 62.0216 60.8323 62.0216V71.8302V81.6389C58.1739 81.6389 56.0189 79.4839 56.0189 76.8256H65.8276ZM60.8323 71.8302V62.0216C52.6562 62.0216 46.0282 68.6495 46.0282 76.8256H55.8369H65.6456C65.6456 79.4839 63.4906 81.6389 60.8323 81.6389V71.8302ZM55.8369 76.8256H46.0282C46.0282 85.0017 52.6562 91.6296 60.8323 91.6296V81.8209V72.0122C63.4906 72.0122 65.6456 74.1673 65.6456 76.8256H55.8369ZM60.8323 81.8209V91.6296C69.0083 91.6296 75.6363 85.0017 75.6363 76.8256H65.8276H56.0189C56.0189 74.1673 58.1739 72.0122 60.8323 72.0122V81.8209ZM100.158 76.8256H109.967C109.967 68.6495 103.339 62.0216 95.1627 62.0216V71.8302V81.6389C92.5044 81.6389 90.3493 79.4839 90.3493 76.8256H100.158ZM95.1627 71.8302V62.0216C86.9866 62.0216 80.3587 68.6495 80.3587 76.8256H90.1674H99.9761C99.9761 79.4839 97.821 81.6389 95.1627 81.6389V71.8302ZM90.1674 76.8256H80.3587C80.3587 85.0017 86.9866 91.6296 95.1627 91.6296V81.8209V72.0122C97.821 72.0122 99.9761 74.1673 99.9761 76.8256H90.1674ZM95.1627 81.8209V91.6296C103.339 91.6296 109.967 85.0017 109.967 76.8256H100.158H90.3493C90.3493 74.1673 92.5044 72.0122 95.1627 72.0122V81.8209ZM84.8229 69.2739L76.2294 74.0029C79.748 80.3969 87.7833 82.7268 94.1763 79.2093L89.4479 70.6155L84.7194 62.0218C87.8172 60.3173 91.711 61.446 93.4164 64.545L84.8229 69.2739ZM89.4479 70.6155L94.1759 79.2095L100.002 76.004L95.2744 67.41L90.5463 58.8161L84.7199 62.0215L89.4479 70.6155ZM95.2744 67.41L100.003 76.0038C106.398 72.4849 108.727 64.449 105.21 58.0569L96.6159 62.7851L88.022 67.5132C86.3183 64.4165 87.4457 60.5221 90.5459 58.8163L95.2744 67.41ZM96.6159 62.7851L105.21 58.0566C101.691 51.6614 93.655 49.3325 87.2625 52.8497L91.991 61.4435L96.7194 70.0372C93.6222 71.7413 89.7278 70.6134 88.0222 67.5135L96.6159 62.7851ZM91.991 61.4435L87.2629 52.8495L81.4365 56.055L86.1645 64.6489L90.8925 73.2429L96.719 70.0374L91.991 61.4435ZM86.1645 64.6489L81.4355 56.0555C75.0415 59.5741 72.7116 67.6094 76.2291 74.0024L84.8229 69.2739L93.4166 64.5455C95.1211 67.6432 93.9924 71.537 90.8934 73.2424L86.1645 64.6489ZM70.8466 69.2794L62.263 64.5327C63.9739 61.4388 67.8699 60.316 70.9656 62.0276L66.2196 70.6117L61.4736 79.1957C67.8607 82.7271 75.8994 80.4113 79.4303 74.0261L70.8466 69.2794ZM66.2196 70.6117L70.9654 62.0275L65.1671 58.8219L60.4213 67.406L55.6755 75.9902L61.4738 79.1958L66.2196 70.6117ZM60.4213 67.406L65.1689 58.8229C68.2663 60.5361 69.3835 64.4334 67.6741 67.525L59.0902 62.7787L50.5063 58.0324C46.977 64.4152 49.2853 72.4556 55.6737 75.9892L60.4213 67.406ZM59.0902 62.7787L67.6739 67.5254C65.9634 70.6186 62.0672 71.7425 58.9706 70.0302L63.7173 61.4465L68.4639 52.8628C62.0759 49.3303 54.0372 51.6474 50.5065 58.032L59.0902 62.7787ZM63.7173 61.4465L58.9704 70.0301L64.7676 73.2359L69.5144 64.6524L74.2612 56.0688L68.4641 52.8629L63.7173 61.4465ZM69.5144 64.6524L64.7677 73.236C61.6738 71.5251 60.551 67.6291 62.2626 64.5334L70.8466 69.2794L79.4307 74.0254C82.9621 67.6383 80.6463 59.5996 74.2611 56.0687L69.5144 64.6524ZM91.2138 92.0475L85.3954 84.1509C80.4811 87.7719 73.826 87.9284 68.7469 84.5423L63.306 92.7036L57.8651 100.865C69.8139 108.831 85.471 108.463 97.0323 99.9441L91.2138 92.0475ZM63.306 92.7036L68.7442 84.5405L67.9084 83.9837L62.4702 92.1469L57.0321 100.31L57.8678 100.867L63.306 92.7036ZM62.4702 92.1469L67.9111 83.9855C70.7283 85.8636 71.4895 89.6699 69.6114 92.487L61.4501 87.0461L53.2888 81.6053C49.157 87.8029 50.8317 96.1764 57.0294 100.308L62.4702 92.1469ZM61.4501 87.0461L69.6114 92.487C67.7334 95.3041 63.927 96.0654 61.1099 94.1873L66.5508 86.026L71.9917 77.8647C65.7941 73.7329 57.4205 75.4076 53.2888 81.6053L61.4501 87.0461ZM66.5508 86.026L61.1126 94.1891L61.9484 94.7459L67.3866 86.5828L72.8247 78.4196L71.989 77.8629L66.5508 86.026ZM67.3866 86.5828L61.9457 94.7441C71.3181 100.992 83.6002 100.704 92.6692 94.0219L86.8507 86.1254L81.0322 78.2288C78.6108 80.013 75.3307 80.0903 72.8274 78.4214L67.3866 86.5828ZM86.8507 86.1254L92.6688 94.0222C89.9425 96.0309 86.1047 95.4484 84.0968 92.7234L91.9933 86.9049L99.8899 81.0863C95.4719 75.0905 87.0297 73.8101 81.0326 78.2285L86.8507 86.1254ZM91.9933 86.9049L84.0964 92.7229C82.0878 89.9967 82.6703 86.1589 85.3953 84.1509L91.2138 92.0475L97.0323 99.944C103.028 95.5261 104.309 87.0839 99.8902 81.0868L91.9933 86.9049ZM75.5988 26.3224L67.3037 31.557C68.2446 33.0481 68.7414 35.6437 67.2345 39.4182C65.7325 43.1808 62.4384 47.3573 57.3809 50.5488L62.6155 58.8439L67.8501 67.1391C76.0272 61.979 82.2568 54.6996 85.4537 46.6917C88.6459 38.6957 89.0171 29.2063 83.894 21.0878L75.5988 26.3224ZM62.6155 58.8439L57.3809 50.5488C52.3235 53.7402 47.1358 54.916 43.0931 54.6525C39.0376 54.3881 36.9085 52.8225 35.9675 51.3314L27.6724 56.566L19.3772 61.8005C24.5003 69.919 33.2255 73.6682 41.8169 74.2283C50.4211 74.7892 59.6731 72.2991 67.8501 67.1391L62.6155 58.8439ZM27.6724 56.566L35.9675 51.3314C35.0266 49.8403 34.5298 47.2446 36.0366 43.4702C37.5387 39.7076 40.8327 35.5311 45.8902 32.3396L40.6556 24.0444L35.4211 15.7493C27.244 20.9093 21.0144 28.1888 17.8174 36.1967C14.6253 44.1927 14.2541 53.6821 19.3772 61.8005L27.6724 56.566ZM40.6556 24.0444L45.8902 32.3396C50.9477 29.1481 56.1353 27.9724 60.1781 28.2359C64.2336 28.5003 66.3627 30.0659 67.3037 31.557L75.5988 26.3224L83.894 21.0878C78.7709 12.9693 70.0457 9.22016 61.4542 8.66008C52.85 8.09917 43.5981 10.5892 35.4211 15.7493L40.6556 24.0444ZM79.1674 26.3224L70.8722 21.0878C65.7491 29.2063 66.1203 38.6957 69.3125 46.6917C72.5094 54.6996 78.7391 61.979 86.9161 67.1391L92.1507 58.8439L97.3853 50.5488C92.3278 47.3573 89.0338 43.1808 87.5317 39.4182C86.0248 35.6437 86.5216 33.0481 87.4626 31.557L79.1674 26.3224ZM92.1507 58.8439L86.9161 67.1391C95.0931 72.2991 104.345 74.7892 112.949 74.2283C121.541 73.6682 130.266 69.919 135.389 61.8005L127.094 56.566L118.799 51.3314C117.858 52.8225 115.729 54.3881 111.673 54.6525C107.63 54.916 102.443 53.7402 97.3853 50.5488L92.1507 58.8439ZM127.094 56.566L135.389 61.8005C140.512 53.6821 140.141 44.1927 136.949 36.1967C133.752 28.1888 127.522 20.9093 119.345 15.7493L114.111 24.0444L108.876 32.3396C113.933 35.5311 117.228 39.7076 118.73 43.4702C120.236 47.2446 119.74 49.8403 118.799 51.3314L127.094 56.566ZM114.111 24.0444L119.345 15.7493C111.168 10.5892 101.916 8.09917 93.312 8.66008C84.7206 9.22016 75.9953 12.9693 70.8722 21.0878L79.1674 26.3224L87.4626 31.557C88.4035 30.0659 90.5326 28.5003 94.5881 28.2359C98.6309 27.9724 103.819 29.1481 108.876 32.3396L114.111 24.0444Z" fill="#E08FB5" mask="url(#path-1-outside-1_235_214)"/>
<ellipse cx="77.3839" cy="55.226" rx="53.3348" ry="44.1391" fill="#DBDAD0"/>
<ellipse cx="37.5361" cy="87.7173" rx="23.2957" ry="21.4565" fill="#DBDAD0"/>
<ellipse cx="116.006" cy="87.7171" rx="23.2957" ry="21.4565" fill="#DBDAD0"/>
<path d="M33.7339 57.4964C40.1641 31.1567 81.5341 36.1372 81.6783 36.1546C105.506 36.1546 116.458 42.8514 120.082 58.0706C126.723 54.6816 133.871 51.4229 140.48 49.2054C142.546 48.512 144.595 50.0452 144.28 52.2044C142.492 64.45 132.731 88.474 120.591 88.9759C118.442 89.0647 116.345 88.9618 114.335 88.6907C110.166 94.8356 103.681 101.75 93.6724 107.511C83.9122 113.129 71.9011 113.768 62.0308 108.346C55.0171 104.493 46.9902 98.338 40.8072 88.6634C38.7375 88.9546 36.5742 89.0676 34.355 88.9759C22.2153 88.4735 12.4545 64.4498 10.6665 52.2044C10.3513 50.0452 12.3999 48.512 14.4663 49.2054C20.7014 51.2974 27.4168 54.3158 33.7339 57.4964Z" fill="#A0BD92"/>
<path d="M33.7339 57.4964C40.1641 31.1567 81.5341 36.1372 81.6783 36.1546C105.506 36.1546 116.458 42.8514 120.082 58.0706C126.723 54.6816 133.871 51.4229 140.48 49.2054C142.546 48.512 144.595 50.0452 144.28 52.2044C142.492 64.45 132.731 88.474 120.591 88.9759C118.442 89.0647 116.345 88.9618 114.335 88.6907C110.166 94.8356 103.681 101.75 93.6724 107.511C83.9122 113.129 71.9011 113.768 62.0308 108.346C55.0171 104.493 46.9902 98.338 40.8072 88.6634C38.7375 88.9546 36.5742 89.0676 34.355 88.9759C22.2153 88.4735 12.4545 64.4498 10.6665 52.2044C10.3513 50.0452 12.3999 48.512 14.4663 49.2054C20.7014 51.2974 27.4168 54.3158 33.7339 57.4964Z" fill="url(#paint0_linear_235_214)" fill-opacity="0.4"/>
<circle cx="60.8326" cy="81.7299" r="5.56291" fill="#1B1B1B" stroke="#1B1B1B" stroke-width="1.13505"/>
<circle cx="76.634" cy="95.87" r="11.4325" fill="#1B1B1B" stroke="#1B1B1B" stroke-width="1.13505"/>
<circle cx="95.1631" cy="81.73" r="5.56291" fill="#1B1B1B" stroke="#1B1B1B" stroke-width="1.13505"/>
<path d="M81.6341 69.3308L87.4607 72.5367" stroke="#DBDAD0" style="mix-blend-mode:multiply" stroke-width="6.81028" stroke-linecap="round"/>
<path d="M72.4315 69.3305L66.634 72.5364" stroke="#DBDAD0" style="mix-blend-mode:multiply" stroke-width="6.81028" stroke-linecap="round"/>
<ellipse cx="51.6358" cy="41.9132" rx="28.3356" ry="20.5745" transform="rotate(-32.2536 51.6358 41.9132)" fill="#DBDAD0"/>
<ellipse cx="28.3356" cy="20.5745" rx="28.3356" ry="20.5745" transform="matrix(-0.845694 -0.533668 -0.533668 0.845694 138.074 39.6353)" fill="#DBDAD0"/>
<path d="M40.0601 58.4352V97.67" stroke="#DBDAD0" stroke-width="17.1652"/>
<path d="M116.077 58.4352V97.67" stroke="#DBDAD0" stroke-width="17.1652"/>
<path d="M39.634 41.87V63.87" stroke="#621B39" stroke-width="6" stroke-linecap="round"/>
<path d="M49.634 41.87V63.87" stroke="#621B39" stroke-width="6" stroke-linecap="round"/>
<path d="M59.634 41.87V63.87" stroke="#621B39" stroke-width="6" stroke-linecap="round"/>
</g>
<defs>
<filter id="filter0_g_235_214" x="0.000108719" y="-1.33514e-05" width="154.946" height="122.237" filterUnits="userSpaceOnUse" color-interpolation-filters="sRGB">
<feFlood flood-opacity="0" result="BackgroundImageFix"/>
<feBlend mode="normal" in="SourceGraphic" in2="BackgroundImageFix" result="shape"/>
<feTurbulence type="fractalNoise" baseFrequency="0.5867646336555481 0.5867646336555481" numOctaves="3" seed="4468" />
<feDisplacementMap in="shape" scale="1.6184349060058594" xChannelSelector="R" yChannelSelector="G" result="displacedImage" width="100%" height="100%" />
<feMerge result="effect1_texture_235_214">
<feMergeNode in="displacedImage"/>
</feMerge>
</filter>
<linearGradient id="paint0_linear_235_214" x1="77.9988" y1="46.886" x2="76.7737" y2="113.169" gradientUnits="userSpaceOnUse">
<stop stop-color="#FF60DC"/>
<stop offset="0.489881" stop-opacity="0"/>
</linearGradient>
</defs>
</svg>
