<svg width="223" height="413" viewBox="0 0 223 413" fill="none" xmlns="http://www.w3.org/2000/svg">
<path d="M55 146.313V149L113.5 143L169 152L169.679 150.416C171.66 145.793 168.935 140.511 164.02 139.446L113.5 128.5L59.6984 140.456C56.9532 141.066 55 143.501 55 146.313Z" fill="#F57B35"/>
<path d="M219.29 400.837L146.001 164.204L65.5007 158.204L55.5 411.204H211.648C217.037 411.204 220.884 405.984 219.29 400.837Z" fill="#F57B35"/>
<path d="M219.29 400.837L146.001 164.204L65.5007 158.204L55.5 411.204H211.648C217.037 411.204 220.884 405.984 219.29 400.837Z" fill="url(#paint0_linear_87_525)" fill-opacity="0.48"/>
<path d="M69.716 155.678L68.5172 240.813" stroke="#4E4E4E" stroke-width="25.9209" stroke-linejoin="round"/>
<path d="M73.8097 197.309L57.5994 209.523C56.8435 210.092 55.7754 210.047 55.089 209.396C41.4837 196.48 51.5092 186.614 55.1343 183.744C55.8122 183.207 56.7536 183.264 57.421 183.813L73.8097 197.309Z" fill="#383838"/>
<path d="M76.2012 183.608C76.2012 183.608 68.2012 177.108 63.7012 169.108V158.108L77.3822 161.108L76.2012 183.608Z" fill="#1B1B1B"/>
<path d="M52.974 248.629C52.7522 236.369 62.7161 226.231 75.2491 226.004C87.7822 225.777 98.1061 235.548 98.3279 247.808C98.5496 260.068 88.5858 270.206 76.0528 270.432C63.5198 270.659 53.1958 260.888 52.974 248.629Z" fill="#778D71" stroke="#778D71" stroke-width="0.925747"/>
<path d="M144.5 255.608L140.5 207.5L95.3241 231.954L70.8241 210.954L74.418 255.608L144.5 255.608Z" fill="#4D4C4B"/>
<path d="M125.009 123.569H98.0089V147.069C98.0089 154.525 104.053 160.569 111.509 160.569V160.569C118.965 160.569 125.009 154.525 125.009 147.069V123.569Z" fill="#A0BD92"/>
<path d="M129.01 147.108H90.0095V147.108C90.0095 155.945 97.173 163.108 106.01 163.108H113.01C121.846 163.108 129.01 155.945 129.01 147.108V147.108Z" fill="#656565"/>
<path d="M125.009 132.608V142.108C120.001 143.673 114.543 142.675 110.413 139.438L98.5095 130.108L117.01 131.608L125.009 132.608Z" fill="#1B1B1B"/>
<path d="M104.964 243.107L126.544 373.017H126.706L127.944 410.196C127.98 411.274 128.865 412.13 129.943 412.13H195.839C199.962 412.13 202.027 407.145 199.112 404.229L167.919 373.017H168.665L141 237L104.964 243.107Z" fill="url(#paint1_linear_87_525)"/>
<path d="M69.8665 293.434V351.777L68.8665 372.608H68.6927L37.0892 404.231C34.1746 407.147 36.2396 412.131 40.3626 412.131H109.352C110.516 412.131 111.434 411.14 111.346 409.98L110.201 394.881L109.058 351.777L107.5 295.5L106 239.5L71.0003 211.5L69.8665 293.434Z" fill="url(#paint2_linear_87_525)"/>
<circle cx="162.5" cy="225.5" r="24.5" fill="#555555"/>
<path d="M129.951 284.567L119.815 294.916C118.68 296.074 118.178 297.71 118.467 299.305L119.99 307.718C120.272 309.275 121.274 310.607 122.693 311.309L135.885 317.835C137.84 318.802 140.196 318.391 141.707 316.818L152.124 305.979C153.236 304.822 153.725 303.202 153.439 301.623L151.93 293.287C151.637 291.671 150.57 290.301 149.074 289.623L135.587 283.512C133.673 282.644 131.421 283.066 129.951 284.567Z" fill="#575757"/>
<path d="M85.2001 284.635L72.8705 292.239C71.4908 293.09 70.6092 294.557 70.5054 296.175L69.9582 304.707C69.8569 306.286 70.5093 307.82 71.7172 308.843L82.9502 318.353C84.6147 319.763 87.0006 319.93 88.8459 318.768L101.566 310.755C102.924 309.9 103.788 308.446 103.891 306.845L104.433 298.39C104.538 296.751 103.832 295.164 102.543 294.146L90.9242 284.968C89.2755 283.665 86.9884 283.532 85.2001 284.635Z" fill="#575757"/>
<path d="M83.5 307L77.8689 304.748C72.2739 302.51 68.7387 296.942 69.0925 290.927L69.5 284L85.5 280L83.5 307Z" fill="#1B1B1B"/>
<g style="mix-blend-mode:multiply" opacity="0.4" filter="url(#filter0_g_87_525)">
<ellipse cx="8.33172" cy="7.86885" rx="8.33172" ry="7.86885" transform="matrix(-1 0 0 1 113.509 101.569)" fill="#B0C5B1"/>
</g>
<path d="M80.2753 354.739L86.8151 229.739C86.9541 227.082 89.1484 225 91.8083 225H122.244C124.875 225 127.056 227.039 127.233 229.664L135.641 354.664C135.835 357.551 133.546 360 130.652 360H85.2684C82.4044 360 80.1256 357.599 80.2753 354.739Z" fill="#DBDAD0"/>
<path d="M51.2819 270.326C50.6558 240.569 61.7115 225.065 67.9272 221.381L93.1612 232.923C93.9197 233.27 94.3832 234.051 94.3243 234.883L91.3805 276.433C91.1119 280.224 87.8682 283.108 84.0723 282.931L63.1314 281.956C56.7332 281.658 51.4167 276.73 51.2819 270.326Z" fill="#707070" stroke="#707070" stroke-width="4" stroke-linecap="round" stroke-linejoin="round"/>
<path d="M178.336 270.063C180.64 239.503 165.155 224.001 156.325 220.47L119.452 234.729C119.036 234.889 118.777 235.306 118.817 235.749L122.421 276.489C122.755 280.256 126.019 283.077 129.794 282.861L166.832 280.74C172.803 280.398 177.886 276.028 178.336 270.063Z" fill="#707070" stroke="#707070" stroke-width="4" stroke-linecap="round" stroke-linejoin="round"/>
<g style="mix-blend-mode:multiply" opacity="0.4" filter="url(#filter1_g_87_525)">
<ellipse cx="8.33172" cy="7.86885" rx="8.33172" ry="7.86885" transform="matrix(-1 0 0 1 150.006 101.569)" fill="#B0C5B1"/>
</g>
<path d="M55.5 151.945L71.5 220C71.5 220 82.5 234.5 107 237C127 237 155 220 155 220L158 181.5V153.5L125.143 148.365V130.574L111.009 132.569L97.8495 129.569V147.135L55.5 151.945Z" fill="#656565"/>
<path d="M89 151C89 151 110 168.5 130 151" stroke="#777777" stroke-width="18" stroke-linecap="square" stroke-linejoin="round"/>
<circle cx="3" cy="3" r="2.53713" transform="matrix(-1 0 0 1 145.009 101.516)" fill="#1B1B1B" stroke="#1B1B1B" stroke-width="0.925747"/>
<path d="M120.366 152.933L100.438 142.969C98.6548 142.077 97.5716 140.211 97.6822 138.22L98 132.5L112.993 138.304C113.33 138.434 113.68 138.528 114.038 138.583L126.5 140.5L123.178 151.712C122.824 152.905 121.479 153.489 120.366 152.933Z" fill="#1B1B1B"/>
<circle cx="3" cy="3" r="2.53713" transform="matrix(-1 0 0 1 122.257 101.516)" fill="#1B1B1B" stroke="#1B1B1B" stroke-width="0.925747"/>
<path d="M117.749 94.2036L122.501 96.8184" stroke="#DBDAD0" stroke-width="5.55448" stroke-linecap="round" style="mix-blend-mode:multiply"/>
<path d="M143.001 94.2036L138.272 96.8184" stroke="#DBDAD0" stroke-width="5.55448" stroke-linecap="round" style="mix-blend-mode:multiply"/>
<path d="M121.501 118V118C125.276 119.886 129.728 119.889 133.501 118V118" stroke="#1B1B1B" stroke-width="3" stroke-linecap="round" stroke-linejoin="round"/>
<path d="M154.275 163.489L192.772 181.599C195.636 182.946 196.544 186.581 194.649 189.116L168.044 224.722" stroke="#555555" stroke-width="31" stroke-linejoin="round"/>
<path d="M155.659 176.753L171.009 150.569L136.787 152.069L119 179.569L136.787 173.704L150.919 178.517C152.717 179.129 154.699 178.392 155.659 176.753Z" fill="#656565"/>
<path d="M174.217 146.307L125.009 136.569V150.006C125.009 154.561 127.813 158.651 132.115 160.152C138.826 162.492 148.449 165.567 152.5 165.5C164.905 165.295 171.552 157.421 176.113 151.027C177.381 149.25 176.359 146.731 174.217 146.307Z" fill="#4D4C4B"/>
<path d="M48.5752 146.738L97.7834 137V150.437C97.7834 154.992 94.979 159.082 90.6773 160.582C83.9661 162.923 74.3435 165.998 70.2924 165.931C57.8871 165.726 51.2404 157.852 46.6796 151.458C45.4117 149.681 46.4336 147.162 48.5752 146.738Z" fill="#4D4C4B"/>
<path d="M77.2637 141.668L89 155.5H97C97.7343 151.094 99.0617 143.292 99.8736 138.981C100.14 137.565 98.9025 136.145 97.4684 136.283C93.0798 136.705 84.7894 137.548 78.4549 138.459C76.9234 138.679 76.2627 140.488 77.2637 141.668Z" fill="#F57B35"/>
<path d="M145.236 141.668L133.5 155.5H125.5C124.766 151.094 123.438 143.292 122.626 138.981C122.36 137.565 123.597 136.145 125.032 136.283C129.42 136.705 137.711 137.548 144.045 138.459C145.577 138.679 146.237 140.488 145.236 141.668Z" fill="#F57B35"/>
<path d="M70 220V220C96.3133 236.522 130.101 236.385 156.5 220V220" stroke="#383838" stroke-width="11" stroke-linecap="round" stroke-linejoin="round"/>
<path d="M70 220V220C96.3133 236.522 130.101 236.385 156.5 220V220" stroke="black" stroke-opacity="0.2" stroke-width="11" stroke-linecap="round" stroke-linejoin="round"/>
<path d="M138.968 377.537L167.501 369.5L169.501 374.5L173.501 379.5H139.239C138.077 379.5 137.85 377.852 138.968 377.537Z" fill="#1B1B1B"/>
<path d="M95.5244 377.526L67.5007 371L59.5007 379.5H95.2976C96.4865 379.5 96.6823 377.796 95.5244 377.526Z" fill="#1B1B1B"/>
<path d="M86.5559 172.652C86.2336 171.782 85.0033 171.782 84.6809 172.652L83.176 176.72L79.2346 174.908C78.3914 174.521 77.5209 175.391 77.9085 176.234L79.721 180.175L75.6526 181.681C74.7825 182.003 74.7825 183.233 75.6526 183.556L79.721 185.061L77.9085 189.002C77.5211 189.845 78.3914 190.716 79.2346 190.328L83.176 188.516L84.6809 192.584C85.0033 193.454 86.2336 193.454 86.5559 192.584L88.0618 188.516L92.0022 190.328C92.8454 190.716 93.7158 189.845 93.3284 189.002L91.5169 185.061L95.5842 183.556C96.4543 183.233 96.4543 182.003 95.5842 181.681L91.5169 180.175L93.3284 176.234C93.7159 175.391 92.8455 174.521 92.0022 174.908L88.0618 176.72L86.5559 172.652Z" fill="url(#paint3_linear_87_525)"/>
<path d="M110.345 41.9939C123.515 44.2099 137.158 50.9602 145.5 67.4998C141.764 67.4998 124.001 69.6469 92.8329 69.6469C68.2107 69.6469 75.6791 95.9715 83.1471 115.494C84.8465 119.937 80.3912 123.468 77.065 120.067C65.4487 108.193 62.6862 93.5954 63.5075 80.4357C64.9967 56.5721 86.7665 38.0265 110.345 41.9939Z" fill="#8E8C8C"/>
<path d="M172.46 190.377L189.576 163.372C190.047 162.628 190.984 162.286 191.827 162.543C222.878 171.998 212.359 197.217 209.094 203.623C208.647 204.501 207.608 204.843 206.697 204.468L172.46 190.377Z" fill="#383838"/>
<path d="M169.582 101.953L128.503 142.409C127.477 143.42 126.045 143.946 124.611 143.801C83.8033 139.696 69.9107 108.486 69.9107 108.486C51.4182 58.1379 102.398 50.4956 102.398 50.4956C137.133 45.7909 151.802 75.9896 154.151 81.4385C154.39 81.9924 154.492 82.5766 154.551 83.1768C154.853 86.2716 156.786 96.444 169.12 100.211C169.872 100.441 170.142 101.401 169.582 101.953Z" fill="#7F7F7F"/>
<path d="M167.5 101C152.63 96.5 149.5 70.5 149.5 70.5" stroke="#9C9C9C" stroke-width="7" stroke-linecap="round" stroke-linejoin="round"/>
<path d="M164.099 100.971C135.543 108.093 99.955 92.7527 87.6279 82.57C86.9453 82.0061 85.89 82.4916 85.9475 83.3752C87.472 106.787 111.13 126.851 126.496 136.314C129.194 137.976 132.654 137.394 134.823 135.083L165.183 102.746C165.892 101.99 165.105 100.72 164.099 100.971Z" fill="#9C9C9C" stroke="#9C9C9C" stroke-width="7" stroke-linecap="round" stroke-linejoin="round"/>
<circle cx="90" cy="88" r="4" fill="#383838"/>
<path d="M127 93L128.425 93.5807C136.366 96.8158 144.951 98.1576 153.5 97.5V97.5" stroke="#1B1B1B" stroke-width="7" stroke-linecap="round" stroke-linejoin="round"/>
<path d="M180.562 37.5345C180.884 36.6639 182.116 36.6639 182.438 37.5345L184.446 42.9627C184.548 43.2364 184.764 43.4522 185.037 43.5535L190.465 45.5621C191.336 45.8843 191.336 47.1157 190.465 47.4379L185.037 49.4465C184.764 49.5478 184.548 49.7636 184.446 50.0373L182.438 55.4655C182.116 56.3361 180.884 56.3361 180.562 55.4655L178.554 50.0373C178.452 49.7636 178.236 49.5478 177.963 49.4465L172.535 47.4379C171.664 47.1157 171.664 45.8843 172.535 45.5621L177.963 43.5535C178.236 43.4522 178.452 43.2364 178.554 42.9627L180.562 37.5345Z" fill="#DBDAD0"/>
<path d="M169.062 57.5345C169.384 56.6639 170.616 56.6639 170.938 57.5345L172.001 60.408C172.102 60.6818 172.318 60.8976 172.592 60.9988L175.465 62.0621C176.336 62.3843 176.336 63.6157 175.465 63.9379L172.592 65.0012C172.318 65.1024 172.102 65.3182 172.001 65.592L170.938 68.4655C170.616 69.3361 169.384 69.3361 169.062 68.4655L167.999 65.592C167.898 65.3182 167.682 65.1024 167.408 65.0012L164.535 63.9379C163.664 63.6157 163.664 62.3843 164.535 62.0621L167.408 60.9988C167.682 60.8976 167.898 60.6818 167.999 60.408L169.062 57.5345Z" fill="#E64C35"/>
<circle cx="95" cy="161" r="8" fill="#2D2D2D"/>
<circle cx="129" cy="161" r="8" fill="#2D2D2D"/>
<path d="M84 348.25H132" stroke="#F57B35" stroke-width="7" stroke-linecap="round" stroke-linejoin="round"/>
<path d="M84.5 335.25H131" stroke="#F57B35" stroke-width="7" stroke-linecap="round" stroke-linejoin="round"/>
<path d="M72.5228 53.2236C70.1704 49.6572 71.1546 44.8591 74.7209 42.5068V42.5068C78.2873 40.1544 83.0854 41.1386 85.4378 44.705L86.2675 45.9629L73.3525 54.4816L72.5228 53.2236Z" fill="#4D4C4B"/>
<path d="M74.6409 35.0466L76.6147 39.9684C77.551 42.3031 75.3709 44.6842 72.9628 43.9569L67.928 42.4361C67.0989 42.1857 66.3063 41.827 65.5709 41.3694L62.7171 39.5935C61.1438 38.6145 59.1398 39.9033 59.3779 41.7409L59.41 41.9892C60.1591 47.7702 55.5484 52.8449 49.7223 52.6519C48.3963 52.608 47.3478 53.7645 47.5211 55.0798L48.2633 60.7146C49.2517 68.2185 43.6957 74.9971 36.1438 75.5011C30.8068 75.8573 25.6808 73.3578 22.6749 68.9334L21.8852 67.7711C15.3257 58.1161 19.3696 44.8705 30.2033 40.5257L38.4205 37.2303C40.7675 36.289 42.0423 33.7436 41.3903 31.3004L40.437 27.7283C39.0788 22.6386 40.4952 17.2095 44.1667 13.4319L45.7633 11.7892C49.5957 7.84618 55.2697 6.30017 60.5725 7.75404C66.0647 9.25983 70.2412 13.7297 71.3713 19.3113L74.381 34.1777C74.4411 34.4746 74.5281 34.7655 74.6409 35.0466Z" fill="#F57B35"/>
<path d="M156.5 313.5L132 299L131 284.5L150.5 283.5L156.5 313.5Z" fill="#1B1B1B"/>
<path d="M141 340.5L135.5 356.5L131 284.5L139 296.5L141 340.5Z" fill="#1B1B1B"/>
<defs>
<filter id="filter0_g_87_525" x="86.6898" y="91.4134" width="36.9743" height="36.0487" filterUnits="userSpaceOnUse" color-interpolation-filters="sRGB">
<feFlood flood-opacity="0" result="BackgroundImageFix"/>
<feBlend mode="normal" in="SourceGraphic" in2="BackgroundImageFix" result="shape"/>
<feTurbulence type="fractalNoise" baseFrequency="2.1604177951812744 2.1604177951812744" numOctaves="3" seed="1626" />
<feDisplacementMap in="shape" scale="20.310886383056641" xChannelSelector="R" yChannelSelector="G" result="displacedImage" width="100%" height="100%" />
<feMerge result="effect1_texture_87_525">
<feMergeNode in="displacedImage"/>
</feMerge>
</filter>
<filter id="filter1_g_87_525" x="123.188" y="91.4134" width="36.9743" height="36.0487" filterUnits="userSpaceOnUse" color-interpolation-filters="sRGB">
<feFlood flood-opacity="0" result="BackgroundImageFix"/>
<feBlend mode="normal" in="SourceGraphic" in2="BackgroundImageFix" result="shape"/>
<feTurbulence type="fractalNoise" baseFrequency="2.1604177951812744 2.1604177951812744" numOctaves="3" seed="1626" />
<feDisplacementMap in="shape" scale="20.310886383056641" xChannelSelector="R" yChannelSelector="G" result="displacedImage" width="100%" height="100%" />
<feMerge result="effect1_texture_87_525">
<feMergeNode in="displacedImage"/>
</feMerge>
</filter>
<linearGradient id="paint0_linear_87_525" x1="144.001" y1="158.204" x2="144.001" y2="411.204" gradientUnits="userSpaceOnUse">
<stop/>
<stop offset="1" stop-opacity="0"/>
</linearGradient>
<linearGradient id="paint1_linear_87_525" x1="152.721" y1="237" x2="152.721" y2="412.13" gradientUnits="userSpaceOnUse">
<stop stop-color="#4D4C4B"/>
<stop offset="0.427885" stop-color="#686868"/>
<stop offset="1" stop-color="#3A3A3A"/>
</linearGradient>
<linearGradient id="paint2_linear_87_525" x1="73.5385" y1="211.5" x2="73.5385" y2="412.131" gradientUnits="userSpaceOnUse">
<stop stop-color="#4D4C4B"/>
<stop offset="0.427885" stop-color="#686868"/>
<stop offset="1" stop-color="#3A3A3A"/>
</linearGradient>
<linearGradient id="paint3_linear_87_525" x1="70.796" y1="162.941" x2="95.7958" y2="210.44" gradientUnits="userSpaceOnUse">
<stop stop-color="#3A342E"/>
<stop offset="1" stop-color="#7A7A7A"/>
</linearGradient>
</defs>
</svg>
