<svg width="133" height="43" viewBox="0 0 133 43" fill="none" xmlns="http://www.w3.org/2000/svg">
<path d="M5.52322 42.5556C2.24544 42.5556 0.689887 40.8334 0.689887 37.3889C0.689887 33.8334 0.800998 29.7778 1.301 26.7222H5.301C2.801 31.5 1.74544 34.9445 1.74544 36.7222C1.74544 38.3334 2.801 38.7778 5.52322 38.7778C7.35655 38.7778 7.801 37.6667 7.801 36.2222C7.801 28.8889 0.412109 15.8889 0.412109 7.88892C0.412109 2.94447 3.35655 0.888916 6.85655 0.888916C9.74544 0.888916 11.1343 2.61114 11.1343 6.05558C11.1343 8.16669 11.1343 12.3889 10.5232 16.1667H6.85655C9.35655 10.1111 10.0788 8.11114 10.0788 6.61114C10.0788 5.11114 9.18989 4.66669 6.85655 4.66669C5.02322 4.66669 4.57878 5.7778 4.57878 7.22225C4.57878 13.5 11.9677 29.2778 11.9677 35.7222C11.9677 40.5 9.02322 42.5556 5.52322 42.5556Z" fill="#DBDAD0"/>
<path d="M5.52322 42.5556C2.24544 42.5556 0.689887 40.8334 0.689887 37.3889C0.689887 33.8334 0.800998 29.7778 1.301 26.7222H5.301C2.801 31.5 1.74544 34.9445 1.74544 36.7222C1.74544 38.3334 2.801 38.7778 5.52322 38.7778C7.35655 38.7778 7.801 37.6667 7.801 36.2222C7.801 28.8889 0.412109 15.8889 0.412109 7.88892C0.412109 2.94447 3.35655 0.888916 6.85655 0.888916C9.74544 0.888916 11.1343 2.61114 11.1343 6.05558C11.1343 8.16669 11.1343 12.3889 10.5232 16.1667H6.85655C9.35655 10.1111 10.0788 8.11114 10.0788 6.61114C10.0788 5.11114 9.18989 4.66669 6.85655 4.66669C5.02322 4.66669 4.57878 5.7778 4.57878 7.22225C4.57878 13.5 11.9677 29.2778 11.9677 35.7222C11.9677 40.5 9.02322 42.5556 5.52322 42.5556Z" fill="url(#paint0_linear_76_49)" fill-opacity="0.37"/>
<path d="M19.222 1.44447V42H15.0553V1.44447H19.222Z" fill="#DBDAD0"/>
<path d="M19.222 1.44447V42H15.0553V1.44447H19.222Z" fill="url(#paint1_linear_76_49)" fill-opacity="0.37"/>
<path d="M29.9638 26.3889L33.3526 25.9445L36.4638 42H32.2415L30.1304 28.6667C29.9082 27.2778 28.9638 26.5556 27.2415 27.3334V42H23.0749V1.44447H28.0749C32.8526 1.44447 35.6304 3.38892 35.6304 8.44447V17.8334C35.6304 22.2223 33.1304 24.2222 29.9082 25.7222L29.9638 26.3889ZM27.686 5.22225H27.2415V25.8334L28.2971 25.3889C30.7971 24.3334 31.4638 23.1111 31.4638 21.1667V9.83336C31.4638 6.22225 30.4638 5.22225 27.686 5.22225Z" fill="#DBDAD0"/>
<path d="M29.9638 26.3889L33.3526 25.9445L36.4638 42H32.2415L30.1304 28.6667C29.9082 27.2778 28.9638 26.5556 27.2415 27.3334V42H23.0749V1.44447H28.0749C32.8526 1.44447 35.6304 3.38892 35.6304 8.44447V17.8334C35.6304 22.2223 33.1304 24.2222 29.9082 25.7222L29.9638 26.3889ZM27.686 5.22225H27.2415V25.8334L28.2971 25.3889C30.7971 24.3334 31.4638 23.1111 31.4638 21.1667V9.83336C31.4638 6.22225 30.4638 5.22225 27.686 5.22225Z" fill="url(#paint2_linear_76_49)" fill-opacity="0.37"/>
<path d="M54.9384 26.3889L58.3273 25.9445L61.4384 42H57.2161L55.105 28.6667C54.8828 27.2778 53.9384 26.5556 52.2161 27.3334V42H48.0495V1.44447H53.0495C57.8273 1.44447 60.605 3.38892 60.605 8.44447V17.8334C60.605 22.2223 58.105 24.2222 54.8828 25.7222L54.9384 26.3889ZM52.6606 5.22225H52.2161V25.8334L53.2717 25.3889C55.7717 24.3334 56.4384 23.1111 56.4384 21.1667V9.83336C56.4384 6.22225 55.4384 5.22225 52.6606 5.22225Z" fill="#DBDAD0"/>
<path d="M54.9384 26.3889L58.3273 25.9445L61.4384 42H57.2161L55.105 28.6667C54.8828 27.2778 53.9384 26.5556 52.2161 27.3334V42H48.0495V1.44447H53.0495C57.8273 1.44447 60.605 3.38892 60.605 8.44447V17.8334C60.605 22.2223 58.105 24.2222 54.8828 25.7222L54.9384 26.3889ZM52.6606 5.22225H52.2161V25.8334L53.2717 25.3889C55.7717 24.3334 56.4384 23.1111 56.4384 21.1667V9.83336C56.4384 6.22225 55.4384 5.22225 52.6606 5.22225Z" fill="url(#paint3_linear_76_49)" fill-opacity="0.37"/>
<path d="M70.3631 42.5556C66.5297 42.5556 64.4186 40.8334 64.4186 36.0556V8.38892C64.4186 2.94447 67.4186 0.888916 71.0297 0.888916C74.9186 0.888916 76.9742 2.61114 76.9742 7.38892V35.0556C76.9742 40.5 73.9742 42.5556 70.3631 42.5556ZM70.6408 4.66669C68.9742 4.66669 68.5853 5.88891 68.5853 7.83336V34.1667C68.5853 38.1667 69.6964 38.7778 71.0297 38.7778C72.4742 38.7778 72.8075 37.5556 72.8075 35.6111V9.27781C72.8075 5.27781 71.752 4.66669 70.6408 4.66669Z" fill="#DBDAD0"/>
<path d="M70.3631 42.5556C66.5297 42.5556 64.4186 40.8334 64.4186 36.0556V8.38892C64.4186 2.94447 67.4186 0.888916 71.0297 0.888916C74.9186 0.888916 76.9742 2.61114 76.9742 7.38892V35.0556C76.9742 40.5 73.9742 42.5556 70.3631 42.5556ZM70.6408 4.66669C68.9742 4.66669 68.5853 5.88891 68.5853 7.83336V34.1667C68.5853 38.1667 69.6964 38.7778 71.0297 38.7778C72.4742 38.7778 72.8075 37.5556 72.8075 35.6111V9.27781C72.8075 5.27781 71.752 4.66669 70.6408 4.66669Z" fill="url(#paint4_linear_76_49)" fill-opacity="0.37"/>
<path d="M95.4544 29.8334L97.3433 1.44447H102.343L95.2322 42H93.6767L90.2322 14.8334H89.8433L87.4544 42H85.8989L79.1211 1.44447H83.7878L86.01 18.7222L86.5655 29.8334H87.1767L89.3989 1.44447H92.1211L93.7878 18.7222L94.8433 29.8334H95.4544Z" fill="#DBDAD0"/>
<path d="M95.4544 29.8334L97.3433 1.44447H102.343L95.2322 42H93.6767L90.2322 14.8334H89.8433L87.4544 42H85.8989L79.1211 1.44447H83.7878L86.01 18.7222L86.5655 29.8334H87.1767L89.3989 1.44447H92.1211L93.7878 18.7222L94.8433 29.8334H95.4544Z" fill="url(#paint5_linear_76_49)" fill-opacity="0.37"/>
<path d="M117.496 42H112.829L111.385 30.6111H107.218L106.496 42H101.496L107.607 7.05558L105.218 1.44447H110.718L117.496 42ZM108.552 10.3334L107.329 29.5H111.218L110.218 21.4445L109.163 10.3334H108.552Z" fill="#DBDAD0"/>
<path d="M117.496 42H112.829L111.385 30.6111H107.218L106.496 42H101.496L107.607 7.05558L105.218 1.44447H110.718L117.496 42ZM108.552 10.3334L107.329 29.5H111.218L110.218 21.4445L109.163 10.3334H108.552Z" fill="url(#paint6_linear_76_49)" fill-opacity="0.37"/>
<path d="M128.567 22.3334L128.178 1.44447H132.178V42H128.234L122.901 8.27781H122.234L123.012 21.1111L123.345 42H119.401V1.44447H123.345L128.678 35.1667H129.345L128.567 22.3334Z" fill="#DBDAD0"/>
<path d="M128.567 22.3334L128.178 1.44447H132.178V42H128.234L122.901 8.27781H122.234L123.012 21.1111L123.345 42H119.401V1.44447H123.345L128.678 35.1667H129.345L128.567 22.3334Z" fill="url(#paint7_linear_76_49)" fill-opacity="0.37"/>
<defs>
<linearGradient id="paint0_linear_76_49" x1="66.3603" y1="-2" x2="66.3603" y2="45" gradientUnits="userSpaceOnUse">
<stop stop-opacity="0.8"/>
<stop offset="0.476748" stop-color="white" stop-opacity="0"/>
<stop offset="1" stop-opacity="0.8"/>
</linearGradient>
<linearGradient id="paint1_linear_76_49" x1="66.3603" y1="-2" x2="66.3603" y2="45" gradientUnits="userSpaceOnUse">
<stop stop-opacity="0.8"/>
<stop offset="0.476748" stop-color="white" stop-opacity="0"/>
<stop offset="1" stop-opacity="0.8"/>
</linearGradient>
<linearGradient id="paint2_linear_76_49" x1="66.3603" y1="-2" x2="66.3603" y2="45" gradientUnits="userSpaceOnUse">
<stop stop-opacity="0.8"/>
<stop offset="0.476748" stop-color="white" stop-opacity="0"/>
<stop offset="1" stop-opacity="0.8"/>
</linearGradient>
<linearGradient id="paint3_linear_76_49" x1="66.3603" y1="-2" x2="66.3603" y2="45" gradientUnits="userSpaceOnUse">
<stop stop-opacity="0.8"/>
<stop offset="0.476748" stop-color="white" stop-opacity="0"/>
<stop offset="1" stop-opacity="0.8"/>
</linearGradient>
<linearGradient id="paint4_linear_76_49" x1="66.3603" y1="-2" x2="66.3603" y2="45" gradientUnits="userSpaceOnUse">
<stop stop-opacity="0.8"/>
<stop offset="0.476748" stop-color="white" stop-opacity="0"/>
<stop offset="1" stop-opacity="0.8"/>
</linearGradient>
<linearGradient id="paint5_linear_76_49" x1="66.3603" y1="-2" x2="66.3603" y2="45" gradientUnits="userSpaceOnUse">
<stop stop-opacity="0.8"/>
<stop offset="0.476748" stop-color="white" stop-opacity="0"/>
<stop offset="1" stop-opacity="0.8"/>
</linearGradient>
<linearGradient id="paint6_linear_76_49" x1="66.3603" y1="-2" x2="66.3603" y2="45" gradientUnits="userSpaceOnUse">
<stop stop-opacity="0.8"/>
<stop offset="0.476748" stop-color="white" stop-opacity="0"/>
<stop offset="1" stop-opacity="0.8"/>
</linearGradient>
<linearGradient id="paint7_linear_76_49" x1="66.3603" y1="-2" x2="66.3603" y2="45" gradientUnits="userSpaceOnUse">
<stop stop-opacity="0.8"/>
<stop offset="0.476748" stop-color="white" stop-opacity="0"/>
<stop offset="1" stop-opacity="0.8"/>
</linearGradient>
</defs>
</svg>
